<svg width="106" height="90" viewBox="0 0 106 90" fill="none" xmlns="http://www.w3.org/2000/svg">
<path d="M52.6876 86.4496C51.1376 86.4496 49.6053 86.0366 48.2552 85.2506L21.5582 69.9388C20.217 69.1838 19.0933 68.0781 18.3072 66.7459C17.5255 65.4136 17.1125 63.8904 17.1125 62.3406V14.3845C17.1125 13.1233 17.601 11.9332 18.4982 11.0406C19.4619 10.0769 20.6522 9.84602 21.4383 9.69503L51.7327 3.81987C52.1902 3.73105 52.6565 3.68665 53.1184 3.68665C53.5803 3.68665 54.0733 3.73549 54.5396 3.82875C54.5396 3.82875 75.6316 8.0253 83.9902 9.69503C86.6106 10.219 88.3072 12.062 88.3072 14.3845V62.3539C88.3205 63.9037 87.9163 65.4269 87.1346 66.7592C86.3485 68.0958 85.2115 69.2016 83.8436 69.9521L57.16 85.2551C55.8143 86.0366 54.2643 86.4496 52.6787 86.4496H52.6876Z" fill="white"/>
<path d="M53.1273 4.59697C53.5448 4.59697 53.9623 4.63694 54.3709 4.72131C54.3709 4.72131 75.4583 8.91786 83.8169 10.5876C85.9932 11.0228 87.4011 12.5149 87.4011 14.3845V62.3539C87.4144 63.7483 87.0502 65.1116 86.353 66.2973C85.6512 67.4919 84.643 68.4777 83.4083 69.1527L56.7114 84.4646C55.5034 85.1662 54.1088 85.5392 52.6831 85.5392C51.293 85.5392 49.9162 85.1662 48.7126 84.4646L22.0112 69.1483C20.8032 68.4688 19.795 67.4785 19.0933 66.284C18.396 65.0938 18.0274 63.7261 18.0274 62.3406V14.3845C18.0274 13.3631 18.4226 12.4039 19.1466 11.6845C19.9149 10.9162 20.8965 10.7253 21.616 10.5876L51.9104 4.71687C52.3101 4.64138 52.7187 4.60141 53.1228 4.60141M53.1228 2.78069C52.5988 2.78069 52.0747 2.82953 51.5639 2.93167L21.2695 8.8024C20.4257 8.96671 19.0178 9.23759 17.8586 10.4011C16.7927 11.4669 16.2064 12.8835 16.2064 14.3933V62.345C16.2064 64.0591 16.6639 65.7422 17.5255 67.2121C18.3871 68.6864 19.6307 69.9077 21.123 70.7425L47.811 86.0499C49.2855 86.9114 50.9777 87.3688 52.6876 87.3688C54.433 87.3688 56.143 86.9114 57.6308 86.0499L84.3055 70.7514C85.8111 69.921 87.0636 68.7042 87.9252 67.2299C88.7912 65.76 89.2398 64.0725 89.2221 62.3494V14.3845C89.2221 11.6489 87.1924 9.40634 84.1767 8.8024C75.9114 7.15042 54.9393 2.97608 54.7262 2.93611C54.2021 2.82953 53.6602 2.77625 53.1273 2.77625L53.1228 2.78069Z" fill="black"/>
<path fill-rule="evenodd" clip-rule="evenodd" d="M52.6876 83.7229C51.6172 83.7229 50.5602 83.4343 49.6231 82.8881L22.9084 67.5673C21.9757 67.0433 21.2029 66.284 20.6655 65.3647C20.1326 64.4499 19.8483 63.4063 19.8483 62.3405V14.3845C19.8483 13.8516 20.0571 13.3497 20.4346 12.9723C20.781 12.6259 21.2651 12.5104 21.9669 12.3772L52.2612 6.50649C52.5455 6.4532 52.8386 6.42212 53.1273 6.42212C53.416 6.42212 53.7224 6.4532 54.0156 6.51093C54.0156 6.51093 75.1031 10.7075 83.4617 12.3772C83.9591 12.4749 85.5846 12.9146 85.5846 14.3933V62.3761C85.5935 63.4419 85.3181 64.481 84.7852 65.3869C84.2478 66.3017 83.4794 67.0522 82.5556 67.5585L55.8054 82.9014C54.8683 83.4432 53.7935 83.7318 52.6876 83.7318V83.7229Z" fill="url(#paint0_linear_265_8159)"/>
<path d="M53.1274 7.02166C53.385 7.02166 53.647 7.04831 53.9002 7.09715C54.1089 7.13712 75.0854 11.3115 83.3463 12.9634C83.7282 13.0389 84.9807 13.3675 84.9807 14.3845V62.3761C84.9895 63.3309 84.7408 64.259 84.2656 65.0717C83.7859 65.8888 83.0931 66.5638 82.267 67.0167L82.2093 67.0478L55.5035 82.3685C54.6641 82.857 53.6914 83.1146 52.6966 83.1146C51.7328 83.1146 50.7823 82.857 49.9296 82.3596L23.2105 67.0345C22.38 66.5682 21.6827 65.8843 21.1986 65.0583C20.7189 64.2368 20.4658 63.2998 20.4658 62.3406V14.38C20.4658 14.007 20.6079 13.6606 20.8744 13.3942C21.0964 13.1677 21.5006 13.0789 22.0913 12.9634L52.3857 7.09271C52.6344 7.04387 52.8831 7.02166 53.1363 7.02166M53.1363 5.80933C52.8076 5.80933 52.4789 5.84041 52.1547 5.90258C52.1547 5.90258 31.2449 9.95702 21.8603 11.7733C21.1764 11.9065 20.5102 12.0442 20.0172 12.5371C19.5242 13.03 19.2533 13.6828 19.2533 14.38V62.3361C19.2533 63.5085 19.5642 64.6631 20.1549 65.6667C20.7456 66.6748 21.5983 67.5141 22.6198 68.087L49.33 83.4077C50.3649 84.0072 51.524 84.3225 52.701 84.3225C53.9224 84.3225 55.0949 84.0072 56.1208 83.4121L82.8222 68.0958C82.8222 68.0958 82.8488 68.0825 82.8621 68.0736C83.8792 67.5141 84.732 66.6837 85.3227 65.68C85.9089 64.6809 86.2154 63.5351 86.2065 62.3628V14.3845C86.2065 12.9457 85.0073 12.0575 83.5994 11.7733C75.2408 10.0991 54.1533 5.90702 54.1533 5.90702C53.8202 5.84041 53.4827 5.80933 53.1451 5.80933H53.1363Z" fill="#1F9C7D"/>
<path fill-rule="evenodd" clip-rule="evenodd" d="M22.6909 68.0915L49.4011 83.4122C50.4359 84.0117 51.5951 84.327 52.772 84.327C52.7809 84.327 52.7898 84.327 52.7987 84.327V5.82715C52.6077 5.84047 52.4167 5.86712 52.2258 5.90264C52.2258 5.90264 31.3159 9.95708 21.9314 11.7734C21.2474 11.9066 20.5812 12.0443 20.0882 12.5372C19.5952 13.0301 19.3243 13.6829 19.3243 14.3801V62.3362C19.3243 63.5086 19.6352 64.6632 20.2259 65.6668C20.8166 66.6748 21.6693 67.5142 22.6909 68.087V68.0915Z" fill="#10101C" fill-opacity="0.2"/>
<path d="M102.968 15.6279C102.897 15.6146 102.826 15.6013 102.755 15.5924C101.427 15.4103 98.9531 15.6013 97.3275 15.8855C93.8278 16.5028 91.727 17.9149 90.4746 19.4914C90.3236 19.336 90.177 19.1939 90.0304 19.074C88.1118 17.5286 85.5891 17.9727 84.6386 18.1414C83.7015 18.3057 81.3565 18.7276 79.5489 20.6549C79.1092 20.3174 78.5496 20.051 77.8389 19.9177C76.7997 19.7223 75.3696 19.7534 73.9172 20.011C71.6433 20.4107 69.7646 21.2322 68.2545 22.4712C67.4595 21.8095 66.4158 21.5342 65.3499 21.7251L62.0855 22.3024C60.8863 22.5156 59.8826 23.2838 59.3452 24.3452C57.7285 23.4659 55.6411 23.235 53.1007 23.6835C51.1554 24.0255 49.4321 24.4829 48.4373 24.807C47.9976 24.9536 47.5046 25.1579 47.0249 25.4643C46.5808 25.3088 46.1011 25.2422 45.6037 25.2689C44.7465 25.3044 43.3786 25.3932 41.3267 25.7574C40.0653 25.9794 37.8402 26.3746 35.9438 27.9556C35.1399 27.4271 34.1539 27.2228 33.1768 27.396L30.8273 27.809C29.8769 27.9778 28.5356 28.5018 27.5496 30.0383L26.8257 31.144C26.7991 31.1263 26.7724 31.0996 26.7457 31.0819C25.8708 29.6697 24.2897 28.9636 22.562 29.2656L20.4879 29.6297C19.1289 29.8695 17.9519 30.8065 17.3434 32.0455C17.2946 32.0011 17.2413 31.9523 17.1924 31.9123C15.2738 30.3669 12.7511 30.811 11.8006 30.9797C10.5215 31.2062 6.63536 31.8901 5.05869 36.2288L0.239829 49.4579C0.222064 49.5067 0.204301 49.5644 0.186536 49.6133C0.133239 49.7909 0 50.2084 0 50.7412C0 51.7804 0.448571 52.7574 1.23025 53.4146C1.85648 53.9431 2.65148 54.2228 3.47757 54.2228C3.68631 54.2228 3.8995 54.2051 4.10824 54.1695L4.37472 54.1207C4.77 54.2806 5.19637 54.3694 5.63162 54.3694C5.83148 54.3694 6.03578 54.3516 6.23564 54.3161L6.55098 54.2584C6.94182 54.4227 7.3593 54.5159 7.79011 54.5159C7.98109 54.5159 8.17207 54.4982 8.36748 54.4671L8.73167 54.4005C9.11363 54.5648 9.52667 54.6625 9.95304 54.6625C10.1351 54.6625 10.3172 54.6447 10.4993 54.6136L10.9124 54.5426C11.2854 54.7113 11.6896 54.809 12.1115 54.809C12.2847 54.809 12.458 54.7957 12.6312 54.7646L13.0931 54.6847C13.4573 54.8579 13.857 54.96 14.27 54.96C14.4344 54.96 14.5987 54.9467 14.763 54.9156L15.2738 54.8268C15.6291 55.0044 16.0244 55.1065 16.433 55.1065C16.5884 55.1065 16.7439 55.0932 16.8949 55.0666L17.4545 54.9689C17.8009 55.1554 18.1917 55.2575 18.5959 55.2575C18.738 55.2575 18.8846 55.2442 19.0311 55.222L19.6396 55.1154C19.9771 55.3064 20.3591 55.4085 20.7588 55.4085C20.8921 55.4085 21.0297 55.3952 21.1674 55.373L21.8336 55.2531C22.1578 55.4485 22.5309 55.5551 22.9173 55.5551C23.0417 55.5551 23.1705 55.5462 23.2948 55.524L25.4089 55.151C25.9241 55.0621 26.386 54.7868 26.7324 54.3783C26.8079 54.3738 26.879 54.3649 26.9545 54.3516L27.2299 54.3028C27.6651 54.5648 28.1803 54.6625 28.6866 54.5736L30.7208 54.2139C30.9295 54.1784 31.1249 54.1029 31.3114 54.0097C31.3958 54.0186 31.4802 54.0274 31.5691 54.0274C31.6979 54.0274 31.84 54.0141 31.9821 53.9875L33.954 53.6411C34.6869 53.5123 35.2953 52.9927 35.5929 52.2911C35.9082 52.4776 36.2635 52.5797 36.6277 52.5931C37.063 52.8861 37.6004 52.9972 38.1245 52.9039L40.0875 52.5575C40.8426 52.4243 41.3311 52.0069 41.6154 51.5273C42.0995 51.7715 42.7346 51.9536 43.5651 51.9536C43.916 51.9536 44.2979 51.9225 44.7199 51.847C45.9101 51.6383 46.6963 51.4162 47.3092 51.2297C47.3269 51.2253 47.3402 51.2209 47.358 51.212C47.5534 51.1454 47.7355 51.0565 47.8999 50.9544C48.0864 51.0077 48.2774 51.0432 48.4772 51.0432C48.6016 51.0432 48.7304 51.0343 48.8592 51.0077L50.8001 50.6658C51.3152 50.5725 51.7816 50.2972 52.1236 49.9064C52.5766 50.1817 53.1051 50.2572 53.5714 50.1773L55.6722 49.8087C55.9431 49.7598 56.1963 49.6666 56.4228 49.5334C56.5516 49.5556 56.6848 49.5733 56.8181 49.5733C56.9424 49.5733 57.0668 49.5644 57.1956 49.5422L59.1587 49.1959C59.8249 49.0804 60.3711 48.6896 60.7131 48.1434C60.802 48.0812 60.8819 48.0057 60.9618 47.9347C61.6192 48.3077 62.392 48.4986 63.2358 48.4986C63.5778 48.4986 63.9331 48.4676 64.2973 48.4054C65.0301 48.2766 65.7407 48.0635 66.2781 47.8237C66.3892 47.8414 66.5046 47.8547 66.6201 47.8547C66.7445 47.8547 66.8733 47.8459 66.9976 47.8237L69.1073 47.4506C69.6136 47.3618 70.0755 47.0909 70.4219 46.6868C70.5729 46.6557 70.715 46.6158 70.8571 46.558C71.3057 46.8511 71.852 46.9666 72.3894 46.8689L74.4235 46.5092C74.77 46.447 75.0809 46.3005 75.3518 46.1006C75.6316 46.1273 75.9158 46.145 76.209 46.145C76.8085 46.145 77.4348 46.0873 78.1054 45.9674C79.1936 45.7764 80.1529 45.4034 80.9612 44.8927C81.7296 44.6751 82.4313 44.3732 83.0442 43.9912C83.8037 43.7692 84.501 43.4672 85.1183 43.0942C85.8689 42.8677 86.5617 42.5702 87.1791 42.2016C87.9297 41.9707 88.6181 41.6732 89.2399 41.309C89.986 41.0781 90.6744 40.7761 91.3006 40.4164C92.0423 40.1811 92.7308 39.8791 93.3614 39.5238C94.1031 39.284 94.7871 38.982 95.4222 38.6312C96.1639 38.3914 96.8479 38.085 97.4874 37.7342C101.915 36.2732 104.674 32.836 104.674 28.5595C104.674 27.1607 104.323 25.9261 103.656 24.9092C104.558 24.3452 105.211 23.4037 105.402 22.2891L105.842 19.6824C105.873 19.5047 105.886 19.3227 105.886 19.1406V19.0784C105.886 17.6485 104.984 16.0232 102.977 15.6102L102.968 15.6279Z" fill="black"/>
<mask id="mask0_265_8159" style="mask-type:luminance" maskUnits="userSpaceOnUse" x="11" y="37" width="2" height="2">
<path d="M12.0227 37.5122V38.2716C12.0227 38.1117 12.0227 38.014 11.9028 38.014C11.885 38.014 11.8673 38.014 11.8451 38.0185C11.6674 38.0495 11.6452 38.1561 11.5875 38.3471V37.5877C11.6452 37.3967 11.6674 37.2946 11.8451 37.2591C11.8673 37.2591 11.885 37.2546 11.9028 37.2546C12.0227 37.2546 12.0227 37.3523 12.0227 37.5122Z" fill="white"/>
</mask>
<g mask="url(#mask0_265_8159)">
<path d="M12.0227 37.5122V38.2716C12.0227 38.1117 12.0227 38.014 11.9028 38.014C11.885 38.014 11.8673 38.014 11.8451 38.0185C11.6674 38.0495 11.6452 38.1561 11.5875 38.3471V37.5877C11.6452 37.3967 11.6674 37.2946 11.8451 37.2591C11.8673 37.2591 11.885 37.2546 11.9028 37.2546C12.0227 37.2546 12.0227 37.3523 12.0227 37.5122Z" fill="#BABABA"/>
</g>
<path d="M12.1027 42.6191V43.3785L12.0227 38.2716V37.5122L12.1027 42.6191Z" fill="#B3B3B3"/>
<path d="M11.583 37.5876V38.347L9.71323 43.8003V43.0454L11.583 37.5876Z" fill="#B3B3B3"/>
<path d="M12.1204 45.8475V46.6025L8.57623 47.2286V46.4737L12.1204 45.8475Z" fill="#B3B3B3"/>
<mask id="mask1_265_8159" style="mask-type:luminance" maskUnits="userSpaceOnUse" x="15" y="47" width="2" height="3">
<path d="M16.2864 47.8813V48.6407C16.2864 48.885 16.1265 49.0892 15.9044 49.1292V48.3698C16.1265 48.3299 16.2864 48.1212 16.2864 47.8813Z" fill="white"/>
</mask>
<g mask="url(#mask1_265_8159)">
<path d="M16.2864 47.8813V48.6407C16.2864 48.885 16.1265 49.0892 15.9044 49.1292V48.3698C16.1265 48.3299 16.2864 48.1212 16.2864 47.8813Z" fill="#BABABA"/>
</g>
<path d="M12.1826 48.6408V49.4002L12.1204 46.6025V45.8475L12.1826 48.6408Z" fill="#B3B3B3"/>
<path d="M15.9089 48.3699V49.1292L12.5201 49.7243V48.9649L15.9089 48.3699Z" fill="#B3B3B3"/>
<mask id="mask2_265_8159" style="mask-type:luminance" maskUnits="userSpaceOnUse" x="12" y="48" width="1" height="2">
<path d="M12.5201 48.9649V49.7243C12.5201 49.7243 12.4802 49.7287 12.4624 49.7287C12.2936 49.7287 12.1782 49.5822 12.1782 49.4001V48.6407C12.1782 48.8228 12.2936 48.9694 12.4624 48.9694C12.4802 48.9694 12.4979 48.9694 12.5201 48.9649Z" fill="white"/>
</mask>
<g mask="url(#mask2_265_8159)">
<path d="M12.5201 48.9649V49.7243C12.5201 49.7243 12.4802 49.7287 12.4624 49.7287C12.2936 49.7287 12.1782 49.5822 12.1782 49.4001V48.6407C12.1782 48.8228 12.2936 48.9694 12.4624 48.9694C12.4802 48.9694 12.4979 48.9694 12.5201 48.9649Z" fill="#BABABA"/>
</g>
<path d="M8.57625 46.4736V47.2286L7.52365 50.2217V49.4623L8.57625 46.4736Z" fill="#B3B3B3"/>
<mask id="mask3_265_8159" style="mask-type:luminance" maskUnits="userSpaceOnUse" x="7" y="49" width="1" height="2">
<path d="M7.52365 49.4623V50.2217C7.44371 50.4348 7.26605 50.648 7.06619 50.6835V49.9241C7.26605 49.8886 7.44815 49.6754 7.52365 49.4623Z" fill="white"/>
</mask>
<g mask="url(#mask3_265_8159)">
<path d="M7.52365 49.4623V50.2217C7.44371 50.4348 7.26605 50.648 7.06619 50.6835V49.9241C7.26605 49.8886 7.44815 49.6754 7.52365 49.4623Z" fill="#BABABA"/>
</g>
<path d="M7.06173 49.9242V50.6836L3.53531 51.3053V50.5459L7.06173 49.9242Z" fill="#B3B3B3"/>
<mask id="mask4_265_8159" style="mask-type:luminance" maskUnits="userSpaceOnUse" x="3" y="50" width="1" height="2">
<path d="M3.53532 50.5459V51.3053C3.50868 51.3097 3.48647 51.3142 3.46426 51.3142C3.33102 51.3142 3.25552 51.2342 3.25552 51.0921V50.3328C3.25552 50.4749 3.33102 50.5548 3.46426 50.5548C3.48647 50.5548 3.50868 50.5548 3.53532 50.5459Z" fill="white"/>
</mask>
<g mask="url(#mask4_265_8159)">
<path d="M3.53532 50.5459V51.3053C3.50868 51.3097 3.48647 51.3142 3.46426 51.3142C3.33102 51.3142 3.25552 51.2342 3.25552 51.0921V50.3328C3.25552 50.4749 3.33102 50.5548 3.46426 50.5548C3.48647 50.5548 3.50868 50.5548 3.53532 50.5459Z" fill="#BABABA"/>
</g>
<path d="M15.7668 35.6248L16.2864 47.8814C16.2864 48.1257 16.1265 48.3299 15.9045 48.3699L12.5202 48.965C12.5202 48.965 12.4802 48.9694 12.4624 48.9694C12.2936 48.9694 12.1782 48.8229 12.1782 48.6408L12.1204 45.8475L8.57625 46.4737L7.51921 49.4623C7.43926 49.6755 7.26161 49.8886 7.06175 49.9242L3.53532 50.5459C3.50868 50.5503 3.48647 50.5548 3.46426 50.5548C3.33102 50.5548 3.25552 50.4748 3.25552 50.3327C3.25552 50.2928 3.27773 50.2306 3.29549 50.164L8.11435 36.9659C8.89158 34.8344 10.4638 34.1505 12.3603 33.8219C12.8399 33.7375 13.2929 33.6842 13.7016 33.6842C14.8963 33.6842 15.709 34.146 15.7668 35.6248ZM9.70879 43.0454L12.0982 42.6235L12.0183 37.5166C12.0183 37.3567 12.0183 37.259 11.8984 37.259C11.8806 37.259 11.8628 37.259 11.8406 37.2635C11.663 37.2946 11.6408 37.4011 11.583 37.5921L9.71323 43.0454" fill="white"/>
<mask id="mask5_265_8159" style="mask-type:luminance" maskUnits="userSpaceOnUse" x="34" y="30" width="1" height="2">
<path d="M34.3538 30.74V31.4994C34.3538 31.5571 34.3361 31.6015 34.3361 31.6415V30.8821C34.3361 30.8421 34.3538 30.7977 34.3538 30.74Z" fill="white"/>
</mask>
<g mask="url(#mask5_265_8159)">
<path d="M34.3538 30.74V31.4994C34.3538 31.5571 34.3361 31.6015 34.3361 31.6415V30.8821C34.3361 30.8421 34.3538 30.7977 34.3538 30.74Z" fill="#BABABA"/>
</g>
<path d="M29.2995 38.0051V38.7601L29.2329 38.8134V38.054L29.2995 38.0051Z" fill="#B3B3B3"/>
<mask id="mask6_265_8159" style="mask-type:luminance" maskUnits="userSpaceOnUse" x="29" y="38" width="1" height="1">
<path d="M29.335 38.0806V38.84C29.335 38.7867 29.3173 38.7645 29.2995 38.7645V38.0051C29.2995 38.0051 29.335 38.0273 29.335 38.0806Z" fill="white"/>
</mask>
<g mask="url(#mask6_265_8159)">
<path d="M29.335 38.0806V38.84C29.335 38.7867 29.3173 38.7645 29.2995 38.7645V38.0051C29.2995 38.0051 29.335 38.0273 29.335 38.0806Z" fill="#BABABA"/>
</g>
<mask id="mask7_265_8159" style="mask-type:luminance" maskUnits="userSpaceOnUse" x="28" y="38" width="2" height="2">
<path d="M29.2329 38.054V38.8133C29.1751 38.8267 29.0375 39.0265 28.9753 39.1197V38.3604C29.033 38.2671 29.1751 38.0673 29.2329 38.054Z" fill="white"/>
</mask>
<g mask="url(#mask7_265_8159)">
<path d="M29.2329 38.054V38.8133C29.1751 38.8267 29.0375 39.0265 28.9753 39.1197V38.3604C29.033 38.2671 29.1751 38.0673 29.2329 38.054Z" fill="#BABABA"/>
</g>
<path d="M23.1438 39.1286V39.8879L23.0594 39.8569V39.1019L23.1438 39.1286Z" fill="#B3B3B3"/>
<mask id="mask8_265_8159" style="mask-type:luminance" maskUnits="userSpaceOnUse" x="23" y="39" width="1" height="2">
<path d="M23.2371 39.2929V40.0522C23.1971 39.9812 23.1793 39.8879 23.1438 39.8879V39.1285C23.1793 39.1285 23.2015 39.2218 23.2371 39.2929Z" fill="white"/>
</mask>
<g mask="url(#mask8_265_8159)">
<path d="M23.2371 39.2929V40.0522C23.1971 39.9812 23.1793 39.8879 23.1438 39.8879V39.1285C23.1793 39.1285 23.2015 39.2218 23.2371 39.2929Z" fill="#BABABA"/>
</g>
<mask id="mask9_265_8159" style="mask-type:luminance" maskUnits="userSpaceOnUse" x="22" y="39" width="2" height="2">
<path d="M23.0594 39.1019V39.8613C23.0194 39.8702 22.9617 39.9412 22.9395 40.0833V39.324C22.9617 39.1819 23.0194 39.1108 23.0594 39.1019Z" fill="white"/>
</mask>
<g mask="url(#mask9_265_8159)">
<path d="M23.0594 39.1019V39.8613C23.0194 39.8702 22.9617 39.9412 22.9395 40.0833V39.324C22.9617 39.1819 23.0194 39.1108 23.0594 39.1019Z" fill="#BABABA"/>
</g>
<path d="M28.9797 38.3647V39.1197L26.9234 42.1661V41.4067L28.9797 38.3647Z" fill="#B3B3B3"/>
<path d="M24.3918 41.8507V42.6101L23.2371 40.0478V39.2928L24.3918 41.8507Z" fill="#B3B3B3"/>
<mask id="mask10_265_8159" style="mask-type:luminance" maskUnits="userSpaceOnUse" x="26" y="41" width="1" height="2">
<path d="M26.9234 41.4067V42.1661C26.7235 42.4592 26.5281 42.6191 26.2883 42.659V41.8997C26.5281 41.8597 26.7235 41.6998 26.9234 41.4067Z" fill="white"/>
</mask>
<g mask="url(#mask10_265_8159)">
<path d="M26.9234 41.4067V42.1661C26.7235 42.4592 26.5281 42.6191 26.2883 42.659V41.8997C26.5281 41.8597 26.7235 41.6998 26.9234 41.4067Z" fill="#BABABA"/>
</g>
<path d="M26.2883 41.9041V42.6634L24.9114 42.9032V42.1483L26.2883 41.9041Z" fill="#B3B3B3"/>
<mask id="mask11_265_8159" style="mask-type:luminance" maskUnits="userSpaceOnUse" x="24" y="41" width="1" height="2">
<path d="M24.9114 42.1483V42.9077C24.8759 42.9121 24.8404 42.9166 24.8093 42.9166C24.6272 42.9166 24.494 42.8189 24.3918 42.6146V41.8552C24.494 42.0639 24.6228 42.1572 24.8093 42.1572C24.8404 42.1572 24.8759 42.1572 24.9114 42.1483Z" fill="white"/>
</mask>
<g mask="url(#mask11_265_8159)">
<path d="M24.9114 42.1483V42.9077C24.8759 42.9121 24.8404 42.9166 24.8093 42.9166C24.6272 42.9166 24.494 42.8189 24.3918 42.6146V41.8552C24.494 42.0639 24.6228 42.1572 24.8093 42.1572C24.8404 42.1572 24.8759 42.1572 24.9114 42.1483Z" fill="#BABABA"/>
</g>
<path d="M34.336 30.8821V31.6415L31.9066 46.0696V45.3102L34.336 30.8821Z" fill="#B3B3B3"/>
<mask id="mask12_265_8159" style="mask-type:luminance" maskUnits="userSpaceOnUse" x="31" y="45" width="1" height="2">
<path d="M31.9066 45.3102V46.0696C31.8666 46.3005 31.6889 46.3538 31.5291 46.3804V45.621C31.6845 45.5944 31.8666 45.5411 31.9066 45.3102Z" fill="white"/>
</mask>
<g mask="url(#mask12_265_8159)">
<path d="M31.9066 45.3102V46.0696C31.8666 46.3005 31.6889 46.3538 31.5291 46.3804V45.621C31.6845 45.5944 31.8666 45.5411 31.9066 45.3102Z" fill="#BABABA"/>
</g>
<path d="M31.5291 45.621V46.3803L28.2602 46.9532V46.1983L31.5291 45.621Z" fill="#B3B3B3"/>
<mask id="mask13_265_8159" style="mask-type:luminance" maskUnits="userSpaceOnUse" x="28" y="45" width="1" height="2">
<path d="M28.2602 46.1983V46.9577C28.1092 46.9577 28.0381 46.8422 28.0381 46.6957V45.9363C28.0381 46.0828 28.1048 46.2027 28.2602 46.1983Z" fill="white"/>
</mask>
<g mask="url(#mask13_265_8159)">
<path d="M28.2602 46.1983V46.9577C28.1092 46.9577 28.0381 46.8422 28.0381 46.6957V45.9363C28.0381 46.0828 28.1048 46.2027 28.2602 46.1983Z" fill="#BABABA"/>
</g>
<path d="M22.9395 39.324V40.0833L21.6693 47.7126V46.9532L22.9395 39.324Z" fill="#B3B3B3"/>
<mask id="mask14_265_8159" style="mask-type:luminance" maskUnits="userSpaceOnUse" x="21" y="46" width="1" height="3">
<path d="M21.6693 46.9532V47.7126C21.6293 47.9391 21.4694 48.1523 21.3095 48.1789V47.4195C21.4694 47.3929 21.6293 47.1797 21.6693 46.9532Z" fill="white"/>
</mask>
<g mask="url(#mask14_265_8159)">
<path d="M21.6693 46.9532V47.7126C21.6293 47.9391 21.4694 48.1523 21.3095 48.1789V47.4195C21.4694 47.3929 21.6293 47.1797 21.6693 46.9532Z" fill="#BABABA"/>
</g>
<path d="M21.3095 47.4196V48.1789L18.0185 48.7562V48.0013L21.3095 47.4196Z" fill="#B3B3B3"/>
<mask id="mask15_265_8159" style="mask-type:luminance" maskUnits="userSpaceOnUse" x="17" y="47" width="2" height="2">
<path d="M18.0185 48.0013V48.7606C17.9785 48.7695 17.9385 48.774 17.903 48.774C17.8142 48.774 17.7431 48.7429 17.7431 48.6274V47.868C17.7431 47.9835 17.8142 48.0146 17.903 48.0146C17.9385 48.0146 17.9785 48.0101 18.0185 48.0013Z" fill="white"/>
</mask>
<g mask="url(#mask15_265_8159)">
<path d="M18.0185 48.0013V48.7606C17.9785 48.7695 17.9385 48.774 17.903 48.774C17.8142 48.774 17.7431 48.7429 17.7431 48.6274V47.868C17.7431 47.9835 17.8142 48.0146 17.903 48.0146C17.9385 48.0146 17.9785 48.0101 18.0185 48.0013Z" fill="#BABABA"/>
</g>
<path d="M33.8608 30.2292C34.1539 30.2292 34.3537 30.4335 34.3537 30.7399C34.3537 30.7977 34.336 30.8421 34.336 30.882L31.9066 45.3102C31.8666 45.5411 31.6889 45.5944 31.5291 45.621L28.2602 46.1939C28.1092 46.1939 28.0381 46.0784 28.0381 45.9319V45.8297L29.3128 38.2005C29.3128 38.1427 29.335 38.0983 29.335 38.0761C29.335 38.0228 29.3173 38.0006 29.2995 38.0006L29.2329 38.0539C29.1751 38.0672 29.0375 38.2671 28.9753 38.3603L26.9189 41.4067C26.7191 41.6998 26.5237 41.8597 26.2838 41.8996L24.907 42.1439C24.8715 42.1483 24.8359 42.1528 24.8049 42.1528C24.6228 42.1528 24.4895 42.0551 24.3874 41.8508L23.2326 39.2929C23.1926 39.2218 23.1749 39.1286 23.1394 39.1286L23.055 39.1019C23.015 39.1108 22.9573 39.1819 22.9351 39.324L21.6648 46.9533C21.6248 47.1797 21.465 47.3929 21.3051 47.4195L18.014 47.9968C17.9741 48.0057 17.9341 48.0102 17.8986 48.0102C17.8097 48.0102 17.7387 47.9791 17.7387 47.8636V47.8059L20.1681 33.3778C20.248 32.9603 20.6433 32.5473 21.043 32.4763L23.1127 32.1121C23.1971 32.0988 23.277 32.0899 23.3481 32.0899C23.699 32.0899 23.8988 32.2587 24.0321 32.5562L26.0218 37.3079C26.0795 37.4278 26.1151 37.521 26.1861 37.521C26.2838 37.5077 26.3638 37.3922 26.4837 37.2279L30.2677 31.4593C30.5431 31.0286 30.885 30.7444 31.3825 30.66L33.732 30.247C33.7719 30.2381 33.8163 30.2381 33.8519 30.2381L33.8608 30.2292Z" fill="white"/>
<mask id="mask16_265_8159" style="mask-type:luminance" maskUnits="userSpaceOnUse" x="51" y="29" width="5" height="3">
<path d="M55.1348 30.7932V31.5526C55.1348 30.9842 54.8373 30.7177 54.14 30.7177C53.9223 30.7177 53.6647 30.7444 53.3627 30.7977C52.8209 30.8954 52.1458 31.033 51.8083 31.113V30.3536C52.1458 30.2737 52.8253 30.136 53.3627 30.0383C53.6647 29.985 53.9223 29.9584 54.14 29.9584C54.8373 29.9584 55.1348 30.2293 55.1348 30.7932Z" fill="white"/>
</mask>
<g mask="url(#mask16_265_8159)">
<path d="M55.1348 30.7932V31.5526C55.1348 30.9842 54.8373 30.7177 54.14 30.7177C53.9223 30.7177 53.6647 30.7444 53.3627 30.7977C52.8209 30.8954 52.1458 31.033 51.8083 31.113V30.3536C52.1458 30.2737 52.8253 30.136 53.3627 30.0383C53.6647 29.985 53.9223 29.9584 54.14 29.9584C54.8373 29.9584 55.1348 30.2293 55.1348 30.7932Z" fill="#BABABA"/>
</g>
<path d="M46.0922 28.5151V29.2745L45.6747 31.8058V31.0464L46.0922 28.5151Z" fill="#B3B3B3"/>
<mask id="mask17_265_8159" style="mask-type:luminance" maskUnits="userSpaceOnUse" x="45" y="31" width="1" height="2">
<path d="M45.6748 31.0464V31.8058C45.6348 32.0367 45.4172 32.2543 45.1951 32.2942V31.5349C45.4127 31.4949 45.6348 31.2773 45.6748 31.0464Z" fill="white"/>
</mask>
<g mask="url(#mask17_265_8159)">
<path d="M45.6748 31.0464V31.8058C45.6348 32.0367 45.4172 32.2543 45.1951 32.2942V31.5349C45.4127 31.4949 45.6348 31.2773 45.6748 31.0464Z" fill="#BABABA"/>
</g>
<path d="M45.1952 31.5349V32.2943L41.1714 33.0004V32.241L45.1952 31.5349Z" fill="#B3B3B3"/>
<mask id="mask18_265_8159" style="mask-type:luminance" maskUnits="userSpaceOnUse" x="40" y="32" width="2" height="3">
<path d="M41.1713 32.241V33.0003C40.4562 33.1291 40.1764 33.4178 40.0343 34.2082V33.4489C40.1764 32.6584 40.4562 32.3697 41.1713 32.241Z" fill="white"/>
</mask>
<g mask="url(#mask18_265_8159)">
<path d="M41.1713 32.241V33.0003C40.4562 33.1291 40.1764 33.4178 40.0343 34.2082V33.4489C40.1764 32.6584 40.4562 32.3697 41.1713 32.241Z" fill="#BABABA"/>
</g>
<path d="M51.8127 30.3536V31.113L51.2531 34.417V33.6576L51.8127 30.3536Z" fill="#B3B3B3"/>
<path d="M40.0343 33.4489V34.2082L39.7767 35.727V34.972L40.0343 33.4489Z" fill="#B3B3B3"/>
<mask id="mask19_265_8159" style="mask-type:luminance" maskUnits="userSpaceOnUse" x="55" y="29" width="5" height="8">
<path d="M59.2209 29.4921V30.2514C59.2209 32.574 58.186 34.7944 55.9565 36.0733V35.3139C58.186 34.035 59.2209 31.8146 59.2209 29.4921Z" fill="white"/>
</mask>
<g mask="url(#mask19_265_8159)">
<path d="M59.2209 29.4921V30.2514C59.2209 32.574 58.186 34.7944 55.9565 36.0733V35.3139C58.186 34.035 59.2209 31.8146 59.2209 29.4921Z" fill="#BABABA"/>
</g>
<mask id="mask20_265_8159" style="mask-type:luminance" maskUnits="userSpaceOnUse" x="50" y="36" width="3" height="2">
<path d="M52.0126 36.6906V37.4499C51.5729 37.5299 51.151 37.6009 50.7157 37.6364V36.8771C51.151 36.8415 51.5729 36.7705 52.0126 36.6906Z" fill="white"/>
</mask>
<g mask="url(#mask20_265_8159)">
<path d="M52.0126 36.6906V37.4499C51.5729 37.5299 51.151 37.6009 50.7157 37.6364V36.8771C51.151 36.8415 51.5729 36.7705 52.0126 36.6906Z" fill="#BABABA"/>
</g>
<path d="M45.0175 34.4524V35.2118L44.5955 37.6675V36.9081L45.0175 34.4524Z" fill="#B3B3B3"/>
<mask id="mask21_265_8159" style="mask-type:luminance" maskUnits="userSpaceOnUse" x="44" y="36" width="1" height="3">
<path d="M44.5955 36.9082V37.6676C44.5555 37.8941 44.3601 38.1161 44.1381 38.1561V37.3967C44.3557 37.3567 44.5555 37.1391 44.5955 36.9082Z" fill="white"/>
</mask>
<g mask="url(#mask21_265_8159)">
<path d="M44.5955 36.9082V37.6676C44.5555 37.8941 44.3601 38.1161 44.1381 38.1561V37.3967C44.3557 37.3567 44.5555 37.1391 44.5955 36.9082Z" fill="#BABABA"/>
</g>
<path d="M44.1381 37.3922V38.1516L39.2393 39.0131V38.2537L44.1381 37.3922Z" fill="#B3B3B3"/>
<path d="M39.2393 38.2538V39.0132L38.9417 40.7406V39.9813L39.2393 38.2538Z" fill="#B3B3B3"/>
<mask id="mask22_265_8159" style="mask-type:luminance" maskUnits="userSpaceOnUse" x="38" y="39" width="1" height="3">
<path d="M38.9417 39.9812V40.7406C38.9239 40.9049 38.9017 41.0292 38.9017 41.1491V40.3898C38.9017 40.2654 38.9239 40.1411 38.9417 39.9812Z" fill="white"/>
</mask>
<g mask="url(#mask22_265_8159)">
<path d="M38.9417 39.9812V40.7406C38.9239 40.9049 38.9017 41.0292 38.9017 41.1491V40.3898C38.9017 40.2654 38.9239 40.1411 38.9417 39.9812Z" fill="#BABABA"/>
</g>
<mask id="mask23_265_8159" style="mask-type:luminance" maskUnits="userSpaceOnUse" x="57" y="40" width="1" height="2">
<path d="M57.9062 40.5985V41.3579C57.9062 41.5799 57.7463 41.7664 57.5065 41.8108V41.0515C57.7463 41.0071 57.9062 40.8206 57.9062 40.5985Z" fill="white"/>
</mask>
<g mask="url(#mask23_265_8159)">
<path d="M57.9062 40.5985V41.3579C57.9062 41.5799 57.7463 41.7664 57.5065 41.8108V41.0515C57.7463 41.0071 57.9062 40.8206 57.9062 40.5985Z" fill="#BABABA"/>
</g>
<path d="M53.6825 41.3223V42.0772L52.0126 37.4499V36.6906L53.6825 41.3223Z" fill="#B3B3B3"/>
<path d="M57.5065 41.0559V41.8108L54.0023 42.4281V41.6732L57.5065 41.0559Z" fill="#B3B3B3"/>
<mask id="mask24_265_8159" style="mask-type:luminance" maskUnits="userSpaceOnUse" x="53" y="41" width="2" height="2">
<path d="M54.0023 41.6731V42.4325C54.0023 42.4325 53.9667 42.4325 53.9534 42.4325C53.7758 42.4325 53.7402 42.2549 53.6825 42.0772V41.3179C53.7358 41.4955 53.7758 41.6731 53.9534 41.6731C53.9667 41.6731 53.9845 41.6731 54.0023 41.6731Z" fill="white"/>
</mask>
<g mask="url(#mask24_265_8159)">
<path d="M54.0023 41.6731V42.4325C54.0023 42.4325 53.9667 42.4325 53.9534 42.4325C53.7758 42.4325 53.7402 42.2549 53.6825 42.0772V41.3179C53.7358 41.4955 53.7758 41.6731 53.9534 41.6731C53.9667 41.6731 53.9845 41.6731 54.0023 41.6731Z" fill="#BABABA"/>
</g>
<path d="M50.7157 36.8816V37.6365L49.8541 42.7523V41.9929L50.7157 36.8816Z" fill="#B3B3B3"/>
<mask id="mask25_265_8159" style="mask-type:luminance" maskUnits="userSpaceOnUse" x="49" y="41" width="1" height="3">
<path d="M49.8541 41.9929V42.7523C49.8185 42.9832 49.5965 43.2008 49.3788 43.2408V42.4814C49.6009 42.4459 49.8185 42.2283 49.8541 41.9929Z" fill="white"/>
</mask>
<g mask="url(#mask25_265_8159)">
<path d="M49.8541 41.9929V42.7523C49.8185 42.9832 49.5965 43.2008 49.3788 43.2408V42.4814C49.6009 42.4459 49.8185 42.2283 49.8541 41.9929Z" fill="#BABABA"/>
</g>
<path d="M44.0803 40.4874V41.2468L43.6406 43.7869V43.0276L44.0803 40.4874Z" fill="#B3B3B3"/>
<path d="M49.3788 42.4814V43.2408L46.1544 43.8092V43.0499L49.3788 42.4814Z" fill="#B3B3B3"/>
<path d="M55.9565 35.314L57.8884 40.4608C57.9107 40.5008 57.9107 40.5585 57.9107 40.5985C57.9107 40.8205 57.7508 41.0071 57.5109 41.0515L54.0067 41.6687C54.0067 41.6687 53.9712 41.6687 53.9579 41.6687C53.7802 41.6687 53.7447 41.4911 53.6869 41.3135L52.017 36.6862C51.5773 36.7661 51.1554 36.8371 50.7201 36.8727L49.863 41.9885C49.8274 42.2194 49.6054 42.437 49.3877 42.477L46.1633 43.0454C46.1411 43.0454 46.1145 43.0498 46.0967 43.0498C45.9324 43.0498 45.8258 42.9344 45.8258 42.7612V42.7034L48.1175 29.1057C48.2774 28.111 48.6149 27.8268 49.4943 27.5293C50.3115 27.2672 51.906 26.8454 53.6781 26.5345C54.3265 26.4191 54.9394 26.3613 55.5079 26.3613C57.7197 26.3613 59.2342 27.2761 59.2342 29.4921C59.2342 31.708 58.1994 34.035 55.9698 35.314H55.9565ZM52.7054 33.4222C54.2821 33.1469 55.1348 32.3875 55.1348 30.7932C55.1348 30.2248 54.8373 29.9584 54.14 29.9584C53.9223 29.9584 53.6647 29.985 53.3627 30.0383C52.8209 30.136 52.1458 30.2737 51.8083 30.3536L51.2486 33.6575C51.4663 33.6398 51.7061 33.5998 51.9459 33.5554C52.1858 33.5154 52.4434 33.471 52.701 33.4222" fill="white"/>
<mask id="mask26_265_8159" style="mask-type:luminance" maskUnits="userSpaceOnUse" x="45" y="42" width="2" height="2">
<path d="M46.1544 43.0498V43.8092C46.1322 43.8092 46.1056 43.8137 46.0878 43.8137C45.9235 43.8137 45.8169 43.6982 45.8169 43.525V42.7656C45.8169 42.9433 45.9235 43.0543 46.0878 43.0543C46.11 43.0543 46.1322 43.0543 46.1544 43.0498Z" fill="white"/>
</mask>
<g mask="url(#mask26_265_8159)">
<path d="M46.1544 43.0498V43.8092C46.1322 43.8092 46.1056 43.8137 46.0878 43.8137C45.9235 43.8137 45.8169 43.6982 45.8169 43.525V42.7656C45.8169 42.9433 45.9235 43.0543 46.0878 43.0543C46.11 43.0543 46.1322 43.0543 46.1544 43.0498Z" fill="#BABABA"/>
</g>
<mask id="mask27_265_8159" style="mask-type:luminance" maskUnits="userSpaceOnUse" x="43" y="43" width="1" height="2">
<path d="M43.6406 43.0276V43.787C43.6006 44.0401 43.4408 44.1866 43.1832 44.2754V43.5161C43.4408 43.4273 43.6006 43.2807 43.6406 43.0276Z" fill="white"/>
</mask>
<g mask="url(#mask27_265_8159)">
<path d="M43.6406 43.0276V43.787C43.6006 44.0401 43.4408 44.1866 43.1832 44.2754V43.5161C43.4408 43.4273 43.6006 43.2807 43.6406 43.0276Z" fill="#BABABA"/>
</g>
<mask id="mask28_265_8159" style="mask-type:luminance" maskUnits="userSpaceOnUse" x="34" y="41" width="10" height="5">
<path d="M43.1832 43.5161V44.2754C42.4015 44.5108 41.189 44.8661 39.257 45.2036C38.7862 45.2879 38.3199 45.3323 37.8802 45.3323C36.1481 45.3323 34.7935 44.6041 34.7935 42.4991V41.7397C34.7935 43.8491 36.1481 44.573 37.8802 44.573C38.3199 44.573 38.7862 44.5241 39.257 44.4442C41.189 44.1067 42.4015 43.7514 43.1832 43.5161Z" fill="white"/>
</mask>
<g mask="url(#mask28_265_8159)">
<path d="M43.1832 43.5161V44.2754C42.4015 44.5108 41.189 44.8661 39.257 45.2036C38.7862 45.2879 38.3199 45.3323 37.8802 45.3323C36.1481 45.3323 34.7935 44.6041 34.7935 42.4991V41.7397C34.7935 43.8491 36.1481 44.573 37.8802 44.573C38.3199 44.573 38.7862 44.5241 39.257 44.4442C41.189 44.1067 42.4015 43.7514 43.1832 43.5161Z" fill="#BABABA"/>
</g>
<path d="M45.8258 28.1642C46.0079 28.1642 46.0922 28.2486 46.0922 28.4351V28.5195L45.6748 31.0507C45.6348 31.2817 45.4172 31.4993 45.1951 31.5392L41.1712 32.2453C40.4562 32.3741 40.1764 32.6628 40.0343 33.4532L39.7767 34.972L44.6755 34.1104C44.6977 34.1104 44.7243 34.106 44.7421 34.106C44.9064 34.106 45.013 34.2215 45.013 34.3947V34.4524L44.5911 36.9081C44.5511 37.1346 44.3557 37.3567 44.1336 37.3966L39.2348 38.2581L38.9328 39.9856C38.915 40.1499 38.8928 40.2743 38.8928 40.3942C38.8928 40.7494 39.035 40.8915 39.3636 40.8915C39.4613 40.8915 39.5768 40.8782 39.7056 40.856L43.7295 40.1455C43.7517 40.1455 43.7783 40.141 43.7961 40.141C43.9604 40.141 44.067 40.2565 44.067 40.4297V40.4874L43.6273 43.0275C43.5873 43.2807 43.4274 43.4272 43.1699 43.516C42.3882 43.7514 41.1757 44.1067 39.2437 44.4442C38.7729 44.5285 38.3066 44.5729 37.8669 44.5729C36.1348 44.5729 34.7802 43.8447 34.7802 41.7397C34.7802 41.4155 34.8201 41.0647 34.8779 40.6917L35.9749 34.1637C36.6766 29.9672 39.066 29.1012 41.873 28.6039C43.805 28.2664 45.0174 28.1953 45.7591 28.1598C45.7769 28.1598 45.7947 28.1598 45.808 28.1598L45.8258 28.1642Z" fill="white"/>
<mask id="mask29_265_8159" style="mask-type:luminance" maskUnits="userSpaceOnUse" x="66" y="24" width="1" height="2">
<path d="M66.2648 24.8292V25.5886C66.2648 25.6108 66.2648 25.6374 66.2603 25.6685V24.9092C66.2603 24.8825 66.2648 24.8559 66.2648 24.8292Z" fill="white"/>
</mask>
<g mask="url(#mask29_265_8159)">
<path d="M66.2648 24.8292V25.5886C66.2648 25.6108 66.2648 25.6374 66.2603 25.6685V24.9092C66.2603 24.8825 66.2648 24.8559 66.2648 24.8292Z" fill="#BABABA"/>
</g>
<path d="M66.2559 24.9047V25.664L63.7865 40.3053V39.5459L66.2559 24.9047Z" fill="#B3B3B3"/>
<mask id="mask30_265_8159" style="mask-type:luminance" maskUnits="userSpaceOnUse" x="63" y="39" width="1" height="2">
<path d="M63.7865 39.5459V40.3053C63.7465 40.5318 63.6088 40.7405 63.3068 40.7938V40.0344C63.6044 39.9811 63.7465 39.7768 63.7865 39.5459Z" fill="white"/>
</mask>
<g mask="url(#mask30_265_8159)">
<path d="M63.7865 39.5459V40.3053C63.7465 40.5318 63.6088 40.7405 63.3068 40.7938V40.0344C63.6044 39.9811 63.7465 39.7768 63.7865 39.5459Z" fill="#BABABA"/>
</g>
<path d="M63.3068 40.0344V40.7894L60.0424 41.3667V40.6073L63.3068 40.0344Z" fill="#B3B3B3"/>
<mask id="mask31_265_8159" style="mask-type:luminance" maskUnits="userSpaceOnUse" x="59" y="40" width="2" height="2">
<path d="M59.7138 41.0958V40.3364C59.7138 40.4874 59.807 40.6118 59.9714 40.6118C59.9936 40.6118 60.0158 40.6118 60.0424 40.6073V41.3667C60.0202 41.3667 59.9936 41.3711 59.9714 41.3711C59.807 41.3711 59.7138 41.2468 59.7138 41.0958Z" fill="white"/>
</mask>
<g mask="url(#mask31_265_8159)">
<path d="M60.0424 40.6073V41.3667C60.0202 41.3667 59.9936 41.3711 59.9714 41.3711C59.807 41.3711 59.7138 41.2468 59.7138 41.0958V40.3364C59.7138 40.4874 59.807 40.6118 59.9714 40.6118C59.9936 40.6118 60.0158 40.6118 60.0424 40.6073Z" fill="#BABABA"/>
</g>
<path d="M66.0116 24.576C66.1804 24.576 66.2914 24.6782 66.2603 24.9091L63.7909 39.5504C63.7509 39.7769 63.6133 39.9856 63.3113 40.0389L60.0469 40.6117C60.0247 40.6117 59.998 40.6162 59.9758 40.6162C59.7804 40.6162 59.6871 40.4474 59.7271 40.2609L62.1965 25.6196C62.2364 25.3932 62.4363 25.1978 62.6539 25.1578L65.9228 24.5849C65.9539 24.5805 65.9849 24.576 66.016 24.576H66.0116Z" fill="white"/>
<mask id="mask32_265_8159" style="mask-type:luminance" maskUnits="userSpaceOnUse" x="84" y="24" width="1" height="2">
<path d="M84.8651 24.7004V25.4598C84.8651 25.2999 84.8651 25.2022 84.7408 25.2022C84.723 25.2022 84.7052 25.2022 84.683 25.2067C84.5054 25.2378 84.4832 25.3443 84.4254 25.5397V24.7804C84.4876 24.585 84.5054 24.4828 84.683 24.4473C84.7052 24.4473 84.723 24.4429 84.7408 24.4429C84.8651 24.4429 84.8651 24.5406 84.8651 24.7004Z" fill="white"/>
</mask>
<g mask="url(#mask32_265_8159)">
<path d="M84.8651 24.7004V25.4598C84.8651 25.2999 84.8651 25.2022 84.7408 25.2022C84.723 25.2022 84.7052 25.2022 84.683 25.2067C84.5054 25.2378 84.4832 25.3443 84.4254 25.5397V24.7804C84.4876 24.585 84.5054 24.4828 84.683 24.4473C84.7052 24.4473 84.723 24.4429 84.7408 24.4429C84.8651 24.4429 84.8651 24.5406 84.8651 24.7004Z" fill="#BABABA"/>
</g>
<path d="M77.6124 23.1506V23.91L77.1549 26.5745V25.8151L77.6124 23.1506Z" fill="#B3B3B3"/>
<mask id="mask33_265_8159" style="mask-type:luminance" maskUnits="userSpaceOnUse" x="76" y="25" width="2" height="3">
<path d="M77.155 25.8151V26.5744C77.115 26.8231 76.9773 26.9874 76.733 27.0274V26.268C76.9729 26.2281 77.115 26.0593 77.155 25.8151Z" fill="white"/>
</mask>
<g mask="url(#mask33_265_8159)">
<path d="M77.155 25.8151V26.5744C77.115 26.8231 76.9773 26.9874 76.733 27.0274V26.268C76.9729 26.2281 77.115 26.0593 77.155 25.8151Z" fill="#BABABA"/>
</g>
<path d="M76.733 26.2681V27.0274L76.6753 27.0408V26.2814L76.733 26.2681Z" fill="#B3B3B3"/>
<path d="M84.9451 29.8118V30.5712L84.8651 25.4598V24.7004L84.9451 29.8118Z" fill="#B3B3B3"/>
<mask id="mask34_265_8159" style="mask-type:luminance" maskUnits="userSpaceOnUse" x="71" y="26" width="6" height="5">
<path d="M76.6753 26.2814V27.0407C75.8803 27.0985 75.0453 27.1429 73.9083 27.3472C72.8335 27.5337 71.812 28.0977 71.3368 30.8421V30.0827C71.812 27.3338 72.8335 26.7743 73.9083 26.5878C75.0453 26.3835 75.8803 26.3391 76.6753 26.2814Z" fill="white"/>
</mask>
<g mask="url(#mask34_265_8159)">
<path d="M76.6753 26.2814V27.0407C75.8803 27.0985 75.0453 27.1429 73.9083 27.3472C72.8335 27.5337 71.812 28.0977 71.3368 30.8421V30.0827C71.812 27.3338 72.8335 26.7743 73.9083 26.5878C75.0453 26.3835 75.8803 26.3391 76.6753 26.2814Z" fill="#BABABA"/>
</g>
<path d="M84.4254 24.7804V25.5353L82.5511 30.9931V30.2337L84.4254 24.7804Z" fill="#B3B3B3"/>
<path d="M71.3368 30.0872V30.8421L70.9593 32.987V32.2321L71.3368 30.0872Z" fill="#B3B3B3"/>
<mask id="mask35_265_8159" style="mask-type:luminance" maskUnits="userSpaceOnUse" x="70" y="32" width="1" height="3">
<path d="M70.9593 32.2321V32.9914C70.8793 33.4888 70.8394 33.9018 70.8394 34.2437V33.4844C70.8394 33.1424 70.8793 32.7294 70.9593 32.2321Z" fill="white"/>
</mask>
<g mask="url(#mask35_265_8159)">
<path d="M70.9593 32.2321V32.9914C70.8793 33.4888 70.8394 33.9018 70.8394 34.2437V33.4844C70.8394 33.1424 70.8793 32.7294 70.9593 32.2321Z" fill="#BABABA"/>
</g>
<path d="M84.9628 33.0358V33.7951L81.4186 34.4213V33.6619L84.9628 33.0358Z" fill="#B3B3B3"/>
<mask id="mask36_265_8159" style="mask-type:luminance" maskUnits="userSpaceOnUse" x="88" y="35" width="2" height="2">
<path d="M89.1288 35.0697V35.8291C89.1288 36.0689 88.9689 36.2776 88.7513 36.3176V35.5582C88.9689 35.5182 89.1288 35.3051 89.1288 35.0697Z" fill="white"/>
</mask>
<g mask="url(#mask36_265_8159)">
<path d="M89.1288 35.0697V35.8291C89.1288 36.0689 88.9689 36.2776 88.7513 36.3176V35.5582C88.9689 35.5182 89.1288 35.3051 89.1288 35.0697Z" fill="#BABABA"/>
</g>
<path d="M85.025 35.829V36.5884L84.9628 33.7951V33.0358L85.025 35.829Z" fill="#B3B3B3"/>
<path d="M88.7468 35.5582V36.3176L85.3625 36.9127V36.1533L88.7468 35.5582Z" fill="#B3B3B3"/>
<mask id="mask37_265_8159" style="mask-type:luminance" maskUnits="userSpaceOnUse" x="85" y="35" width="1" height="2">
<path d="M85.3625 36.1533V36.9127C85.3625 36.9127 85.327 36.9171 85.3092 36.9171C85.1405 36.9171 85.025 36.7705 85.025 36.5885V35.8291C85.025 36.0112 85.1405 36.1577 85.3092 36.1577C85.327 36.1577 85.3448 36.1577 85.3625 36.1533Z" fill="white"/>
</mask>
<g mask="url(#mask37_265_8159)">
<path d="M85.3625 36.1533V36.9127C85.3625 36.9127 85.327 36.9171 85.3092 36.9171C85.1405 36.9171 85.025 36.7705 85.025 36.5885V35.8291C85.025 36.0112 85.1405 36.1577 85.3092 36.1577C85.327 36.1577 85.3448 36.1577 85.3625 36.1533Z" fill="#BABABA"/>
</g>
<path d="M81.4186 33.662V34.4214L80.3616 37.41V36.6506L81.4186 33.662Z" fill="#B3B3B3"/>
<mask id="mask38_265_8159" style="mask-type:luminance" maskUnits="userSpaceOnUse" x="79" y="36" width="2" height="2">
<path d="M80.3616 36.6506V37.41C80.2816 37.6232 80.104 37.8363 79.8997 37.8719V37.1125C80.0995 37.077 80.2816 36.8638 80.3616 36.6506Z" fill="white"/>
</mask>
<g mask="url(#mask38_265_8159)">
<path d="M80.3616 36.6506V37.41C80.2816 37.6232 80.104 37.8363 79.8997 37.8719V37.1125C80.0995 37.077 80.2816 36.8638 80.3616 36.6506Z" fill="#BABABA"/>
</g>
<path d="M75.6582 34.6522V35.4072L75.2007 38.0761V37.3167L75.6582 34.6522Z" fill="#B3B3B3"/>
<path d="M79.9041 37.1169V37.8719L76.3777 38.4891V37.7342L79.9041 37.1169Z" fill="#B3B3B3"/>
<path d="M88.6092 22.8087L89.1288 35.0697C89.1288 35.3095 88.9689 35.5182 88.7513 35.5582L85.367 36.1532C85.367 36.1532 85.3315 36.1577 85.3137 36.1577C85.1449 36.1577 85.0295 36.0111 85.0295 35.8291L84.9717 33.0358L81.4275 33.662L80.3705 36.6506C80.2905 36.8638 80.1129 37.0769 79.9086 37.1124L76.3822 37.7297C76.3555 37.7342 76.3333 37.7386 76.3067 37.7386C76.1734 37.7386 76.1024 37.6587 76.1024 37.521C76.1024 37.481 76.1246 37.4189 76.1423 37.3522L80.9612 24.1542C81.7429 22.0226 83.3107 21.3388 85.2071 21.0057C85.6868 20.9213 86.1353 20.868 86.5395 20.868C87.7342 20.868 88.5514 21.3254 88.6092 22.8087ZM82.5512 30.2337L84.9406 29.8118L84.8607 24.7004C84.8607 24.5406 84.8607 24.4429 84.7363 24.4429C84.7186 24.4429 84.7008 24.4429 84.6786 24.4473C84.5009 24.4784 84.4787 24.585 84.421 24.7804L82.5512 30.2337Z" fill="white"/>
<mask id="mask39_265_8159" style="mask-type:luminance" maskUnits="userSpaceOnUse" x="76" y="37" width="1" height="2">
<path d="M76.3777 37.7341V38.4935C76.3511 38.4979 76.3289 38.5024 76.3022 38.5024C76.169 38.5024 76.0979 38.4224 76.0979 38.2848V37.5254C76.0979 37.6631 76.169 37.743 76.3022 37.743C76.3244 37.743 76.3511 37.743 76.3777 37.7341Z" fill="white"/>
</mask>
<g mask="url(#mask39_265_8159)">
<path d="M76.3777 37.7341V38.4935C76.3511 38.4979 76.3289 38.5024 76.3022 38.5024C76.169 38.5024 76.0979 38.4224 76.0979 38.2848V37.5254C76.0979 37.6631 76.169 37.743 76.3022 37.743C76.3244 37.743 76.3511 37.743 76.3777 37.7341Z" fill="#BABABA"/>
</g>
<mask id="mask40_265_8159" style="mask-type:luminance" maskUnits="userSpaceOnUse" x="74" y="37" width="2" height="2">
<path d="M75.2007 37.3168V38.0761C75.1608 38.3426 75.0409 38.4447 74.7033 38.6046V37.8452C75.0409 37.6854 75.1652 37.5832 75.2007 37.3168Z" fill="white"/>
</mask>
<g mask="url(#mask40_265_8159)">
<path d="M75.2007 37.3168V38.0761C75.1608 38.3426 75.0409 38.4447 74.7033 38.6046V37.8452C75.0409 37.6854 75.1652 37.5832 75.2007 37.3168Z" fill="#BABABA"/>
</g>
<mask id="mask41_265_8159" style="mask-type:luminance" maskUnits="userSpaceOnUse" x="66" y="34" width="9" height="6">
<path d="M74.7033 37.8496V38.609C74.1437 38.8887 73.1267 39.2484 71.8742 39.4705C71.4523 39.546 71.0437 39.5815 70.6528 39.5815C68.3211 39.5815 66.7 38.2271 66.7 35.3761V34.6167C66.7 37.4721 68.3256 38.8221 70.6528 38.8221C71.0437 38.8221 71.4523 38.7866 71.8742 38.7111C73.1311 38.4891 74.1437 38.1294 74.7033 37.8496Z" fill="white"/>
</mask>
<g mask="url(#mask41_265_8159)">
<path d="M74.7033 37.8496V38.609C74.1437 38.8887 73.1267 39.2484 71.8742 39.4705C71.4523 39.546 71.0437 39.5815 70.6528 39.5815C68.3211 39.5815 66.7 38.2271 66.7 35.3761V34.6167C66.7 37.4721 68.3256 38.8221 70.6528 38.8221C71.0437 38.8221 71.4523 38.7866 71.8742 38.7111C73.1311 38.4891 74.1437 38.1294 74.7033 37.8496Z" fill="#BABABA"/>
</g>
<path d="M76.3111 22.7065C76.7019 22.7065 77.0173 22.7332 77.2349 22.7731C77.4525 22.8175 77.6168 22.8486 77.6168 23.0529V23.1506L77.1549 25.8151C77.115 26.0638 76.9773 26.2281 76.733 26.268L76.6753 26.2813C75.8803 26.3391 75.0453 26.3835 73.9083 26.5878C72.8335 26.7743 71.812 27.3383 71.3368 30.0827L70.9548 32.2276C70.8749 32.7249 70.8349 33.1379 70.8349 33.4799C70.8349 34.7144 71.3545 35.0519 72.0208 35.0519C72.1718 35.0519 72.3316 35.0341 72.4915 35.0075C73.6285 34.8077 74.4813 34.5545 75.3029 34.3281L75.3606 34.3192C75.3962 34.3147 75.4273 34.3103 75.4539 34.3103C75.5872 34.3103 75.6538 34.3813 75.6538 34.5457V34.6434L75.1963 37.3123C75.1563 37.5787 75.0364 37.6809 74.6989 37.8407C74.1393 38.1205 73.1222 38.4802 71.8697 38.7022C71.4478 38.7777 71.0392 38.8133 70.6484 38.8133C68.3167 38.8133 66.6956 37.4588 66.6956 34.6078C66.6956 34.106 66.7533 33.5465 66.851 32.947L67.2285 30.8021C68.1435 25.5531 70.715 23.5281 74.4813 22.8664C75.1785 22.7465 75.8048 22.6976 76.3066 22.6976L76.3111 22.7065Z" fill="white"/>
<path d="M102.617 18.8163V19.5712L102.177 22.1735V21.4141L102.617 18.8163Z" fill="#B3B3B3"/>
<mask id="mask42_265_8159" style="mask-type:luminance" maskUnits="userSpaceOnUse" x="101" y="21" width="2" height="2">
<path d="M102.177 21.4142V22.1736C102.137 22.4 101.982 22.591 101.76 22.6265V21.8671C101.978 21.8316 102.137 21.6407 102.177 21.4142Z" fill="white"/>
</mask>
<g mask="url(#mask42_265_8159)">
<path d="M102.177 21.4142V22.1736C102.137 22.4 101.982 22.591 101.76 22.6265V21.8671C101.978 21.8316 102.137 21.6407 102.177 21.4142Z" fill="#BABABA"/>
</g>
<mask id="mask43_265_8159" style="mask-type:luminance" maskUnits="userSpaceOnUse" x="96" y="21" width="6" height="4">
<path d="M101.76 21.8672V22.6266C100.921 22.7154 98.6688 22.9108 97.2343 23.1595C96.6791 23.2572 96.0973 23.5414 96.0973 24.2075V23.4481C96.0973 22.782 96.6746 22.4978 97.2343 22.4001C98.6688 22.147 100.921 21.9516 101.76 21.8672Z" fill="white"/>
</mask>
<g mask="url(#mask43_265_8159)">
<path d="M101.76 21.8672V22.6266C100.921 22.7154 98.6688 22.9108 97.2343 23.1595C96.6791 23.2572 96.0973 23.5414 96.0973 24.2075V23.4481C96.0973 22.782 96.6746 22.4978 97.2343 22.4001C98.6688 22.147 100.921 21.9516 101.76 21.8672Z" fill="#BABABA"/>
</g>
<mask id="mask44_265_8159" style="mask-type:luminance" maskUnits="userSpaceOnUse" x="91" y="24" width="3" height="5">
<path d="M93.6279 27.5558V28.3152C92.4731 27.7512 91.918 26.5389 91.918 25.2866V24.5272C91.918 25.7795 92.4731 26.9963 93.6279 27.5558Z" fill="white"/>
</mask>
<g mask="url(#mask44_265_8159)">
<path d="M93.6279 27.5558V28.3152C92.4731 27.7512 91.918 26.5389 91.918 25.2866V24.5272C91.918 25.7795 92.4731 26.9963 93.6279 27.5558Z" fill="#BABABA"/>
</g>
<path d="M96.1994 28.8214V29.5808L93.6279 28.3152V27.5558L96.1994 28.8214Z" fill="#B3B3B3"/>
<mask id="mask45_265_8159" style="mask-type:luminance" maskUnits="userSpaceOnUse" x="96" y="28" width="1" height="3">
<path d="M96.9811 29.5897V30.349C96.9811 30.0471 96.7812 29.8606 96.2039 29.5808V28.8214C96.7812 29.1012 96.9811 29.2877 96.9811 29.5897Z" fill="white"/>
</mask>
<g mask="url(#mask45_265_8159)">
<path d="M96.9811 29.5897V30.349C96.9811 30.0471 96.7812 29.8606 96.2039 29.5808V28.8214C96.7812 29.1012 96.9811 29.2877 96.9811 29.5897Z" fill="#BABABA"/>
</g>
<mask id="mask46_265_8159" style="mask-type:luminance" maskUnits="userSpaceOnUse" x="90" y="34" width="1" height="2">
<path d="M90.9586 34.8253V35.5847C90.781 35.5581 90.6211 35.487 90.6211 35.3005V34.5411C90.6211 34.7232 90.781 34.7943 90.9586 34.8253Z" fill="white"/>
</mask>
<g mask="url(#mask46_265_8159)">
<path d="M90.9586 34.8253V35.5847C90.781 35.5581 90.6211 35.487 90.6211 35.3005V34.5411C90.6211 34.7232 90.781 34.7943 90.9586 34.8253Z" fill="#BABABA"/>
</g>
<mask id="mask47_265_8159" style="mask-type:luminance" maskUnits="userSpaceOnUse" x="90" y="28" width="12" height="8">
<path d="M101.4 28.2086V28.968C101.4 32.7427 98.2735 34.8254 94.8848 35.4249C93.8988 35.5981 93.0461 35.6647 92.2999 35.6647C91.8114 35.6647 91.3672 35.6336 90.9631 35.5848V34.8254C91.3672 34.8742 91.8114 34.9053 92.2999 34.9053C93.0461 34.9053 93.9033 34.8387 94.8848 34.6655C98.2735 34.066 101.4 31.9877 101.4 28.2086Z" fill="white"/>
</mask>
<g mask="url(#mask47_265_8159)">
<path d="M101.4 28.2086V28.968C101.4 32.7427 98.2735 34.8254 94.8848 35.4249C93.8988 35.5981 93.0461 35.6647 92.2999 35.6647C91.8114 35.6647 91.3672 35.6336 90.9631 35.5848V34.8254C91.3672 34.8742 91.8114 34.9053 92.2999 34.9053C93.0461 34.9053 93.9033 34.8387 94.8848 34.6655C98.2735 34.066 101.4 31.9877 101.4 28.2086Z" fill="#BABABA"/>
</g>
<path d="M101.485 18.4433C101.827 18.4433 102.115 18.4566 102.315 18.4832C102.475 18.5143 102.613 18.5721 102.613 18.7541V18.8119L102.173 21.4097C102.133 21.6362 101.978 21.8272 101.756 21.8627C100.916 21.9515 98.6644 22.1469 97.2298 22.3956C96.6746 22.4933 96.0928 22.7775 96.0928 23.4436C96.0928 23.7278 96.2927 23.8699 96.9722 24.1586L99.4016 25.1844C100.836 25.7795 101.391 26.792 101.391 28.2041C101.391 31.9788 98.2646 34.0615 94.8759 34.661C93.8899 34.8342 93.0372 34.9008 92.291 34.9008C91.8025 34.9008 91.3583 34.8698 90.9542 34.8209C90.7765 34.7943 90.6166 34.7232 90.6166 34.5367V34.479L91.0341 31.9255C91.0741 31.6946 91.2518 31.4814 91.496 31.4415C92.3532 31.3704 94.4673 31.2194 95.5199 31.0329C96.3149 30.8953 96.9766 30.4956 96.9766 29.5852C96.9766 29.2833 96.7768 29.0967 96.1994 28.817L93.6279 27.5513C92.4731 26.9874 91.918 25.775 91.918 24.5227C91.918 20.8902 94.7249 19.3092 97.896 18.7541C99.0641 18.5454 100.503 18.4388 101.485 18.4388V18.4433Z" fill="white"/>
<path d="M77.5502 42.2238C77.5103 42.2149 77.4703 42.206 77.4303 42.2016C76.9284 42.1305 76.1112 42.1971 75.5649 42.2993C74.7833 42.4458 74.126 42.7522 73.6108 43.183C73.2288 42.9698 72.7847 42.8899 72.3494 42.9743L71.4256 43.1519C71.0792 43.2141 70.7683 43.3739 70.5151 43.5915C69.8712 43.3917 69.2671 43.5027 69.0229 43.5471C68.4544 43.6537 67.9747 43.858 67.575 44.1422C67.2685 44.0356 66.9354 43.9957 66.6068 44.0623L65.754 44.2221C65.4653 44.2754 65.1989 44.3953 64.9679 44.5596C64.6659 44.4841 64.3683 44.4841 64.1107 44.533L63.4134 44.6662C63.2402 44.6973 63.0759 44.7595 62.9205 44.835C62.7472 44.8216 62.574 44.8261 62.4008 44.8572L61.4681 45.0348C61.2994 45.0659 61.1439 45.1236 60.9929 45.1947C60.9441 45.1947 60.8952 45.1858 60.8463 45.1858C60.6065 45.1947 60.1713 45.2169 59.4962 45.3457C58.2082 45.5899 57.311 46.216 56.8003 47.2019C56.6893 47.0109 56.556 46.8289 56.3784 46.6868C55.9475 46.3315 55.3835 46.185 54.8328 46.2915L53.8912 46.4692C53.5537 46.5358 53.2472 46.6912 52.9941 46.9088C52.3501 46.709 51.7416 46.82 51.4973 46.8688C50.9288 46.9754 50.4492 47.1797 50.045 47.4639C49.7386 47.3573 49.4054 47.3218 49.0768 47.384L48.2152 47.5483C47.9309 47.6016 47.6689 47.7215 47.4379 47.8858C47.1404 47.8103 46.8384 47.8103 46.5808 47.8591L45.8835 47.9924C45.5237 48.059 45.1951 48.2322 44.9241 48.472C44.4445 48.3299 43.9115 48.3032 43.3519 48.4098C42.9255 48.4897 42.3748 48.6585 41.833 49.0004C41.5309 48.9027 41.2067 48.8761 40.887 48.9382L39.9454 49.1159C39.7278 49.1603 39.5235 49.2402 39.3369 49.3512C38.8706 49.3202 38.3687 49.3512 37.8446 49.4534C37.2273 49.5688 36.7165 49.7731 36.2857 50.0396C36.077 49.9774 35.8638 49.9463 35.6373 49.9641C35.3619 49.9774 34.9267 50.0085 34.2871 50.1284C33.9141 50.1994 33.1146 50.3504 32.4084 50.9366C31.9243 50.7723 31.2981 50.6968 30.4853 50.8522C29.8813 50.9677 29.335 51.1231 29.0064 51.2386C28.1137 51.5628 27.5896 52.2067 27.4519 53.1348L26.7946 57.3402C26.7813 57.4335 26.7724 57.5445 26.7724 57.6378C26.7724 58.2062 27.0211 58.7391 27.4519 59.0943C27.7894 59.3741 28.2114 59.5251 28.6466 59.5251C28.7665 59.5251 28.882 59.5118 29.0019 59.4896L29.0685 59.4762C29.2196 59.5162 29.375 59.5429 29.5305 59.5429C29.6415 59.5429 29.757 59.534 29.8724 59.5118L29.9524 59.4984C30.1034 59.5429 30.2588 59.5695 30.4143 59.5695C30.5209 59.5695 30.6319 59.5606 30.7385 59.5384L30.8406 59.5206C30.9916 59.5651 31.1427 59.5917 31.3025 59.5917C31.4047 59.5917 31.5068 59.5828 31.609 59.5651L31.7289 59.5429C31.8755 59.5873 32.0309 59.6139 32.1864 59.6139C32.2841 59.6139 32.3818 59.605 32.4795 59.5873L32.6127 59.5606C32.7593 59.6095 32.9148 59.6361 33.0658 59.6361C33.159 59.6361 33.2523 59.6272 33.3456 59.6095L33.501 59.5784C33.6476 59.6272 33.7986 59.6539 33.954 59.6539C34.0429 59.6539 34.1272 59.645 34.2161 59.6272L34.3937 59.5917C34.5358 59.645 34.6868 59.6716 34.8423 59.6716C34.9222 59.6716 35.0066 59.6628 35.0866 59.6494L35.2864 59.6095C35.4241 59.6628 35.5707 59.6938 35.7217 59.6938C35.7972 59.6938 35.8771 59.685 35.9526 59.6716L36.1791 59.6272C36.3124 59.6805 36.4589 59.716 36.6055 59.716C36.6766 59.716 36.7476 59.7116 36.8187 59.6938L37.4405 59.5784C37.5959 59.5473 37.738 59.4896 37.8624 59.4052C38.0134 59.4407 38.1733 59.4407 38.3154 59.4096L38.9861 59.2808C39.1548 59.2498 39.3103 59.1787 39.4435 59.081C39.559 59.1032 39.6834 59.1165 39.8166 59.1165C39.9498 59.1165 40.1142 59.1032 40.2829 59.0721C40.696 58.9922 40.9758 58.9078 41.1979 58.8368C41.3533 58.7835 41.4821 58.6947 41.5931 58.5925C41.602 58.5925 41.6109 58.5925 41.6198 58.5925C41.6287 58.5925 41.6375 58.5925 41.6464 58.5925C41.8196 58.6458 42.0017 58.6769 42.1927 58.6769C42.3215 58.6769 42.4547 58.6636 42.5835 58.6414C42.9433 58.5748 43.2986 58.4682 43.6495 58.3261C43.7161 58.3394 43.7827 58.3438 43.8493 58.3438C43.9204 58.3438 43.9915 58.3394 44.0625 58.3261L44.6843 58.2062C44.9241 58.1618 45.1329 58.0463 45.2972 57.882C45.4837 57.9397 45.6792 57.9753 45.8879 57.9753C46.0256 57.9753 46.1677 57.9619 46.3143 57.9353C46.6429 57.8731 47.0027 57.7532 47.3402 57.5312C47.469 57.58 47.6023 57.6067 47.7444 57.6067C47.8154 57.6067 47.8865 57.6022 47.9576 57.5889L48.5261 57.4823C48.717 57.4468 48.8903 57.3669 49.0368 57.2514C49.2145 57.3047 49.4099 57.3136 49.6098 57.2781L50.0805 57.1892C50.1649 57.1715 50.2493 57.1448 50.3292 57.1093C50.3426 57.1093 50.3603 57.1093 50.3737 57.1093C50.4403 57.1093 50.5069 57.1049 50.5691 57.0915L51.2353 56.9628C51.4218 56.9272 51.5995 56.8473 51.746 56.7318C51.9237 56.7851 52.1102 56.7984 52.2834 56.7674L52.9319 56.643C52.9319 56.643 52.9363 56.643 52.9408 56.643C53.1095 56.6075 53.265 56.5364 53.3982 56.4387C53.5181 56.4609 53.6425 56.4787 53.7846 56.4787C53.9267 56.4787 54.0866 56.4654 54.2554 56.4299C54.4819 56.3855 54.815 56.3011 55.0149 56.2256C55.197 56.1634 55.348 56.0568 55.4723 55.9281C55.6322 56.0035 55.8099 56.048 55.9831 56.048C56.0497 56.048 56.1163 56.0435 56.1785 56.0302L56.7958 55.9147C57.0756 55.8614 57.3199 55.706 57.4976 55.4929C57.5198 55.4795 57.542 55.4662 57.5642 55.4484C57.7463 55.5683 57.9595 55.6305 58.1815 55.6305C58.2526 55.6305 58.3237 55.6261 58.3947 55.6128L59.021 55.4929C59.1275 55.4706 59.2297 55.4351 59.3274 55.3863C59.3585 55.3863 59.3896 55.3952 59.4207 55.3952C59.4917 55.3952 59.5628 55.3907 59.6339 55.3774L60.2024 55.2708C60.3933 55.2353 60.5665 55.1554 60.7131 55.0399C60.8908 55.0932 61.0862 55.1065 61.286 55.0665L61.7568 54.9777C61.8412 54.96 61.9256 54.9333 62.0011 54.8978C62.0144 54.8978 62.0322 54.8978 62.0455 54.8978C62.1121 54.8978 62.1788 54.8933 62.2454 54.88L62.9116 54.7512C63.0981 54.7157 63.2713 54.6358 63.4223 54.5159C63.6 54.5692 63.7865 54.5825 63.9642 54.5514L64.6126 54.4271C64.7858 54.396 64.9413 54.3205 65.0789 54.2228C65.1944 54.245 65.3232 54.2628 65.4653 54.2628C65.6075 54.2628 65.7674 54.2494 65.9361 54.2183C66.1626 54.1739 66.4957 54.0896 66.6956 54.0141C66.7489 53.9963 66.7933 53.9652 66.8466 53.9386C66.9088 53.9386 66.971 53.9519 67.0331 53.9519C67.2552 53.9519 67.4861 53.9297 67.7304 53.8808C68.1079 53.8098 68.4366 53.6721 68.7297 53.4945C69.0584 53.4146 69.3604 53.2947 69.6224 53.1348C69.9511 53.0549 70.2487 52.935 70.5151 52.7751C70.8394 52.6907 71.1414 52.5708 71.4078 52.4154C71.7187 52.331 72.0119 52.2244 72.2695 52.0779C72.5937 51.9935 72.8957 51.8692 73.1622 51.7182C73.4864 51.6294 73.784 51.5095 74.0593 51.3585C74.3658 51.2697 74.6545 51.1542 74.921 51.0077C75.2363 50.9188 75.5339 50.7989 75.8048 50.6524C77.5547 50.1506 78.705 48.7295 78.705 46.9932C78.705 46.6468 78.6517 46.3226 78.554 46.0251C78.7316 45.7764 78.856 45.4878 78.9048 45.168L79.0292 44.3642C79.0425 44.271 79.0514 44.16 79.0514 44.0667C79.0514 43.1741 78.4341 42.4192 77.5502 42.2282V42.2238Z" fill="black"/>
<path d="M31.4802 55.324L32.0354 56.9183C32.0354 56.9183 32.0399 56.9493 32.0399 56.9627C32.0399 57.0293 31.9954 57.0914 31.9244 57.1048L30.9206 57.2957C30.8584 57.309 30.8451 57.2469 30.8274 57.1891L30.3477 55.7592C30.2233 55.7814 30.1034 55.8036 29.9746 55.8169L29.7303 57.3979C29.7215 57.4689 29.6548 57.5355 29.5927 57.5488L28.6689 57.7265C28.6111 57.7354 28.5712 57.6998 28.5712 57.6377V57.6199L29.2285 53.4145C29.2729 53.1081 29.3706 53.0192 29.6238 52.926C29.8592 52.8461 30.3166 52.7128 30.8229 52.6151C31.7334 52.4419 32.4174 52.6684 32.4174 53.5299C32.4174 54.2493 32.1198 54.9332 31.4802 55.3284V55.324ZM30.7385 53.6942C30.5831 53.7253 30.3921 53.7653 30.2944 53.7919L30.1345 54.8133C30.1967 54.8089 30.2678 54.7956 30.3344 54.7822C30.401 54.7689 30.4765 54.7556 30.552 54.7423C31.005 54.6579 31.2493 54.4225 31.2493 53.9296C31.2493 53.6987 31.1027 53.6276 30.743 53.6942H30.7385Z" fill="#FECD19"/>
<path d="M35.8284 51.8603L35.7085 52.6463C35.6951 52.7174 35.633 52.784 35.5708 52.7973L34.416 53.0149C34.2117 53.0549 34.1318 53.1437 34.0918 53.3879L34.0163 53.8587L35.4198 53.5922C35.4775 53.5833 35.5175 53.6188 35.5175 53.681V53.6988L35.3976 54.4582C35.3842 54.5292 35.331 54.5958 35.2643 54.6091L33.8609 54.8756L33.7765 55.4085C33.772 55.4573 33.7632 55.4973 33.7632 55.5373C33.7632 55.6794 33.8298 55.7105 33.9985 55.6794L35.1533 55.4618C35.211 55.4529 35.251 55.4884 35.251 55.5506V55.5684L35.1266 56.3544C35.1133 56.4299 35.0689 56.4787 34.9934 56.5054C34.7713 56.5809 34.4205 56.6874 33.8697 56.794C33.2035 56.9228 32.5906 56.7763 32.5906 55.9547C32.5906 55.857 32.604 55.746 32.6173 55.6305L32.9326 53.61C33.1325 52.3133 33.8165 52.0424 34.6248 51.8914C35.1799 51.7848 35.5264 51.7626 35.7395 51.7537C35.8017 51.7493 35.8328 51.7715 35.8328 51.8381V51.8647L35.8284 51.8603Z" fill="#FECD19"/>
<path d="M39.4925 51.2518L39.3592 52.0645C39.3459 52.14 39.3237 52.171 39.266 52.1799C39.2615 52.1799 39.2526 52.1799 39.2482 52.1799C39.0306 52.211 38.5731 52.251 38.1512 52.3309C37.5783 52.4375 37.3384 52.6728 37.2141 53.4455L37.1075 54.1294C37.0853 54.2893 37.0719 54.4181 37.0719 54.5291C37.0719 55.0087 37.2896 55.0487 37.5027 55.0087C37.6093 54.9865 37.7248 54.9599 37.8225 54.9288L38.0268 53.6099C38.0401 53.5388 38.089 53.4722 38.1512 53.4633L39.0528 53.2946C39.1105 53.2857 39.1505 53.3212 39.1505 53.3834V53.4011L38.8129 55.5549C38.7952 55.6526 38.7685 55.6881 38.6708 55.7237C38.3288 55.8658 37.8758 56.0256 37.3207 56.1278C36.6811 56.2477 35.8861 55.9946 35.8861 54.8444C35.8861 54.6934 35.8994 54.5247 35.9261 54.3426L36.0327 53.6676C36.3347 51.7936 37.3295 51.3673 38.1689 51.2074C38.7641 51.0964 39.1683 51.1186 39.3903 51.1452C39.4481 51.1541 39.488 51.1585 39.488 51.2163C39.488 51.2207 39.4836 51.234 39.4836 51.2474L39.4925 51.2518Z" fill="#FECD19"/>
<path d="M41.3222 50.7989L40.616 55.3285C40.6027 55.3996 40.5627 55.4618 40.4783 55.4795L39.5412 55.6571C39.4746 55.6705 39.4391 55.6127 39.4479 55.5506L40.1541 51.021C40.1674 50.9499 40.2207 50.8877 40.2874 50.8789L41.2245 50.7012C41.2867 50.6879 41.3311 50.719 41.3222 50.7989Z" fill="#FECD19"/>
<path d="M45.1107 51.9624L45.0042 52.6241C44.7466 54.1872 43.9826 54.8711 42.9212 55.071C42.1173 55.2219 41.4511 54.8578 41.4511 53.8009C41.4511 53.6455 41.4688 53.4723 41.4955 53.2858L41.6021 52.6241C41.8686 50.9943 42.6991 50.3548 43.6851 50.1683C44.4801 50.0173 45.1552 50.346 45.1552 51.4251C45.1552 51.5894 45.1418 51.7626 45.1107 51.958V51.9624ZM43.5074 51.3229C43.1077 51.3984 42.8945 51.7137 42.7835 52.402L42.6769 53.0637C42.6547 53.2191 42.6369 53.3435 42.6369 53.4589C42.6369 53.8453 42.7968 53.9785 43.1033 53.9208C43.503 53.8453 43.7162 53.5344 43.8272 52.8461L43.9338 52.1844C43.956 52.029 43.9738 51.9002 43.9738 51.7892C43.9738 51.4029 43.8139 51.2652 43.5074 51.3229Z" fill="#FECD19"/>
<path d="M49.5076 49.258L48.8237 53.6677C48.8014 53.7965 48.686 53.9253 48.5749 53.9475L47.8643 54.0807C47.7622 54.0985 47.7 54.0629 47.6511 53.9519L46.8073 52.0202C46.7895 51.9802 46.7718 51.9758 46.754 51.9802C46.7362 51.9802 46.7273 51.998 46.7184 52.0424L46.3765 54.2361C46.3631 54.3072 46.301 54.3738 46.2388 54.3871L45.3816 54.5514C45.3239 54.5603 45.2839 54.5248 45.2839 54.4626V54.4448L45.9679 50.0351C45.9901 49.9064 46.1055 49.7776 46.221 49.7554L46.9183 49.6221C47.0249 49.5999 47.0738 49.6666 47.1182 49.7643L47.9887 51.7537C48.0064 51.7937 48.0109 51.807 48.0286 51.8026C48.0464 51.8026 48.0642 51.7893 48.0686 51.7404L48.4239 49.4623C48.4372 49.3912 48.4994 49.3246 48.5616 49.3113L49.4188 49.147C49.4765 49.1381 49.5121 49.1736 49.5121 49.2314V49.258H49.5076Z" fill="#FECD19"/>
<path d="M52.8519 53.1347L51.8793 53.3212C51.8216 53.3301 51.7816 53.2813 51.7816 53.2191L51.7638 52.3531L50.7468 52.5441L50.4447 53.4678C50.4225 53.5344 50.3692 53.601 50.3115 53.6099L49.2989 53.8008C49.2456 53.8097 49.2189 53.7831 49.2189 53.7342C49.2189 53.7209 49.2234 53.7031 49.2323 53.6809L50.6135 49.5999C50.8356 48.9382 51.2886 48.7295 51.8304 48.6273C52.3723 48.5252 52.7853 48.5696 52.8075 49.1869L52.9541 52.9793C52.9541 53.0548 52.9097 53.117 52.8475 53.1303L52.8519 53.1347ZM51.7372 49.7775C51.7372 49.7198 51.7372 49.6887 51.6839 49.702C51.6306 49.7109 51.6261 49.742 51.6084 49.8041L51.071 51.4916L51.7549 51.3628L51.7327 49.7819L51.7372 49.7775Z" fill="#FECD19"/>
<path d="M55.9965 51.6338L55.8721 52.4198C55.8633 52.4953 55.8144 52.5442 55.7389 52.5708C55.5213 52.6552 55.1393 52.7618 54.8373 52.8151C54.1933 52.9394 53.5582 52.8284 53.5582 51.9846C53.5582 51.8869 53.5715 51.7759 53.5849 51.656L54.0912 48.3876C54.1045 48.3165 54.1711 48.2455 54.2333 48.2366L55.166 48.059C55.2237 48.0501 55.2592 48.0856 55.2592 48.1433V48.17L54.7529 51.4384C54.7485 51.4828 54.7396 51.5228 54.7396 51.5583C54.7396 51.7004 54.8062 51.7404 54.975 51.7093L55.8988 51.5361C55.9565 51.5272 55.9965 51.5628 55.9965 51.6249V51.6427V51.6338Z" fill="#FECD19"/>
<path d="M61.033 47.0909L60.9086 47.8769C60.8953 47.948 60.842 48.0146 60.7798 48.0279L59.625 48.2455C59.4207 48.2855 59.3408 48.3743 59.3008 48.6185L59.2253 49.0804L60.6332 48.8139C60.691 48.8006 60.7309 48.8406 60.7309 48.9027V48.9205L60.611 49.6799C60.5977 49.7509 60.54 49.8175 60.4778 49.8309L59.0743 50.0973L58.7945 51.8869C58.7812 51.958 58.719 52.0246 58.6568 52.0379L57.7242 52.2156C57.6664 52.2244 57.6309 52.1889 57.6309 52.1312V52.1045L58.1372 48.8361C58.3371 47.5305 59.061 47.2552 59.8294 47.1131C60.3845 47.0065 60.7265 46.9932 60.9397 46.9843C61.0019 46.9799 61.0374 47.011 61.0374 47.0642V47.0909H61.033Z" fill="#FECD19"/>
<path d="M62.8272 46.7268L62.121 51.2564C62.1077 51.3274 62.0677 51.3896 61.9834 51.4074L61.0462 51.585C60.9796 51.5983 60.9441 51.5406 60.953 51.4784L61.6591 46.9488C61.6725 46.8778 61.7302 46.8156 61.7924 46.8067L62.7295 46.6291C62.7917 46.6157 62.8361 46.6468 62.8272 46.7312V46.7268Z" fill="#FECD19"/>
<path d="M67.0243 45.9362L66.3403 50.3459C66.3181 50.4747 66.2027 50.6035 66.0916 50.6257L65.381 50.7589C65.2789 50.7767 65.2167 50.7412 65.1678 50.6301L64.324 48.6984C64.3062 48.6584 64.2884 48.654 64.2707 48.6584C64.2529 48.6584 64.244 48.6762 64.2351 48.7206L63.8932 50.9144C63.8798 50.9854 63.8177 51.052 63.7555 51.0653L62.8983 51.2296C62.8406 51.2385 62.8006 51.203 62.8006 51.1408V51.1231L63.4846 46.7134C63.5068 46.5846 63.6222 46.4558 63.7377 46.4336L64.435 46.3004C64.546 46.2782 64.5904 46.3448 64.6349 46.4425L65.5054 48.4319C65.5231 48.4719 65.5276 48.4852 65.5453 48.4808C65.5631 48.4808 65.5809 48.4675 65.5853 48.4186L65.9406 46.1405C65.9539 46.0695 66.0161 46.0028 66.0783 45.9895L66.9355 45.8252C66.9932 45.8163 67.0288 45.8519 67.0288 45.9096V45.9362H67.0243Z" fill="#FECD19"/>
<path d="M70.3686 49.8131L69.396 49.9951C69.3382 50.004 69.2983 49.9596 69.2983 49.8974L69.2805 49.0315L68.2634 49.2224L67.9614 50.1461C67.9392 50.2127 67.8859 50.2793 67.8282 50.2882L66.8156 50.4792C66.7623 50.4881 66.7356 50.4614 66.7356 50.4126C66.7356 50.3992 66.7401 50.3815 66.7489 50.3593L68.1302 46.2782C68.3523 45.6165 68.8053 45.4078 69.3471 45.3057C69.889 45.2035 70.302 45.2479 70.3242 45.8652L70.4708 49.6576C70.4708 49.7331 70.4264 49.7953 70.3642 49.8086L70.3686 49.8131ZM69.2539 46.4558C69.2539 46.3981 69.2539 46.367 69.2006 46.3759C69.1473 46.3848 69.1428 46.4159 69.1251 46.478L68.5877 48.1655L69.2716 48.0367L69.2494 46.4558H69.2539Z" fill="#FECD19"/>
<path d="M73.5131 48.3122L73.3887 49.0982C73.3754 49.1737 73.331 49.2225 73.2555 49.2492C73.0378 49.3335 72.6559 49.4357 72.3539 49.4934C71.7099 49.6177 71.0748 49.5067 71.0748 48.663C71.0748 48.5653 71.0881 48.4543 71.1014 48.3344L71.6077 45.0659C71.6211 44.9949 71.6877 44.9238 71.7499 44.9149L72.6825 44.7373C72.7403 44.7284 72.7758 44.764 72.7758 44.8217V44.8483L72.2695 48.1168C72.2651 48.1612 72.2562 48.2011 72.2562 48.2367C72.2562 48.3788 72.3228 48.4187 72.4916 48.3876L73.4154 48.21C73.4731 48.2011 73.5131 48.2367 73.5131 48.2988V48.3166V48.3122Z" fill="#FECD19"/>
<path d="M77.2571 44.0844L77.1328 44.8882C77.1195 44.9593 77.075 45.017 77.0129 45.0303C77.0129 45.0303 77.0084 45.0303 76.9995 45.0303C76.773 45.057 76.1246 45.1147 75.716 45.1946C75.5561 45.2257 75.3918 45.3145 75.3918 45.5188C75.3918 45.6076 75.4495 45.652 75.6449 45.7409L76.3422 46.0606C76.7553 46.2427 76.9152 46.558 76.9152 46.9932C76.9152 48.1611 76.018 48.805 75.0453 48.9871C74.579 49.0759 74.2104 49.0759 73.9217 49.0359C73.8684 49.027 73.824 49.0048 73.824 48.9471V48.9293L73.9439 48.1389C73.9572 48.0678 74.0061 48.0012 74.0771 47.9879C74.0771 47.9879 74.0816 47.9879 74.0905 47.9879C74.3258 47.9701 74.9299 47.9213 75.2319 47.8636C75.4584 47.8191 75.6494 47.6948 75.6494 47.415C75.6494 47.3218 75.5916 47.2641 75.4273 47.1752L74.69 46.7844C74.3569 46.6113 74.197 46.2338 74.197 45.8474C74.197 44.7239 75.0009 44.2354 75.9114 44.0622C76.3644 43.9779 76.9551 43.9468 77.1816 43.9779C77.226 43.9867 77.266 44.0045 77.266 44.0622V44.08L77.2571 44.0844Z" fill="#FECD19"/>
<defs>
<linearGradient id="paint0_linear_265_8159" x1="52.7187" y1="8.09186" x2="52.7187" y2="81.84" gradientUnits="userSpaceOnUse">
<stop stop-color="#1F9C7D"/>
<stop offset="1" stop-color="#10101C"/>
</linearGradient>
</defs>
</svg>
