<svg width="67" height="60" viewBox="0 0 67 60" fill="none" xmlns="http://www.w3.org/2000/svg">
<path opacity="0.2" fill-rule="evenodd" clip-rule="evenodd" d="M51.9444 17.4296L44.2928 3.9663L50.2028 0.5L57.8544 13.9633C60.6582 18.8967 60.6582 24.9749 57.8544 29.9083L55.8016 33.5203L49.8916 30.054L51.9444 26.442C53.5291 23.6535 53.5291 20.2181 51.9444 17.4296ZM32.006 7.48804L16.7027 7.48804L16.7027 0.555453L32.006 0.55545C37.6136 0.555449 42.7952 3.59454 45.599 8.52793L47.6518 12.1399L41.7418 15.6062L39.689 11.9942C38.1043 9.20578 35.1755 7.48804 32.006 7.48804ZM7.65162 16.5921C10.4554 11.6587 15.637 8.61964 21.2446 8.61964H25.3503V15.5522H21.2446C18.0751 15.5522 15.1464 17.27 13.5616 20.0584L5.91001 33.5217L0 30.0554L7.65162 16.5921ZM53.4384 39.9415L61.09 26.4782L67 29.9445L59.3484 43.4078C56.5446 48.3412 51.363 51.3803 45.7554 51.3803H41.6497V44.4477H45.7554C48.9249 44.4477 51.8536 42.73 53.4384 39.9415ZM17.1085 29.946L15.0557 33.558C13.471 36.3465 13.471 39.7819 15.0557 42.5704L22.7074 56.0337L16.7974 59.5L9.14573 46.0367C6.34193 41.1033 6.34193 35.0251 9.14572 30.0917L11.1985 26.4797L17.1085 29.946ZM25.2583 44.3937L27.3111 48.0057C28.8958 50.7942 31.8246 52.5119 34.9941 52.5119L50.2973 52.5119V59.4445L34.9941 59.4445C29.3865 59.4445 24.2049 56.4054 21.4011 51.472L19.3483 47.86L25.2583 44.3937Z" fill="#0FB3A2"/>
</svg>
