<?xml version="1.0" encoding="UTF-8" standalone="no"?>
<svg
   width="73.016113"
   height="84.58815"
   viewBox="0 0 73.016113 84.58815"
   fill="none"
   version="1.1"
   id="svg248"
   sodipodi:docname="APAC Major 2024.svg"
   inkscape:version="1.3.2 (091e20e, 2023-11-25, custom)"
   xmlns:inkscape="http://www.inkscape.org/namespaces/inkscape"
   xmlns:sodipodi="http://sodipodi.sourceforge.net/DTD/sodipodi-0.dtd"
   xmlns="http://www.w3.org/2000/svg"
   xmlns:svg="http://www.w3.org/2000/svg">
  <sodipodi:namedview
     id="namedview248"
     pagecolor="#505050"
     bordercolor="#eeeeee"
     borderopacity="1"
     inkscape:showpageshadow="0"
     inkscape:pageopacity="0"
     inkscape:pagecheckerboard="0"
     inkscape:deskcolor="#505050"
     inkscape:zoom="6.7833333"
     inkscape:cx="55.577396"
     inkscape:cy="59.77887"
     inkscape:window-width="2560"
     inkscape:window-height="1417"
     inkscape:window-x="-8"
     inkscape:window-y="-8"
     inkscape:window-maximized="1"
     inkscape:current-layer="svg248" />
  <path
     d="m 36.4767,83.67335 c -1.55,0 -3.0823,-0.413 -4.4325,-1.199 L 5.3473,67.16255 c -1.3413,-0.755 -2.4694,-1.8607 -3.251,-3.1929 -0.7817,-1.3323 -1.1948,-2.8555 -1.1948,-4.4053 v -47.9561 c 0,-1.2612 0.4886,-2.4513 1.3857,-3.3439 C 3.251,7.3007 4.4413,7.06977 5.2274,6.91879 L 35.5307,1.04362 c 0.4574,-0.08881 0.9238,-0.13322 1.3857,-0.13322 0.4619,0 0.9549,0.04885 1.4212,0.14211 0,0 21.0919,4.19654 29.4505,5.86628 2.6204,0.52406 4.317,2.36696 4.317,4.68946 v 47.9694 c 0.0133,1.5498 -0.3908,3.073 -1.1769,4.4053 -0.7862,1.3366 -1.9231,2.4424 -3.2866,3.1929 l -26.6836,15.303 c -1.3413,0.7815 -2.8958,1.1945 -4.4813,1.1945 z"
     fill="#ffffff"
     id="path1" />
  <path
     d="m 36.9164,1.82072 c 0.4175,0 0.835,0.03997 1.2436,0.12435 0,0 21.0875,4.19654 29.4461,5.86628 2.1762,0.4352 3.5841,1.9273 3.5841,3.7969 v 47.9694 c 0.0134,1.3944 -0.3508,2.7577 -1.0481,3.9434 -0.7018,1.1946 -1.7099,2.1804 -2.9446,2.8554 l -26.6969,15.3119 c -1.2081,0.7016 -2.6026,1.0746 -4.0283,1.0746 -1.3902,0 -2.767,-0.373 -3.9706,-1.0746 L 5.8004,66.37205 c -1.2081,-0.6795 -2.2162,-1.6698 -2.918,-2.8643 -0.6973,-1.1902 -1.0659,-2.5579 -1.0659,-3.9434 v -47.9561 c 0,-1.0214 0.3953,-1.9806 1.1192,-2.7 0.7684,-0.7683 1.7499,-0.9592 2.4694,-1.0969 L 35.7039,1.93618 C 36.1037,1.86069 36.5123,1.82072 36.9164,1.82072 Z M 36.9164,0 C 36.3923,0 35.8683,0.04885 35.3575,0.15099 L 5.0631,6.02171 C 4.2193,6.18602 2.8114,6.45691 1.6522,7.62035 0.5863,8.68615 0,10.10275 0,11.60825 v 47.9516 c 0,1.7186 0.4575,3.3972 1.3191,4.8716 0.8616,1.4743 2.1052,2.6955 3.5975,3.5304 l 26.688,15.3074 c 1.4745,0.8615 3.1666,1.3189 4.8766,1.3189 1.7454,0 3.4553,-0.4574 4.9432,-1.3189 l 26.6747,-15.2985 c 1.5056,-0.8305 2.758,-2.0472 3.6197,-3.5216 0.866,-1.4699 1.3146,-3.1574 1.2968,-4.8804 v -47.9605 c 0,-2.7356 -2.0297,-4.97815 -5.0453,-5.5821 C 59.7005,4.37418 38.7285,0.19984 38.5153,0.15987 37.9912,0.05329 37.4494,0 36.9164,0 Z"
     fill="#000000"
     id="path2" />
  <path
     fill-rule="evenodd"
     clip-rule="evenodd"
     d="m 36.4768,80.94655 c -1.0704,0 -2.1274,-0.2886 -3.0645,-0.8349 L 6.6976,64.79095 c -0.9327,-0.524 -1.7055,-1.2834 -2.2429,-2.2026 -0.5329,-0.9148 -0.8172,-1.9584 -0.8172,-3.0242 v -47.9561 c 0,-0.5329 0.2087,-1.0347 0.5863,-1.4121 0.3464,-0.3464 0.8305,-0.4619 1.5322,-0.5951 L 36.0504,3.73013 c 0.2843,-0.05329 0.5774,-0.08438 0.8661,-0.08438 0.2887,0 0.5951,0.03109 0.8882,0.08882 0,0 21.0875,4.19658 29.4461,5.86628 0.4975,0.0977 2.123,0.5373 2.123,2.0161 v 47.9827 c 0.0089,1.0658 -0.2665,2.1094 -0.7995,3.0109 -0.5374,0.9148 -1.3057,1.6653 -2.2295,2.1715 l -26.7502,15.343 c -0.9371,0.5417 -2.0119,0.8304 -3.1178,0.8304 z"
     fill="url(#paint0_linear_265_6564)"
     id="path3"
     style="fill:url(#paint0_linear_265_6564)" />
  <path
     d="m 36.9165,4.24554 c 0.2576,0 0.5197,0.02664 0.7728,0.07549 0.2088,0.03997 21.1852,4.21432 29.4461,5.86632 0.382,0.0755 1.6344,0.4041 1.6344,1.421 v 47.9916 c 0.0089,0.9548 -0.2398,1.8829 -0.7151,2.6956 -0.4796,0.8171 -1.1725,1.4921 -1.9986,1.9451 l -0.0577,0.031 -26.7058,15.3208 c -0.8394,0.4884 -1.812,0.746 -2.8069,0.746 -0.9638,0 -1.9142,-0.2575 -2.7669,-0.7549 L 6.9996,64.25835 c -0.8305,-0.4663 -1.5278,-1.1501 -2.0119,-1.9761 -0.4796,-0.8216 -0.7328,-1.7586 -0.7328,-2.7178 v -47.9605 c 0,-0.373 0.1421,-0.7194 0.4086,-0.9859 0.2221,-0.2265 0.6262,-0.3153 1.2169,-0.4307 L 36.1748,4.31659 c 0.2487,-0.04885 0.4974,-0.07105 0.7506,-0.07105 m 0,-1.21234 c -0.3287,0 -0.6573,0.03109 -0.9815,0.09326 0,0 -20.9099,4.05444 -30.2944,5.87069 -0.684,0.1333 -1.3502,0.2709 -1.8432,0.7638 -0.493,0.493 -0.7639,1.1458 -0.7639,1.843 v 47.9561 c 0,1.1723 0.3109,2.3269 0.9016,3.3305 0.5907,1.0081 1.4434,1.8474 2.4649,2.4203 l 26.7103,15.3207 c 1.0348,0.5995 2.194,0.9148 3.371,0.9148 1.2213,0 2.3938,-0.3153 3.4198,-0.9104 l 26.7013,-15.3162 c 0,0 0.0267,-0.0134 0.04,-0.0222 1.0171,-0.5596 1.8698,-1.39 2.4605,-2.3936 0.5863,-0.9992 0.8927,-2.1449 0.8838,-3.3173 v -47.9783 c 0,-1.4388 -1.1991,-2.327 -2.607,-2.6112 C 59.0299,7.32301 37.9425,3.1309 37.9425,3.1309 37.6094,3.06429 37.2718,3.0332 36.9343,3.0332 Z"
     fill="#e94560"
     id="path4" />
  <path
     fill-rule="evenodd"
     clip-rule="evenodd"
     d="m 6.2579,65.31505 26.7102,15.3208 c 1.0349,0.5995 2.194,0.9148 3.371,0.9148 0.0089,0 0.0178,0 0.0266,0 V 3.05078 c -0.1909,0.01332 -0.3819,0.03997 -0.5729,0.0755 0,0 -20.9098,4.05444 -30.2944,5.87067 -0.684,0.1333 -1.3501,0.2709 -1.8431,0.7639 -0.493,0.4929 -0.7639,1.1457 -0.7639,1.8429 v 47.9561 c 0,1.1723 0.3109,2.3269 0.9016,3.3306 0.5907,1.008 1.4434,1.8473 2.4649,2.4202 z"
     fill="#10101c"
     fill-opacity="0.2"
     id="path5" />
  <path
     d="m 61.5748,34.78925 c 0,-0.0444 0,-0.0933 0,-0.1377 l -0.5197,-12.2788 c -0.0844,-2.1094 -1.0481,-3.3128 -1.8387,-3.9523 -1.9186,-1.5454 -4.4413,-1.1013 -5.3918,-0.9326 -0.9637,0.1688 -3.4154,0.604 -5.2408,2.6778 -0.0222,-0.0222 -0.0444,-0.0532 -0.0666,-0.0754 -0.8172,-0.7994 -1.9586,-1.1369 -3.1178,-0.9326 l -3.2688,0.5773 c -0.6929,0.1243 -1.3147,0.4396 -1.8254,0.8837 -0.0222,-0.0044 -0.04,-0.0089 -0.0622,-0.0133 -0.0711,-0.0133 -0.1421,-0.0267 -0.2132,-0.0355 -1.3279,-0.1777 -3.8018,0.0088 -5.4273,0.293 -3.4998,0.6173 -5.6005,2.0295 -6.8574,3.606 -0.151,-0.1555 -0.2976,-0.2976 -0.4442,-0.4175 -1.9186,-1.5454 -4.4413,-1.1013 -5.3917,-0.9325 -1.2791,0.2265 -5.1653,0.9103 -6.742,5.249 l -4.8189,13.2291 c -0.0177,0.0533 -0.0399,0.1155 -0.0577,0.1687 -0.0533,0.1777 -0.1821,0.5862 -0.1821,1.1147 0,1.0436 0.4486,2.0161 1.2347,2.6733 0.4708,0.3953 1.0304,0.6484 1.63,0.755 0.3198,0.1732 0.6662,0.2975 1.0304,0.3597 0.3197,0.1776 0.6662,0.2975 1.0304,0.3597 0.3197,0.1821 0.675,0.302 1.0437,0.3597 0.3198,0.1865 0.6751,0.3064 1.0437,0.3597 0.3198,0.1909 0.6706,0.3108 1.0437,0.3597 0.3153,0.1954 0.6706,0.3153 1.0437,0.3597 0.3154,0.1998 0.6662,0.3197 1.0393,0.3597 0.3109,0.2043 0.6662,0.3286 1.0437,0.3597 0.3464,0.2398 0.755,0.373 1.1814,0.373 0.1244,0 0.2532,-0.0133 0.382,-0.0355 l 2.1185,-0.373 c 0.6218,-0.111 1.1725,-0.493 1.5278,-1.048 0,0 0.0089,0.0044 0.0089,0.0088 0.4797,0.4041 1.1103,0.5729 1.7365,0.4619 l 2.0297,-0.3597 c 0.3509,-0.0622 0.6662,-0.2087 0.9327,-0.4086 0.2798,0.0267 0.5641,0.0444 0.8572,0.0444 0.5996,0 1.2258,-0.0577 1.8965,-0.1776 1.2346,-0.2176 2.3095,-0.6661 3.1755,-1.2923 0.3509,0.2443 0.7728,0.3775 1.2081,0.3775 0.1243,0 0.2487,-0.0089 0.3775,-0.0311 l 1.963,-0.3464 c 0.2354,-0.0399 0.4619,-0.1199 0.6662,-0.2265 0.0933,0.0134 0.1866,0.0222 0.2798,0.0222 0.1244,0 0.2532,-0.0088 0.3776,-0.031 l 2.1096,-0.3731 c 0.5951,-0.1021 1.1281,-0.4618 1.4834,-0.9769 0.0267,-0.0178 0.0533,-0.0311 0.08,-0.0489 0.4796,0.3952 1.1014,0.5596 1.7188,0.453 l 2.0341,-0.3597 c 0.5463,-0.0977 1.0126,-0.3864 1.3368,-0.7949 0.4264,-0.1421 0.7995,-0.3908 1.0793,-0.7239 0.4175,-0.1465 0.7817,-0.3952 1.0659,-0.7194 0.4175,-0.151 0.7817,-0.4041 1.0704,-0.7238 0.4174,-0.1599 0.7816,-0.413 1.0792,-0.7328 0.4086,-0.1598 0.7684,-0.413 1.0659,-0.7238 0.4175,-0.1688 0.795,-0.4219 1.1015,-0.7372 0.4086,-0.1732 0.7728,-0.4219 1.0792,-0.7283 0.4042,-0.1776 0.7639,-0.4219 1.0704,-0.7283 1.3191,-0.5861 2.2073,-1.9095 2.2073,-3.4371 z"
     fill="#000000"
     id="path6" />
  <mask
     id="mask0_265_6564"
     maskUnits="userSpaceOnUse"
     x="38"
     y="32"
     width="1"
     height="2">
    <path
       d="m 38.7123,32.3157 v 0.7593 c 0,-0.1598 0,-0.2575 -0.1199,-0.2575 -0.0178,0 -0.0356,0 -0.0578,0.0044 -0.1821,0.0311 -0.1998,0.1377 -0.2576,0.3286 v -0.7593 c 0.0578,-0.191 0.08,-0.2931 0.2576,-0.3287 0.0222,0 0.04,-0.0044 0.0578,-0.0044 0.1199,0 0.1199,0.0977 0.1199,0.2576 z"
       fill="#ffffff"
       id="path7" />
  </mask>
  <g
     mask="url(#mask0_265_6564)"
     id="g8"
     transform="translate(-16.581,-2.66455)">
    <path
       d="m 38.7123,32.3157 v 0.7593 c 0,-0.1598 0,-0.2575 -0.1199,-0.2575 -0.0178,0 -0.0356,0 -0.0578,0.0044 -0.1821,0.0311 -0.1998,0.1377 -0.2576,0.3286 v -0.7593 c 0.0578,-0.191 0.08,-0.2931 0.2576,-0.3287 0.0222,0 0.04,-0.0044 0.0578,-0.0044 0.1199,0 0.1199,0.0977 0.1199,0.2576 z"
       fill="#bababa"
       id="path8" />
  </g>
  <path
     d="m 22.2112,34.75775 v 0.755 l -0.08,-5.1069 v -0.755 z"
     fill="#b3b3b3"
     id="path9" />
  <path
     d="m 21.6916,29.72655 v 0.7549 l -1.8698,5.4578 v -0.7594 z"
     fill="#b3b3b3"
     id="path10" />
  <path
     d="m 22.2335,37.98195 v 0.7594 l -3.5487,0.6261 v -0.7594 z"
     fill="#b3b3b3"
     id="path11" />
  <mask
     id="mask1_265_6564"
     maskUnits="userSpaceOnUse"
     x="42"
     y="42"
     width="1"
     height="2">
    <path
       d="m 42.9804,42.6804 v 0.7594 c 0,0.2442 -0.1599,0.4485 -0.3775,0.4885 v -0.7594 c 0.2176,-0.04 0.3775,-0.2487 0.3775,-0.4885 z"
       fill="#ffffff"
       id="path12" />
  </mask>
  <g
     mask="url(#mask1_265_6564)"
     id="g13"
     transform="translate(-16.581,-2.66455)">
    <path
       d="m 42.9804,42.6804 v 0.7594 c 0,0.2442 -0.1599,0.4485 -0.3775,0.4885 v -0.7594 c 0.2176,-0.04 0.3775,-0.2487 0.3775,-0.4885 z"
       fill="#bababa"
       id="path13" />
  </g>
  <path
     d="m 22.2912,40.77515 v 0.7594 l -0.0578,-2.7932 v -0.7594 z"
     fill="#b3b3b3"
     id="path14" />
  <path
     d="m 26.0175,40.50435 v 0.7594 l -3.3843,0.5951 v -0.7594 z"
     fill="#b3b3b3"
     id="path15" />
  <mask
     id="mask2_265_6564"
     maskUnits="userSpaceOnUse"
     x="38"
     y="43"
     width="2"
     height="2">
    <path
       d="m 39.2142,43.7639 v 0.7594 c 0,0 -0.0399,0.0044 -0.0577,0.0044 -0.1688,0 -0.2842,-0.1466 -0.2842,-0.3286 v -0.7594 c 0,0.1821 0.1154,0.3286 0.2842,0.3286 0.0178,0 0.0355,0 0.0577,-0.0044 z"
       fill="#ffffff"
       id="path16" />
  </mask>
  <g
     mask="url(#mask2_265_6564)"
     id="g17"
     transform="translate(-16.581,-2.66455)">
    <path
       d="m 39.2142,43.7639 v 0.7594 c 0,0 -0.0399,0.0044 -0.0577,0.0044 -0.1688,0 -0.2842,-0.1466 -0.2842,-0.3286 v -0.7594 c 0,0.1821 0.1154,0.3286 0.2842,0.3286 0.0178,0 0.0355,0 0.0577,-0.0044 z"
       fill="#bababa"
       id="path17" />
  </g>
  <path
     d="m 18.6849,38.60815 v 0.7594 l -1.0526,2.9886 v -0.7593 z"
     fill="#b3b3b3"
     id="path18" />
  <mask
     id="mask3_265_6564"
     maskUnits="userSpaceOnUse"
     x="33"
     y="44"
     width="2"
     height="2">
    <path
       d="m 34.2133,44.2612 v 0.7594 c -0.0799,0.2132 -0.262,0.4263 -0.4619,0.4618 v -0.7593 c 0.1999,-0.0356 0.382,-0.2487 0.4619,-0.4619 z"
       fill="#ffffff"
       id="path19" />
  </mask>
  <g
     mask="url(#mask3_265_6564)"
     id="g20"
     transform="translate(-16.581,-2.66455)">
    <path
       d="m 34.2133,44.2612 v 0.7594 c -0.0799,0.2132 -0.262,0.4263 -0.4619,0.4618 v -0.7593 c 0.1999,-0.0356 0.382,-0.2487 0.4619,-0.4619 z"
       fill="#bababa"
       id="path20" />
  </g>
  <path
     d="m 17.1703,42.05855 v 0.7594 l -3.522,0.6217 v -0.7593 z"
     fill="#b3b3b3"
     id="path21" />
  <mask
     id="mask4_265_6564"
     maskUnits="userSpaceOnUse"
     x="29"
     y="45"
     width="2"
     height="2">
    <path
       d="m 30.2293,45.3448 v 0.7593 c -0.0266,0.0045 -0.0488,0.0089 -0.071,0.0089 -0.1333,0 -0.2088,-0.0799 -0.2088,-0.222 v -0.7594 c 0,0.1421 0.0755,0.222 0.2088,0.222 0.0222,0 0.0444,0 0.071,-0.0088 z"
       fill="#ffffff"
       id="path22" />
  </mask>
  <g
     mask="url(#mask4_265_6564)"
     id="g23"
     transform="translate(-16.581,-2.66455)">
    <path
       d="m 30.2293,45.3448 v 0.7593 c -0.0266,0.0045 -0.0488,0.0089 -0.071,0.0089 -0.1333,0 -0.2088,-0.0799 -0.2088,-0.222 v -0.7594 c 0,0.1421 0.0755,0.222 0.2088,0.222 0.0222,0 0.0444,0 0.071,-0.0088 z"
       fill="#bababa"
       id="path23" />
  </g>
  <path
     d="m 25.8798,27.75475 0.5196,12.2611 c 0,0.2442 -0.1599,0.4485 -0.3775,0.4884 l -3.3843,0.5951 c 0,0 -0.04,0.0044 -0.0577,0.0044 -0.1688,0 -0.2843,-0.1465 -0.2843,-0.3286 l -0.0577,-2.7932 -3.5442,0.6261 -1.057,2.9887 c -0.08,0.2131 -0.2621,0.4263 -0.4619,0.4618 l -3.5265,0.6217 c -0.0266,0.0045 -0.0488,0.0089 -0.071,0.0089 -0.1333,0 -0.2088,-0.0799 -0.2088,-0.222 0,-0.04 0.0178,-0.1022 0.04,-0.1688 l 4.8189,-13.198 c 0.7772,-2.1316 2.3494,-2.8155 4.2459,-3.1441 0.4796,-0.0844 0.9327,-0.1376 1.3413,-0.1376 1.1947,0 2.003,0.4618 2.0652,1.9361 z m -6.0536,7.425 2.3895,-0.4218 -0.08,-5.1069 c 0,-0.1599 0,-0.2576 -0.1199,-0.2576 -0.0178,0 -0.0355,0 -0.0577,0.0044 -0.1821,0.0311 -0.1999,0.1377 -0.2576,0.3287 l -1.8698,5.4532"
     fill="#ffffff"
     id="path24" />
  <mask
     id="mask5_265_6564"
     maskUnits="userSpaceOnUse"
     x="62"
     y="24"
     width="1"
     height="2">
    <path
       d="m 62.8864,24.9175 v 0.7594 c 0,0.0222 0,0.0488 -0.0044,0.0754 V 24.993 c 0,-0.0267 0.0044,-0.0533 0.0044,-0.0755 z"
       fill="#ffffff"
       id="path25" />
  </mask>
  <g
     mask="url(#mask5_265_6564)"
     id="g26"
     transform="translate(-16.581,-2.66455)">
    <path
       d="m 62.8864,24.9175 v 0.7594 c 0,0.0222 0,0.0488 -0.0044,0.0754 V 24.993 c 0,-0.0267 0.0044,-0.0533 0.0044,-0.0755 z"
       fill="#bababa"
       id="path26" />
  </g>
  <mask
     id="mask6_265_6564"
     maskUnits="userSpaceOnUse"
     x="70"
     y="26"
     width="1"
     height="2">
    <path
       d="m 70.632,26.6982 v 0.7594 c 0,-0.1599 0,-0.2576 -0.1199,-0.2576 -0.0178,0 -0.0355,0 -0.0578,0.0045 -0.1776,0.0311 -0.1998,0.1377 -0.2576,0.3286 v -0.7594 c 0.0578,-0.1909 0.08,-0.2931 0.2576,-0.3286 0.0223,0 0.04,-0.0044 0.0578,-0.0044 0.1199,0 0.1199,0.0977 0.1199,0.2575 z"
       fill="#ffffff"
       id="path27" />
  </mask>
  <g
     mask="url(#mask6_265_6564)"
     id="g28"
     transform="translate(-16.581,-2.66455)">
    <path
       d="m 70.632,26.6982 v 0.7594 c 0,-0.1599 0,-0.2576 -0.1199,-0.2576 -0.0178,0 -0.0355,0 -0.0578,0.0045 -0.1776,0.0311 -0.1998,0.1377 -0.2576,0.3286 v -0.7594 c 0.0578,-0.1909 0.08,-0.2931 0.2576,-0.3286 0.0223,0 0.04,-0.0044 0.0578,-0.0044 0.1199,0 0.1199,0.0977 0.1199,0.2575 z"
       fill="#bababa"
       id="path28" />
  </g>
  <path
     d="m 39.8832,23.75835 v 0.7593 l -0.4397,2.6023 v -0.7593 z"
     fill="#b3b3b3"
     id="path29" />
  <mask
     id="mask7_265_6564"
     maskUnits="userSpaceOnUse"
     x="55"
     y="29"
     width="2"
     height="2">
    <path
       d="m 56.0246,29.0251 v 0.7594 c -0.04,0.2265 -0.1954,0.4175 -0.4175,0.4574 v -0.7594 c 0.2176,-0.0399 0.3775,-0.2309 0.4175,-0.4574 z"
       fill="#ffffff"
       id="path30" />
  </mask>
  <g
     mask="url(#mask7_265_6564)"
     id="g31"
     transform="translate(-16.581,-2.66455)">
    <path
       d="m 56.0246,29.0251 v 0.7594 c -0.04,0.2265 -0.1954,0.4175 -0.4175,0.4574 v -0.7594 c 0.2176,-0.0399 0.3775,-0.2309 0.4175,-0.4574 z"
       fill="#bababa"
       id="path31" />
  </g>
  <mask
     id="mask8_265_6564"
     maskUnits="userSpaceOnUse"
     x="49"
     y="29"
     width="7"
     height="3">
    <path
       d="m 55.6114,29.4824 v 0.7594 c -0.8394,0.0844 -3.0911,0.2798 -4.5257,0.5285 -0.5552,0.0976 -1.137,0.3819 -1.137,1.048 v -0.7594 c 0,-0.6661 0.5774,-0.9503 1.137,-1.048 1.4346,-0.2531 3.6863,-0.4485 4.5257,-0.5285 z"
       fill="#ffffff"
       id="path32" />
  </mask>
  <g
     mask="url(#mask8_265_6564)"
     id="g33"
     transform="translate(-16.581,-2.66455)">
    <path
       d="m 55.6114,29.4824 v 0.7594 c -0.8394,0.0844 -3.0911,0.2798 -4.5257,0.5285 -0.5552,0.0976 -1.137,0.3819 -1.137,1.048 v -0.7594 c 0,-0.6661 0.5774,-0.9503 1.137,-1.048 1.4346,-0.2531 3.6863,-0.4485 4.5257,-0.5285 z"
       fill="#bababa"
       id="path33" />
  </g>
  <path
     d="m 54.131,29.14505 v 0.7549 l -0.0799,-5.1069 v -0.7594 z"
     fill="#b3b3b3"
     id="path34" />
  <path
     d="m 53.6114,24.10915 v 0.7594 l -1.8698,5.4532 v -0.7549 z"
     fill="#b3b3b3"
     id="path35" />
  <mask
     id="mask9_265_6564"
     maskUnits="userSpaceOnUse"
     x="45"
     y="32"
     width="3"
     height="4">
    <path
       d="m 47.4793,35.1665 v 0.7594 c -1.1548,-0.564 -1.7099,-1.7763 -1.7099,-3.0242 v -0.7594 c 0,1.2479 0.5551,2.4647 1.7099,3.0242 z"
       fill="#ffffff"
       id="path36" />
  </mask>
  <g
     mask="url(#mask9_265_6564)"
     id="g37"
     transform="translate(-16.581,-2.66455)">
    <path
       d="m 47.4793,35.1665 v 0.7594 c -1.1548,-0.564 -1.7099,-1.7763 -1.7099,-3.0242 v -0.7594 c 0,1.2479 0.5551,2.4647 1.7099,3.0242 z"
       fill="#bababa"
       id="path37" />
  </g>
  <path
     d="m 54.1489,32.36885 v 0.7594 l -3.5442,0.6262 v -0.7594 z"
     fill="#b3b3b3"
     id="path38" />
  <path
     d="m 33.4699,33.76785 v 0.7593 l -2.5715,-1.2656 v -0.7594 z"
     fill="#b3b3b3"
     id="path39" />
  <mask
     id="mask10_265_6564"
     maskUnits="userSpaceOnUse"
     x="50"
     y="36"
     width="1"
     height="2">
    <path
       d="M 50.8282,37.2006 V 37.96 c 0,-0.302 -0.1999,-0.4885 -0.7772,-0.7683 v -0.7593 c 0.5773,0.2797 0.7772,0.4663 0.7772,0.7682 z"
       fill="#ffffff"
       id="path40" />
  </mask>
  <g
     mask="url(#mask10_265_6564)"
     id="g41"
     transform="translate(-16.581,-2.66455)">
    <path
       d="M 50.8282,37.2006 V 37.96 c 0,-0.302 -0.1999,-0.4885 -0.7772,-0.7683 v -0.7593 c 0.5773,0.2797 0.7772,0.4663 0.7772,0.7682 z"
       fill="#bababa"
       id="path41" />
  </g>
  <mask
     id="mask11_265_6564"
     maskUnits="userSpaceOnUse"
     x="74"
     y="37"
     width="1"
     height="2">
    <path
       d="m 74.8959,37.0674 v 0.7594 c 0,0.2442 -0.1599,0.4485 -0.382,0.4884 v -0.7593 c 0.2221,-0.04 0.382,-0.2487 0.382,-0.4885 z"
       fill="#ffffff"
       id="path42" />
  </mask>
  <g
     mask="url(#mask11_265_6564)"
     id="g43"
     transform="translate(-16.581,-2.66455)">
    <path
       d="m 74.8959,37.0674 v 0.7594 c 0,0.2442 -0.1599,0.4485 -0.382,0.4884 v -0.7593 c 0.2221,-0.04 0.382,-0.2487 0.382,-0.4885 z"
       fill="#bababa"
       id="path43" />
  </g>
  <path
     d="m 54.211,35.16215 v 0.7594 l -0.0622,-2.7933 v -0.7594 z"
     fill="#b3b3b3"
     id="path44" />
  <path
     d="m 57.9373,34.89135 v 0.7594 l -3.3888,0.5951 v -0.7594 z"
     fill="#b3b3b3"
     id="path45" />
  <mask
     id="mask12_265_6564"
     maskUnits="userSpaceOnUse"
     x="70"
     y="37"
     width="2"
     height="2">
    <path
       d="m 71.1295,38.1508 v 0.7594 c 0,0 -0.04,0.0045 -0.0578,0.0045 -0.1688,0 -0.2842,-0.1466 -0.2842,-0.3287 v -0.7593 c 0,0.182 0.1154,0.3286 0.2842,0.3286 0.0178,0 0.0355,0 0.0578,-0.0045 z"
       fill="#ffffff"
       id="path46" />
  </mask>
  <g
     mask="url(#mask12_265_6564)"
     id="g47"
     transform="translate(-16.581,-2.66455)">
    <path
       d="m 71.1295,38.1508 v 0.7594 c 0,0 -0.04,0.0045 -0.0578,0.0045 -0.1688,0 -0.2842,-0.1466 -0.2842,-0.3287 v -0.7593 c 0,0.182 0.1154,0.3286 0.2842,0.3286 0.0178,0 0.0355,0 0.0578,-0.0045 z"
       fill="#bababa"
       id="path47" />
  </g>
  <path
     d="m 50.6046,32.99515 v 0.7593 l -1.0571,2.9887 v -0.7594 z"
     fill="#b3b3b3"
     id="path48" />
  <mask
     id="mask13_265_6564"
     maskUnits="userSpaceOnUse"
     x="65"
     y="38"
     width="2"
     height="2">
    <path
       d="m 66.1286,38.6482 v 0.7594 c -0.08,0.2131 -0.2576,0.4263 -0.4575,0.4618 V 39.11 c 0.1999,-0.0355 0.382,-0.2486 0.4575,-0.4618 z"
       fill="#ffffff"
       id="path49" />
  </mask>
  <g
     mask="url(#mask13_265_6564)"
     id="g50"
     transform="translate(-16.581,-2.66455)">
    <path
       d="m 66.1286,38.6482 v 0.7594 c -0.08,0.2131 -0.2576,0.4263 -0.4575,0.4618 V 39.11 c 0.1999,-0.0355 0.382,-0.2486 0.4575,-0.4618 z"
       fill="#bababa"
       id="path50" />
  </g>
  <path
     d="m 46.301,22.32835 v 0.7594 l -2.4738,14.6413 v -0.7594 z"
     fill="#b3b3b3"
     id="path51" />
  <path
     d="m 49.0902,36.44555 v 0.7594 l -3.5264,0.6217 v -0.7594 z"
     fill="#b3b3b3"
     id="path52" />
  <path
     d="m 57.7952,22.14175 0.5196,12.261 c 0,0.2443 -0.1599,0.4485 -0.382,0.4885 l -3.3843,0.5951 c 0,0 -0.0399,0.0044 -0.0577,0.0044 -0.1688,0 -0.2842,-0.1465 -0.2842,-0.3286 l -0.0578,-2.7933 -3.5442,0.6262 -1.057,2.9886 c -0.08,0.2132 -0.2576,0.4264 -0.4575,0.4619 l -3.5264,0.6217 c -0.0266,0.0044 -0.0489,0.0089 -0.0711,0.0089 -0.1332,0 -0.2087,-0.08 -0.2087,-0.2221 0,-0.0399 0.0222,-0.1021 0.04,-0.1687 l 4.8188,-13.198 c 0.7817,-2.1316 2.3495,-2.8155 4.246,-3.1441 0.4796,-0.0844 0.9326,-0.1377 1.3412,-0.1377 1.1948,0 2.0031,0.4619 2.0653,1.9362 z m -6.0536,7.425 2.3895,-0.4219 -0.08,-5.1069 c 0,-0.1598 0,-0.2575 -0.1199,-0.2575 -0.0178,0 -0.0355,0 -0.0577,0.0044 -0.1777,0.0311 -0.1999,0.1377 -0.2576,0.3286 l -1.8698,5.4533"
     fill="#ffffff"
     id="path53" />
  <mask
     id="mask14_265_6564"
     maskUnits="userSpaceOnUse"
     x="61"
     y="39"
     width="2"
     height="2">
    <path
       d="m 62.1447,39.7317 v 0.7594 C 62.1181,40.4955 62.0958,40.5 62.0736,40.5 c -0.1332,0 -0.2087,-0.08 -0.2087,-0.2221 v -0.7593 c 0,0.1421 0.0755,0.222 0.2087,0.222 0.0222,0 0.0445,0 0.0711,-0.0089 z"
       fill="#ffffff"
       id="path54" />
  </mask>
  <g
     mask="url(#mask14_265_6564)"
     id="g55"
     transform="translate(-16.581,-2.66455)">
    <path
       d="m 62.1447,39.7317 v 0.7594 C 62.1181,40.4955 62.0958,40.5 62.0736,40.5 c -0.1332,0 -0.2087,-0.08 -0.2087,-0.2221 v -0.7593 c 0,0.1421 0.0755,0.222 0.2087,0.222 0.0222,0 0.0445,0 0.0711,-0.0089 z"
       fill="#bababa"
       id="path55" />
  </g>
  <mask
     id="mask15_265_6564"
     maskUnits="userSpaceOnUse"
     x="59"
     y="39"
     width="2"
     height="2">
    <path
       d="m 60.4082,39.634 v 0.7594 c -0.04,0.2265 -0.1777,0.4352 -0.4752,0.4885 v -0.7594 c 0.2975,-0.0533 0.4352,-0.2575 0.4752,-0.4885 z"
       fill="#ffffff"
       id="path56" />
  </mask>
  <g
     mask="url(#mask15_265_6564)"
     id="g57"
     transform="translate(-16.581,-2.66455)">
    <path
       d="m 60.4082,39.634 v 0.7594 c -0.04,0.2265 -0.1777,0.4352 -0.4752,0.4885 v -0.7594 c 0.2975,-0.0533 0.4352,-0.2575 0.4752,-0.4885 z"
       fill="#bababa"
       id="path57" />
  </g>
  <path
     d="m 43.3519,37.45365 v 0.7593 l -3.2688,0.5773 v -0.7593 z"
     fill="#b3b3b3"
     id="path58" />
  <mask
     id="mask16_265_6564"
     maskUnits="userSpaceOnUse"
     x="56"
     y="40"
     width="1"
     height="2">
    <path
       d="m 56.3353,41.1839 v -0.7593 c 0,0.1554 0.0933,0.2753 0.2576,0.2753 0.0222,0 0.0444,0 0.0711,-0.0045 v 0.7594 c -0.0267,0.0045 -0.0489,0.0045 -0.0711,0.0045 -0.1643,0 -0.2576,-0.1199 -0.2576,-0.2754 z"
       fill="#ffffff"
       id="path59" />
  </mask>
  <g
     mask="url(#mask16_265_6564)"
     id="g60"
     transform="translate(-16.581,-2.66455)">
    <path
       d="m 56.664,40.6954 v 0.7594 c -0.0267,0.0045 -0.0489,0.0045 -0.0711,0.0045 -0.1643,0 -0.2576,-0.1199 -0.2576,-0.2754 v -0.7593 c 0,0.1554 0.0933,0.2753 0.2576,0.2753 0.0222,0 0.0444,0 0.0711,-0.0045 z"
       fill="#bababa"
       id="path60" />
  </g>
  <path
     d="m 46.0522,21.99515 c 0.1688,0 0.2843,0.1021 0.2487,0.333 l -2.4694,14.6413 c -0.0399,0.2265 -0.1776,0.4352 -0.4752,0.4885 l -3.2688,0.5729 c -0.0267,0.0044 -0.0489,0.0044 -0.0711,0.0044 -0.191,0 -0.2842,-0.1643 -0.2487,-0.3553 l 2.4694,-14.6412 c 0.04,-0.2265 0.2398,-0.4219 0.4575,-0.4619 l 3.2643,-0.5729 c 0.0311,-0.0044 0.0622,-0.0088 0.0889,-0.0088 z"
     fill="#ffffff"
     id="path61" />
  <mask
     id="mask17_265_6564"
     maskUnits="userSpaceOnUse"
     x="44"
     y="42"
     width="1"
     height="2">
    <path
       d="m 44.8101,42.4363 v 0.7594 C 44.6324,43.169 44.4725,43.098 44.4725,42.9115 v -0.7594 c 0,0.1821 0.1599,0.2531 0.3376,0.2842 z"
       fill="#ffffff"
       id="path62" />
  </mask>
  <g
     mask="url(#mask17_265_6564)"
     id="g63"
     transform="translate(-16.581,-2.66455)">
    <path
       d="m 44.8101,42.4363 v 0.7594 C 44.6324,43.169 44.4725,43.098 44.4725,42.9115 v -0.7594 c 0,0.1821 0.1599,0.2531 0.3376,0.2842 z"
       fill="#bababa"
       id="path63" />
  </g>
  <path
     d="m 38.7507,23.38965 c 0.342,0 0.6307,0.0134 0.8306,0.04 0.1598,0.0311 0.302,0.0888 0.302,0.2709 v 0.0577 l -0.4397,2.5979 c -0.04,0.2265 -0.1954,0.4174 -0.4175,0.4574 -0.8394,0.0844 -3.0912,0.2798 -4.5257,0.5284 -0.5552,0.0977 -1.137,0.382 -1.137,1.0481 0,0.2842 0.1998,0.4307 0.8794,0.7149 l 2.4294,1.0259 c 1.4301,0.595 1.9897,1.6075 1.9897,3.0197 0,3.7747 -3.1267,5.8574 -6.5155,6.4569 -0.9859,0.1732 -1.8387,0.2398 -2.5848,0.2398 -0.4886,0 -0.9327,-0.0311 -1.3369,-0.0799 -0.1776,-0.0267 -0.3375,-0.0977 -0.3375,-0.2842 v -0.0578 l 0.4175,-2.5534 c 0.04,-0.2265 0.2176,-0.4441 0.4619,-0.4841 0.8572,-0.071 2.9712,-0.222 4.0238,-0.4085 0.795,-0.1377 1.4568,-0.5374 1.4568,-1.4477 0,-0.302 -0.1999,-0.4885 -0.7772,-0.7683 l -2.5716,-1.2656 c -1.1547,-0.564 -1.7099,-1.7763 -1.7099,-3.0242 0,-3.6325 2.8069,-5.2179 5.9781,-5.773 1.168,-0.2087 2.607,-0.3153 3.5886,-0.3153 z"
     fill="#ffffff"
     id="path64" />
  <mask
     id="mask18_265_6564"
     maskUnits="userSpaceOnUse"
     x="44"
     y="35"
     width="12"
     height="9">
    <path
       d="m 55.2518,35.8193 v 0.7594 c 0,3.7747 -3.1267,5.8574 -6.5155,6.4569 -0.986,0.1732 -1.8387,0.2398 -2.5848,0.2398 -0.4886,0 -0.9327,-0.0311 -1.3369,-0.0799 v -0.7594 c 0.4042,0.0489 0.8483,0.0799 1.3369,0.0799 0.7461,0 1.6033,-0.0666 2.5848,-0.2398 3.3888,-0.5995 6.5155,-2.6778 6.5155,-6.4569 z"
       fill="#ffffff"
       id="path65" />
  </mask>
  <g
     mask="url(#mask18_265_6564)"
     id="g66"
     transform="translate(-16.581,-2.66455)">
    <path
       d="m 55.2518,35.8193 v 0.7594 c 0,3.7747 -3.1267,5.8574 -6.5155,6.4569 -0.986,0.1732 -1.8387,0.2398 -2.5848,0.2398 -0.4886,0 -0.9327,-0.0311 -1.3369,-0.0799 v -0.7594 c 0.4042,0.0489 0.8483,0.0799 1.3369,0.0799 0.7461,0 1.6033,-0.0666 2.5848,-0.2398 3.3888,-0.5995 6.5155,-2.6778 6.5155,-6.4569 z"
       fill="#bababa"
       id="path66" />
  </g>
  <path
     d="m 55.2769,36.81415 c -0.715,-0.1377 -1.4301,-0.0666 -1.9053,0.0177 -0.4974,0.0888 -0.9593,0.2265 -1.3857,0.413 -0.2887,-0.0266 -0.5818,-0.0177 -0.8705,0.0355 l -0.875,0.1555 c -0.1421,0.0266 -0.2798,0.0666 -0.413,0.1066 -0.2576,0.0088 -0.7106,0.0355 -1.3724,0.1554 -0.4885,0.0844 -0.9149,0.2176 -1.2969,0.3774 -0.262,-0.0177 -0.5285,0 -0.7905,0.0445 l -0.875,0.1554 c -0.1421,0.0266 -0.2842,0.0666 -0.4219,0.111 -0.3864,0 -0.7417,0.04 -1.0126,0.0888 -0.684,0.1199 -1.3013,0.342 -1.8476,0.6439 -0.5419,-0.111 -1.1326,-0.1154 -1.7677,0 -0.6884,0.1199 -1.248,0.342 -1.7143,0.6173 -0.5818,-0.1021 -1.2081,-0.1066 -1.8565,0.0089 -0.4397,0.0799 -1.0881,0.222 -1.5989,0.3908 -0.2087,0.071 -0.3997,0.1598 -0.5862,0.2531 -0.2354,-0.04 -0.4708,-0.0533 -0.7107,-0.04 -0.2975,0.0134 -0.7594,0.0444 -1.4345,0.1599 -0.4841,0.0844 -0.9105,0.2132 -1.2924,0.373 -0.2532,-0.0133 -0.5108,0 -0.7684,0.0444 l -0.8661,0.151 c -0.2176,0.04 -0.4308,0.0977 -0.6306,0.1777 -0.2221,0 -0.4397,0.0133 -0.6618,0.0488 l -0.8438,0.151 c -0.0933,0.0177 -0.1777,0.0444 -0.2665,0.0666 -0.1288,0.0089 -0.2532,0.0222 -0.382,0.0444 l -2.6515,0.4663 c -0.5551,0.0977 -1.0659,0.3419 -1.4922,0.6794 -0.6574,-0.1865 -1.3813,-0.2264 -2.1319,-0.0932 -2.4338,0.4307 -4.0727,2.2248 -4.0993,4.4763 -0.3642,0.6483 -0.5463,1.3455 -0.5463,2.0916 0,1.2789 0.5018,2.4025 1.4168,3.1707 0.4796,0.4041 1.0303,0.675 1.6388,0.8216 0.1643,0.0621 0.3331,0.1154 0.5108,0.1598 0.1643,0.0622 0.3331,0.1155 0.5107,0.1599 0.1732,0.0666 0.3553,0.1243 0.5419,0.1643 0.151,0.0577 0.3064,0.1022 0.4663,0.1377 0.1643,0.0666 0.3375,0.1199 0.5152,0.1598 0.1643,0.0667 0.3331,0.1199 0.5152,0.1599 0.1643,0.0711 0.3375,0.1244 0.5196,0.1643 0.1644,0.0666 0.3331,0.1244 0.5152,0.1599 0.3331,0.1421 0.7018,0.2265 1.1148,0.222 0.2265,0 0.4619,-0.0222 0.7062,-0.0666 0.2087,-0.0355 0.413,-0.0888 0.6084,-0.1598 0.0844,0 0.1688,-0.0134 0.2532,-0.0311 l 0.6618,-0.1155 c 0.3242,-0.0577 0.6173,-0.1909 0.8705,-0.3775 0.1865,0.0578 0.3819,0.0933 0.5773,0.0933 0.1155,0 0.2354,-0.0089 0.3509,-0.0311 l 0.6529,-0.1154 c 0.1998,-0.0356 0.3864,-0.1022 0.5596,-0.191 0.0755,0.0089 0.1466,0.0178 0.2221,0.0178 0.1154,0 0.2309,-0.0089 0.3508,-0.0267 l 0.644,-0.1154 c 0.1643,-0.0311 0.3242,-0.08 0.4752,-0.1466 0.1644,0.0133 0.3331,0 0.5019,-0.0266 l 0.6529,-0.1155 c 0.2043,-0.0355 0.3953,-0.1066 0.5729,-0.1954 0.1066,0.0133 0.2176,0.0222 0.3376,0.0222 0.1909,0 0.3997,-0.0177 0.6173,-0.0577 0.4619,-0.08 0.7817,-0.1732 1.0482,-0.2531 0.1554,-0.0489 0.2975,-0.1199 0.4308,-0.2043 0.1421,0.0311 0.2842,0.0533 0.4308,0.0533 0.1199,0 0.2398,-0.0089 0.3553,-0.0311 l 0.6395,-0.111 c 0.3198,-0.0578 0.6129,-0.191 0.8617,-0.3775 0.1909,0.0577 0.3908,0.0933 0.5907,0.0933 0.111,0 0.2265,-0.0089 0.3375,-0.0311 l 0.6973,-0.1244 c 0.1821,-0.0311 0.3597,-0.0888 0.5285,-0.1687 0.1821,0.0177 0.3686,0.0133 0.5552,-0.0222 l 0.6706,-0.1199 h 0.0089 c 0.2043,-0.0356 0.3953,-0.111 0.5685,-0.1999 0.111,0.0134 0.2176,0.0267 0.3331,0.0267 0.191,0 0.3864,-0.0178 0.5818,-0.0533 0.2621,-0.0444 0.5152,-0.1155 0.7373,-0.1954 0.1155,0 0.2309,-0.0089 0.3464,-0.0311 l 0.644,-0.111 c 0.111,-0.0178 0.2221,-0.0489 0.3242,-0.0844 0.1022,0 0.2043,-0.0089 0.3065,-0.0266 l 0.6306,-0.111 c 0.2976,-0.0489 0.573,-0.1644 0.8128,-0.3287 0.1599,0.04 0.3242,0.0666 0.4886,0.0666 0.1199,0 0.2353,-0.0088 0.3553,-0.031 l 0.644,-0.1111 c 0.2442,-0.0444 0.4707,-0.1287 0.675,-0.2486 0.1422,0.0222 0.2887,0.0355 0.4397,0.0355 0.191,0 0.3864,-0.0178 0.5818,-0.0533 0.3909,-0.0711 0.7773,-0.191 1.0793,-0.3419 0.1732,-0.0844 0.3153,-0.1821 0.4397,-0.2887 0.0355,-0.0178 0.0755,-0.0311 0.1066,-0.0488 0.1776,-0.0844 0.3198,-0.1866 0.453,-0.2887 0.0266,-0.0133 0.0533,-0.0222 0.0799,-0.0355 0.1866,-0.0888 0.342,-0.1954 0.4841,-0.3064 0.0267,-0.0134 0.0578,-0.0222 0.0844,-0.0356 0.1866,-0.0888 0.3376,-0.1954 0.4797,-0.3019 0.0222,-0.0089 0.0489,-0.0222 0.0711,-0.0311 0.1865,-0.0933 0.3464,-0.1954 0.4885,-0.3064 0.0178,-0.0089 0.04,-0.0178 0.0577,-0.0267 0.1821,-0.0888 0.3509,-0.1998 0.5064,-0.3153 0.0133,-0.0044 0.031,-0.0133 0.0444,-0.0177 0.1865,-0.0889 0.3553,-0.1999 0.5152,-0.3198 0.0088,-0.0044 0.0222,-0.0089 0.0311,-0.0133 0.1909,-0.0933 0.3641,-0.2043 0.524,-0.3242 0.0089,0 0.0178,-0.0089 0.0267,-0.0133 0.191,-0.0933 0.3642,-0.2043 0.5285,-0.3242 0.0044,0 0.0089,-0.0044 0.0178,-0.0089 1.0348,-0.5062 1.7321,-1.4255 1.9142,-2.5312 l 0.1199,-0.6883 c 0.0311,-0.1821 0.0444,-0.3908 0.0444,-0.5773 0,-0.2132 -0.0178,-0.4219 -0.0577,-0.6262 0.1998,-0.3464 0.3375,-0.7283 0.4086,-1.1368 l 0.1199,-0.6928 c 0.0311,-0.1821 0.0488,-0.3952 0.0488,-0.5817 0,-1.6254 -1.1325,-2.9709 -2.7491,-3.2773 z"
     fill="#000000"
     id="path67" />
  <mask
     id="mask19_265_6564"
     maskUnits="userSpaceOnUse"
     x="37"
     y="49"
     width="1"
     height="1">
    <path
       d="m 37.9348,49.2039 v 0.3109 c 0,-0.1066 -0.0622,-0.1688 -0.1954,-0.1688 -0.0311,0 -0.0622,0 -0.0977,0.0089 -0.2709,0.0488 -0.4219,0.1998 -0.4219,0.4796 v -0.3109 c 0,-0.2797 0.1465,-0.4307 0.4219,-0.4796 0.0355,-0.0044 0.0666,-0.0088 0.0977,-0.0088 0.1332,0 0.1954,0.0666 0.1954,0.1687 z"
       fill="#ffffff"
       id="path68" />
  </mask>
  <g
     mask="url(#mask19_265_6564)"
     id="g69"
     transform="translate(-16.581,-2.66455)">
    <path
       d="m 37.9348,49.2039 v 0.3109 c 0,-0.1066 -0.0622,-0.1688 -0.1954,-0.1688 -0.0311,0 -0.0622,0 -0.0977,0.0089 -0.2709,0.0488 -0.4219,0.1998 -0.4219,0.4796 v -0.3109 c 0,-0.2797 0.1465,-0.4307 0.4219,-0.4796 0.0355,-0.0044 0.0666,-0.0088 0.0977,-0.0088 0.1332,0 0.1954,0.0666 0.1954,0.1687 z"
       fill="#bababa"
       id="path69" />
  </g>
  <mask
     id="mask20_265_6564"
     maskUnits="userSpaceOnUse"
     x="38"
     y="48"
     width="1"
     height="3">
    <path
       d="m 38.8719,48.9465 v 0.3109 c 0,0.5684 -0.3597,0.9148 -0.7994,1.2701 v -0.3109 c 0.4397,-0.3553 0.7994,-0.7016 0.7994,-1.2701 z"
       fill="#ffffff"
       id="path70" />
  </mask>
  <g
     mask="url(#mask20_265_6564)"
     id="g71"
     transform="translate(-16.581,-2.66455)">
    <path
       d="m 38.8719,48.9465 v 0.3109 c 0,0.5684 -0.3597,0.9148 -0.7994,1.2701 v -0.3109 c 0.4397,-0.3553 0.7994,-0.7016 0.7994,-1.2701 z"
       fill="#bababa"
       id="path71" />
  </g>
  <path
     d="m 22.6862,47.49415 v 0.3064 l -0.0044,0.0755 v -0.3064 z"
     fill="#b3b3b3"
     id="path72" />
  <mask
     id="mask21_265_6564"
     maskUnits="userSpaceOnUse"
     x="36"
     y="49"
     width="1"
     height="2">
    <path
       d="m 36.5891,50.3764 v 0.3108 C 36.3714,50.4075 36.2959,50.1588 36.2959,49.9678 V 49.657 c 0,0.1909 0.0711,0.4396 0.2932,0.7194 z"
       fill="#ffffff"
       id="path73" />
  </mask>
  <g
     mask="url(#mask21_265_6564)"
     id="g74"
     transform="translate(-16.581,-2.66455)">
    <path
       d="m 36.5891,50.3764 v 0.3108 C 36.3714,50.4075 36.2959,50.1588 36.2959,49.9678 V 49.657 c 0,0.1909 0.0711,0.4396 0.2932,0.7194 z"
       fill="#bababa"
       id="path74" />
  </g>
  <path
     d="m 21.4915,47.55205 v 0.3108 l -0.2088,0.1688 v -0.3065 z"
     fill="#b3b3b3"
     id="path75" />
  <path
     d="m 20.0437,47.76075 v 0.3064 l -0.0356,-0.0444 v -0.3108 z"
     fill="#b3b3b3"
     id="path76" />
  <mask
     id="mask22_265_6564"
     maskUnits="userSpaceOnUse"
     x="38"
     y="50"
     width="2"
     height="2">
    <path
       d="m 39.2628,50.2344 v 0.3108 c -0.0622,0.413 -0.2309,0.8216 -0.4841,1.1813 v -0.3109 c 0.2532,-0.3597 0.4175,-0.7638 0.4841,-1.1812 z"
       fill="#ffffff"
       id="path77" />
  </mask>
  <g
     mask="url(#mask22_265_6564)"
     id="g78"
     transform="translate(-16.581,-2.66455)">
    <path
       d="m 39.2628,50.2344 v 0.3108 c -0.0622,0.413 -0.2309,0.8216 -0.4841,1.1813 v -0.3109 c 0.2532,-0.3597 0.4175,-0.7638 0.4841,-1.1812 z"
       fill="#bababa"
       id="path78" />
  </g>
  <mask
     id="mask23_265_6564"
     maskUnits="userSpaceOnUse"
     x="36"
     y="50"
     width="2"
     height="2">
    <path
       d="m 37.0821,50.958 v 0.3109 c -0.2176,0.1687 -0.3065,0.3685 -0.3065,0.5462 v -0.3109 c 0,-0.1776 0.0889,-0.3774 0.3065,-0.5462 z"
       fill="#ffffff"
       id="path79" />
  </mask>
  <g
     mask="url(#mask23_265_6564)"
     id="g80"
     transform="translate(-16.581,-2.66455)">
    <path
       d="m 37.0821,50.958 v 0.3109 c -0.2176,0.1687 -0.3065,0.3685 -0.3065,0.5462 v -0.3109 c 0,-0.1776 0.0889,-0.3774 0.3065,-0.5462 z"
       fill="#bababa"
       id="path80" />
  </g>
  <path
     d="m 21.0695,48.93735 v 0.3109 l -0.5685,-0.6439 v -0.3109 z"
     fill="#b3b3b3"
     id="path81" />
  <mask
     id="mask24_265_6564"
     maskUnits="userSpaceOnUse"
     x="39"
     y="51"
     width="1"
     height="2">
    <path
       d="m 39.2494,51.9839 v 0.3108 c 0,0.0489 -0.0355,0.0933 -0.0844,0.0977 v -0.3108 c 0.0489,-0.0089 0.0844,-0.0533 0.0844,-0.0977 z"
       fill="#ffffff"
       id="path82" />
  </mask>
  <g
     mask="url(#mask24_265_6564)"
     id="g83"
     transform="translate(-16.581,-2.66455)">
    <path
       d="m 39.2494,51.9839 v 0.3108 c 0,0.0489 -0.0355,0.0933 -0.0844,0.0977 v -0.3108 c 0.0489,-0.0089 0.0844,-0.0533 0.0844,-0.0977 z"
       fill="#bababa"
       id="path83" />
  </g>
  <path
     d="m 21.6026,49.54135 v 0.3109 l -0.1066,-0.1066 v -0.3108 z"
     fill="#b3b3b3"
     id="path84" />
  <path
     d="m 22.5839,49.41695 v 0.3109 l -0.8971,0.1554 v -0.3108 z"
     fill="#b3b3b3"
     id="path85" />
  <mask
     id="mask25_265_6564"
     maskUnits="userSpaceOnUse"
     x="38"
     y="52"
     width="1"
     height="1">
    <path
       d="m 38.2679,52.2372 v 0.3108 c 0,0 -0.0178,0 -0.0267,0 -0.0222,0 -0.0355,-0.0088 -0.0577,-0.0355 v -0.3108 c 0.0266,0.0222 0.0355,0.0355 0.0577,0.0355 0.0089,0 0.0134,0 0.0267,0 z"
       fill="#ffffff"
       id="path86" />
  </mask>
  <g
     mask="url(#mask25_265_6564)"
     id="g87"
     transform="translate(-16.581,-2.66455)">
    <path
       d="m 38.2679,52.2372 v 0.3108 c 0,0 -0.0178,0 -0.0267,0 -0.0222,0 -0.0355,-0.0088 -0.0577,-0.0355 v -0.3108 c 0.0266,0.0222 0.0355,0.0355 0.0577,0.0355 0.0089,0 0.0134,0 0.0267,0 z"
       fill="#bababa"
       id="path87" />
  </g>
  <mask
     id="mask26_265_6564"
     maskUnits="userSpaceOnUse"
     x="35"
     y="51"
     width="4"
     height="2">
    <path
       d="m 38.0769,52.0995 v 0.3108 c -0.2842,0.191 -0.5862,0.3286 -0.9593,0.3908 -0.1688,0.0311 -0.3331,0.0489 -0.4841,0.0489 -0.5019,0 -0.875,-0.1999 -0.875,-0.8482 v -0.3109 c 0,0.6528 0.3776,0.8482 0.875,0.8482 0.151,0 0.3153,-0.0178 0.4841,-0.0488 0.3731,-0.0622 0.6751,-0.1999 0.9593,-0.3908 z"
       fill="#ffffff"
       id="path88" />
  </mask>
  <g
     mask="url(#mask26_265_6564)"
     id="g89"
     transform="translate(-16.581,-2.66455)">
    <path
       d="m 38.0769,52.0995 v 0.3108 c -0.2842,0.191 -0.5862,0.3286 -0.9593,0.3908 -0.1688,0.0311 -0.3331,0.0489 -0.4841,0.0489 -0.5019,0 -0.875,-0.1999 -0.875,-0.8482 v -0.3109 c 0,0.6528 0.3776,0.8482 0.875,0.8482 0.151,0 0.3153,-0.0178 0.4841,-0.0488 0.3731,-0.0622 0.6751,-0.1999 0.9593,-0.3908 z"
       fill="#bababa"
       id="path89" />
  </g>
  <path
     d="m 22.6285,47.40095 c 0.0444,0 0.0577,0.04 0.0577,0.0888 l -0.0089,0.0755 c -0.0622,0.413 -0.2309,0.8216 -0.4841,1.1813 l 0.4575,0.5196 0.0177,0.0533 c 0,0.0488 -0.0355,0.0932 -0.0843,0.0976 l -0.8972,0.1555 c 0,0 -0.0178,0 -0.0266,0 -0.0223,0 -0.0356,-0.0089 -0.0578,-0.0355 l -0.1066,-0.1066 c -0.2842,0.1909 -0.5862,0.3286 -0.9593,0.3908 -0.1688,0.031 -0.3331,0.0488 -0.4841,0.0488 -0.5019,0 -0.875,-0.1998 -0.875,-0.8482 0,-0.5551 0.4309,-0.937 0.8705,-1.2656 l -0.0355,-0.0489 c -0.2176,-0.2797 -0.2931,-0.5284 -0.2931,-0.7194 0,-0.8393 0.715,-1.199 1.4079,-1.3233 0.1199,-0.0222 0.2309,-0.0311 0.3331,-0.0311 0.5552,0 0.835,0.2886 0.835,0.6395 0,0.5684 -0.3598,0.9148 -0.7995,1.27 l -0.2087,0.1732 0.4397,0.5063 c 0.071,-0.1555 0.1377,-0.3375 0.1599,-0.524 l 0.0133,-0.0711 c 0.0133,-0.0577 0.0622,-0.1199 0.1199,-0.1288 l 0.5951,-0.1021 c 0,0 0.0134,0 0.0178,0 z m -1.9986,1.692 c 0.1643,-0.0267 0.3064,-0.08 0.4352,-0.1555 l -0.5685,-0.6439 c -0.2176,0.1688 -0.3064,0.3686 -0.3064,0.5462 0,0.151 0.0888,0.2665 0.302,0.2665 0.04,0 0.0844,0 0.1377,-0.0133 z m 0.3331,-2.0073 c 0.1865,-0.151 0.3864,-0.2886 0.3864,-0.5506 0,-0.1066 -0.0622,-0.1688 -0.1955,-0.1688 -0.031,0 -0.0621,0 -0.0977,0.0089 -0.2709,0.0489 -0.4219,0.1998 -0.4219,0.4796 0,0.0977 0.0311,0.191 0.1466,0.3064 l 0.0311,0.0311 0.1421,-0.1066"
     fill="#ffffff"
     id="path90" />
  <path
     d="m 27.4963,44.70535 v 0.3108 l -0.1199,0.7017 v -0.3109 z"
     fill="#b3b3b3"
     id="path91" />
  <mask
     id="mask27_265_6564"
     maskUnits="userSpaceOnUse"
     x="43"
     y="48"
     width="1"
     height="1">
    <path
       d="m 43.9572,48.0715 v 0.3109 c -0.0133,0.0577 -0.0666,0.111 -0.1288,0.1243 v -0.3108 c 0.0622,-0.0133 0.1155,-0.0622 0.1288,-0.1244 z"
       fill="#ffffff"
       id="path92" />
  </mask>
  <g
     mask="url(#mask27_265_6564)"
     id="g93"
     transform="translate(-16.581,-2.66455)">
    <path
       d="m 43.9572,48.0715 v 0.3109 c -0.0133,0.0577 -0.0666,0.111 -0.1288,0.1243 v -0.3108 c 0.0622,-0.0133 0.1155,-0.0622 0.1288,-0.1244 z"
       fill="#bababa"
       id="path93" />
  </g>
  <path
     d="m 27.2474,45.53125 v 0.3109 l -0.7772,0.1332 v -0.3109 z"
     fill="#b3b3b3"
     id="path94" />
  <path
     d="m 28.9841,44.44775 v 0.3064 l -0.2354,1.3989 v -0.3064 z"
     fill="#b3b3b3"
     id="path95" />
  <path
     d="m 25.3999,45.85545 v 0.3064 l -0.795,0.1466 v -0.3109 z"
     fill="#b3b3b3"
     id="path96" />
  <mask
     id="mask28_265_6564"
     maskUnits="userSpaceOnUse"
     x="41"
     y="48"
     width="1"
     height="1">
    <path
       d="m 41.186,48.6621 v 0.3109 c 0,0 -0.0134,0 -0.0178,0 -0.0444,0 -0.0711,-0.0267 -0.0711,-0.0711 v -0.3108 c 0,0.0444 0.0267,0.071 0.0711,0.071 0.0044,0 0.0133,0 0.0178,0 z"
       fill="#ffffff"
       id="path97" />
  </mask>
  <g
     mask="url(#mask28_265_6564)"
     id="g98"
     transform="translate(-16.581,-2.66455)">
    <path
       d="m 41.186,48.6621 v 0.3109 c 0,0 -0.0134,0 -0.0178,0 -0.0444,0 -0.0711,-0.0267 -0.0711,-0.0711 v -0.3108 c 0,0.0444 0.0267,0.071 0.0711,0.071 0.0044,0 0.0133,0 0.0178,0 z"
       fill="#bababa"
       id="path98" />
  </g>
  <path
     d="m 29.6768,46.61935 v 0.3109 l -1.097,0.1909 v -0.3108 z"
     fill="#b3b3b3"
     id="path99" />
  <path
     d="m 31.147,44.06125 v 0.3109 l -0.6528,3.8546 v -0.3064 z"
     fill="#b3b3b3"
     id="path100" />
  <mask
     id="mask29_265_6564"
     maskUnits="userSpaceOnUse"
     x="46"
     y="50"
     width="2"
     height="2">
    <path
       d="m 47.0751,50.585 v 0.3108 c -0.0133,0.0577 -0.0666,0.1199 -0.1287,0.1288 v -0.3109 c 0.0621,-0.0088 0.1154,-0.0666 0.1287,-0.1287 z"
       fill="#ffffff"
       id="path101" />
  </mask>
  <g
     mask="url(#mask29_265_6564)"
     id="g102"
     transform="translate(-16.581,-2.66455)">
    <path
       d="m 47.0751,50.585 v 0.3108 c -0.0133,0.0577 -0.0666,0.1199 -0.1287,0.1288 v -0.3109 c 0.0621,-0.0088 0.1154,-0.0666 0.1287,-0.1287 z"
       fill="#bababa"
       id="path102" />
  </g>
  <path
     d="m 30.3654,48.04465 v 0.3109 l -0.8528,0.151 v -0.3109 z"
     fill="#b3b3b3"
     id="path103" />
  <mask
     id="mask30_265_6564"
     maskUnits="userSpaceOnUse"
     x="46"
     y="50"
     width="1"
     height="2">
    <path
       d="m 46.0936,50.8604 v 0.3108 c 0,0 -0.0088,0 -0.0133,0 -0.0399,0 -0.0666,-0.0311 -0.0666,-0.071 v -0.3109 c 0,0.0444 0.0222,0.0711 0.0666,0.0711 0.0045,0 0.0089,0 0.0133,0 z"
       fill="#ffffff"
       id="path104" />
  </mask>
  <g
     mask="url(#mask30_265_6564)"
     id="g105"
     transform="translate(-16.581,-2.66455)">
    <path
       d="m 46.0936,50.8604 v 0.3108 c 0,0 -0.0088,0 -0.0133,0 -0.0399,0 -0.0666,-0.0311 -0.0666,-0.071 v -0.3109 c 0,0.0444 0.0222,0.0711 0.0666,0.0711 0.0045,0 0.0089,0 0.0133,0 z"
       fill="#bababa"
       id="path105" />
  </g>
  <path
     d="m 28.58,46.81035 v 0.3108 l -0.2487,1.4877 v -0.3109 z"
     fill="#b3b3b3"
     id="path106" />
  <mask
     id="mask31_265_6564"
     maskUnits="userSpaceOnUse"
     x="44"
     y="50"
     width="1"
     height="2">
    <path
       d="m 44.9122,50.9624 v 0.3109 c -0.0133,0.0621 -0.0666,0.1199 -0.1244,0.1332 v -0.3109 c 0.0578,-0.0133 0.1111,-0.0666 0.1244,-0.1332 z"
       fill="#ffffff"
       id="path107" />
  </mask>
  <g
     mask="url(#mask31_265_6564)"
     id="g108"
     transform="translate(-16.581,-2.66455)">
    <path
       d="m 44.9122,50.9624 v 0.3109 c -0.0133,0.0621 -0.0666,0.1199 -0.1244,0.1332 v -0.3109 c 0.0578,-0.0133 0.1111,-0.0666 0.1244,-0.1332 z"
       fill="#bababa"
       id="path108" />
  </g>
  <path
     d="m 28.2069,48.43115 v 0.3064 l -0.8527,0.1466 v -0.3064 z"
     fill="#b3b3b3"
     id="path109" />
  <path
     d="m 31.0714,43.97705 c 0.0444,0 0.0711,0.0222 0.0711,0.0711 v 0.0177 l -0.6529,3.8546 c -0.0133,0.0578 -0.0666,0.1199 -0.1288,0.1288 l -0.8572,0.151 c 0,0 -0.0089,0 -0.0133,0 -0.04,0 -0.0666,-0.0311 -0.0666,-0.0711 v -0.0177 l 0.2443,-1.4877 -1.097,0.191 -0.2488,1.4876 c -0.0133,0.0622 -0.0666,0.1199 -0.1243,0.1333 l -0.8572,0.1465 c 0,0 -0.0133,0 -0.0222,0 -0.04,0 -0.0711,-0.0311 -0.0711,-0.0755 v -0.0178 l 0.6529,-3.8546 c 0.0133,-0.0577 0.0666,-0.1154 0.1288,-0.1243 l 0.8572,-0.151 c 0,0 0.0133,0 0.0178,0 0.0399,0 0.071,0.0222 0.071,0.0711 v 0.0177 l -0.2354,1.3989 1.097,-0.191 0.2354,-1.4033 c 0.0133,-0.0577 0.0622,-0.111 0.1199,-0.1199 l 0.8572,-0.151 c 0,0 0.0133,0 0.0178,0 z"
     fill="#ffffff"
     id="path110" />
  <mask
     id="mask32_265_6564"
     maskUnits="userSpaceOnUse"
     x="43"
     y="51"
     width="1"
     height="1">
    <path
       d="m 43.9352,51.2422 v 0.3109 c 0,0 -0.0134,0 -0.0223,0 -0.0399,0 -0.071,-0.0311 -0.071,-0.0755 v -0.3109 c 0,0.0445 0.0311,0.0755 0.071,0.0755 0.0089,0 0.0134,0 0.0223,0 z"
       fill="#ffffff"
       id="path111" />
  </mask>
  <g
     mask="url(#mask32_265_6564)"
     id="g112"
     transform="translate(-16.581,-2.66455)">
    <path
       d="m 43.9352,51.2422 v 0.3109 c 0,0 -0.0134,0 -0.0223,0 -0.0399,0 -0.071,-0.0311 -0.071,-0.0755 v -0.3109 c 0,0.0445 0.0311,0.0755 0.071,0.0755 0.0089,0 0.0134,0 0.0223,0 z"
       fill="#bababa"
       id="path112" />
  </g>
  <path
     d="m 26.4703,45.66455 v 0.3109 l -0.5152,3.0508 v -0.3109 z"
     fill="#b3b3b3"
     id="path113" />
  <mask
     id="mask33_265_6564"
     maskUnits="userSpaceOnUse"
     x="42"
     y="51"
     width="1"
     height="1">
    <path
       d="m 42.5361,51.3799 v 0.3108 c -0.0089,0.0578 -0.0666,0.1199 -0.1244,0.1333 v -0.3109 c 0.0578,-0.0133 0.1155,-0.071 0.1244,-0.1332 z"
       fill="#ffffff"
       id="path114" />
  </mask>
  <g
     mask="url(#mask33_265_6564)"
     id="g115"
     transform="translate(-16.581,-2.66455)">
    <path
       d="m 42.5361,51.3799 v 0.3108 c -0.0089,0.0578 -0.0666,0.1199 -0.1244,0.1333 v -0.3109 c 0.0578,-0.0133 0.1155,-0.071 0.1244,-0.1332 z"
       fill="#bababa"
       id="path115" />
  </g>
  <path
     d="m 25.8307,48.84865 v 0.3108 l -0.8571,0.1466 v -0.3109 z"
     fill="#b3b3b3"
     id="path116" />
  <mask
     id="mask34_265_6564"
     maskUnits="userSpaceOnUse"
     x="41"
     y="51"
     width="1"
     height="1">
    <path
       d="m 41.5547,51.6597 v 0.3108 c 0,0 -0.0134,0 -0.0222,0 -0.04,0 -0.0622,-0.0311 -0.0622,-0.071 v -0.3109 c 0,0.04 0.0222,0.0711 0.0622,0.0711 0.0044,0 0.0133,0 0.0222,0 z"
       fill="#ffffff"
       id="path117" />
  </mask>
  <g
     mask="url(#mask34_265_6564)"
     id="g118"
     transform="translate(-16.581,-2.66455)">
    <path
       d="m 41.5547,51.6597 v 0.3108 c 0,0 -0.0134,0 -0.0222,0 -0.04,0 -0.0622,-0.0311 -0.0622,-0.071 v -0.3109 c 0,0.04 0.0222,0.0711 0.0622,0.0711 0.0044,0 0.0133,0 0.0222,0 z"
       fill="#bababa"
       id="path118" />
  </g>
  <path
     d="m 27.4208,44.62085 c 0.0444,0 0.0755,0.0266 0.0755,0.0711 v 0.0177 l -0.1199,0.7017 c -0.0134,0.0577 -0.0667,0.111 -0.1288,0.1243 l -0.7773,0.1377 -0.5152,3.0508 c -0.0089,0.0577 -0.0666,0.1199 -0.1243,0.1332 l -0.8572,0.1466 c 0,0 -0.0133,0 -0.0222,0 -0.04,0 -0.0622,-0.0311 -0.0622,-0.0711 v -0.0222 l 0.5108,-3.0508 -0.795,0.1421 c 0,0 -0.0134,0 -0.0178,0 -0.0444,0 -0.0711,-0.0267 -0.0711,-0.0711 v -0.0177 l 0.12,-0.7017 c 0.0133,-0.0577 0.0621,-0.111 0.1199,-0.1199 l 2.6426,-0.4663 c 0,0 0.0133,0 0.0177,0 z"
     fill="#ffffff"
     id="path119" />
  <path
     d="m 34.2206,43.54195 v 0.3109 l -0.1066,0.6617 v -0.3064 z"
     fill="#b3b3b3"
     id="path120" />
  <mask
     id="mask35_265_6564"
     maskUnits="userSpaceOnUse"
     x="50"
     y="46"
     width="1"
     height="2">
    <path
       d="m 50.695,46.8726 v 0.3108 c -0.0133,0.0577 -0.0666,0.1199 -0.1288,0.1288 v -0.3109 c 0.0577,-0.0088 0.1155,-0.0666 0.1288,-0.1287 z"
       fill="#ffffff"
       id="path121" />
  </mask>
  <g
     mask="url(#mask35_265_6564)"
     id="g122"
     transform="translate(-16.581,-2.66455)">
    <path
       d="m 50.695,46.8726 v 0.3108 c -0.0133,0.0577 -0.0666,0.1199 -0.1288,0.1288 v -0.3109 c 0.0577,-0.0088 0.1155,-0.0666 0.1288,-0.1287 z"
       fill="#bababa"
       id="path122" />
  </g>
  <path
     d="m 33.9852,44.33255 v 0.3108 l -1.0615,0.1865 v -0.3064 z"
     fill="#b3b3b3"
     id="path123" />
  <mask
     id="mask36_265_6564"
     maskUnits="userSpaceOnUse"
     x="49"
     y="47"
     width="1"
     height="1">
    <path
       d="m 49.5049,47.188 v 0.3108 c -0.1866,0.0311 -0.2621,0.1111 -0.302,0.3198 v -0.3109 c 0.0355,-0.2087 0.111,-0.2886 0.302,-0.3197 z"
       fill="#ffffff"
       id="path124" />
  </mask>
  <g
     mask="url(#mask36_265_6564)"
     id="g125"
     transform="translate(-16.581,-2.66455)">
    <path
       d="m 49.5049,47.188 v 0.3108 c -0.1866,0.0311 -0.2621,0.1111 -0.302,0.3198 v -0.3109 c 0.0355,-0.2087 0.111,-0.2886 0.302,-0.3197 z"
       fill="#bababa"
       id="path125" />
  </g>
  <path
     d="m 32.6261,44.83885 v 0.3109 l -0.0711,0.3996 v -0.3108 z"
     fill="#b3b3b3"
     id="path126" />
  <path
     d="m 33.9364,45.10525 v 0.3064 l -0.1066,0.6483 v -0.3108 z"
     fill="#b3b3b3"
     id="path127" />
  <mask
     id="mask37_265_6564"
     maskUnits="userSpaceOnUse"
     x="50"
     y="48"
     width="1"
     height="1">
    <path
       d="m 50.4108,48.4136 v 0.3108 c -0.0133,0.0578 -0.0621,0.1155 -0.1199,0.1288 v -0.3108 c 0.0578,-0.0134 0.1066,-0.0667 0.1199,-0.1288 z"
       fill="#ffffff"
       id="path128" />
  </mask>
  <g
     mask="url(#mask37_265_6564)"
     id="g129"
     transform="translate(-16.581,-2.66455)">
    <path
       d="m 50.4108,48.4136 v 0.3108 c -0.0133,0.0578 -0.0621,0.1155 -0.1199,0.1288 v -0.3108 c 0.0578,-0.0134 0.1066,-0.0667 0.1199,-0.1288 z"
       fill="#bababa"
       id="path129" />
  </g>
  <path
     d="m 33.7098,45.87795 v 0.3108 l -1.2924,0.2265 v -0.3108 z"
     fill="#b3b3b3"
     id="path130" />
  <path
     d="m 32.4174,46.10425 v 0.3109 l -0.0799,0.4529 v -0.3108 z"
     fill="#b3b3b3"
     id="path131" />
  <mask
     id="mask38_265_6564"
     maskUnits="userSpaceOnUse"
     x="48"
     y="49"
     width="1"
     height="1">
    <path
       d="m 48.9185,49.2219 v 0.3109 c 0,0.0444 -0.0133,0.0755 -0.0133,0.1066 v -0.3109 c 0,-0.0311 0.0089,-0.0622 0.0133,-0.1066 z"
       fill="#ffffff"
       id="path132" />
  </mask>
  <g
     mask="url(#mask38_265_6564)"
     id="g133"
     transform="translate(-16.581,-2.66455)">
    <path
       d="m 48.9185,49.2219 v 0.3109 c 0,0.0444 -0.0133,0.0755 -0.0133,0.1066 v -0.3109 c 0,-0.0311 0.0089,-0.0622 0.0133,-0.1066 z"
       fill="#bababa"
       id="path133" />
  </g>
  <path
     d="m 33.6921,46.69045 v 0.3108 l -0.1155,0.6706 v -0.3109 z"
     fill="#b3b3b3"
     id="path134" />
  <mask
     id="mask39_265_6564"
     maskUnits="userSpaceOnUse"
     x="50"
     y="50"
     width="1"
     height="1">
    <path
       d="m 50.1577,50.0256 v 0.3109 c -0.0133,0.0666 -0.0533,0.1021 -0.1199,0.1288 v -0.3109 c 0.0666,-0.0222 0.1066,-0.0577 0.1199,-0.1288 z"
       fill="#ffffff"
       id="path135" />
  </mask>
  <g
     mask="url(#mask39_265_6564)"
     id="g136"
     transform="translate(-16.581,-2.66455)">
    <path
       d="m 50.1577,50.0256 v 0.3109 c -0.0133,0.0666 -0.0533,0.1021 -0.1199,0.1288 v -0.3109 c 0.0666,-0.0222 0.1066,-0.0577 0.1199,-0.1288 z"
       fill="#bababa"
       id="path136" />
  </g>
  <mask
     id="mask40_265_6564"
     maskUnits="userSpaceOnUse"
     x="47"
     y="49"
     width="4"
     height="2">
    <path
       d="m 50.0377,50.1545 v 0.3108 c -0.2087,0.0622 -0.5285,0.1554 -1.0348,0.2487 -0.1244,0.0222 -0.2487,0.0355 -0.3642,0.0355 -0.4575,0 -0.8128,-0.1909 -0.8128,-0.746 v -0.3109 c 0,0.5551 0.3553,0.7461 0.8128,0.7461 0.1155,0 0.2398,-0.0133 0.3642,-0.0355 0.5063,-0.0933 0.8261,-0.1821 1.0348,-0.2487 z"
       fill="#ffffff"
       id="path137" />
  </mask>
  <g
     mask="url(#mask40_265_6564)"
     id="g138"
     transform="translate(-16.581,-2.66455)">
    <path
       d="m 50.0377,50.1545 v 0.3108 c -0.2087,0.0622 -0.5285,0.1554 -1.0348,0.2487 -0.1244,0.0222 -0.2487,0.0355 -0.3642,0.0355 -0.4575,0 -0.8128,-0.1909 -0.8128,-0.746 v -0.3109 c 0,0.5551 0.3553,0.7461 0.8128,0.7461 0.1155,0 0.2398,-0.0133 0.3642,-0.0355 0.5063,-0.0933 0.8261,-0.1821 1.0348,-0.2487 z"
       fill="#bababa"
       id="path138" />
  </g>
  <path
     d="m 34.1585,43.44875 c 0.0444,0 0.0621,0.0222 0.0621,0.071 v 0.0222 l -0.1066,0.6662 c -0.0133,0.0577 -0.0666,0.1199 -0.1288,0.1287 l -1.057,0.1866 c -0.1865,0.031 -0.262,0.111 -0.302,0.3197 l -0.0666,0.3997 1.2924,-0.2265 c 0,0 0.0089,0 0.0133,0 0.0444,0 0.0711,0.0311 0.0711,0.0755 v 0.0177 l -0.1066,0.644 c -0.0133,0.0577 -0.0622,0.1154 -0.1199,0.1287 l -1.2924,0.2265 -0.08,0.453 c 0,0.0444 -0.0133,0.0755 -0.0133,0.1066 0,0.0977 0.04,0.1332 0.1288,0.1332 0.0266,0 0.0533,0 0.0888,-0.0089 l 1.0615,-0.1865 c 0,0 0.0133,0 0.0178,0 0.0444,0 0.0755,0.0266 0.0755,0.071 v 0.0178 l -0.1155,0.6706 c -0.0133,0.0666 -0.0533,0.1021 -0.1199,0.1287 -0.2088,0.0622 -0.5285,0.1555 -1.0349,0.2487 -0.1243,0.0222 -0.2487,0.0356 -0.3641,0.0356 -0.4575,0 -0.8128,-0.191 -0.8128,-0.7461 0,-0.0844 0.0133,-0.1776 0.0266,-0.2753 l 0.2887,-1.7186 c 0.1821,-1.1102 0.8128,-1.3367 1.55,-1.461 0.5108,-0.0933 0.8306,-0.1066 1.0216,-0.1155 0.0088,0 0.0133,0 0.0222,0 z"
     fill="#ffffff"
     id="path139" />
  <mask
     id="mask41_265_6564"
     maskUnits="userSpaceOnUse"
     x="57"
     y="45"
     width="1"
     height="2">
    <path
       d="m 57.5035,45.8156 v 0.3109 c 0,-0.04 0,-0.0666 -0.0311,-0.0666 V 45.749 c 0.0311,0 0.0311,0.0267 0.0311,0.0666 z"
       fill="#ffffff"
       id="path140" />
  </mask>
  <g
     mask="url(#mask41_265_6564)"
     id="g141"
     transform="translate(-16.581,-2.66455)">
    <path
       d="m 57.5035,45.8156 v 0.3109 c 0,-0.04 0,-0.0666 -0.0311,-0.0666 V 45.749 c 0.0311,0 0.0311,0.0267 0.0311,0.0666 z"
       fill="#bababa"
       id="path141" />
  </g>
  <mask
     id="mask42_265_6564"
     maskUnits="userSpaceOnUse"
     x="57"
     y="45"
     width="1"
     height="2">
    <path
       d="m 57.4724,45.749 v 0.3109 c 0,0 -0.0089,0 -0.0133,0 -0.0489,0.0089 -0.0533,0.0355 -0.0666,0.0888 v -0.3109 c 0.0177,-0.0532 0.0177,-0.0799 0.0666,-0.0888 0.0044,0 0.0089,0 0.0133,0 z"
       fill="#ffffff"
       id="path142" />
  </mask>
  <g
     mask="url(#mask42_265_6564)"
     id="g143"
     transform="translate(-16.581,-2.66455)">
    <path
       d="m 57.4724,45.749 v 0.3109 c 0,0 -0.0089,0 -0.0133,0 -0.0489,0.0089 -0.0533,0.0355 -0.0666,0.0888 v -0.3109 c 0.0177,-0.0532 0.0177,-0.0799 0.0666,-0.0888 0.0044,0 0.0089,0 0.0133,0 z"
       fill="#bababa"
       id="path143" />
  </g>
  <path
     d="m 37.3073,43.72855 v 0.3108 l -0.373,0.0711 v -0.3109 z"
     fill="#b3b3b3"
     id="path144" />
  <mask
     id="mask43_265_6564"
     maskUnits="userSpaceOnUse"
     x="53"
     y="46"
     width="2"
     height="1">
    <path
       d="m 54.3901,46.6062 v 0.3109 c 0,-0.1732 -0.1066,-0.2354 -0.2842,-0.2354 -0.0667,0 -0.1377,0.0089 -0.2177,0.0222 v -0.3108 c 0.08,-0.0134 0.1555,-0.0223 0.2177,-0.0223 0.1776,0 0.2842,0.0622 0.2842,0.2354 z"
       fill="#ffffff"
       id="path145" />
  </mask>
  <g
     mask="url(#mask43_265_6564)"
     id="g146"
     transform="translate(-16.581,-2.66455)">
    <path
       d="m 54.3901,46.6062 v 0.3109 c 0,-0.1732 -0.1066,-0.2354 -0.2842,-0.2354 -0.0667,0 -0.1377,0.0089 -0.2177,0.0222 v -0.3108 c 0.08,-0.0134 0.1555,-0.0223 0.2177,-0.0223 0.1776,0 0.2842,0.0622 0.2842,0.2354 z"
       fill="#bababa"
       id="path146" />
  </g>
  <path
     d="m 40.9447,44.49665 v 0.3109 l -0.0222,-1.3456 v -0.3108 z"
     fill="#b3b3b3"
     id="path147" />
  <path
     d="m 40.8069,43.17335 v 0.3108 l -0.4929,1.4344 v -0.3108 z"
     fill="#b3b3b3"
     id="path148" />
  <path
     d="m 36.9341,43.79955 v 0.3109 l -0.1554,0.9281 v -0.3109 z"
     fill="#b3b3b3"
     id="path149" />
  <path
     d="m 40.9491,45.34495 v 0.3109 l -0.9327,0.1643 v -0.3109 z"
     fill="#b3b3b3"
     id="path150" />
  <mask
     id="mask44_265_6564"
     maskUnits="userSpaceOnUse"
     x="53"
     y="46"
     width="3"
     height="3">
    <path
       d="m 55.4783,46.2642 v 0.3108 c 0,1.1191 -0.7683,1.7941 -1.8342,1.985 -0.1155,0.0178 -0.3021,0.04 -0.4442,0.0578 v -0.3109 c 0.1421,-0.0177 0.3287,-0.0399 0.4442,-0.0577 1.0659,-0.191 1.8342,-0.866 1.8342,-1.985 z"
       fill="#ffffff"
       id="path151" />
  </mask>
  <g
     mask="url(#mask44_265_6564)"
     id="g152"
     transform="translate(-16.581,-2.66455)">
    <path
       d="m 55.4783,46.2642 v 0.3108 c 0,1.1191 -0.7683,1.7941 -1.8342,1.985 -0.1155,0.0178 -0.3021,0.04 -0.4442,0.0578 v -0.3109 c 0.1421,-0.0177 0.3287,-0.0399 0.4442,-0.0577 1.0659,-0.191 1.8342,-0.866 1.8342,-1.985 z"
       fill="#bababa"
       id="path152" />
  </g>
  <mask
     id="mask45_265_6564"
     maskUnits="userSpaceOnUse"
     x="58"
     y="48"
     width="1"
     height="1">
    <path
       d="m 58.6272,48.5466 v 0.3109 c 0,0.0622 -0.0444,0.1199 -0.1021,0.1332 v -0.3108 c 0.0577,-0.0134 0.1021,-0.0667 0.1021,-0.1333 z"
       fill="#ffffff"
       id="path153" />
  </mask>
  <g
     mask="url(#mask45_265_6564)"
     id="g154"
     transform="translate(-16.581,-2.66455)">
    <path
       d="m 58.6272,48.5466 v 0.3109 c 0,0.0622 -0.0444,0.1199 -0.1021,0.1332 v -0.3108 c 0.0577,-0.0134 0.1021,-0.0667 0.1021,-0.1333 z"
       fill="#bababa"
       id="path154" />
  </g>
  <path
     d="m 40.967,46.08655 v 0.3064 l -0.0178,-0.7371 v -0.3109 z"
     fill="#b3b3b3"
     id="path155" />
  <path
     d="m 41.9485,46.01095 v 0.3109 l -0.8927,0.1554 v -0.3108 z"
     fill="#b3b3b3"
     id="path156" />
  <mask
     id="mask46_265_6564"
     maskUnits="userSpaceOnUse"
     x="57"
     y="48"
     width="1"
     height="2">
    <path
       d="m 57.6367,48.831 v 0.3108 c 0,0 -0.0089,0 -0.0133,0 -0.0444,0 -0.0755,-0.0355 -0.0755,-0.0844 v -0.3108 c 0,0.0488 0.0311,0.0844 0.0755,0.0844 0,0 0.0089,0 0.0133,0 z"
       fill="#ffffff"
       id="path157" />
  </mask>
  <g
     mask="url(#mask46_265_6564)"
     id="g158"
     transform="translate(-16.581,-2.66455)">
    <path
       d="m 57.6367,48.831 v 0.3108 c 0,0 -0.0089,0 -0.0133,0 -0.0444,0 -0.0755,-0.0355 -0.0755,-0.0844 v -0.3108 c 0,0.0488 0.0311,0.0844 0.0755,0.0844 0,0 0.0089,0 0.0133,0 z"
       fill="#bababa"
       id="path158" />
  </g>
  <path
     d="m 40.0165,45.50925 v 0.3109 l -0.2798,0.7904 v -0.3108 z"
     fill="#b3b3b3"
     id="path159" />
  <mask
     id="mask47_265_6564"
     maskUnits="userSpaceOnUse"
     x="56"
     y="48"
     width="1"
     height="2">
    <path
       d="m 56.3177,48.9644 v 0.3108 c -0.0222,0.0577 -0.0666,0.111 -0.1199,0.1199 v -0.3108 c 0.0533,-0.0089 0.0977,-0.0622 0.1199,-0.1199 z"
       fill="#ffffff"
       id="path160" />
  </mask>
  <g
     mask="url(#mask47_265_6564)"
     id="g161"
     transform="translate(-16.581,-2.66455)">
    <path
       d="m 56.3177,48.9644 v 0.3108 c -0.0222,0.0577 -0.0666,0.111 -0.1199,0.1199 v -0.3108 c 0.0533,-0.0089 0.0977,-0.0622 0.1199,-0.1199 z"
       fill="#bababa"
       id="path161" />
  </g>
  <path
     d="m 39.6167,46.41945 v 0.3108 l -0.9282,0.1644 v -0.3109 z"
     fill="#b3b3b3"
     id="path162" />
  <path
     d="m 41.9085,42.65375 0.1377,3.224 c 0,0.0622 -0.0444,0.1199 -0.1022,0.1332 l -0.8927,0.1555 c 0,0 -0.0089,0 -0.0133,0 -0.0444,0 -0.0755,-0.0356 -0.0755,-0.0844 l -0.0178,-0.7372 -0.9371,0.1643 -0.2798,0.7905 c -0.0222,0.0577 -0.0666,0.111 -0.1199,0.1199 l -0.9283,0.1643 c 0,0 -0.0133,0 -0.0177,0 -0.0356,0 -0.0533,-0.0222 -0.0533,-0.0577 l 0.0089,-0.0444 1.2702,-3.4727 c 0.2043,-0.564 0.6173,-0.7416 1.1148,-0.8305 0.1288,-0.0222 0.2442,-0.0355 0.3553,-0.0355 0.3153,0 0.5329,0.1199 0.5462,0.5107 z m -1.5945,1.954 0.6263,-0.1111 -0.0178,-1.3455 c 0,-0.04 0,-0.0666 -0.0311,-0.0666 0,0 -0.0089,0 -0.0133,0 -0.0489,0.0088 -0.0533,0.0355 -0.0666,0.0888 l -0.493,1.4344"
     fill="#ffffff"
     id="path163" />
  <mask
     id="mask48_265_6564"
     maskUnits="userSpaceOnUse"
     x="55"
     y="49"
     width="1"
     height="1">
    <path
       d="m 55.2696,49.2484 v 0.3109 c 0,0 -0.0133,0 -0.0178,0 -0.0355,0 -0.0533,-0.0222 -0.0533,-0.0578 v -0.3108 c 0,0.0355 0.0178,0.0577 0.0533,0.0577 0.0045,0 0.0133,0 0.0178,0 z"
       fill="#ffffff"
       id="path164" />
  </mask>
  <g
     mask="url(#mask48_265_6564)"
     id="g165"
     transform="translate(-16.581,-2.66455)">
    <path
       d="m 55.2696,49.2484 v 0.3109 c 0,0 -0.0133,0 -0.0178,0 -0.0355,0 -0.0533,-0.0222 -0.0533,-0.0578 v -0.3108 c 0,0.0355 0.0178,0.0577 0.0533,0.0577 0.0045,0 0.0133,0 0.0178,0 z"
       fill="#bababa"
       id="path165" />
  </g>
  <path
     d="m 36.6188,45.64675 v 0.3108 l -0.2043,1.2301 v -0.3108 z"
     fill="#b3b3b3"
     id="path166" />
  <mask
     id="mask49_265_6564"
     maskUnits="userSpaceOnUse"
     x="52"
     y="49"
     width="1"
     height="1">
    <path
       d="m 52.9957,49.5415 v 0.3109 c -0.0089,0.0577 -0.0667,0.1199 -0.1244,0.1287 v -0.3108 c 0.0577,-0.0089 0.1155,-0.0666 0.1244,-0.1288 z"
       fill="#ffffff"
       id="path167" />
  </mask>
  <g
     mask="url(#mask49_265_6564)"
     id="g168"
     transform="translate(-16.581,-2.66455)">
    <path
       d="m 52.9957,49.5415 v 0.3109 c -0.0089,0.0577 -0.0667,0.1199 -0.1244,0.1287 v -0.3108 c 0.0577,-0.0089 0.1155,-0.0666 0.1244,-0.1288 z"
       fill="#bababa"
       id="path168" />
  </g>
  <path
     d="m 36.2902,47.00565 v 0.3108 l -0.8394,0.1466 v -0.3109 z"
     fill="#b3b3b3"
     id="path169" />
  <path
     d="m 37.858,42.76465 c 0.564,0 1.0393,0.231 1.0393,0.8394 0,1.119 -0.7684,1.794 -1.8343,1.985 -0.1155,0.0178 -0.302,0.04 -0.4442,0.0577 l -0.2043,1.2301 c -0.0088,0.0577 -0.0666,0.1199 -0.1243,0.1288 l -0.8394,0.1465 c 0,0 -0.0133,0 -0.0178,0 -0.0444,0 -0.0755,-0.0222 -0.0755,-0.0666 l 0.6085,-3.6103 c 0.0488,-0.262 0.1332,-0.3331 0.3642,-0.413 0.2709,-0.0888 0.7505,-0.1999 1.1236,-0.2665 0.1377,-0.0222 0.2754,-0.0355 0.4086,-0.0355 z m -0.7106,1.9096 c 0.4175,-0.0755 0.6617,-0.3331 0.6617,-0.7327 0,-0.1732 -0.1066,-0.2354 -0.2842,-0.2354 -0.0666,0 -0.1377,0.0089 -0.2176,0.0222 l -0.3731,0.071 -0.1555,0.9282 0.3687,-0.0578"
     fill="#ffffff"
     id="path170" />
  <mask
     id="mask50_265_6564"
     maskUnits="userSpaceOnUse"
     x="51"
     y="49"
     width="2"
     height="2">
    <path
       d="m 52.0318,49.8169 v 0.3108 c 0,0 -0.0133,0 -0.0178,0 -0.0444,0 -0.0755,-0.0222 -0.0755,-0.0666 v -0.3109 c 0,0.04 0.0355,0.0667 0.0755,0.0667 0.0045,0 0.0133,0 0.0178,0 z"
       fill="#ffffff"
       id="path171" />
  </mask>
  <g
     mask="url(#mask50_265_6564)"
     id="g172"
     transform="translate(-16.581,-2.66455)">
    <path
       d="m 52.0318,49.8169 v 0.3108 c 0,0 -0.0133,0 -0.0178,0 -0.0444,0 -0.0755,-0.0222 -0.0755,-0.0666 v -0.3109 c 0,0.04 0.0355,0.0667 0.0755,0.0667 0.0045,0 0.0133,0 0.0178,0 z"
       fill="#bababa"
       id="path172" />
  </g>
  <path
     d="m 50.1294,40.74435 v 0.3109 l -0.1155,0.6706 v -0.3109 z"
     fill="#b3b3b3"
     id="path173" />
  <mask
     id="mask51_265_6564"
     maskUnits="userSpaceOnUse"
     x="66"
     y="44"
     width="1"
     height="1">
    <path
       d="m 66.5948,44.0793 v 0.3109 c -0.0133,0.0577 -0.0621,0.1155 -0.1199,0.1288 v -0.3109 c 0.0578,-0.0133 0.1066,-0.0666 0.1199,-0.1288 z"
       fill="#ffffff"
       id="path174" />
  </mask>
  <g
     mask="url(#mask51_265_6564)"
     id="g175"
     transform="translate(-16.581,-2.66455)">
    <path
       d="m 66.5948,44.0793 v 0.3109 c -0.0133,0.0577 -0.0621,0.1155 -0.1199,0.1288 v -0.3109 c 0.0578,-0.0133 0.1066,-0.0666 0.1199,-0.1288 z"
       fill="#bababa"
       id="path175" />
  </g>
  <path
     d="m 49.8941,41.54375 v 0.3108 l -1.0615,0.1821 v -0.3109 z"
     fill="#b3b3b3"
     id="path176" />
  <mask
     id="mask52_265_6564"
     maskUnits="userSpaceOnUse"
     x="65"
     y="44"
     width="1"
     height="2">
    <path
       d="m 65.4136,44.3904 v 0.3108 c -0.1866,0.0356 -0.2621,0.1111 -0.302,0.3198 v -0.3109 c 0.0355,-0.2087 0.111,-0.2842 0.302,-0.3197 z"
       fill="#ffffff"
       id="path177" />
  </mask>
  <g
     mask="url(#mask52_265_6564)"
     id="g178"
     transform="translate(-16.581,-2.66455)">
    <path
       d="m 65.4136,44.3904 v 0.3108 c -0.1866,0.0356 -0.2621,0.1111 -0.302,0.3198 v -0.3109 c 0.0355,-0.2087 0.111,-0.2842 0.302,-0.3197 z"
       fill="#bababa"
       id="path178" />
  </g>
  <path
     d="m 45.4526,41.61035 v 0.3109 l -0.1199,0.7016 v -0.3109 z"
     fill="#b3b3b3"
     id="path179" />
  <mask
     id="mask53_265_6564"
     maskUnits="userSpaceOnUse"
     x="61"
     y="44"
     width="1"
     height="2">
    <path
       d="m 61.9137,44.9766 v 0.3108 c -0.0133,0.0622 -0.0488,0.1066 -0.111,0.1199 v -0.3108 c 0.0622,-0.0134 0.1022,-0.0578 0.111,-0.1199 z"
       fill="#ffffff"
       id="path180" />
  </mask>
  <g
     mask="url(#mask53_265_6564)"
     id="g181"
     transform="translate(-16.581,-2.66455)">
    <path
       d="m 61.9137,44.9766 v 0.3108 c -0.0133,0.0622 -0.0488,0.1066 -0.111,0.1199 v -0.3108 c 0.0622,-0.0134 0.1022,-0.0578 0.111,-0.1199 z"
       fill="#bababa"
       id="path181" />
  </g>
  <path
     d="m 45.2217,42.43185 v 0.3109 l -0.0178,0.0044 v -0.3108 z"
     fill="#b3b3b3"
     id="path182" />
  <path
     d="m 48.535,42.04545 v 0.3108 l -0.0711,0.3952 v -0.3108 z"
     fill="#b3b3b3"
     id="path183" />
  <path
     d="m 49.8452,42.30295 v 0.3109 l -0.1066,0.6483 v -0.3108 z"
     fill="#b3b3b3"
     id="path184" />
  <mask
     id="mask54_265_6564"
     maskUnits="userSpaceOnUse"
     x="66"
     y="45"
     width="1"
     height="2">
    <path
       d="m 66.3195,45.616 v 0.3108 c -0.0133,0.0578 -0.0621,0.1199 -0.1243,0.1288 v -0.3109 c 0.0577,-0.0088 0.111,-0.0666 0.1243,-0.1287 z"
       fill="#ffffff"
       id="path185" />
  </mask>
  <g
     mask="url(#mask54_265_6564)"
     id="g186"
     transform="translate(-16.581,-2.66455)">
    <path
       d="m 66.3195,45.616 v 0.3108 c -0.0133,0.0578 -0.0621,0.1199 -0.1243,0.1288 v -0.3109 c 0.0577,-0.0088 0.111,-0.0666 0.1243,-0.1287 z"
       fill="#bababa"
       id="path186" />
  </g>
  <path
     d="m 49.6142,43.08005 v 0.3064 l -1.288,0.231 v -0.3109 z"
     fill="#b3b3b3"
     id="path187" />
  <mask
     id="mask55_265_6564"
     maskUnits="userSpaceOnUse"
     x="60"
     y="45"
     width="2"
     height="2">
    <path
       d="m 61.785,45.1008 v 0.3109 c -0.2088,0.0177 -0.4264,0.0266 -0.7284,0.0799 -0.2842,0.0533 -0.5507,0.1999 -0.6751,0.9193 V 46.1 c 0.1244,-0.7238 0.3909,-0.8704 0.6751,-0.9192 0.302,-0.0533 0.5196,-0.0622 0.7284,-0.08 z"
       fill="#ffffff"
       id="path188" />
  </mask>
  <g
     mask="url(#mask55_265_6564)"
     id="g189"
     transform="translate(-16.581,-2.66455)">
    <path
       d="m 61.785,45.1008 v 0.3109 c -0.2088,0.0177 -0.4264,0.0266 -0.7284,0.0799 -0.2842,0.0533 -0.5507,0.1999 -0.6751,0.9193 V 46.1 c 0.1244,-0.7238 0.3909,-0.8704 0.6751,-0.9192 0.302,-0.0533 0.5196,-0.0622 0.7284,-0.08 z"
       fill="#bababa"
       id="path189" />
  </g>
  <path
     d="m 43.8005,43.43555 v 0.3109 l -0.0977,0.5684 v -0.3109 z"
     fill="#b3b3b3"
     id="path190" />
  <path
     d="m 51.7728,40.43355 v 0.3109 l -0.6529,3.8546 v -0.3064 z"
     fill="#b3b3b3"
     id="path191" />
  <mask
     id="mask56_265_6564"
     maskUnits="userSpaceOnUse"
     x="60"
     y="46"
     width="1"
     height="2">
    <path
       d="m 60.2838,46.6685 v 0.3108 c -0.0178,0.1332 -0.0311,0.2398 -0.0311,0.3286 v -0.3108 c 0,-0.0888 0.0133,-0.1954 0.0311,-0.3286 z"
       fill="#ffffff"
       id="path192" />
  </mask>
  <g
     mask="url(#mask56_265_6564)"
     id="g193"
     transform="translate(-16.581,-2.66455)">
    <path
       d="m 60.2838,46.6685 v 0.3108 c -0.0178,0.1332 -0.0311,0.2398 -0.0311,0.3286 v -0.3108 c 0,-0.0888 0.0133,-0.1954 0.0311,-0.3286 z"
       fill="#bababa"
       id="path193" />
  </g>
  <mask
     id="mask57_265_6564"
     maskUnits="userSpaceOnUse"
     x="67"
     y="46"
     width="1"
     height="2">
    <path
       d="m 67.7008,46.957 v 0.3109 c -0.0089,0.0577 -0.0444,0.1154 -0.1244,0.1288 v -0.3109 c 0.08,-0.0133 0.1155,-0.0666 0.1244,-0.1288 z"
       fill="#ffffff"
       id="path194" />
  </mask>
  <g
     mask="url(#mask57_265_6564)"
     id="g195"
     transform="translate(-16.581,-2.66455)">
    <path
       d="m 67.7008,46.957 v 0.3109 c -0.0089,0.0577 -0.0444,0.1154 -0.1244,0.1288 v -0.3109 c 0.08,-0.0133 0.1155,-0.0666 0.1244,-0.1288 z"
       fill="#bababa"
       id="path195" />
  </g>
  <path
     d="m 50.9954,44.41675 v 0.3109 l -0.8571,0.1509 v -0.3108 z"
     fill="#b3b3b3"
     id="path196" />
  <mask
     id="mask58_265_6564"
     maskUnits="userSpaceOnUse"
     x="66"
     y="47"
     width="1"
     height="1">
    <path
       d="m 66.6305,47.4766 v -0.3108 c 0,0.0399 0.0222,0.071 0.0666,0.071 0.0045,0 0.0133,0 0.0178,0 v 0.3109 c 0,0 -0.0133,0 -0.0178,0 -0.0444,0 -0.0666,-0.0311 -0.0666,-0.0711 z"
       fill="#ffffff"
       id="path197" />
  </mask>
  <g
     mask="url(#mask58_265_6564)"
     id="g198"
     transform="translate(-16.581,-2.66455)">
    <path
       d="m 66.7193,47.2324 v 0.3109 c 0,0 -0.0133,0 -0.0177,0 -0.0444,0 -0.0667,-0.0311 -0.0667,-0.0711 v -0.3108 c 0,0.0399 0.0223,0.071 0.0667,0.071 0.0044,0 0.0133,0 0.0177,0 z"
       fill="#bababa"
       id="path198" />
  </g>
  <path
     d="m 51.7061,40.34915 c 0.0444,0 0.0755,0.0266 0.0622,0.0843 l -0.6529,3.8547 c -0.0089,0.0577 -0.0444,0.1154 -0.1243,0.1287 l -0.8572,0.151 c 0,0 -0.0133,0 -0.0178,0 -0.0533,0 -0.0755,-0.0444 -0.0666,-0.0932 l 0.6484,-3.8546 c 0.0134,-0.0578 0.0622,-0.1111 0.1244,-0.1199 l 0.8572,-0.151 c 0,0 0.0177,0 0.0222,0 z"
     fill="#ffffff"
     id="path199" />
  <path
     d="m 48.3262,43.30665 v 0.3108 l -0.262,1.5232 v -0.3108 z"
     fill="#b3b3b3"
     id="path200" />
  <mask
     id="mask59_265_6564"
     maskUnits="userSpaceOnUse"
     x="64"
     y="47"
     width="1"
     height="1">
    <path
       d="m 64.6452,47.4944 v 0.3108 c -0.0089,0.0578 -0.0666,0.1199 -0.1244,0.1288 v -0.3108 c 0.0578,-0.0089 0.1155,-0.0666 0.1244,-0.1288 z"
       fill="#ffffff"
       id="path201" />
  </mask>
  <g
     mask="url(#mask59_265_6564)"
     id="g202"
     transform="translate(-16.581,-2.66455)">
    <path
       d="m 64.6452,47.4944 v 0.3108 c -0.0089,0.0578 -0.0666,0.1199 -0.1244,0.1288 v -0.3108 c 0.0578,-0.0089 0.1155,-0.0666 0.1244,-0.1288 z"
       fill="#bababa"
       id="path202" />
  </g>
  <path
     d="m 47.9443,44.95845 v 0.3065 l -0.8571,0.1509 v -0.3064 z"
     fill="#b3b3b3"
     id="path203" />
  <path
     d="m 50.0406,40.65555 c 0.0578,0 0.0889,0.0266 0.0889,0.071 v 0.0178 l -0.1155,0.6705 c -0.0133,0.0578 -0.0622,0.1155 -0.1199,0.1288 l -1.0571,0.1821 c -0.1865,0.0355 -0.262,0.111 -0.302,0.3197 l -0.0666,0.3953 1.2924,-0.2265 c 0,0 0.0089,0 0.0134,0 0.0444,0 0.071,0.0311 0.071,0.0755 v 0.0177 l -0.1066,0.644 c -0.0133,0.0577 -0.0622,0.1199 -0.1243,0.1287 l -1.288,0.2265 -0.2576,1.5232 c -0.0089,0.0577 -0.0666,0.1199 -0.1244,0.1288 l -0.8572,0.151 c 0,0 -0.0088,0 -0.0133,0 -0.0444,0 -0.0666,-0.0311 -0.0666,-0.0711 v -0.0177 l 0.4663,-2.7844 c 0.1821,-1.1102 0.8483,-1.3456 1.5501,-1.4655 0.5063,-0.0888 0.8216,-0.1021 1.017,-0.111 z"
     fill="#ffffff"
     id="path204" />
  <mask
     id="mask60_265_6564"
     maskUnits="userSpaceOnUse"
     x="63"
     y="47"
     width="1"
     height="2">
    <path
       d="m 63.668,47.7742 v 0.3108 c 0,0 -0.0089,0 -0.0133,0 -0.0444,0 -0.0667,-0.0311 -0.0667,-0.071 v -0.3109 c 0,0.0444 0.0267,0.0711 0.0667,0.0711 0.0044,0 0.0088,0 0.0133,0 z"
       fill="#ffffff"
       id="path205" />
  </mask>
  <g
     mask="url(#mask60_265_6564)"
     id="g206"
     transform="translate(-16.581,-2.66455)">
    <path
       d="m 63.668,47.7742 v 0.3108 c 0,0 -0.0089,0 -0.0133,0 -0.0444,0 -0.0667,-0.0311 -0.0667,-0.071 v -0.3109 c 0,0.0444 0.0267,0.0711 0.0667,0.0711 0.0044,0 0.0088,0 0.0133,0 z"
       fill="#bababa"
       id="path206" />
  </g>
  <path
     d="m 47.025,41.27295 v 0.3109 l -0.6529,3.8546 v -0.3109 z"
     fill="#b3b3b3"
     id="path207" />
  <mask
     id="mask61_265_6564"
     maskUnits="userSpaceOnUse"
     x="62"
     y="47"
     width="1"
     height="2">
    <path
       d="m 62.953,47.792 v 0.3108 c -0.0089,0.0578 -0.0489,0.1111 -0.1244,0.1288 v -0.3108 c 0.0755,-0.0178 0.1155,-0.0666 0.1244,-0.1288 z"
       fill="#ffffff"
       id="path208" />
  </mask>
  <g
     mask="url(#mask61_265_6564)"
     id="g209"
     transform="translate(-16.581,-2.66455)">
    <path
       d="m 62.953,47.792 v 0.3108 c -0.0089,0.0578 -0.0489,0.1111 -0.1244,0.1288 v -0.3108 c 0.0755,-0.0178 0.1155,-0.0666 0.1244,-0.1288 z"
       fill="#bababa"
       id="path209" />
  </g>
  <path
     d="m 44.9375,44.64335 v 0.3064 l -0.1199,0.7016 v -0.3064 z"
     fill="#b3b3b3"
     id="path210" />
  <path
     d="m 46.2477,45.25615 v 0.3108 l -0.8616,0.151 v -0.3109 z"
     fill="#b3b3b3"
     id="path211" />
  <mask
     id="mask62_265_6564"
     maskUnits="userSpaceOnUse"
     x="61"
     y="47"
     width="1"
     height="2">
    <path
       d="m 61.8783,48.3072 v -0.3109 c 0,0.0444 0.0222,0.0755 0.0666,0.0755 0.0045,0 0.0134,0 0.0178,0 v 0.3109 c 0,0 -0.0133,0 -0.0178,0 -0.0444,0 -0.0666,-0.0355 -0.0666,-0.0755 z"
       fill="#ffffff"
       id="path212" />
  </mask>
  <g
     mask="url(#mask62_265_6564)"
     id="g213"
     transform="translate(-16.581,-2.66455)">
    <path
       d="m 61.9671,48.0718 v 0.3109 c 0,0 -0.0133,0 -0.0178,0 -0.0444,0 -0.0666,-0.0355 -0.0666,-0.0755 v -0.3109 c 0,0.0444 0.0222,0.0755 0.0666,0.0755 0.0045,0 0.0133,0 0.0178,0 z"
       fill="#bababa"
       id="path213" />
  </g>
  <path
     d="m 46.9539,41.18385 c 0.0444,0 0.0755,0.0266 0.0666,0.0888 l -0.6528,3.8546 c -0.0089,0.0577 -0.0489,0.111 -0.1244,0.1288 l -0.8616,0.151 c 0,0 -0.0133,0 -0.0178,0 -0.0488,0 -0.071,-0.0444 -0.0666,-0.0933 l 0.6529,-3.8546 c 0.0133,-0.0577 0.0622,-0.111 0.1199,-0.1243 l 0.8616,-0.151 c 0,0 0.0133,0 0.0178,0 z"
     fill="#ffffff"
     id="path214" />
  <mask
     id="mask63_265_6564"
     maskUnits="userSpaceOnUse"
     x="61"
     y="48"
     width="1"
     height="1">
    <path
       d="m 61.3986,48.0095 v 0.3109 c -0.0089,0.0666 -0.04,0.0977 -0.1333,0.1376 v -0.3108 c 0.0933,-0.0444 0.1244,-0.0711 0.1333,-0.1377 z"
       fill="#ffffff"
       id="path215" />
  </mask>
  <g
     mask="url(#mask63_265_6564)"
     id="g216"
     transform="translate(-16.581,-2.66455)">
    <path
       d="m 61.3986,48.0095 v 0.3109 c -0.0089,0.0666 -0.04,0.0977 -0.1333,0.1376 v -0.3108 c 0.0933,-0.0444 0.1244,-0.0711 0.1333,-0.1377 z"
       fill="#bababa"
       id="path216" />
  </g>
  <path
     d="m 45.1063,41.49475 c 0.1021,0 0.1865,0.0089 0.2443,0.0178 0.0621,0.0133 0.1021,0.0177 0.1021,0.071 v 0.0267 l -0.1199,0.7016 c -0.0133,0.0622 -0.0489,0.1066 -0.111,0.1199 H 45.204 c -0.2088,0.0178 -0.4264,0.0311 -0.7284,0.0844 -0.2842,0.0533 -0.5507,0.1998 -0.6751,0.9192 l -0.1021,0.564 c -0.0178,0.1332 -0.0311,0.2398 -0.0311,0.3286 0,0.3242 0.1377,0.413 0.3109,0.413 0.0399,0 0.0799,-0.0044 0.1243,-0.0133 0.302,-0.0533 0.5241,-0.1199 0.7417,-0.1776 h 0.0178 c 0,0 0.0178,-0.0045 0.0222,-0.0045 0.0355,0 0.0533,0.0178 0.0533,0.0622 v 0.0267 l -0.1199,0.7016 c -0.0089,0.0666 -0.04,0.0977 -0.1332,0.1377 -0.1422,0.071 -0.4131,0.1687 -0.7418,0.2264 -0.111,0.0178 -0.2176,0.0267 -0.3197,0.0267 -0.6129,0 -1.0437,-0.3553 -1.0437,-1.1102 0,-0.1332 0.0177,-0.2798 0.0399,-0.4396 l 0.0977,-0.564 c 0.2443,-1.3856 0.9194,-1.9184 1.9098,-2.0872 0.1821,-0.0355 0.3464,-0.0444 0.4797,-0.0444 z"
     fill="#ffffff"
     id="path217" />
  <mask
     id="mask64_265_6564"
     maskUnits="userSpaceOnUse"
     x="59"
     y="47"
     width="3"
     height="2">
    <path
       d="m 61.2654,48.1471 v 0.3109 c -0.1422,0.071 -0.4131,0.1687 -0.7418,0.2264 -0.111,0.0178 -0.2176,0.0267 -0.3197,0.0267 -0.6129,0 -1.0437,-0.3553 -1.0437,-1.1102 V 47.29 c 0,0.755 0.4308,1.1102 1.0437,1.1102 0.1021,0 0.2087,-0.0088 0.3197,-0.0266 0.3331,-0.0577 0.5996,-0.1554 0.7418,-0.2265 z"
       fill="#ffffff"
       id="path218" />
  </mask>
  <g
     mask="url(#mask64_265_6564)"
     id="g219"
     transform="translate(-16.581,-2.66455)">
    <path
       d="m 61.2654,48.1471 v 0.3109 c -0.1422,0.071 -0.4131,0.1687 -0.7418,0.2264 -0.111,0.0178 -0.2176,0.0267 -0.3197,0.0267 -0.6129,0 -1.0437,-0.3553 -1.0437,-1.1102 V 47.29 c 0,0.755 0.4308,1.1102 1.0437,1.1102 0.1021,0 0.2087,-0.0088 0.3197,-0.0266 0.3331,-0.0577 0.5996,-0.1554 0.7418,-0.2265 z"
       fill="#bababa"
       id="path219" />
  </g>
  <path
     d="m 54.7617,39.97145 v 0.3108 l -0.1199,0.7017 v -0.3109 z"
     fill="#b3b3b3"
     id="path220" />
  <mask
     id="mask65_265_6564"
     maskUnits="userSpaceOnUse"
     x="71"
     y="43"
     width="1"
     height="1">
    <path
       d="m 71.2228,43.3376 v 0.3109 c -0.0089,0.0666 -0.0488,0.111 -0.1066,0.1199 v -0.3109 c 0.0578,-0.0088 0.1022,-0.0532 0.1066,-0.1199 z"
       fill="#ffffff"
       id="path221" />
  </mask>
  <g
     mask="url(#mask65_265_6564)"
     id="g222"
     transform="translate(-16.581,-2.66455)">
    <path
       d="m 71.2228,43.3376 v 0.3109 c -0.0089,0.0666 -0.0488,0.111 -0.1066,0.1199 v -0.3109 c 0.0578,-0.0088 0.1022,-0.0532 0.1066,-0.1199 z"
       fill="#bababa"
       id="path222" />
  </g>
  <path
     d="m 54.5352,40.79295 v 0.3109 l -0.0178,0.0044 v -0.3108 z"
     fill="#b3b3b3"
     id="path223" />
  <mask
     id="mask66_265_6564"
     maskUnits="userSpaceOnUse"
     x="69"
     y="43"
     width="3"
     height="2">
    <path
       d="m 71.0985,43.4622 v 0.3108 c -0.2132,0.0178 -0.4308,0.0267 -0.7328,0.0799 -0.2843,0.0533 -0.5508,0.1999 -0.6751,0.9193 v -0.3109 c 0.1243,-0.7194 0.3908,-0.8704 0.6751,-0.9192 0.302,-0.0533 0.5196,-0.0622 0.7328,-0.0799 z"
       fill="#ffffff"
       id="path224" />
  </mask>
  <g
     mask="url(#mask66_265_6564)"
     id="g225"
     transform="translate(-16.581,-2.66455)">
    <path
       d="m 71.0985,43.4622 v 0.3108 c -0.2132,0.0178 -0.4308,0.0267 -0.7328,0.0799 -0.2843,0.0533 -0.5508,0.1999 -0.6751,0.9193 v -0.3109 c 0.1243,-0.7194 0.3908,-0.8704 0.6751,-0.9192 0.302,-0.0533 0.5196,-0.0622 0.7328,-0.0799 z"
       fill="#bababa"
       id="path225" />
  </g>
  <path
     d="m 53.1095,41.79665 v 0.3108 l -0.0977,0.5685 v -0.3109 z"
     fill="#b3b3b3"
     id="path226" />
  <mask
     id="mask67_265_6564"
     maskUnits="userSpaceOnUse"
     x="69"
     y="45"
     width="1"
     height="1">
    <path
       d="m 69.5929,45.0295 v 0.3109 c -0.0178,0.1332 -0.0311,0.2398 -0.0311,0.3331 v -0.3109 c 0,-0.0933 0.0133,-0.1998 0.0311,-0.3331 z"
       fill="#ffffff"
       id="path227" />
  </mask>
  <g
     mask="url(#mask67_265_6564)"
     id="g228"
     transform="translate(-16.581,-2.66455)">
    <path
       d="m 69.5929,45.0295 v 0.3109 c -0.0178,0.1332 -0.0311,0.2398 -0.0311,0.3331 v -0.3109 c 0,-0.0933 0.0133,-0.1998 0.0311,-0.3331 z"
       fill="#bababa"
       id="path228" />
  </g>
  <path
     d="m 54.2511,43.00465 v 0.3064 l -0.1199,0.7016 v -0.3064 z"
     fill="#b3b3b3"
     id="path229" />
  <mask
     id="mask68_265_6564"
     maskUnits="userSpaceOnUse"
     x="68"
     y="45"
     width="3"
     height="3">
    <path
       d="m 70.7121,46.3707 v 0.3108 c -0.0133,0.0711 -0.0444,0.0977 -0.1333,0.1377 -0.1465,0.0711 -0.4174,0.1688 -0.7461,0.2265 -0.111,0.0177 -0.2176,0.0311 -0.3198,0.0311 -0.6129,0 -1.0437,-0.3553 -1.0437,-1.1058 v -0.3108 c 0,0.7504 0.4308,1.1057 1.0437,1.1057 0.1022,0 0.2088,-0.0089 0.3198,-0.0311 0.3331,-0.0577 0.5996,-0.1554 0.7461,-0.2265 0.0889,-0.0444 0.12,-0.0666 0.1333,-0.1376 z"
       fill="#ffffff"
       id="path230" />
  </mask>
  <g
     mask="url(#mask68_265_6564)"
     id="g231"
     transform="translate(-16.581,-2.66455)">
    <path
       d="m 70.7121,46.3707 v 0.3108 c -0.0133,0.0711 -0.0444,0.0977 -0.1333,0.1377 -0.1465,0.0711 -0.4174,0.1688 -0.7461,0.2265 -0.111,0.0177 -0.2176,0.0311 -0.3198,0.0311 -0.6129,0 -1.0437,-0.3553 -1.0437,-1.1058 v -0.3108 c 0,0.7504 0.4308,1.1057 1.0437,1.1057 0.1022,0 0.2088,-0.0089 0.3198,-0.0311 0.3331,-0.0577 0.5996,-0.1554 0.7461,-0.2265 0.0889,-0.0444 0.12,-0.0666 0.1333,-0.1376 z"
       fill="#bababa"
       id="path231" />
  </g>
  <path
     d="m 54.4198,39.85605 c 0.1021,0 0.1865,0.0088 0.2443,0.0177 0.0621,0.0089 0.1021,0.0178 0.1021,0.0711 v 0.0222 l -0.1199,0.7016 c -0.0089,0.0666 -0.0489,0.111 -0.1066,0.1199 h -0.0178 c -0.2131,0.0178 -0.4308,0.0311 -0.7328,0.0844 -0.2842,0.0533 -0.5507,0.1998 -0.6751,0.9192 l -0.1021,0.564 c -0.0178,0.1332 -0.0311,0.2398 -0.0311,0.3331 0,0.3197 0.1332,0.413 0.3064,0.413 0.04,0 0.0844,-0.0045 0.1288,-0.0134 0.3021,-0.0532 0.5241,-0.1154 0.7418,-0.1776 h 0.0177 c 0,0 0.0178,-0.0044 0.0222,-0.0044 0.0356,0 0.0578,0.0177 0.0578,0.0621 v 0.0267 l -0.12,0.7016 c -0.0133,0.0711 -0.0444,0.0977 -0.1332,0.1377 -0.1466,0.0711 -0.4175,0.1688 -0.7461,0.2265 -0.1111,0.0177 -0.2177,0.0311 -0.3198,0.0311 -0.6129,0 -1.0437,-0.3553 -1.0437,-1.1058 0,-0.1377 0.0177,-0.2798 0.0444,-0.4396 l 0.0977,-0.564 c 0.2398,-1.3811 0.9149,-1.914 1.9053,-2.0872 0.1821,-0.0311 0.3509,-0.0444 0.4797,-0.0444 z"
     fill="#ffffff"
     id="path232" />
  <path
     d="m 52.5367,45.86455 c -0.0311,-0.0044 -0.0666,-0.0133 -0.0977,-0.0177 -0.4708,-0.0711 -1.1103,0.0089 -1.4123,0.0666 -0.4664,0.0888 -0.8705,0.2531 -1.2214,0.4751 -0.2754,-0.0754 -0.564,-0.0932 -0.8394,-0.0444 l -0.604,0.1155 c -0.2132,0.04 -0.4086,0.1199 -0.5907,0.2265 -0.2887,-0.0444 -0.6041,-0.0355 -0.9372,0.0266 -0.3686,0.0711 -0.675,0.1865 -0.9326,0.3331 -0.2043,-0.0311 -0.4131,-0.04 -0.6174,0 l -0.5551,0.1066 c -0.1777,0.0355 -0.342,0.0932 -0.4975,0.1732 -0.1776,-0.0178 -0.3597,-0.0089 -0.5463,0.0266 l -0.4485,0.0844 c -0.1111,0.0222 -0.2221,0.0533 -0.3243,0.0932 -0.1065,0 -0.2131,0.0089 -0.3242,0.0267 l -0.5907,0.111 c -0.1066,0.0178 -0.2132,0.0488 -0.3109,0.0888 -0.1643,0.0089 -0.4841,0.0222 -0.9504,0.111 -0.7728,0.1466 -1.3146,0.4574 -1.6966,0.8482 -0.3864,-0.2265 -0.8527,-0.3242 -1.288,-0.2398 l -0.604,0.1155 c -0.2132,0.0399 -0.4086,0.1199 -0.5907,0.2265 -0.2887,-0.0444 -0.604,-0.0356 -0.9416,0.0266 -0.3686,0.0711 -0.6706,0.1865 -0.9327,0.3331 -0.2043,-0.0311 -0.413,-0.04 -0.6173,0 l -0.5552,0.1065 c -0.1776,0.0356 -0.342,0.0933 -0.4974,0.1732 -0.1777,-0.0177 -0.3598,-0.0088 -0.5463,0.0267 l -0.4486,0.0844 c -0.2309,0.0444 -0.4441,0.1332 -0.6395,0.2486 -0.3154,-0.0488 -0.644,-0.0444 -0.9816,0.0178 -0.3464,0.0666 -0.6617,0.1776 -0.9504,0.3286 -0.2043,-0.0311 -0.4175,-0.0311 -0.6262,0.0089 l -0.6085,0.1155 c -0.1421,0.0266 -0.2709,0.0755 -0.3997,0.1332 -0.302,-0.0045 -0.6174,0.0222 -0.9416,0.0844 -0.3553,0.0666 -0.6795,0.182 -0.9726,0.333 -0.1155,-0.0133 -0.231,-0.0222 -0.3465,-0.0177 -0.1954,0.0088 -0.5063,0.031 -0.9548,0.1154 -0.4842,0.0933 -0.8794,0.2531 -1.2037,0.453 -0.3464,-0.0666 -0.7505,-0.0844 -1.2346,0.0089 -0.3598,0.0666 -0.7417,0.1687 -1.0438,0.2753 -0.7905,0.2886 -1.2924,0.9015 -1.4167,1.723 l -0.422,2.6956 c -0.0133,0.0932 -0.0222,0.1954 -0.0222,0.2886 0,0.5551 0.2443,1.0791 0.6707,1.43 0.2531,0.2087 0.5551,0.3463 0.8749,0.3996 0.0311,0.0089 0.0622,0.0178 0.0977,0.0267 0.0711,0.0266 0.1466,0.0444 0.2176,0.0621 0.0711,0.0267 0.1422,0.0445 0.2177,0.0578 0.071,0.0266 0.1421,0.0444 0.2132,0.0577 0.071,0.0266 0.1421,0.0444 0.2176,0.0622 0.071,0.0266 0.1421,0.0444 0.2132,0.0577 0.071,0.0267 0.1421,0.0444 0.2131,0.0577 0.0711,0.0267 0.1422,0.0489 0.2177,0.0622 0.1332,0.0489 0.2753,0.0755 0.413,0.0755 0.0666,0 0.1333,-0.0044 0.1954,-0.0178 l 0.533,-0.1021 c 0.1332,-0.0266 0.2576,-0.0711 0.3686,-0.1377 0.1288,0.0222 0.2576,0.0178 0.3864,0 l 0.573,-0.111 c 0.1465,-0.0266 0.2798,-0.0844 0.4041,-0.1599 0.0888,0.0134 0.1777,0.0267 0.2754,0.0267 0.1332,0 0.2753,-0.0133 0.4264,-0.04 0.3641,-0.071 0.6084,-0.1421 0.795,-0.2042 0.1288,-0.0445 0.2398,-0.1155 0.3419,-0.1954 0.151,0.0399 0.302,0.0666 0.4619,0.0666 0.12,0 0.2443,-0.0134 0.3642,-0.0356 0.3109,-0.0577 0.6174,-0.1509 0.9105,-0.2664 0.0533,0.0089 0.1022,0.0133 0.1554,0.0133 0.0667,0 0.1333,-0.0044 0.1955,-0.0177 l 0.5329,-0.1022 c 0.2043,-0.04 0.3864,-0.1288 0.5374,-0.2576 0.1466,0.04 0.2976,0.0622 0.4575,0.0622 0.1288,0 0.262,-0.0133 0.3953,-0.0355 0.2442,-0.0444 0.5596,-0.1421 0.866,-0.3331 0.1111,0.0311 0.2265,0.0533 0.3376,0.0533 0.0666,0 0.1332,-0.0044 0.1954,-0.0177 l 0.4797,-0.0933 c 0.1643,-0.0311 0.3108,-0.0932 0.4441,-0.1821 0.1554,0.0356 0.3198,0.0356 0.4885,0.0045 l 0.4086,-0.0755 c 0.0711,-0.0133 0.1377,-0.0355 0.2043,-0.0622 0,0 0.0045,0 0.0089,0 0.0666,0 0.1333,-0.0044 0.1999,-0.0178 l 0.5685,-0.1065 c 0.1599,-0.0311 0.3064,-0.0933 0.4397,-0.1821 0.151,0.0355 0.3109,0.04 0.4574,0.0133 l 0.5507,-0.1066 c 0.1511,-0.0266 0.2843,-0.0888 0.4087,-0.1643 0.0888,0.0134 0.1865,0.0267 0.2886,0.0267 0.1333,0 0.2754,-0.0133 0.4309,-0.0444 0.1865,-0.0356 0.4796,-0.1066 0.6795,-0.1865 0.1377,-0.0489 0.2531,-0.1244 0.3597,-0.2132 0.1288,0.0488 0.2709,0.0755 0.4086,0.0755 0.0666,0 0.1333,-0.0045 0.1955,-0.0178 l 0.5374,-0.1021 c 0.2531,-0.0489 0.4752,-0.1821 0.6395,-0.3642 0.1599,0.08 0.342,0.1244 0.5196,0.1244 0.0667,0 0.1288,-0.0045 0.1955,-0.0178 l 0.5418,-0.1021 c 0.0933,-0.0178 0.1777,-0.0489 0.2576,-0.0844 0.0222,0 0.04,0.0044 0.0622,0.0044 0.0666,0 0.1332,-0.0044 0.1954,-0.0177 l 0.4797,-0.0933 c 0.1599,-0.0311 0.3109,-0.0932 0.4441,-0.182 0.1554,0.0355 0.3198,0.0355 0.4885,0.0044 l 0.4086,-0.0755 c 0.0711,-0.0133 0.1377,-0.0355 0.2044,-0.0622 0,0 0.0044,0 0.0088,0 0.0667,0 0.1333,-0.0044 0.1999,-0.0177 l 0.5685,-0.1066 c 0.1599,-0.0311 0.3109,-0.0933 0.4397,-0.1821 0.151,0.0355 0.3109,0.04 0.4574,0.0133 l 0.5508,-0.1065 c 0.151,-0.0267 0.2842,-0.0889 0.4086,-0.1643 0.0888,0.0133 0.1865,0.0266 0.2887,0.0266 0.1332,0 0.2753,-0.0133 0.4352,-0.0444 0.1865,-0.0355 0.4797,-0.1066 0.6751,-0.1821 0.0355,-0.0133 0.0666,-0.0355 0.1021,-0.0533 0.0445,0 0.0844,0.0089 0.1288,0.0089 0.1999,0 0.4086,-0.0222 0.6263,-0.0622 0.3642,-0.071 0.6839,-0.2087 0.9593,-0.3952 0.0799,-0.04 0.151,-0.0888 0.2221,-0.1377 0.0799,-0.0399 0.151,-0.0888 0.2265,-0.1376 0.0799,-0.04 0.151,-0.0888 0.222,-0.1377 0.08,-0.04 0.151,-0.0888 0.2221,-0.1376 0.0799,-0.04 0.151,-0.0889 0.2265,-0.1377 0.08,-0.04 0.151,-0.0888 0.2265,-0.1377 0.08,-0.0399 0.151,-0.0888 0.2265,-0.1376 0.08,-0.04 0.151,-0.0889 0.2265,-0.1377 1.0082,-0.5373 1.6389,-1.5232 1.6389,-2.6867 0,-0.1821 -0.0178,-0.3552 -0.0533,-0.524 0.0844,-0.1687 0.1421,-0.3508 0.1732,-0.5418 l 0.08,-0.5151 c 0.0133,-0.0933 0.0222,-0.1954 0.0222,-0.2887 0,-0.8881 -0.6129,-1.6342 -1.4879,-1.8118 z"
     fill="#000000"
     id="path233" />
  <path
     d="m 22.9041,54.89255 0.3553,1.0214 c 0,0 0,0.0178 0,0.0266 0,0.0445 -0.0311,0.08 -0.0755,0.0889 l -0.644,0.1243 c -0.04,0.0089 -0.0489,-0.0311 -0.0578,-0.0666 l -0.3064,-0.9193 c -0.08,0.0134 -0.1599,0.0311 -0.2399,0.0356 l -0.1554,1.0125 c -0.0089,0.0444 -0.0489,0.0888 -0.0888,0.0977 l -0.5907,0.111 c -0.0356,0.0089 -0.0622,-0.0178 -0.0622,-0.0577 v -0.0134 l 0.4219,-2.6955 c 0.0311,-0.1999 0.0933,-0.2531 0.2532,-0.3109 0.151,-0.0533 0.4441,-0.1376 0.7683,-0.1998 0.5818,-0.111 1.0215,0.0355 1.0215,0.5862 0,0.4618 -0.1909,0.9015 -0.5995,1.1546 z m -0.4753,-1.0436 c -0.0977,0.0178 -0.222,0.0444 -0.2842,0.0622 l -0.1022,0.6572 c 0.04,0 0.0844,-0.0133 0.1288,-0.0222 0.0444,-0.0088 0.0933,-0.0177 0.1377,-0.0266 0.2887,-0.0533 0.4486,-0.2043 0.4486,-0.5196 0,-0.1465 -0.0933,-0.1954 -0.3242,-0.151 z"
     fill="#fecd19"
     id="path234" />
  <path
     d="m 25.6887,52.67225 -0.0755,0.5018 c -0.0089,0.0444 -0.0489,0.0889 -0.0889,0.0977 l -0.7417,0.1421 c -0.1332,0.0267 -0.1821,0.0844 -0.2087,0.2398 l -0.0489,0.302 0.9016,-0.1687 c 0.0356,-0.0089 0.0622,0.0177 0.0622,0.0577 v 0.0133 l -0.0755,0.4841 c -0.0089,0.0444 -0.0444,0.0888 -0.0844,0.0977 l -0.9016,0.1687 -0.0533,0.342 c 0,0.031 -0.0089,0.0577 -0.0089,0.0799 0,0.0932 0.0445,0.111 0.1511,0.0932 l 0.7417,-0.1421 c 0.0355,-0.0088 0.0621,0.0178 0.0621,0.0578 v 0.0133 l -0.0799,0.5018 c -0.0089,0.0488 -0.0355,0.0799 -0.0844,0.0977 -0.1421,0.0488 -0.3686,0.1155 -0.7195,0.1865 -0.4264,0.0799 -0.8216,-0.0133 -0.8216,-0.5373 0,-0.0622 0.0088,-0.1332 0.0177,-0.2087 l 0.1999,-1.2923 c 0.1288,-0.8304 0.5685,-1.0036 1.0837,-1.1013 0.3553,-0.0666 0.5773,-0.08 0.715,-0.0888 0.04,0 0.0578,0.0133 0.0578,0.0532 v 0.0178 z"
     fill="#fecd19"
     id="path235" />
  <path
     d="m 28.0337,52.28585 -0.0844,0.5195 c -0.0089,0.0489 -0.0222,0.0666 -0.0578,0.0755 0,0 -0.0088,0 -0.0133,0 -0.1377,0.0178 -0.4308,0.0444 -0.7017,0.0977 -0.3642,0.0711 -0.5197,0.2176 -0.5996,0.715 l -0.0711,0.4352 c -0.0133,0.1021 -0.0222,0.1865 -0.0222,0.2575 0,0.3065 0.1377,0.3331 0.2754,0.3065 0.0711,-0.0134 0.1421,-0.0311 0.2043,-0.0533 l 0.1332,-0.8438 c 0.0089,-0.0444 0.04,-0.0888 0.08,-0.0932 l 0.5774,-0.1111 c 0.0355,-0.0088 0.0621,0.0178 0.0621,0.0578 v 0.0133 l -0.2176,1.3811 c -0.0133,0.0622 -0.0311,0.0844 -0.0933,0.111 -0.222,0.0888 -0.5107,0.191 -0.866,0.2576 -0.4086,0.0755 -0.9194,-0.0844 -0.9194,-0.8216 0,-0.0977 0.0089,-0.2043 0.0267,-0.3197 l 0.071,-0.4352 c 0.1954,-1.199 0.8306,-1.4744 1.368,-1.5765 0.3819,-0.071 0.6395,-0.0577 0.7816,-0.04 0.0356,0.0045 0.0622,0.0089 0.0622,0.0444 0,0 0,0.0134 0,0.0223 z"
     fill="#fecd19"
     id="path236" />
  <path
     d="m 29.2062,51.99725 -0.453,2.8998 c -0.0089,0.0444 -0.0311,0.0844 -0.0888,0.0977 l -0.5996,0.1155 c -0.0444,0.0088 -0.0666,-0.0267 -0.0577,-0.0711 l 0.453,-2.8998 c 0.0089,-0.0444 0.0444,-0.0844 0.0844,-0.0933 l 0.5996,-0.1154 c 0.0399,-0.0089 0.071,0.0133 0.0621,0.0666 z"
     fill="#fecd19"
     id="path237" />
  <path
     d="m 31.6357,52.73875 -0.071,0.4263 c -0.1644,1.0036 -0.6574,1.4388 -1.3369,1.5676 -0.5152,0.0977 -0.9416,-0.1377 -0.9416,-0.8127 0,-0.1021 0.0089,-0.2087 0.0311,-0.3286 l 0.0711,-0.4263 c 0.1732,-1.0436 0.7017,-1.4521 1.3368,-1.572 0.5108,-0.0977 0.9416,0.111 0.9416,0.8037 0,0.1022 -0.0089,0.2176 -0.0311,0.342 z m -1.0304,-0.4086 c -0.2576,0.0489 -0.3908,0.2487 -0.4663,0.6928 l -0.0711,0.4263 c -0.0133,0.0977 -0.0266,0.1821 -0.0266,0.2531 0,0.2487 0.1021,0.3331 0.302,0.2931 0.2576,-0.0488 0.3908,-0.2487 0.4663,-0.6883 l 0.0711,-0.4263 c 0.0133,-0.0977 0.0266,-0.1821 0.0266,-0.2531 0,-0.2487 -0.1021,-0.3375 -0.302,-0.2976 z"
     fill="#fecd19"
     id="path238" />
  <path
     d="m 34.4515,51.00685 -0.4397,2.8243 c -0.0133,0.0844 -0.0888,0.1643 -0.1599,0.1776 l -0.453,0.0844 c -0.0666,0.0133 -0.1066,-0.0133 -0.1377,-0.0799 l -0.5418,-1.2346 c -0.0134,-0.0266 -0.0222,-0.0266 -0.0311,-0.0266 -0.0089,0 -0.0178,0.0133 -0.0222,0.04 l -0.2221,1.4032 c -0.0089,0.0445 -0.0489,0.0889 -0.0888,0.0977 l -0.5507,0.1022 c -0.0356,0.0089 -0.0622,-0.0178 -0.0622,-0.0577 v -0.0134 l 0.4397,-2.8243 c 0.0133,-0.0844 0.0888,-0.1643 0.1599,-0.1776 l 0.4485,-0.0844 c 0.0711,-0.0133 0.0977,0.0311 0.1288,0.0932 l 0.5552,1.2745 c 0.0089,0.0267 0.0133,0.0356 0.0266,0.0311 0.0089,0 0.0222,-0.0088 0.0267,-0.0399 l 0.2265,-1.4566 c 0.0089,-0.0444 0.0489,-0.0888 0.0888,-0.0977 l 0.5508,-0.1022 c 0.0355,-0.0088 0.0577,0.0178 0.0577,0.0533 v 0.0178 z"
     fill="#fecd19"
     id="path239" />
  <path
     d="m 36.5922,53.48945 -0.6218,0.1199 c -0.0355,0.0089 -0.0622,-0.0222 -0.0622,-0.0622 l -0.0133,-0.5551 -0.6529,0.1244 -0.1954,0.5906 c -0.0133,0.0444 -0.0488,0.0844 -0.0844,0.0932 l -0.6484,0.1244 c -0.0311,0.0044 -0.0533,-0.0089 -0.0533,-0.0444 0,-0.0089 0,-0.0222 0.0089,-0.0356 l 0.8882,-2.6156 c 0.1422,-0.4218 0.4309,-0.5595 0.7817,-0.6261 0.3464,-0.0666 0.6129,-0.0356 0.6263,0.3597 l 0.0932,2.4291 c 0,0.0488 -0.0311,0.0888 -0.071,0.0977 z m -0.7151,-2.1494 c 0,-0.0355 0,-0.0577 -0.031,-0.0488 -0.0311,0.0044 -0.0356,0.0266 -0.0489,0.0666 l -0.3464,1.0791 0.4397,-0.0844 z"
     fill="#fecd19"
     id="path240" />
  <path
     d="m 38.6085,52.53015 -0.08,0.5018 c -0.0088,0.0489 -0.0355,0.08 -0.0844,0.0977 -0.1376,0.0533 -0.3863,0.1199 -0.5773,0.1599 -0.4131,0.0799 -0.8217,0.0089 -0.8217,-0.5329 0,-0.0622 0.0089,-0.1332 0.0178,-0.2131 l 0.3242,-2.0917 c 0.0089,-0.0444 0.0533,-0.0888 0.0933,-0.0977 l 0.5951,-0.111 c 0.0356,-0.0089 0.0578,0.0178 0.0578,0.0533 v 0.0178 l -0.3243,2.0916 c 0,0.0311 -0.0088,0.0533 -0.0088,0.0755 0,0.0932 0.0444,0.1154 0.151,0.0977 l 0.5951,-0.111 c 0.0355,-0.0089 0.0622,0.0177 0.0622,0.0577 v 0.0133 z"
     fill="#fecd19"
     id="path241" />
  <path
     d="m 41.8374,49.61695 -0.0799,0.5018 c -0.0089,0.0444 -0.0444,0.0888 -0.0844,0.0977 l -0.7417,0.1421 c -0.1333,0.0266 -0.1821,0.0843 -0.2088,0.2398 l -0.0488,0.2975 0.9016,-0.1687 c 0.0355,-0.0089 0.0622,0.0177 0.0622,0.0577 v 0.0133 l -0.0755,0.4841 c -0.0089,0.0444 -0.0445,0.0888 -0.0844,0.0976 l -0.9016,0.1688 -0.1821,1.1457 c -0.0089,0.0444 -0.0489,0.0888 -0.0888,0.0977 l -0.5952,0.111 c -0.0355,0.0089 -0.0577,-0.0177 -0.0577,-0.0533 v -0.0177 l 0.3242,-2.0916 c 0.1288,-0.8349 0.5907,-1.0125 1.0837,-1.1058 0.3553,-0.0666 0.5729,-0.0755 0.7106,-0.0844 0.04,0 0.0622,0.0178 0.0622,0.0533 v 0.0178 z"
     fill="#fecd19"
     id="path242" />
  <path
     d="m 42.9833,49.38605 -0.4531,2.8999 c -0.0088,0.0444 -0.0311,0.0844 -0.0888,0.0977 l -0.5996,0.1154 c -0.0444,0.0089 -0.0666,-0.0266 -0.0577,-0.0666 l 0.453,-2.8998 c 0.0089,-0.0444 0.0444,-0.0844 0.0844,-0.0933 l 0.5996,-0.1154 c 0.0399,-0.0089 0.071,0.0133 0.0622,0.0666 z"
     fill="#fecd19"
     id="path243" />
  <path
     d="m 45.6747,48.87995 -0.4396,2.8243 c -0.0134,0.0844 -0.0889,0.1643 -0.1599,0.1776 l -0.4531,0.0844 c -0.0666,0.0133 -0.1065,-0.0133 -0.1332,-0.0844 l -0.5418,-1.2345 c -0.0134,-0.0267 -0.0222,-0.0267 -0.0311,-0.0267 -0.0089,0 -0.0178,0.0134 -0.0222,0.04 l -0.2221,1.4033 c -0.0089,0.0444 -0.0489,0.0888 -0.0888,0.0977 l -0.5508,0.1021 c -0.0355,0.0089 -0.0621,-0.0177 -0.0621,-0.0577 v -0.0133 l 0.4397,-2.8244 c 0.0133,-0.0843 0.0888,-0.1643 0.1598,-0.1776 l 0.4486,-0.0844 c 0.0711,-0.0133 0.0977,0.0311 0.1288,0.0933 l 0.5552,1.2745 c 0.0089,0.0266 0.0133,0.0355 0.0266,0.0311 0.0089,0 0.0222,-0.0089 0.0267,-0.04 l 0.2265,-1.4566 c 0.0089,-0.0444 0.0489,-0.0888 0.0888,-0.0977 l 0.5507,-0.1021 c 0.0356,-0.0089 0.0578,0.0178 0.0578,0.0533 v 0.0178 z"
     fill="#fecd19"
     id="path244" />
  <path
     d="m 47.8154,51.36225 -0.6218,0.1199 c -0.0355,0.0089 -0.0622,-0.0222 -0.0622,-0.0622 l -0.0133,-0.5551 -0.6529,0.1244 -0.1954,0.5906 c -0.0133,0.0444 -0.0488,0.0844 -0.0844,0.0933 l -0.6484,0.1243 c -0.0311,0.0045 -0.0533,-0.0089 -0.0533,-0.04 0,-0.0088 0,-0.0222 0.0089,-0.0355 l 0.8882,-2.6156 c 0.1422,-0.4219 0.4309,-0.5595 0.7817,-0.6262 0.3509,-0.0666 0.6129,-0.0355 0.6262,0.3553 l 0.0933,2.4291 c 0,0.0489 -0.0311,0.0888 -0.071,0.0977 z m -0.7151,-2.1493 c 0,-0.0356 0,-0.0578 -0.031,-0.0489 -0.0311,0.0045 -0.0356,0.0267 -0.0489,0.0666 l -0.342,1.0791 0.4397,-0.0843 -0.0133,-1.0125 z"
     fill="#fecd19"
     id="path245" />
  <path
     d="m 49.8318,50.40295 -0.0799,0.5018 c -0.0089,0.0489 -0.0355,0.08 -0.0844,0.0977 -0.1377,0.0533 -0.3864,0.1199 -0.5774,0.1599 -0.413,0.0799 -0.8216,0.0089 -0.8216,-0.5329 0,-0.0622 0.0089,-0.1332 0.0178,-0.2131 l 0.3242,-2.0917 c 0.0089,-0.0444 0.0533,-0.0888 0.0932,-0.0977 l 0.5952,-0.111 c 0.0355,-0.0089 0.0577,0.0178 0.0577,0.0533 v 0.0178 l -0.3242,2.0916 c 0,0.0311 -0.0089,0.0533 -0.0089,0.0755 0,0.0932 0.0444,0.1155 0.151,0.0977 l 0.5952,-0.111 c 0.0355,-0.0089 0.0621,0.0177 0.0621,0.0577 v 0.0133 z"
     fill="#fecd19"
     id="path246" />
  <path
     d="m 52.2258,47.69405 -0.08,0.5151 c -0.0089,0.0444 -0.0355,0.0844 -0.0755,0.0888 0,0 -0.0029,0 -0.0089,0 -0.1465,0.0178 -0.5596,0.0533 -0.826,0.1066 -0.1022,0.0177 -0.2088,0.0755 -0.2088,0.2087 0,0.0577 0.0355,0.0844 0.1599,0.1421 l 0.4486,0.2043 c 0.262,0.1154 0.3642,0.3197 0.3642,0.5995 0,0.746 -0.573,1.159 -1.1992,1.2789 -0.302,0.0578 -0.533,0.0578 -0.7195,0.0311 -0.0311,-0.0044 -0.0622,-0.0177 -0.0622,-0.0533 v -0.0133 l 0.0755,-0.5062 c 0.0089,-0.0444 0.04,-0.0889 0.0844,-0.0977 0,0 0,0 0.0089,0 0.151,-0.0134 0.5374,-0.04 0.7328,-0.08 0.1466,-0.0266 0.2665,-0.1065 0.2665,-0.2886 0,-0.0578 -0.0355,-0.0977 -0.1421,-0.151 l -0.4708,-0.2487 c -0.2132,-0.111 -0.3153,-0.3508 -0.3153,-0.5995 0,-0.7194 0.5152,-1.0347 1.097,-1.1457 0.2887,-0.0533 0.6706,-0.0755 0.8127,-0.0533 0.0311,0.0044 0.0533,0.0178 0.0533,0.0533 v 0.0133 z"
     fill="#fecd19"
     id="path247" />
  <defs
     id="defs248">
    <linearGradient
       id="paint0_linear_265_6564"
       x1="53.088902"
       y1="7.9800401"
       x2="53.088902"
       y2="81.728203"
       gradientUnits="userSpaceOnUse">
      <stop
         stop-color="#E94560"
         id="stop247" />
      <stop
         offset="1"
         stop-color="#10101C"
         id="stop248" />
    </linearGradient>
  </defs>
</svg>
