<svg width="67" height="62" viewBox="0 0 67 62" fill="none" xmlns="http://www.w3.org/2000/svg">
<g opacity="0.2">
<path fill-rule="evenodd" clip-rule="evenodd" d="M10.8677 56.3292L14.3597 52.9032C16.4155 50.8862 19.1894 49.755 22.0797 49.755H43.902C46.7923 49.755 49.5662 50.8862 51.622 52.9032L55.114 56.3293L49.9673 61.5L46.4754 58.0739C45.7901 57.4016 44.8655 57.0245 43.902 57.0245H22.0797C21.1162 57.0245 20.1916 57.4016 19.5063 58.0739L16.0144 61.5L10.8677 56.3292Z" fill="#E94555"/>
<path fill-rule="evenodd" clip-rule="evenodd" d="M55.114 5.67074L51.622 9.09679C49.5662 11.1138 46.7924 12.245 43.902 12.245H22.0797C19.1894 12.245 16.4155 11.1138 14.3597 9.09679L10.8677 5.67075L16.0144 0.500001L19.5063 3.92605C20.1916 4.5984 21.1162 4.97545 22.0797 4.97545H43.902C44.8655 4.97545 45.7901 4.5984 46.4754 3.92605L49.9673 0.5L55.114 5.67074Z" fill="#E94555"/>
<path fill-rule="evenodd" clip-rule="evenodd" d="M61.8046 61.1859L56.4068 55.7896C53.2738 52.6574 51.5156 48.4222 51.5156 44.0078V17.8476C51.5156 13.4333 53.2738 9.19811 56.4068 6.06591L61.8046 0.669518L67 5.79201L61.6022 11.1884C59.8314 12.9588 58.8376 15.3526 58.8376 17.8476V44.0078C58.8376 46.5029 59.8314 48.8967 61.6022 50.6671L67 56.0635L61.8046 61.1859Z" fill="#E94555"/>
<path fill-rule="evenodd" clip-rule="evenodd" d="M5.79471 1.00887L10.2211 6.69854C12.4985 9.62587 13.7339 13.2203 13.7339 16.9192V44.9362C13.7339 48.6351 12.4985 52.2296 10.2211 55.1569L5.79472 60.8466L7.84604e-07 56.4028L4.42643 50.7132C5.71365 49.0586 6.41193 47.0269 6.41193 44.9362L6.41193 16.9192C6.41193 14.8285 5.71365 12.7969 4.42643 11.1423L0 5.45265L5.79471 1.00887Z" fill="#E94555"/>
<path fill-rule="evenodd" clip-rule="evenodd" d="M23.1061 25.1848C23.1061 23.1774 24.7452 21.55 26.7671 21.55H38.4824C40.5043 21.55 42.1434 23.1774 42.1434 25.1848V36.8161C42.1434 38.8235 40.5043 40.4508 38.4824 40.4508H26.7671C24.7452 40.4508 23.1061 38.8235 23.1061 36.8161V25.1848ZM30.4281 28.8196V33.1813H34.8214V28.8196H30.4281Z" fill="#E94555"/>
</g>
</svg>
