<svg width="106" height="90" viewBox="0 0 106 90" fill="none" xmlns="http://www.w3.org/2000/svg">
	<path
		d="M53.0577 86.3379C51.5077 86.3379 49.9754 85.9249 48.6252 85.1389L21.9283 69.8271C20.587 69.0721 19.4589 67.9664 18.6773 66.6342C17.8956 65.3019 17.4825 63.7787 17.4825 62.2289V14.2728C17.4825 13.0116 17.9711 11.8215 18.8682 10.9289C19.832 9.96525 21.0223 9.73432 21.8084 9.58334L52.1117 3.70817C52.5691 3.61936 53.0355 3.57495 53.4974 3.57495C53.9593 3.57495 54.4523 3.6238 54.9186 3.71706C54.9186 3.71706 76.0105 7.9136 84.3691 9.58334C86.9895 10.1074 88.6861 11.9503 88.6861 14.2728V62.2422C88.6994 63.792 88.2953 65.3152 87.5092 66.6475C86.723 67.9841 85.5861 69.0899 84.2226 69.8404L57.539 85.1434C56.1977 85.9249 54.6432 86.3379 53.0577 86.3379Z"
		fill="white" />
	<path
		d="M53.4974 4.48527C53.9149 4.48527 54.3324 4.52524 54.741 4.60962C54.741 4.60962 75.8285 8.80616 84.1871 10.4759C86.3633 10.9111 87.7712 12.4032 87.7712 14.2728V62.2422C87.7846 63.6366 87.4204 64.9999 86.7231 66.1856C86.0213 67.3802 85.0132 68.366 83.7785 69.041L57.0816 84.3529C55.8735 85.0545 54.479 85.4275 53.0533 85.4275C51.6631 85.4275 50.2863 85.0545 49.0827 84.3529L22.3814 69.0366C21.1733 68.3571 20.1652 67.3668 19.4634 66.1723C18.7661 64.9821 18.3975 63.6144 18.3975 62.2289V14.2728C18.3975 13.2514 18.7928 12.2922 19.5167 11.5728C20.2851 10.8045 21.2666 10.6136 21.9861 10.4759L52.2849 4.60073C52.6847 4.52524 53.0933 4.48527 53.4974 4.48527ZM53.4974 2.66455C52.9733 2.66455 52.4493 2.7134 51.9385 2.81554L21.6441 8.68626C20.8003 8.85057 19.3924 9.12146 18.2332 10.2849C17.1673 11.3507 16.581 12.7673 16.581 14.2728V62.2244C16.581 63.943 17.0385 65.6216 17.9001 67.096C18.7617 68.5703 20.0053 69.7915 21.4976 70.6264L48.1856 85.9338C49.6601 86.7953 51.3522 87.2527 53.0622 87.2527C54.8076 87.2527 56.5175 86.7953 58.0054 85.9338L84.6801 70.6353C86.1857 69.8048 87.4381 68.5881 88.2998 67.1137C89.1658 65.6438 89.6144 63.9563 89.5966 62.2333V14.2728C89.5966 11.5372 87.5669 9.29465 84.5513 8.6907C76.2815 7.03873 55.3095 2.86439 55.0963 2.82442C54.5722 2.71784 54.0304 2.66455 53.4974 2.66455Z"
		fill="black" />
	<path fill-rule="evenodd" clip-rule="evenodd"
		d="M53.0578 83.6111C51.9874 83.6111 50.9304 83.3225 49.9933 82.7762L23.2786 67.4555C22.3459 66.9315 21.5731 66.1721 21.0357 65.2529C20.5028 64.3381 20.2185 63.2945 20.2185 62.2287V14.2726C20.2185 13.7397 20.4272 13.2379 20.8048 12.8605C21.1512 12.5141 21.6353 12.3986 22.337 12.2654L52.6314 6.39468C52.9157 6.34139 53.2088 6.3103 53.4975 6.3103C53.7862 6.3103 54.0926 6.34139 54.3857 6.39912C54.3857 6.39912 75.4732 10.5957 83.8318 12.2654C84.3293 12.3631 85.9548 12.8027 85.9548 14.2815V62.2642C85.9637 63.33 85.6883 64.3736 85.1553 65.2751C84.6179 66.1899 83.8496 66.9404 82.9258 67.4466L56.1756 82.7896C55.2385 83.3313 54.1637 83.62 53.0578 83.62V83.6111Z"
		fill="url(#paint0_linear_265_6564)" />
	<path
		d="M53.4975 6.91009C53.7551 6.91009 54.0172 6.93673 54.2703 6.98558C54.4791 7.02555 75.4555 11.1999 83.7164 12.8519C84.0984 12.9274 85.3508 13.256 85.3508 14.2729V62.2645C85.3597 63.2193 85.111 64.1474 84.6357 64.9601C84.1561 65.7772 83.4632 66.4522 82.6371 66.9052L82.5794 66.9362L55.8736 82.257C55.0342 82.7454 54.0616 83.003 53.0667 83.003C52.1029 83.003 51.1525 82.7455 50.2998 82.2481L23.5806 66.9229C22.7501 66.4566 22.0528 65.7728 21.5687 64.9468C21.0891 64.1252 20.8359 63.1882 20.8359 62.229V14.2685C20.8359 13.8955 20.978 13.5491 21.2445 13.2826C21.4666 13.0561 21.8707 12.9673 22.4614 12.8519L52.7558 6.98114C53.0045 6.93229 53.2532 6.91009 53.5064 6.91009M53.5064 5.69775C53.1777 5.69775 52.8491 5.72884 52.5249 5.79101C52.5249 5.79101 31.615 9.84545 22.2305 11.6617C21.5465 11.795 20.8803 11.9326 20.3873 12.4255C19.8943 12.9185 19.6234 13.5713 19.6234 14.2685V62.2246C19.6234 63.3969 19.9343 64.5515 20.525 65.5551C21.1157 66.5632 21.9684 67.4025 22.9899 67.9754L49.7002 83.2961C50.735 83.8956 51.8942 84.2109 53.0712 84.2109C54.2925 84.2109 55.465 83.8956 56.491 83.3005L83.1923 67.9843C83.1923 67.9843 83.219 67.9709 83.2323 67.9621C84.2494 67.4025 85.1021 66.5721 85.6928 65.5685C86.2791 64.5693 86.5855 63.4236 86.5766 62.2512V14.2729C86.5766 12.8341 85.3775 11.9459 83.9696 11.6617C75.6109 9.98756 54.5235 5.79545 54.5235 5.79545C54.1904 5.72884 53.8528 5.69775 53.5153 5.69775H53.5064Z"
		fill="#E94560" />
	<path fill-rule="evenodd" clip-rule="evenodd"
		d="M22.8389 67.9796L49.5491 83.3004C50.584 83.8999 51.7431 84.2152 52.9201 84.2152C52.929 84.2152 52.9379 84.2152 52.9467 84.2152V5.71533C52.7558 5.72865 52.5648 5.7553 52.3738 5.79083C52.3738 5.79083 31.464 9.84527 22.0794 11.6615C21.3954 11.7948 20.7293 11.9324 20.2363 12.4254C19.7433 12.9183 19.4724 13.5711 19.4724 14.2683V62.2244C19.4724 63.3967 19.7833 64.5513 20.374 65.555C20.9647 66.563 21.8174 67.4023 22.8389 67.9752V67.9796Z"
		fill="#10101C" fill-opacity="0.2" />
	<path
		d="M78.1558 37.4538C78.1558 37.4094 78.1558 37.3605 78.1558 37.3161L77.6361 25.0373C77.5517 22.9279 76.588 21.7245 75.7974 21.085C73.8788 19.5396 71.3561 19.9837 70.4056 20.1524C69.4419 20.3212 66.9902 20.7564 65.1648 22.8302C65.1426 22.808 65.1204 22.777 65.0982 22.7548C64.281 21.9554 63.1396 21.6179 61.9804 21.8222L58.7116 22.3995C58.0187 22.5238 57.3969 22.8391 56.8862 23.2832C56.864 23.2788 56.8462 23.2743 56.824 23.2699C56.7529 23.2566 56.6819 23.2432 56.6108 23.2344C55.2829 23.0567 52.809 23.2432 51.1835 23.5274C47.6837 24.1447 45.583 25.5569 44.3261 27.1334C44.1751 26.9779 44.0285 26.8358 43.8819 26.7159C41.9633 25.1705 39.4406 25.6146 38.4902 25.7834C37.2111 26.0099 33.3249 26.6937 31.7482 31.0324L26.9293 44.2615C26.9116 44.3148 26.8894 44.377 26.8716 44.4302C26.8183 44.6079 26.6895 45.0164 26.6895 45.5449C26.6895 46.5885 27.1381 47.561 27.9242 48.2182C28.395 48.6135 28.9546 48.8666 29.5542 48.9732C29.874 49.1464 30.2204 49.2707 30.5846 49.3329C30.9043 49.5105 31.2508 49.6304 31.615 49.6926C31.9347 49.8747 32.29 49.9946 32.6587 50.0523C32.9785 50.2388 33.3338 50.3587 33.7024 50.412C34.0222 50.6029 34.373 50.7228 34.7461 50.7717C35.0614 50.9671 35.4167 51.087 35.7898 51.1314C36.1052 51.3312 36.456 51.4511 36.8291 51.4911C37.14 51.6954 37.4953 51.8197 37.8728 51.8508C38.2192 52.0906 38.6278 52.2238 39.0542 52.2238C39.1786 52.2238 39.3074 52.2105 39.4362 52.1883L41.5547 51.8153C42.1765 51.7043 42.7272 51.3223 43.0825 50.7673C43.0825 50.7673 43.0914 50.7717 43.0914 50.7761C43.5711 51.1802 44.2017 51.349 44.8279 51.238L46.8576 50.8783C47.2085 50.8161 47.5238 50.6696 47.7903 50.4697C48.0701 50.4964 48.3544 50.5141 48.6475 50.5141C49.2471 50.5141 49.8733 50.4564 50.544 50.3365C51.7786 50.1189 52.8535 49.6704 53.7195 49.0442C54.0704 49.2885 54.4923 49.4217 54.9276 49.4217C55.0519 49.4217 55.1763 49.4128 55.3051 49.3906L57.2681 49.0442C57.5035 49.0043 57.73 48.9243 57.9343 48.8177C58.0276 48.8311 58.1209 48.8399 58.2141 48.8399C58.3385 48.8399 58.4673 48.8311 58.5917 48.8089L60.7013 48.4358C61.2964 48.3337 61.8294 47.974 62.1847 47.4589C62.2114 47.4411 62.238 47.4278 62.2647 47.41C62.7443 47.8052 63.3661 47.9696 63.9835 47.863L66.0176 47.5033C66.5639 47.4056 67.0302 47.1169 67.3544 46.7084C67.7808 46.5663 68.1539 46.3176 68.4337 45.9845C68.8512 45.838 69.2154 45.5893 69.4996 45.2651C69.9171 45.1141 70.2813 44.861 70.57 44.5413C70.9874 44.3814 71.3516 44.1283 71.6492 43.8085C72.0578 43.6487 72.4176 43.3955 72.7151 43.0847C73.1326 42.9159 73.5101 42.6628 73.8166 42.3475C74.2252 42.1743 74.5894 41.9256 74.8958 41.6192C75.3 41.4416 75.6597 41.1973 75.9662 40.8909C77.2853 40.3048 78.1735 38.9814 78.1735 37.4538H78.1558Z"
		fill="black" />
	<mask id="mask0_265_6564" style="mask-type:luminance" maskUnits="userSpaceOnUse" x="38" y="32" width="1" height="2">
		<path
			d="M38.7123 32.3157V33.075C38.7123 32.9152 38.7123 32.8175 38.5924 32.8175C38.5746 32.8175 38.5568 32.8175 38.5346 32.8219C38.3525 32.853 38.3348 32.9596 38.277 33.1505V32.3912C38.3348 32.2002 38.357 32.0981 38.5346 32.0625C38.5568 32.0625 38.5746 32.0581 38.5924 32.0581C38.7123 32.0581 38.7123 32.1558 38.7123 32.3157Z"
			fill="white" />
	</mask>
	<g mask="url(#mask0_265_6564)">
		<path
			d="M38.7123 32.3157V33.075C38.7123 32.9152 38.7123 32.8175 38.5924 32.8175C38.5746 32.8175 38.5568 32.8175 38.5346 32.8219C38.3525 32.853 38.3348 32.9596 38.277 33.1505V32.3912C38.3348 32.2002 38.357 32.0981 38.5346 32.0625C38.5568 32.0625 38.5746 32.0581 38.5924 32.0581C38.7123 32.0581 38.7123 32.1558 38.7123 32.3157Z"
			fill="#BABABA" />
	</g>
	<path d="M38.7922 37.4223V38.1773L38.7122 33.0704V32.3154L38.7922 37.4223Z" fill="#B3B3B3" />
	<path d="M38.2726 32.3911V33.146L36.4028 38.6038V37.8444L38.2726 32.3911Z" fill="#B3B3B3" />
	<path d="M38.8145 40.6465V41.4059L35.2658 42.032V41.2726L38.8145 40.6465Z" fill="#B3B3B3" />
	<mask id="mask1_265_6564" style="mask-type:luminance" maskUnits="userSpaceOnUse" x="42" y="42" width="1" height="2">
		<path
			d="M42.9804 42.6804V43.4398C42.9804 43.684 42.8205 43.8883 42.6029 43.9283V43.1689C42.8205 43.1289 42.9804 42.9202 42.9804 42.6804Z"
			fill="white" />
	</mask>
	<g mask="url(#mask1_265_6564)">
		<path
			d="M42.9804 42.6804V43.4398C42.9804 43.684 42.8205 43.8883 42.6029 43.9283V43.1689C42.8205 43.1289 42.9804 42.9202 42.9804 42.6804Z"
			fill="#BABABA" />
	</g>
	<path d="M38.8722 43.4397V44.1991L38.8144 41.4059V40.6465L38.8722 43.4397Z" fill="#B3B3B3" />
	<path d="M42.5985 43.1689V43.9283L39.2142 44.5234V43.764L42.5985 43.1689Z" fill="#B3B3B3" />
	<mask id="mask2_265_6564" style="mask-type:luminance" maskUnits="userSpaceOnUse" x="38" y="43" width="2" height="2">
		<path
			d="M39.2142 43.7639V44.5233C39.2142 44.5233 39.1743 44.5277 39.1565 44.5277C38.9877 44.5277 38.8723 44.3811 38.8723 44.1991V43.4397C38.8723 43.6218 38.9877 43.7683 39.1565 43.7683C39.1743 43.7683 39.192 43.7683 39.2142 43.7639Z"
			fill="white" />
	</mask>
	<g mask="url(#mask2_265_6564)">
		<path
			d="M39.2142 43.7639V44.5233C39.2142 44.5233 39.1743 44.5277 39.1565 44.5277C38.9877 44.5277 38.8723 44.3811 38.8723 44.1991V43.4397C38.8723 43.6218 38.9877 43.7683 39.1565 43.7683C39.1743 43.7683 39.192 43.7683 39.2142 43.7639Z"
			fill="#BABABA" />
	</g>
	<path d="M35.2659 41.2727V42.0321L34.2133 45.0207V44.2614L35.2659 41.2727Z" fill="#B3B3B3" />
	<mask id="mask3_265_6564" style="mask-type:luminance" maskUnits="userSpaceOnUse" x="33" y="44" width="2" height="2">
		<path
			d="M34.2133 44.2612V45.0206C34.1334 45.2338 33.9513 45.4469 33.7514 45.4824V44.7231C33.9513 44.6875 34.1334 44.4744 34.2133 44.2612Z"
			fill="white" />
	</mask>
	<g mask="url(#mask3_265_6564)">
		<path
			d="M34.2133 44.2612V45.0206C34.1334 45.2338 33.9513 45.4469 33.7514 45.4824V44.7231C33.9513 44.6875 34.1334 44.4744 34.2133 44.2612Z"
			fill="#BABABA" />
	</g>
	<path d="M33.7513 44.7231V45.4825L30.2293 46.1042V45.3449L33.7513 44.7231Z" fill="#B3B3B3" />
	<mask id="mask4_265_6564" style="mask-type:luminance" maskUnits="userSpaceOnUse" x="29" y="45" width="2" height="2">
		<path
			d="M30.2293 45.3448V46.1041C30.2027 46.1086 30.1805 46.113 30.1583 46.113C30.025 46.113 29.9495 46.0331 29.9495 45.891V45.1316C29.9495 45.2737 30.025 45.3536 30.1583 45.3536C30.1805 45.3536 30.2027 45.3536 30.2293 45.3448Z"
			fill="white" />
	</mask>
	<g mask="url(#mask4_265_6564)">
		<path
			d="M30.2293 45.3448V46.1041C30.2027 46.1086 30.1805 46.113 30.1583 46.113C30.025 46.113 29.9495 46.0331 29.9495 45.891V45.1316C29.9495 45.2737 30.025 45.3536 30.1583 45.3536C30.1805 45.3536 30.2027 45.3536 30.2293 45.3448Z"
			fill="#BABABA" />
	</g>
	<path
		d="M42.4608 30.4193L42.9804 42.6804C42.9804 42.9246 42.8205 43.1289 42.6029 43.1688L39.2186 43.7639C39.2186 43.7639 39.1786 43.7683 39.1609 43.7683C38.9921 43.7683 38.8766 43.6218 38.8766 43.4397L38.8189 40.6465L35.2747 41.2726L34.2177 44.2613C34.1377 44.4744 33.9556 44.6876 33.7558 44.7231L30.2293 45.3448C30.2027 45.3493 30.1805 45.3537 30.1583 45.3537C30.025 45.3537 29.9495 45.2738 29.9495 45.1317C29.9495 45.0917 29.9673 45.0295 29.9895 44.9629L34.8084 31.7649C35.5856 29.6333 37.1578 28.9494 39.0543 28.6208C39.5339 28.5364 39.987 28.4832 40.3956 28.4832C41.5903 28.4832 42.3986 28.945 42.4608 30.4193ZM36.4072 37.8443L38.7967 37.4225L38.7167 32.3156C38.7167 32.1557 38.7167 32.058 38.5968 32.058C38.579 32.058 38.5613 32.058 38.5391 32.0624C38.357 32.0935 38.3392 32.2001 38.2815 32.3911L36.4117 37.8443"
		fill="white" />
	<mask id="mask5_265_6564" style="mask-type:luminance" maskUnits="userSpaceOnUse" x="62" y="24" width="1" height="2">
		<path
			d="M62.8864 24.9175V25.6769C62.8864 25.6991 62.8864 25.7257 62.882 25.7523V24.993C62.882 24.9663 62.8864 24.9397 62.8864 24.9175Z"
			fill="white" />
	</mask>
	<g mask="url(#mask5_265_6564)">
		<path
			d="M62.8864 24.9175V25.6769C62.8864 25.6991 62.8864 25.7257 62.882 25.7523V24.993C62.882 24.9663 62.8864 24.9397 62.8864 24.9175Z"
			fill="#BABABA" />
	</g>
	<mask id="mask6_265_6564" style="mask-type:luminance" maskUnits="userSpaceOnUse" x="70" y="26" width="1" height="2">
		<path
			d="M70.632 26.6982V27.4576C70.632 27.2977 70.632 27.2 70.5121 27.2C70.4943 27.2 70.4766 27.2 70.4543 27.2045C70.2767 27.2356 70.2545 27.3422 70.1967 27.5331V26.7737C70.2545 26.5828 70.2767 26.4806 70.4543 26.4451C70.4766 26.4451 70.4943 26.4407 70.5121 26.4407C70.632 26.4407 70.632 26.5384 70.632 26.6982Z"
			fill="white" />
	</mask>
	<g mask="url(#mask6_265_6564)">
		<path
			d="M70.632 26.6982V27.4576C70.632 27.2977 70.632 27.2 70.5121 27.2C70.4943 27.2 70.4766 27.2 70.4543 27.2045C70.2767 27.2356 70.2545 27.3422 70.1967 27.5331V26.7737C70.2545 26.5828 70.2767 26.4806 70.4543 26.4451C70.4766 26.4451 70.4943 26.4407 70.5121 26.4407C70.632 26.4407 70.632 26.5384 70.632 26.6982Z"
			fill="#BABABA" />
	</g>
	<path d="M56.4642 26.4229V27.1822L56.0245 29.7845V29.0252L56.4642 26.4229Z" fill="#B3B3B3" />
	<mask id="mask7_265_6564" style="mask-type:luminance" maskUnits="userSpaceOnUse" x="55" y="29" width="2" height="2">
		<path
			d="M56.0246 29.0251V29.7845C55.9846 30.011 55.8292 30.202 55.6071 30.2419V29.4825C55.8247 29.4426 55.9846 29.2516 56.0246 29.0251Z"
			fill="white" />
	</mask>
	<g mask="url(#mask7_265_6564)">
		<path
			d="M56.0246 29.0251V29.7845C55.9846 30.011 55.8292 30.202 55.6071 30.2419V29.4825C55.8247 29.4426 55.9846 29.2516 56.0246 29.0251Z"
			fill="#BABABA" />
	</g>
	<mask id="mask8_265_6564" style="mask-type:luminance" maskUnits="userSpaceOnUse" x="49" y="29" width="7" height="3">
		<path
			d="M55.6114 29.4824V30.2418C54.772 30.3262 52.5203 30.5216 51.0857 30.7703C50.5305 30.8679 49.9487 31.1522 49.9487 31.8183V31.0589C49.9487 30.3928 50.5261 30.1086 51.0857 30.0109C52.5203 29.7578 54.772 29.5624 55.6114 29.4824Z"
			fill="white" />
	</mask>
	<g mask="url(#mask8_265_6564)">
		<path
			d="M55.6114 29.4824V30.2418C54.772 30.3262 52.5203 30.5216 51.0857 30.7703C50.5305 30.8679 49.9487 31.1522 49.9487 31.8183V31.0589C49.9487 30.3928 50.5261 30.1086 51.0857 30.0109C52.5203 29.7578 54.772 29.5624 55.6114 29.4824Z"
			fill="#BABABA" />
	</g>
	<path d="M70.712 31.8096V32.5645L70.6321 27.4576V26.6982L70.712 31.8096Z" fill="#B3B3B3" />
	<path d="M70.1924 26.7737V27.5331L68.3226 32.9863V32.2314L70.1924 26.7737Z" fill="#B3B3B3" />
	<mask id="mask9_265_6564" style="mask-type:luminance" maskUnits="userSpaceOnUse" x="45" y="32" width="3" height="4">
		<path
			d="M47.4793 35.1665V35.9259C46.3245 35.3619 45.7694 34.1496 45.7694 32.9017V32.1423C45.7694 33.3902 46.3245 34.607 47.4793 35.1665Z"
			fill="white" />
	</mask>
	<g mask="url(#mask9_265_6564)">
		<path
			d="M47.4793 35.1665V35.9259C46.3245 35.3619 45.7694 34.1496 45.7694 32.9017V32.1423C45.7694 33.3902 46.3245 34.607 47.4793 35.1665Z"
			fill="#BABABA" />
	</g>
	<path d="M70.7299 35.0334V35.7928L67.1857 36.419V35.6596L70.7299 35.0334Z" fill="#B3B3B3" />
	<path d="M50.0509 36.4324V37.1917L47.4794 35.9261V35.1667L50.0509 36.4324Z" fill="#B3B3B3" />
	<mask id="mask10_265_6564" style="mask-type:luminance" maskUnits="userSpaceOnUse" x="50" y="36" width="1" height="2">
		<path
			d="M50.8282 37.2006V37.96C50.8282 37.658 50.6283 37.4715 50.051 37.1917V36.4324C50.6283 36.7121 50.8282 36.8987 50.8282 37.2006Z"
			fill="white" />
	</mask>
	<g mask="url(#mask10_265_6564)">
		<path
			d="M50.8282 37.2006V37.96C50.8282 37.658 50.6283 37.4715 50.051 37.1917V36.4324C50.6283 36.7121 50.8282 36.8987 50.8282 37.2006Z"
			fill="#BABABA" />
	</g>
	<mask id="mask11_265_6564" style="mask-type:luminance" maskUnits="userSpaceOnUse" x="74" y="37" width="1" height="2">
		<path
			d="M74.8959 37.0674V37.8268C74.8959 38.071 74.736 38.2753 74.5139 38.3152V37.5559C74.736 37.5159 74.8959 37.3072 74.8959 37.0674Z"
			fill="white" />
	</mask>
	<g mask="url(#mask11_265_6564)">
		<path
			d="M74.8959 37.0674V37.8268C74.8959 38.071 74.736 38.2753 74.5139 38.3152V37.5559C74.736 37.5159 74.8959 37.3072 74.8959 37.0674Z"
			fill="#BABABA" />
	</g>
	<path d="M70.792 37.8267V38.5861L70.7298 35.7928V35.0334L70.792 37.8267Z" fill="#B3B3B3" />
	<path d="M74.5183 37.5559V38.3153L71.1295 38.9104V38.151L74.5183 37.5559Z" fill="#B3B3B3" />
	<mask id="mask12_265_6564" style="mask-type:luminance" maskUnits="userSpaceOnUse" x="70" y="37" width="2" height="2">
		<path
			d="M71.1295 38.1508V38.9102C71.1295 38.9102 71.0895 38.9147 71.0717 38.9147C70.9029 38.9147 70.7875 38.7681 70.7875 38.586V37.8267C70.7875 38.0087 70.9029 38.1553 71.0717 38.1553C71.0895 38.1553 71.1072 38.1553 71.1295 38.1508Z"
			fill="white" />
	</mask>
	<g mask="url(#mask12_265_6564)">
		<path
			d="M71.1295 38.1508V38.9102C71.1295 38.9102 71.0895 38.9147 71.0717 38.9147C70.9029 38.9147 70.7875 38.7681 70.7875 38.586V37.8267C70.7875 38.0087 70.9029 38.1553 71.0717 38.1553C71.0895 38.1553 71.1072 38.1553 71.1295 38.1508Z"
			fill="#BABABA" />
	</g>
	<path d="M67.1856 35.6597V36.419L66.1285 39.4077V38.6483L67.1856 35.6597Z" fill="#B3B3B3" />
	<mask id="mask13_265_6564" style="mask-type:luminance" maskUnits="userSpaceOnUse" x="65" y="38" width="2" height="2">
		<path
			d="M66.1286 38.6482V39.4076C66.0486 39.6207 65.871 39.8339 65.6711 39.8694V39.11C65.871 39.0745 66.0531 38.8614 66.1286 38.6482Z"
			fill="white" />
	</mask>
	<g mask="url(#mask13_265_6564)">
		<path
			d="M66.1286 38.6482V39.4076C66.0486 39.6207 65.871 39.8339 65.6711 39.8694V39.11C65.871 39.0745 66.0531 38.8614 66.1286 38.6482Z"
			fill="#BABABA" />
	</g>
	<path d="M62.882 24.9929V25.7523L60.4082 40.3936V39.6342L62.882 24.9929Z" fill="#B3B3B3" />
	<path d="M65.6712 39.1101V39.8695L62.1448 40.4912V39.7318L65.6712 39.1101Z" fill="#B3B3B3" />
	<path
		d="M74.3762 24.8063L74.8958 37.0673C74.8958 37.3116 74.7359 37.5158 74.5138 37.5558L71.1295 38.1509C71.1295 38.1509 71.0896 38.1553 71.0718 38.1553C70.903 38.1553 70.7876 38.0088 70.7876 37.8267L70.7298 35.0334L67.1856 35.6596L66.1286 38.6482C66.0486 38.8614 65.871 39.0746 65.6711 39.1101L62.1447 39.7318C62.1181 39.7362 62.0958 39.7407 62.0736 39.7407C61.9404 39.7407 61.8649 39.6607 61.8649 39.5186C61.8649 39.4787 61.8871 39.4165 61.9049 39.3499L66.7237 26.1519C67.5054 24.0203 69.0732 23.3364 70.9697 23.0078C71.4493 22.9234 71.9023 22.8701 72.3109 22.8701C73.5057 22.8701 74.314 23.332 74.3762 24.8063ZM68.3226 32.2313L70.7121 31.8094L70.6321 26.7025C70.6321 26.5427 70.6321 26.445 70.5122 26.445C70.4944 26.445 70.4767 26.445 70.4545 26.4494C70.2768 26.4805 70.2546 26.5871 70.1969 26.778L68.3271 32.2313"
		fill="white" />
	<mask id="mask14_265_6564" style="mask-type:luminance" maskUnits="userSpaceOnUse" x="61" y="39" width="2" height="2">
		<path
			d="M62.1447 39.7317V40.4911C62.1181 40.4955 62.0958 40.5 62.0736 40.5C61.9404 40.5 61.8649 40.42 61.8649 40.2779V39.5186C61.8649 39.6607 61.9404 39.7406 62.0736 39.7406C62.0958 39.7406 62.1181 39.7406 62.1447 39.7317Z"
			fill="white" />
	</mask>
	<g mask="url(#mask14_265_6564)">
		<path
			d="M62.1447 39.7317V40.4911C62.1181 40.4955 62.0958 40.5 62.0736 40.5C61.9404 40.5 61.8649 40.42 61.8649 40.2779V39.5186C61.8649 39.6607 61.9404 39.7406 62.0736 39.7406C62.0958 39.7406 62.1181 39.7406 62.1447 39.7317Z"
			fill="#BABABA" />
	</g>
	<mask id="mask15_265_6564" style="mask-type:luminance" maskUnits="userSpaceOnUse" x="59" y="39" width="2" height="2">
		<path
			d="M60.4082 39.634V40.3934C60.3682 40.6199 60.2305 40.8286 59.933 40.8819V40.1225C60.2305 40.0692 60.3682 39.865 60.4082 39.634Z"
			fill="white" />
	</mask>
	<g mask="url(#mask15_265_6564)">
		<path
			d="M60.4082 39.634V40.3934C60.3682 40.6199 60.2305 40.8286 59.933 40.8819V40.1225C60.2305 40.0692 60.3682 39.865 60.4082 39.634Z"
			fill="#BABABA" />
	</g>
	<path d="M59.9329 40.1182V40.8775L56.6641 41.4548V40.6955L59.9329 40.1182Z" fill="#B3B3B3" />
	<mask id="mask16_265_6564" style="mask-type:luminance" maskUnits="userSpaceOnUse" x="56" y="40" width="1" height="2">
		<path
			d="M56.3353 41.1839V40.4246C56.3353 40.58 56.4286 40.6999 56.5929 40.6999C56.6151 40.6999 56.6373 40.6999 56.664 40.6954V41.4548C56.6373 41.4593 56.6151 41.4593 56.5929 41.4593C56.4286 41.4593 56.3353 41.3394 56.3353 41.1839Z"
			fill="white" />
	</mask>
	<g mask="url(#mask16_265_6564)">
		<path
			d="M56.664 40.6954V41.4548C56.6373 41.4593 56.6151 41.4593 56.5929 41.4593C56.4286 41.4593 56.3353 41.3394 56.3353 41.1839V40.4246C56.3353 40.58 56.4286 40.6999 56.5929 40.6999C56.6151 40.6999 56.6373 40.6999 56.664 40.6954Z"
			fill="#BABABA" />
	</g>
	<path
		d="M62.6332 24.6597C62.802 24.6597 62.9175 24.7618 62.8819 24.9927L60.4125 39.634C60.3726 39.8605 60.2349 40.0692 59.9373 40.1225L56.6685 40.6954C56.6418 40.6998 56.6196 40.6998 56.5974 40.6998C56.4064 40.6998 56.3132 40.5355 56.3487 40.3445L58.8181 25.7033C58.8581 25.4768 59.0579 25.2814 59.2756 25.2414L62.5399 24.6685C62.571 24.6641 62.6021 24.6597 62.6288 24.6597H62.6332Z"
		fill="white" />
	<mask id="mask17_265_6564" style="mask-type:luminance" maskUnits="userSpaceOnUse" x="44" y="42" width="1" height="2">
		<path
			d="M44.8101 42.4363V43.1957C44.6324 43.169 44.4725 43.098 44.4725 42.9115V42.1521C44.4725 42.3342 44.6324 42.4052 44.8101 42.4363Z"
			fill="white" />
	</mask>
	<g mask="url(#mask17_265_6564)">
		<path
			d="M44.8101 42.4363V43.1957C44.6324 43.169 44.4725 43.098 44.4725 42.9115V42.1521C44.4725 42.3342 44.6324 42.4052 44.8101 42.4363Z"
			fill="#BABABA" />
	</g>
	<path
		d="M55.3317 26.0542C55.6737 26.0542 55.9624 26.0676 56.1623 26.0942C56.3221 26.1253 56.4643 26.183 56.4643 26.3651V26.4228L56.0246 29.0207C55.9846 29.2472 55.8292 29.4381 55.6071 29.4781C54.7677 29.5625 52.5159 29.7579 51.0814 30.0065C50.5262 30.1042 49.9444 30.3885 49.9444 31.0546C49.9444 31.3388 50.1442 31.4853 50.8238 31.7695L53.2532 32.7954C54.6833 33.3904 55.2429 34.4029 55.2429 35.8151C55.2429 39.5898 52.1162 41.6725 48.7274 42.272C47.7415 42.4452 46.8887 42.5118 46.1426 42.5118C45.654 42.5118 45.2099 42.4807 44.8057 42.4319C44.6281 42.4052 44.4682 42.3342 44.4682 42.1477V42.0899L44.8857 39.5365C44.9257 39.31 45.1033 39.0924 45.3476 39.0524C46.2048 38.9814 48.3188 38.8304 49.3714 38.6439C50.1664 38.5062 50.8282 38.1065 50.8282 37.1962C50.8282 36.8942 50.6283 36.7077 50.051 36.4279L47.4794 35.1623C46.3247 34.5983 45.7695 33.386 45.7695 32.1381C45.7695 28.5056 48.5764 26.9202 51.7476 26.3651C52.9156 26.1564 54.3546 26.0498 55.3362 26.0498L55.3317 26.0542Z"
		fill="white" />
	<mask id="mask18_265_6564" style="mask-type:luminance" maskUnits="userSpaceOnUse" x="44" y="35" width="12" height="9">
		<path
			d="M55.2518 35.8193V36.5787C55.2518 40.3534 52.1251 42.4361 48.7363 43.0356C47.7503 43.2088 46.8976 43.2754 46.1515 43.2754C45.6629 43.2754 45.2188 43.2443 44.8146 43.1955V42.4361C45.2188 42.485 45.6629 42.516 46.1515 42.516C46.8976 42.516 47.7548 42.4494 48.7363 42.2762C52.1251 41.6767 55.2518 39.5984 55.2518 35.8193Z"
			fill="white" />
	</mask>
	<g mask="url(#mask18_265_6564)">
		<path
			d="M55.2518 35.8193V36.5787C55.2518 40.3534 52.1251 42.4361 48.7363 43.0356C47.7503 43.2088 46.8976 43.2754 46.1515 43.2754C45.6629 43.2754 45.2188 43.2443 44.8146 43.1955V42.4361C45.2188 42.485 45.6629 42.516 46.1515 42.516C46.8976 42.516 47.7548 42.4494 48.7363 42.2762C52.1251 41.6767 55.2518 39.5984 55.2518 35.8193Z"
			fill="#BABABA" />
	</g>
	<path
		d="M71.8579 39.4787C71.1429 39.341 70.4278 39.4121 69.9526 39.4964C69.4552 39.5852 68.9933 39.7229 68.5669 39.9094C68.2782 39.8828 67.9851 39.8917 67.6964 39.9449L66.8214 40.1004C66.6793 40.127 66.5416 40.167 66.4084 40.207C66.1508 40.2158 65.6978 40.2425 65.036 40.3624C64.5475 40.4468 64.1211 40.58 63.7391 40.7398C63.4771 40.7221 63.2106 40.7398 62.9486 40.7843L62.0736 40.9397C61.9315 40.9663 61.7894 41.0063 61.6517 41.0507C61.2653 41.0507 60.91 41.0907 60.6391 41.1395C59.9551 41.2594 59.3378 41.4815 58.7915 41.7834C58.2496 41.6724 57.6589 41.668 57.0238 41.7834C56.3354 41.9033 55.7758 42.1254 55.3095 42.4007C54.7277 42.2986 54.1014 42.2941 53.453 42.4096C53.0133 42.4895 52.3649 42.6316 51.8541 42.8004C51.6454 42.8714 51.4544 42.9602 51.2679 43.0535C51.0325 43.0135 50.7971 43.0002 50.5572 43.0135C50.2597 43.0269 49.7978 43.0579 49.1227 43.1734C48.6386 43.2578 48.2122 43.3866 47.8303 43.5464C47.5771 43.5331 47.3195 43.5464 47.0619 43.5908L46.1958 43.7418C45.9782 43.7818 45.765 43.8395 45.5652 43.9195C45.3431 43.9195 45.1255 43.9328 44.9034 43.9683L44.0596 44.1193C43.9663 44.137 43.8819 44.1637 43.7931 44.1859C43.6643 44.1948 43.5399 44.2081 43.4111 44.2303L40.7596 44.6966C40.2045 44.7943 39.6937 45.0385 39.2674 45.376C38.61 45.1895 37.8861 45.1496 37.1355 45.2828C34.7017 45.7135 33.0628 47.5076 33.0362 49.7591C32.672 50.4074 32.4899 51.1046 32.4899 51.8507C32.4899 53.1296 32.9917 54.2532 33.9067 55.0214C34.3863 55.4255 34.937 55.6964 35.5455 55.843C35.7098 55.9051 35.8786 55.9584 36.0563 56.0028C36.2206 56.065 36.3894 56.1183 36.567 56.1627C36.7402 56.2293 36.9223 56.287 37.1089 56.327C37.2599 56.3847 37.4153 56.4292 37.5752 56.4647C37.7395 56.5313 37.9127 56.5846 38.0904 56.6245C38.2547 56.6912 38.4235 56.7444 38.6056 56.7844C38.7699 56.8555 38.9431 56.9088 39.1252 56.9487C39.2896 57.0153 39.4583 57.0731 39.6404 57.1086C39.9735 57.2507 40.3422 57.3351 40.7552 57.3306C40.9817 57.3306 41.2171 57.3084 41.4614 57.264C41.6701 57.2285 41.8744 57.1752 42.0698 57.1042C42.1542 57.1042 42.2386 57.0908 42.323 57.0731L42.9848 56.9576C43.309 56.8999 43.6021 56.7667 43.8553 56.5801C44.0418 56.6379 44.2372 56.6734 44.4326 56.6734C44.5481 56.6734 44.668 56.6645 44.7835 56.6423L45.4364 56.5269C45.6362 56.4913 45.8228 56.4247 45.996 56.3359C46.0715 56.3448 46.1426 56.3537 46.2181 56.3537C46.3335 56.3537 46.449 56.3448 46.5689 56.327L47.2129 56.2116C47.3772 56.1805 47.5371 56.1316 47.6881 56.065C47.8525 56.0783 48.0212 56.065 48.19 56.0384L48.8429 55.9229C49.0472 55.8874 49.2382 55.8163 49.4158 55.7275C49.5224 55.7408 49.6334 55.7497 49.7534 55.7497C49.9443 55.7497 50.1531 55.732 50.3707 55.692C50.8326 55.612 51.1524 55.5188 51.4189 55.4389C51.5743 55.39 51.7164 55.319 51.8497 55.2346C51.9918 55.2657 52.1339 55.2879 52.2805 55.2879C52.4004 55.2879 52.5203 55.279 52.6358 55.2568L53.2753 55.1458C53.5951 55.088 53.8882 54.9548 54.137 54.7683C54.3279 54.826 54.5278 54.8616 54.7277 54.8616C54.8387 54.8616 54.9542 54.8527 55.0652 54.8305L55.7625 54.7061C55.9446 54.675 56.1222 54.6173 56.291 54.5374C56.4731 54.5551 56.6596 54.5507 56.8462 54.5152L57.5168 54.3953H57.5257C57.73 54.3597 57.921 54.2843 58.0942 54.1954C58.2052 54.2088 58.3118 54.2221 58.4273 54.2221C58.6183 54.2221 58.8137 54.2043 59.0091 54.1688C59.2712 54.1244 59.5243 54.0533 59.7464 53.9734C59.8619 53.9734 59.9773 53.9645 60.0928 53.9423L60.7368 53.8313C60.8478 53.8135 60.9589 53.7824 61.061 53.7469C61.1632 53.7469 61.2653 53.738 61.3675 53.7203L61.9981 53.6093C62.2957 53.5604 62.5711 53.4449 62.8109 53.2806C62.9708 53.3206 63.1351 53.3472 63.2995 53.3472C63.4194 53.3472 63.5348 53.3384 63.6548 53.3162L64.2988 53.2051C64.543 53.1607 64.7695 53.0764 64.9738 52.9565C65.116 52.9787 65.2625 52.992 65.4135 52.992C65.6045 52.992 65.7999 52.9742 65.9953 52.9387C66.3862 52.8676 66.7726 52.7477 67.0746 52.5968C67.2478 52.5124 67.3899 52.4147 67.5143 52.3081C67.5498 52.2903 67.5898 52.277 67.6209 52.2593C67.7985 52.1749 67.9407 52.0727 68.0739 51.9706C68.1005 51.9573 68.1272 51.9484 68.1538 51.9351C68.3404 51.8463 68.4958 51.7397 68.6379 51.6287C68.6646 51.6153 68.6957 51.6065 68.7223 51.5931C68.9089 51.5043 69.0599 51.3977 69.202 51.2912C69.2242 51.2823 69.2509 51.269 69.2731 51.2601C69.4596 51.1668 69.6195 51.0647 69.7616 50.9537C69.7794 50.9448 69.8016 50.9359 69.8193 50.927C70.0014 50.8382 70.1702 50.7272 70.3257 50.6117C70.339 50.6073 70.3567 50.5984 70.3701 50.594C70.5566 50.5051 70.7254 50.3941 70.8853 50.2742C70.8941 50.2698 70.9075 50.2653 70.9164 50.2609C71.1073 50.1676 71.2805 50.0566 71.4404 49.9367C71.4493 49.9367 71.4582 49.9278 71.4671 49.9234C71.6581 49.8301 71.8313 49.7191 71.9956 49.5992C72 49.5992 72.0045 49.5948 72.0134 49.5903C73.0482 49.0841 73.7455 48.1648 73.9276 47.0591L74.0475 46.3708C74.0786 46.1887 74.0919 45.98 74.0919 45.7935C74.0919 45.5803 74.0741 45.3716 74.0342 45.1673C74.234 44.8209 74.3717 44.439 74.4428 44.0305L74.5627 43.3377C74.5938 43.1556 74.6115 42.9425 74.6115 42.756C74.6115 41.1306 73.479 39.7851 71.8624 39.4787H71.8579Z"
		fill="black" />
	<mask id="mask19_265_6564" style="mask-type:luminance" maskUnits="userSpaceOnUse" x="37" y="49" width="1" height="1">
		<path
			d="M37.9348 49.2039V49.5148C37.9348 49.4082 37.8726 49.346 37.7394 49.346C37.7083 49.346 37.6772 49.346 37.6417 49.3549C37.3708 49.4037 37.2198 49.5547 37.2198 49.8345V49.5236C37.2198 49.2439 37.3663 49.0929 37.6417 49.044C37.6772 49.0396 37.7083 49.0352 37.7394 49.0352C37.8726 49.0352 37.9348 49.1018 37.9348 49.2039Z"
			fill="white" />
	</mask>
	<g mask="url(#mask19_265_6564)">
		<path
			d="M37.9348 49.2039V49.5148C37.9348 49.4082 37.8726 49.346 37.7394 49.346C37.7083 49.346 37.6772 49.346 37.6417 49.3549C37.3708 49.4037 37.2198 49.5547 37.2198 49.8345V49.5236C37.2198 49.2439 37.3663 49.0929 37.6417 49.044C37.6772 49.0396 37.7083 49.0352 37.7394 49.0352C37.8726 49.0352 37.9348 49.1018 37.9348 49.2039Z"
			fill="#BABABA" />
	</g>
	<mask id="mask20_265_6564" style="mask-type:luminance" maskUnits="userSpaceOnUse" x="38" y="48" width="1" height="3">
		<path
			d="M38.8719 48.9465V49.2574C38.8719 49.8258 38.5122 50.1722 38.0725 50.5275V50.2166C38.5122 49.8613 38.8719 49.515 38.8719 48.9465Z"
			fill="white" />
	</mask>
	<g mask="url(#mask20_265_6564)">
		<path
			d="M38.8719 48.9465V49.2574C38.8719 49.8258 38.5122 50.1722 38.0725 50.5275V50.2166C38.5122 49.8613 38.8719 49.515 38.8719 48.9465Z"
			fill="#BABABA" />
	</g>
	<path d="M39.2672 50.1587V50.4651L39.2628 50.5406V50.2342L39.2672 50.1587Z" fill="#B3B3B3" />
	<mask id="mask21_265_6564" style="mask-type:luminance" maskUnits="userSpaceOnUse" x="36" y="49" width="1" height="2">
		<path
			d="M36.5891 50.3764V50.6872C36.3714 50.4075 36.2959 50.1588 36.2959 49.9678V49.657C36.2959 49.8479 36.367 50.0966 36.5891 50.3764Z"
			fill="white" />
	</mask>
	<g mask="url(#mask21_265_6564)">
		<path
			d="M36.5891 50.3764V50.6872C36.3714 50.4075 36.2959 50.1588 36.2959 49.9678V49.657C36.2959 49.8479 36.367 50.0966 36.5891 50.3764Z"
			fill="#BABABA" />
	</g>
	<path d="M38.0725 50.2166V50.5274L37.8637 50.6962V50.3897L38.0725 50.2166Z" fill="#B3B3B3" />
	<path d="M36.6247 50.4253V50.7317L36.5891 50.6873V50.3765L36.6247 50.4253Z" fill="#B3B3B3" />
	<mask id="mask22_265_6564" style="mask-type:luminance" maskUnits="userSpaceOnUse" x="38" y="50" width="2" height="2">
		<path
			d="M39.2628 50.2344V50.5452C39.2006 50.9582 39.0319 51.3668 38.7787 51.7265V51.4156C39.0319 51.0559 39.1962 50.6518 39.2628 50.2344Z"
			fill="white" />
	</mask>
	<g mask="url(#mask22_265_6564)">
		<path
			d="M39.2628 50.2344V50.5452C39.2006 50.9582 39.0319 51.3668 38.7787 51.7265V51.4156C39.0319 51.0559 39.1962 50.6518 39.2628 50.2344Z"
			fill="#BABABA" />
	</g>
	<mask id="mask23_265_6564" style="mask-type:luminance" maskUnits="userSpaceOnUse" x="36" y="50" width="2" height="2">
		<path
			d="M37.0821 50.958V51.2689C36.8645 51.4376 36.7756 51.6374 36.7756 51.8151V51.5042C36.7756 51.3266 36.8645 51.1268 37.0821 50.958Z"
			fill="white" />
	</mask>
	<g mask="url(#mask23_265_6564)">
		<path
			d="M37.0821 50.958V51.2689C36.8645 51.4376 36.7756 51.6374 36.7756 51.8151V51.5042C36.7756 51.3266 36.8645 51.1268 37.0821 50.958Z"
			fill="#BABABA" />
	</g>
	<path d="M37.6505 51.6019V51.9128L37.082 51.2689V50.958L37.6505 51.6019Z" fill="#B3B3B3" />
	<mask id="mask24_265_6564" style="mask-type:luminance" maskUnits="userSpaceOnUse" x="39" y="51" width="1" height="2">
		<path
			d="M39.2494 51.9839V52.2947C39.2494 52.3436 39.2139 52.388 39.165 52.3924V52.0816C39.2139 52.0727 39.2494 52.0283 39.2494 51.9839Z"
			fill="white" />
	</mask>
	<g mask="url(#mask24_265_6564)">
		<path
			d="M39.2494 51.9839V52.2947C39.2494 52.3436 39.2139 52.388 39.165 52.3924V52.0816C39.2139 52.0727 39.2494 52.0283 39.2494 51.9839Z"
			fill="#BABABA" />
	</g>
	<path d="M38.1836 52.2059V52.5168L38.077 52.4102V52.0994L38.1836 52.2059Z" fill="#B3B3B3" />
	<path d="M39.1649 52.0815V52.3924L38.2678 52.5478V52.237L39.1649 52.0815Z" fill="#B3B3B3" />
	<mask id="mask25_265_6564" style="mask-type:luminance" maskUnits="userSpaceOnUse" x="38" y="52" width="1" height="1">
		<path
			d="M38.2679 52.2372V52.548C38.2679 52.548 38.2501 52.548 38.2412 52.548C38.219 52.548 38.2057 52.5392 38.1835 52.5125V52.2017C38.2101 52.2239 38.219 52.2372 38.2412 52.2372C38.2501 52.2372 38.2546 52.2372 38.2679 52.2372Z"
			fill="white" />
	</mask>
	<g mask="url(#mask25_265_6564)">
		<path
			d="M38.2679 52.2372V52.548C38.2679 52.548 38.2501 52.548 38.2412 52.548C38.219 52.548 38.2057 52.5392 38.1835 52.5125V52.2017C38.2101 52.2239 38.219 52.2372 38.2412 52.2372C38.2501 52.2372 38.2546 52.2372 38.2679 52.2372Z"
			fill="#BABABA" />
	</g>
	<mask id="mask26_265_6564" style="mask-type:luminance" maskUnits="userSpaceOnUse" x="35" y="51" width="4" height="2">
		<path
			d="M38.0769 52.0995V52.4103C37.7927 52.6013 37.4907 52.7389 37.1176 52.8011C36.9488 52.8322 36.7845 52.85 36.6335 52.85C36.1316 52.85 35.7585 52.6501 35.7585 52.0018V51.6909C35.7585 52.3437 36.1361 52.5391 36.6335 52.5391C36.7845 52.5391 36.9488 52.5213 37.1176 52.4903C37.4907 52.4281 37.7927 52.2904 38.0769 52.0995Z"
			fill="white" />
	</mask>
	<g mask="url(#mask26_265_6564)">
		<path
			d="M38.0769 52.0995V52.4103C37.7927 52.6013 37.4907 52.7389 37.1176 52.8011C36.9488 52.8322 36.7845 52.85 36.6335 52.85C36.1316 52.85 35.7585 52.6501 35.7585 52.0018V51.6909C35.7585 52.3437 36.1361 52.5391 36.6335 52.5391C36.7845 52.5391 36.9488 52.5213 37.1176 52.4903C37.4907 52.4281 37.7927 52.2904 38.0769 52.0995Z"
			fill="#BABABA" />
	</g>
	<path
		d="M39.2095 50.0655C39.2539 50.0655 39.2672 50.1055 39.2672 50.1543L39.2583 50.2298C39.1961 50.6428 39.0274 51.0514 38.7742 51.4111L39.2317 51.9307L39.2494 51.984C39.2494 52.0328 39.2139 52.0772 39.1651 52.0816L38.2679 52.2371C38.2679 52.2371 38.2501 52.2371 38.2413 52.2371C38.219 52.2371 38.2057 52.2282 38.1835 52.2016L38.0769 52.095C37.7927 52.2859 37.4907 52.4236 37.1176 52.4858C36.9488 52.5168 36.7845 52.5346 36.6335 52.5346C36.1316 52.5346 35.7585 52.3348 35.7585 51.6864C35.7585 51.1313 36.1894 50.7494 36.629 50.4208L36.5935 50.3719C36.3759 50.0922 36.3004 49.8435 36.3004 49.6525C36.3004 48.8132 37.0154 48.4535 37.7083 48.3292C37.8282 48.307 37.9392 48.2981 38.0414 48.2981C38.5966 48.2981 38.8764 48.5867 38.8764 48.9376C38.8764 49.506 38.5166 49.8524 38.0769 50.2076L37.8682 50.3808L38.3079 50.8871C38.3789 50.7316 38.4456 50.5496 38.4678 50.3631L38.4811 50.292C38.4944 50.2343 38.5433 50.1721 38.601 50.1632L39.1961 50.0611C39.1961 50.0611 39.2095 50.0611 39.2139 50.0611L39.2095 50.0655ZM37.2109 51.7575C37.3752 51.7308 37.5173 51.6775 37.6461 51.602L37.0776 50.9581C36.86 51.1269 36.7712 51.3267 36.7712 51.5043C36.7712 51.6553 36.86 51.7708 37.0732 51.7708C37.1132 51.7708 37.1576 51.7708 37.2109 51.7575ZM37.544 49.7502C37.7305 49.5992 37.9304 49.4616 37.9304 49.1996C37.9304 49.093 37.8682 49.0308 37.7349 49.0308C37.7039 49.0308 37.6728 49.0308 37.6372 49.0397C37.3663 49.0886 37.2153 49.2395 37.2153 49.5193C37.2153 49.617 37.2464 49.7103 37.3619 49.8257L37.393 49.8568L37.5351 49.7502"
		fill="white" />
	<path d="M44.0773 47.3699V47.6807L43.9574 48.3824V48.0715L44.0773 47.3699Z" fill="#B3B3B3" />
	<mask id="mask27_265_6564" style="mask-type:luminance" maskUnits="userSpaceOnUse" x="43" y="48" width="1" height="1">
		<path
			d="M43.9572 48.0715V48.3824C43.9439 48.4401 43.8906 48.4934 43.8284 48.5067V48.1959C43.8906 48.1826 43.9439 48.1337 43.9572 48.0715Z"
			fill="white" />
	</mask>
	<g mask="url(#mask27_265_6564)">
		<path
			d="M43.9572 48.0715V48.3824C43.9439 48.4401 43.8906 48.4934 43.8284 48.5067V48.1959C43.8906 48.1826 43.9439 48.1337 43.9572 48.0715Z"
			fill="#BABABA" />
	</g>
	<path d="M43.8284 48.1958V48.5067L43.0512 48.6399V48.329L43.8284 48.1958Z" fill="#B3B3B3" />
	<path d="M45.5651 47.1123V47.4187L45.3297 48.8176V48.5112L45.5651 47.1123Z" fill="#B3B3B3" />
	<path d="M41.9809 48.52V48.8264L41.1859 48.973V48.6621L41.9809 48.52Z" fill="#B3B3B3" />
	<mask id="mask28_265_6564" style="mask-type:luminance" maskUnits="userSpaceOnUse" x="41" y="48" width="1" height="1">
		<path
			d="M41.186 48.6621V48.973C41.186 48.973 41.1726 48.973 41.1682 48.973C41.1238 48.973 41.0971 48.9463 41.0971 48.9019V48.5911C41.0971 48.6355 41.1238 48.6621 41.1682 48.6621C41.1726 48.6621 41.1815 48.6621 41.186 48.6621Z"
			fill="white" />
	</mask>
	<g mask="url(#mask28_265_6564)">
		<path
			d="M41.186 48.6621V48.973C41.186 48.973 41.1726 48.973 41.1682 48.973C41.1238 48.973 41.0971 48.9463 41.0971 48.9019V48.5911C41.0971 48.6355 41.1238 48.6621 41.1682 48.6621C41.1726 48.6621 41.1815 48.6621 41.186 48.6621Z"
			fill="#BABABA" />
	</g>
	<path d="M46.2578 49.2839V49.5948L45.1608 49.7857V49.4749L46.2578 49.2839Z" fill="#B3B3B3" />
	<path d="M47.728 46.7258V47.0367L47.0752 50.8913V50.5849L47.728 46.7258Z" fill="#B3B3B3" />
	<mask id="mask29_265_6564" style="mask-type:luminance" maskUnits="userSpaceOnUse" x="46" y="50" width="2" height="2">
		<path
			d="M47.0751 50.585V50.8958C47.0618 50.9535 47.0085 51.0157 46.9464 51.0246V50.7137C47.0085 50.7049 47.0618 50.6471 47.0751 50.585Z"
			fill="white" />
	</mask>
	<g mask="url(#mask29_265_6564)">
		<path
			d="M47.0751 50.585V50.8958C47.0618 50.9535 47.0085 51.0157 46.9464 51.0246V50.7137C47.0085 50.7049 47.0618 50.6471 47.0751 50.585Z"
			fill="#BABABA" />
	</g>
	<path d="M46.9464 50.7092V51.0201L46.0936 51.1711V50.8602L46.9464 50.7092Z" fill="#B3B3B3" />
	<mask id="mask30_265_6564" style="mask-type:luminance" maskUnits="userSpaceOnUse" x="46" y="50" width="1" height="2">
		<path
			d="M46.0936 50.8604V51.1712C46.0936 51.1712 46.0848 51.1712 46.0803 51.1712C46.0404 51.1712 46.0137 51.1401 46.0137 51.1002V50.7893C46.0137 50.8337 46.0359 50.8604 46.0803 50.8604C46.0848 50.8604 46.0892 50.8604 46.0936 50.8604Z"
			fill="white" />
	</mask>
	<g mask="url(#mask30_265_6564)">
		<path
			d="M46.0936 50.8604V51.1712C46.0936 51.1712 46.0848 51.1712 46.0803 51.1712C46.0404 51.1712 46.0137 51.1401 46.0137 51.1002V50.7893C46.0137 50.8337 46.0359 50.8604 46.0803 50.8604C46.0848 50.8604 46.0892 50.8604 46.0936 50.8604Z"
			fill="#BABABA" />
	</g>
	<path d="M45.161 49.4749V49.7857L44.9123 51.2734V50.9625L45.161 49.4749Z" fill="#B3B3B3" />
	<mask id="mask31_265_6564" style="mask-type:luminance" maskUnits="userSpaceOnUse" x="44" y="50" width="1" height="2">
		<path
			d="M44.9122 50.9624V51.2733C44.8989 51.3354 44.8456 51.3932 44.7878 51.4065V51.0956C44.8456 51.0823 44.8989 51.029 44.9122 50.9624Z"
			fill="white" />
	</mask>
	<g mask="url(#mask31_265_6564)">
		<path
			d="M44.9122 50.9624V51.2733C44.8989 51.3354 44.8456 51.3932 44.7878 51.4065V51.0956C44.8456 51.0823 44.8989 51.029 44.9122 50.9624Z"
			fill="#BABABA" />
	</g>
	<path d="M44.7879 51.0957V51.4021L43.9352 51.5487V51.2423L44.7879 51.0957Z" fill="#B3B3B3" />
	<path
		d="M47.6524 46.6416C47.6968 46.6416 47.7235 46.6638 47.7235 46.7127V46.7304L47.0706 50.585C47.0573 50.6428 47.004 50.7049 46.9418 50.7138L46.0846 50.8648C46.0846 50.8648 46.0757 50.8648 46.0713 50.8648C46.0313 50.8648 46.0047 50.8337 46.0047 50.7937V50.776L46.249 49.2883L45.152 49.4793L44.9032 50.9669C44.8899 51.0291 44.8366 51.0868 44.7789 51.1002L43.9217 51.2467C43.9217 51.2467 43.9084 51.2467 43.8995 51.2467C43.8595 51.2467 43.8284 51.2156 43.8284 51.1712V51.1534L44.4813 47.2988C44.4946 47.2411 44.5479 47.1834 44.6101 47.1745L45.4673 47.0235C45.4673 47.0235 45.4806 47.0235 45.4851 47.0235C45.525 47.0235 45.5561 47.0457 45.5561 47.0946V47.1123L45.3207 48.5112L46.4177 48.3202L46.6531 46.9169C46.6664 46.8592 46.7153 46.8059 46.773 46.797L47.6302 46.646C47.6302 46.646 47.6435 46.646 47.648 46.646L47.6524 46.6416Z"
		fill="white" />
	<mask id="mask32_265_6564" style="mask-type:luminance" maskUnits="userSpaceOnUse" x="43" y="51" width="1" height="1">
		<path
			d="M43.9352 51.2422V51.5531C43.9352 51.5531 43.9218 51.5531 43.9129 51.5531C43.873 51.5531 43.8419 51.522 43.8419 51.4776V51.1667C43.8419 51.2112 43.873 51.2422 43.9129 51.2422C43.9218 51.2422 43.9263 51.2422 43.9352 51.2422Z"
			fill="white" />
	</mask>
	<g mask="url(#mask32_265_6564)">
		<path
			d="M43.9352 51.2422V51.5531C43.9352 51.5531 43.9218 51.5531 43.9129 51.5531C43.873 51.5531 43.8419 51.522 43.8419 51.4776V51.1667C43.8419 51.2112 43.873 51.2422 43.9129 51.2422C43.9218 51.2422 43.9263 51.2422 43.9352 51.2422Z"
			fill="#BABABA" />
	</g>
	<path d="M43.0513 48.3291V48.64L42.5361 51.6908V51.3799L43.0513 48.3291Z" fill="#B3B3B3" />
	<mask id="mask33_265_6564" style="mask-type:luminance" maskUnits="userSpaceOnUse" x="42" y="51" width="1" height="1">
		<path
			d="M42.5361 51.3799V51.6907C42.5272 51.7485 42.4695 51.8106 42.4117 51.824V51.5131C42.4695 51.4998 42.5272 51.4421 42.5361 51.3799Z"
			fill="white" />
	</mask>
	<g mask="url(#mask33_265_6564)">
		<path
			d="M42.5361 51.3799V51.6907C42.5272 51.7485 42.4695 51.8106 42.4117 51.824V51.5131C42.4695 51.4998 42.5272 51.4421 42.5361 51.3799Z"
			fill="#BABABA" />
	</g>
	<path d="M42.4117 51.5132V51.824L41.5546 51.9706V51.6597L42.4117 51.5132Z" fill="#B3B3B3" />
	<mask id="mask34_265_6564" style="mask-type:luminance" maskUnits="userSpaceOnUse" x="41" y="51" width="1" height="1">
		<path
			d="M41.5547 51.6597V51.9705C41.5547 51.9705 41.5413 51.9705 41.5325 51.9705C41.4925 51.9705 41.4703 51.9394 41.4703 51.8995V51.5886C41.4703 51.6286 41.4925 51.6597 41.5325 51.6597C41.5369 51.6597 41.5458 51.6597 41.5547 51.6597Z"
			fill="white" />
	</mask>
	<g mask="url(#mask34_265_6564)">
		<path
			d="M41.5547 51.6597V51.9705C41.5547 51.9705 41.5413 51.9705 41.5325 51.9705C41.4925 51.9705 41.4703 51.9394 41.4703 51.8995V51.5886C41.4703 51.6286 41.4925 51.6597 41.5325 51.6597C41.5369 51.6597 41.5458 51.6597 41.5547 51.6597Z"
			fill="#BABABA" />
	</g>
	<path
		d="M44.0018 47.2854C44.0462 47.2854 44.0773 47.312 44.0773 47.3565V47.3742L43.9574 48.0759C43.944 48.1336 43.8907 48.1869 43.8286 48.2002L43.0513 48.3379L42.5361 51.3887C42.5272 51.4464 42.4695 51.5086 42.4118 51.5219L41.5546 51.6685C41.5546 51.6685 41.5413 51.6685 41.5324 51.6685C41.4924 51.6685 41.4702 51.6374 41.4702 51.5974V51.5752L41.981 48.5244L41.186 48.6665C41.186 48.6665 41.1726 48.6665 41.1682 48.6665C41.1238 48.6665 41.0971 48.6398 41.0971 48.5954V48.5777L41.2171 47.876C41.2304 47.8183 41.2792 47.765 41.337 47.7561L43.9796 47.2898C43.9796 47.2898 43.9929 47.2898 43.9973 47.2898L44.0018 47.2854Z"
		fill="white" />
	<path d="M50.8016 46.2065V46.5174L50.695 47.1791V46.8727L50.8016 46.2065Z" fill="#B3B3B3" />
	<mask id="mask35_265_6564" style="mask-type:luminance" maskUnits="userSpaceOnUse" x="50" y="46" width="1" height="2">
		<path
			d="M50.695 46.8726V47.1834C50.6817 47.2411 50.6284 47.3033 50.5662 47.3122V47.0013C50.6239 46.9925 50.6817 46.9347 50.695 46.8726Z"
			fill="white" />
	</mask>
	<g mask="url(#mask35_265_6564)">
		<path
			d="M50.695 46.8726V47.1834C50.6817 47.2411 50.6284 47.3033 50.5662 47.3122V47.0013C50.6239 46.9925 50.6817 46.9347 50.695 46.8726Z"
			fill="#BABABA" />
	</g>
	<path d="M50.5662 46.9971V47.3079L49.5047 47.4944V47.188L50.5662 46.9971Z" fill="#B3B3B3" />
	<mask id="mask36_265_6564" style="mask-type:luminance" maskUnits="userSpaceOnUse" x="49" y="47" width="1" height="1">
		<path
			d="M49.5049 47.188V47.4988C49.3183 47.5299 49.2428 47.6099 49.2029 47.8186V47.5077C49.2384 47.299 49.3139 47.2191 49.5049 47.188Z"
			fill="white" />
	</mask>
	<g mask="url(#mask36_265_6564)">
		<path
			d="M49.5049 47.188V47.4988C49.3183 47.5299 49.2428 47.6099 49.2029 47.8186V47.5077C49.2384 47.299 49.3139 47.2191 49.5049 47.188Z"
			fill="#BABABA" />
	</g>
	<path d="M49.2071 47.5034V47.8143L49.136 48.2139V47.9031L49.2071 47.5034Z" fill="#B3B3B3" />
	<path d="M50.5174 47.7698V48.0762L50.4108 48.7245V48.4137L50.5174 47.7698Z" fill="#B3B3B3" />
	<mask id="mask37_265_6564" style="mask-type:luminance" maskUnits="userSpaceOnUse" x="50" y="48" width="1" height="1">
		<path
			d="M50.4108 48.4136V48.7244C50.3975 48.7822 50.3487 48.8399 50.2909 48.8532V48.5424C50.3487 48.529 50.3975 48.4757 50.4108 48.4136Z"
			fill="white" />
	</mask>
	<g mask="url(#mask37_265_6564)">
		<path
			d="M50.4108 48.4136V48.7244C50.3975 48.7822 50.3487 48.8399 50.2909 48.8532V48.5424C50.3487 48.529 50.3975 48.4757 50.4108 48.4136Z"
			fill="#BABABA" />
	</g>
	<path d="M50.2908 48.5425V48.8533L48.9984 49.0798V48.769L50.2908 48.5425Z" fill="#B3B3B3" />
	<path d="M48.9984 48.7688V49.0797L48.9185 49.5326V49.2218L48.9984 48.7688Z" fill="#B3B3B3" />
	<mask id="mask38_265_6564" style="mask-type:luminance" maskUnits="userSpaceOnUse" x="48" y="49" width="1" height="1">
		<path
			d="M48.9185 49.2219V49.5328C48.9185 49.5772 48.9052 49.6083 48.9052 49.6394V49.3285C48.9052 49.2974 48.9141 49.2663 48.9185 49.2219Z"
			fill="white" />
	</mask>
	<g mask="url(#mask38_265_6564)">
		<path
			d="M48.9185 49.2219V49.5328C48.9185 49.5772 48.9052 49.6083 48.9052 49.6394V49.3285C48.9052 49.2974 48.9141 49.2663 48.9185 49.2219Z"
			fill="#BABABA" />
	</g>
	<path d="M50.2731 49.355V49.6658L50.1576 50.3364V50.0255L50.2731 49.355Z" fill="#B3B3B3" />
	<mask id="mask39_265_6564" style="mask-type:luminance" maskUnits="userSpaceOnUse" x="50" y="50" width="1" height="1">
		<path
			d="M50.1577 50.0256V50.3365C50.1444 50.4031 50.1044 50.4386 50.0378 50.4653V50.1544C50.1044 50.1322 50.1444 50.0967 50.1577 50.0256Z"
			fill="white" />
	</mask>
	<g mask="url(#mask39_265_6564)">
		<path
			d="M50.1577 50.0256V50.3365C50.1444 50.4031 50.1044 50.4386 50.0378 50.4653V50.1544C50.1044 50.1322 50.1444 50.0967 50.1577 50.0256Z"
			fill="#BABABA" />
	</g>
	<mask id="mask40_265_6564" style="mask-type:luminance" maskUnits="userSpaceOnUse" x="47" y="49" width="4" height="2">
		<path
			d="M50.0377 50.1545V50.4653C49.829 50.5275 49.5092 50.6207 49.0029 50.714C48.8785 50.7362 48.7542 50.7495 48.6387 50.7495C48.1812 50.7495 47.8259 50.5586 47.8259 50.0035V49.6926C47.8259 50.2477 48.1812 50.4387 48.6387 50.4387C48.7542 50.4387 48.8785 50.4254 49.0029 50.4032C49.5092 50.3099 49.829 50.2211 50.0377 50.1545Z"
			fill="white" />
	</mask>
	<g mask="url(#mask40_265_6564)">
		<path
			d="M50.0377 50.1545V50.4653C49.829 50.5275 49.5092 50.6207 49.0029 50.714C48.8785 50.7362 48.7542 50.7495 48.6387 50.7495C48.1812 50.7495 47.8259 50.5586 47.8259 50.0035V49.6926C47.8259 50.2477 48.1812 50.4387 48.6387 50.4387C48.7542 50.4387 48.8785 50.4254 49.0029 50.4032C49.5092 50.3099 49.829 50.2211 50.0377 50.1545Z"
			fill="#BABABA" />
	</g>
	<path
		d="M50.7395 46.1133C50.7839 46.1133 50.8016 46.1355 50.8016 46.1843V46.2065L50.695 46.8727C50.6817 46.9304 50.6284 46.9926 50.5662 47.0014L49.5092 47.188C49.3227 47.219 49.2472 47.299 49.2072 47.5077L49.1406 47.9074L50.433 47.6809C50.433 47.6809 50.4419 47.6809 50.4463 47.6809C50.4907 47.6809 50.5174 47.712 50.5174 47.7564V47.7741L50.4108 48.4181C50.3975 48.4758 50.3486 48.5335 50.2909 48.5468L48.9985 48.7733L48.9185 49.2263C48.9185 49.2707 48.9052 49.3018 48.9052 49.3329C48.9052 49.4306 48.9452 49.4661 49.034 49.4661C49.0606 49.4661 49.0873 49.4661 49.1228 49.4572L50.1843 49.2707C50.1843 49.2707 50.1976 49.2707 50.2021 49.2707C50.2465 49.2707 50.2776 49.2973 50.2776 49.3417V49.3595L50.1621 50.0301C50.1488 50.0967 50.1088 50.1322 50.0422 50.1588C49.8334 50.221 49.5137 50.3143 49.0073 50.4075C48.883 50.4297 48.7586 50.4431 48.6432 50.4431C48.1857 50.4431 47.8304 50.2521 47.8304 49.697C47.8304 49.6126 47.8437 49.5194 47.857 49.4217L48.1457 47.7031C48.3278 46.5929 48.9585 46.3664 49.6957 46.2421C50.2065 46.1488 50.5263 46.1355 50.7173 46.1266C50.7261 46.1266 50.7306 46.1266 50.7395 46.1266V46.1133Z"
		fill="white" />
	<mask id="mask41_265_6564" style="mask-type:luminance" maskUnits="userSpaceOnUse" x="57" y="45" width="1" height="2">
		<path
			d="M57.5035 45.8156V46.1265C57.5035 46.0865 57.5035 46.0599 57.4724 46.0599V45.749C57.5035 45.749 57.5035 45.7757 57.5035 45.8156Z"
			fill="white" />
	</mask>
	<g mask="url(#mask41_265_6564)">
		<path
			d="M57.5035 45.8156V46.1265C57.5035 46.0865 57.5035 46.0599 57.4724 46.0599V45.749C57.5035 45.749 57.5035 45.7757 57.5035 45.8156Z"
			fill="#BABABA" />
	</g>
	<mask id="mask42_265_6564" style="mask-type:luminance" maskUnits="userSpaceOnUse" x="57" y="45" width="1" height="2">
		<path
			d="M57.4724 45.749V46.0599C57.4724 46.0599 57.4635 46.0599 57.4591 46.0599C57.4102 46.0688 57.4058 46.0954 57.3925 46.1487V45.8378C57.4102 45.7846 57.4102 45.7579 57.4591 45.749C57.4635 45.749 57.468 45.749 57.4724 45.749Z"
			fill="white" />
	</mask>
	<g mask="url(#mask42_265_6564)">
		<path
			d="M57.4724 45.749V46.0599C57.4724 46.0599 57.4635 46.0599 57.4591 46.0599C57.4102 46.0688 57.4058 46.0954 57.3925 46.1487V45.8378C57.4102 45.7846 57.4102 45.7579 57.4591 45.749C57.4635 45.749 57.468 45.749 57.4724 45.749Z"
			fill="#BABABA" />
	</g>
	<path d="M53.8883 46.3931V46.7039L53.5153 46.775V46.4641L53.8883 46.3931Z" fill="#B3B3B3" />
	<mask id="mask43_265_6564" style="mask-type:luminance" maskUnits="userSpaceOnUse" x="53" y="46" width="2" height="1">
		<path
			d="M54.3901 46.6062V46.9171C54.3901 46.7439 54.2835 46.6817 54.1059 46.6817C54.0392 46.6817 53.9682 46.6906 53.8882 46.7039V46.3931C53.9682 46.3797 54.0437 46.3708 54.1059 46.3708C54.2835 46.3708 54.3901 46.433 54.3901 46.6062Z"
			fill="white" />
	</mask>
	<g mask="url(#mask43_265_6564)">
		<path
			d="M54.3901 46.6062V46.9171C54.3901 46.7439 54.2835 46.6817 54.1059 46.6817C54.0392 46.6817 53.9682 46.6906 53.8882 46.7039V46.3931C53.9682 46.3797 54.0437 46.3708 54.1059 46.3708C54.2835 46.3708 54.3901 46.433 54.3901 46.6062Z"
			fill="#BABABA" />
	</g>
	<path d="M57.5257 47.1612V47.4721L57.5035 46.1265V45.8157L57.5257 47.1612Z" fill="#B3B3B3" />
	<path d="M57.3879 45.8379V46.1487L56.895 47.5831V47.2723L57.3879 45.8379Z" fill="#B3B3B3" />
	<path d="M53.5151 46.4641V46.775L53.3597 47.7031V47.3922L53.5151 46.4641Z" fill="#B3B3B3" />
	<path d="M57.5301 48.0095V48.3204L56.5974 48.4847V48.1738L57.5301 48.0095Z" fill="#B3B3B3" />
	<mask id="mask44_265_6564" style="mask-type:luminance" maskUnits="userSpaceOnUse" x="53" y="46" width="3" height="3">
		<path
			d="M55.4783 46.2642V46.575C55.4783 47.6941 54.71 48.3691 53.6441 48.56C53.5286 48.5778 53.342 48.6 53.1999 48.6178V48.3069C53.342 48.2892 53.5286 48.267 53.6441 48.2492C54.71 48.0582 55.4783 47.3832 55.4783 46.2642Z"
			fill="white" />
	</mask>
	<g mask="url(#mask44_265_6564)">
		<path
			d="M55.4783 46.2642V46.575C55.4783 47.6941 54.71 48.3691 53.6441 48.56C53.5286 48.5778 53.342 48.6 53.1999 48.6178V48.3069C53.342 48.2892 53.5286 48.267 53.6441 48.2492C54.71 48.0582 55.4783 47.3832 55.4783 46.2642Z"
			fill="#BABABA" />
	</g>
	<mask id="mask45_265_6564" style="mask-type:luminance" maskUnits="userSpaceOnUse" x="58" y="48" width="1" height="1">
		<path
			d="M58.6272 48.5466V48.8575C58.6272 48.9197 58.5828 48.9774 58.5251 48.9907V48.6799C58.5828 48.6665 58.6272 48.6132 58.6272 48.5466Z"
			fill="white" />
	</mask>
	<g mask="url(#mask45_265_6564)">
		<path
			d="M58.6272 48.5466V48.8575C58.6272 48.9197 58.5828 48.9774 58.5251 48.9907V48.6799C58.5828 48.6665 58.6272 48.6132 58.6272 48.5466Z"
			fill="#BABABA" />
	</g>
	<path d="M57.548 48.7511V49.0575L57.5302 48.3204V48.0095L57.548 48.7511Z" fill="#B3B3B3" />
	<path d="M58.5295 48.6755V48.9864L57.6368 49.1418V48.831L58.5295 48.6755Z" fill="#B3B3B3" />
	<mask id="mask46_265_6564" style="mask-type:luminance" maskUnits="userSpaceOnUse" x="57" y="48" width="1" height="2">
		<path
			d="M57.6367 48.831V49.1418C57.6367 49.1418 57.6278 49.1418 57.6234 49.1418C57.579 49.1418 57.5479 49.1063 57.5479 49.0574V48.7466C57.5479 48.7954 57.579 48.831 57.6234 48.831C57.6234 48.831 57.6323 48.831 57.6367 48.831Z"
			fill="white" />
	</mask>
	<g mask="url(#mask46_265_6564)">
		<path
			d="M57.6367 48.831V49.1418C57.6367 49.1418 57.6278 49.1418 57.6234 49.1418C57.579 49.1418 57.5479 49.1063 57.5479 49.0574V48.7466C57.5479 48.7954 57.579 48.831 57.6234 48.831C57.6234 48.831 57.6323 48.831 57.6367 48.831Z"
			fill="#BABABA" />
	</g>
	<path d="M56.5975 48.1738V48.4847L56.3177 49.2751V48.9643L56.5975 48.1738Z" fill="#B3B3B3" />
	<mask id="mask47_265_6564" style="mask-type:luminance" maskUnits="userSpaceOnUse" x="56" y="48" width="1" height="2">
		<path
			d="M56.3177 48.9644V49.2752C56.2955 49.3329 56.2511 49.3862 56.1978 49.3951V49.0843C56.2511 49.0754 56.2955 49.0221 56.3177 48.9644Z"
			fill="white" />
	</mask>
	<g mask="url(#mask47_265_6564)">
		<path
			d="M56.3177 48.9644V49.2752C56.2955 49.3329 56.2511 49.3862 56.1978 49.3951V49.0843C56.2511 49.0754 56.2955 49.0221 56.3177 48.9644Z"
			fill="#BABABA" />
	</g>
	<path d="M56.1977 49.084V49.3948L55.2695 49.5592V49.2483L56.1977 49.084Z" fill="#B3B3B3" />
	<path
		d="M58.4895 45.3183L58.6272 48.5423C58.6272 48.6045 58.5828 48.6622 58.525 48.6755L57.6323 48.831C57.6323 48.831 57.6234 48.831 57.619 48.831C57.5746 48.831 57.5435 48.7954 57.5435 48.7466L57.5257 48.0094L56.5886 48.1737L56.3088 48.9642C56.2866 49.0219 56.2422 49.0752 56.1889 49.0841L55.2606 49.2484C55.2606 49.2484 55.2473 49.2484 55.2429 49.2484C55.2073 49.2484 55.1896 49.2262 55.1896 49.1907L55.1985 49.1463L56.4687 45.6736C56.673 45.1096 57.086 44.932 57.5835 44.8431C57.7123 44.8209 57.8277 44.8076 57.9388 44.8076C58.2541 44.8076 58.4717 44.9275 58.485 45.3183H58.4895ZM56.895 47.2723L57.5213 47.1612L57.5035 45.8157C57.5035 45.7757 57.5035 45.7491 57.4724 45.7491C57.4724 45.7491 57.4635 45.7491 57.4591 45.7491C57.4102 45.7579 57.4058 45.7846 57.3925 45.8379L56.8995 47.2723"
		fill="white" />
	<mask id="mask48_265_6564" style="mask-type:luminance" maskUnits="userSpaceOnUse" x="55" y="49" width="1" height="1">
		<path
			d="M55.2696 49.2484V49.5593C55.2696 49.5593 55.2563 49.5593 55.2518 49.5593C55.2163 49.5593 55.1985 49.5371 55.1985 49.5015V49.1907C55.1985 49.2262 55.2163 49.2484 55.2518 49.2484C55.2563 49.2484 55.2651 49.2484 55.2696 49.2484Z"
			fill="white" />
	</mask>
	<g mask="url(#mask48_265_6564)">
		<path
			d="M55.2696 49.2484V49.5593C55.2696 49.5593 55.2563 49.5593 55.2518 49.5593C55.2163 49.5593 55.1985 49.5371 55.1985 49.5015V49.1907C55.1985 49.2262 55.2163 49.2484 55.2518 49.2484C55.2563 49.2484 55.2651 49.2484 55.2696 49.2484Z"
			fill="#BABABA" />
	</g>
	<path d="M53.1998 48.3113V48.6221L52.9955 49.8522V49.5414L53.1998 48.3113Z" fill="#B3B3B3" />
	<mask id="mask49_265_6564" style="mask-type:luminance" maskUnits="userSpaceOnUse" x="52" y="49" width="1" height="1">
		<path
			d="M52.9957 49.5415V49.8524C52.9868 49.9101 52.929 49.9723 52.8713 49.9811V49.6703C52.929 49.6614 52.9868 49.6037 52.9957 49.5415Z"
			fill="white" />
	</mask>
	<g mask="url(#mask49_265_6564)">
		<path
			d="M52.9957 49.5415V49.8524C52.9868 49.9101 52.929 49.9723 52.8713 49.9811V49.6703C52.929 49.6614 52.9868 49.6037 52.9957 49.5415Z"
			fill="#BABABA" />
	</g>
	<path d="M52.8712 49.6702V49.981L52.0318 50.1276V49.8167L52.8712 49.6702Z" fill="#B3B3B3" />
	<path
		d="M54.439 45.4292C55.003 45.4292 55.4783 45.6602 55.4783 46.2686C55.4783 47.3876 54.7099 48.0626 53.644 48.2536C53.5285 48.2714 53.342 48.2936 53.1998 48.3113L52.9955 49.5414C52.9867 49.5991 52.9289 49.6613 52.8712 49.6702L52.0318 49.8167C52.0318 49.8167 52.0185 49.8167 52.014 49.8167C51.9696 49.8167 51.9385 49.7945 51.9385 49.7501L52.547 46.1398C52.5958 45.8778 52.6802 45.8067 52.9112 45.7268C53.1821 45.638 53.6617 45.5269 54.0348 45.4603C54.1725 45.4381 54.3102 45.4248 54.4434 45.4248L54.439 45.4292ZM53.7284 47.3388C54.1459 47.2633 54.3901 47.0057 54.3901 46.6061C54.3901 46.4329 54.2835 46.3707 54.1059 46.3707C54.0393 46.3707 53.9682 46.3796 53.8883 46.3929L53.5152 46.4639L53.3597 47.3921L53.7284 47.3343"
		fill="white" />
	<mask id="mask50_265_6564" style="mask-type:luminance" maskUnits="userSpaceOnUse" x="51" y="49" width="2" height="2">
		<path
			d="M52.0318 49.8169V50.1277C52.0318 50.1277 52.0185 50.1277 52.014 50.1277C51.9696 50.1277 51.9385 50.1055 51.9385 50.0611V49.7502C51.9385 49.7902 51.974 49.8169 52.014 49.8169C52.0185 49.8169 52.0273 49.8169 52.0318 49.8169Z"
			fill="white" />
	</mask>
	<g mask="url(#mask50_265_6564)">
		<path
			d="M52.0318 49.8169V50.1277C52.0318 50.1277 52.0185 50.1277 52.014 50.1277C51.9696 50.1277 51.9385 50.1055 51.9385 50.0611V49.7502C51.9385 49.7902 51.974 49.8169 52.014 49.8169C52.0185 49.8169 52.0273 49.8169 52.0318 49.8169Z"
			fill="#BABABA" />
	</g>
	<path d="M66.7104 43.4089V43.7198L66.5949 44.3904V44.0795L66.7104 43.4089Z" fill="#B3B3B3" />
	<mask id="mask51_265_6564" style="mask-type:luminance" maskUnits="userSpaceOnUse" x="66" y="44" width="1" height="1">
		<path
			d="M66.5948 44.0793V44.3902C66.5815 44.4479 66.5327 44.5057 66.4749 44.519V44.2081C66.5327 44.1948 66.5815 44.1415 66.5948 44.0793Z"
			fill="white" />
	</mask>
	<g mask="url(#mask51_265_6564)">
		<path
			d="M66.5948 44.0793V44.3902C66.5815 44.4479 66.5327 44.5057 66.4749 44.519V44.2081C66.5327 44.1948 66.5815 44.1415 66.5948 44.0793Z"
			fill="#BABABA" />
	</g>
	<path d="M66.4751 44.2083V44.5191L65.4136 44.7012V44.3903L66.4751 44.2083Z" fill="#B3B3B3" />
	<mask id="mask52_265_6564" style="mask-type:luminance" maskUnits="userSpaceOnUse" x="65" y="44" width="1" height="2">
		<path
			d="M65.4136 44.3904V44.7012C65.227 44.7368 65.1515 44.8123 65.1116 45.021V44.7101C65.1471 44.5014 65.2226 44.4259 65.4136 44.3904Z"
			fill="white" />
	</mask>
	<g mask="url(#mask52_265_6564)">
		<path
			d="M65.4136 44.3904V44.7012C65.227 44.7368 65.1515 44.8123 65.1116 45.021V44.7101C65.1471 44.5014 65.2226 44.4259 65.4136 44.3904Z"
			fill="#BABABA" />
	</g>
	<path d="M62.0336 44.2749V44.5858L61.9137 45.2874V44.9765L62.0336 44.2749Z" fill="#B3B3B3" />
	<mask id="mask53_265_6564" style="mask-type:luminance" maskUnits="userSpaceOnUse" x="61" y="44" width="1" height="2">
		<path
			d="M61.9137 44.9766V45.2874C61.9004 45.3496 61.8649 45.394 61.8027 45.4073V45.0965C61.8649 45.0831 61.9049 45.0387 61.9137 44.9766Z"
			fill="white" />
	</mask>
	<g mask="url(#mask53_265_6564)">
		<path
			d="M61.9137 44.9766V45.2874C61.9004 45.3496 61.8649 45.394 61.8027 45.4073V45.0965C61.8649 45.0831 61.9049 45.0387 61.9137 44.9766Z"
			fill="#BABABA" />
	</g>
	<path d="M61.8027 45.0964V45.4073L61.7849 45.4117V45.1009L61.8027 45.0964Z" fill="#B3B3B3" />
	<path d="M65.116 44.71V45.0208L65.0449 45.416V45.1052L65.116 44.71Z" fill="#B3B3B3" />
	<path d="M66.4262 44.9675V45.2784L66.3196 45.9267V45.6159L66.4262 44.9675Z" fill="#B3B3B3" />
	<mask id="mask54_265_6564" style="mask-type:luminance" maskUnits="userSpaceOnUse" x="66" y="45" width="1" height="2">
		<path
			d="M66.3195 45.616V45.9268C66.3062 45.9846 66.2574 46.0467 66.1952 46.0556V45.7447C66.2529 45.7359 66.3062 45.6781 66.3195 45.616Z"
			fill="white" />
	</mask>
	<g mask="url(#mask54_265_6564)">
		<path
			d="M66.3195 45.616V45.9268C66.3062 45.9846 66.2574 46.0467 66.1952 46.0556V45.7447C66.2529 45.7359 66.3062 45.6781 66.3195 45.616Z"
			fill="#BABABA" />
	</g>
	<path d="M66.1952 45.7446V46.051L64.9072 46.282V45.9711L66.1952 45.7446Z" fill="#B3B3B3" />
	<mask id="mask55_265_6564" style="mask-type:luminance" maskUnits="userSpaceOnUse" x="60" y="45" width="2" height="2">
		<path
			d="M61.785 45.1008V45.4117C61.5762 45.4294 61.3586 45.4383 61.0566 45.4916C60.7724 45.5449 60.5059 45.6915 60.3815 46.4109V46.1C60.5059 45.3762 60.7724 45.2296 61.0566 45.1808C61.3586 45.1275 61.5762 45.1186 61.785 45.1008Z"
			fill="white" />
	</mask>
	<g mask="url(#mask55_265_6564)">
		<path
			d="M61.785 45.1008V45.4117C61.5762 45.4294 61.3586 45.4383 61.0566 45.4916C60.7724 45.5449 60.5059 45.6915 60.3815 46.4109V46.1C60.5059 45.3762 60.7724 45.2296 61.0566 45.1808C61.3586 45.1275 61.5762 45.1186 61.785 45.1008Z"
			fill="#BABABA" />
	</g>
	<path d="M60.3815 46.1001V46.411L60.2838 46.9794V46.6685L60.3815 46.1001Z" fill="#B3B3B3" />
	<path d="M68.3538 43.0981V43.409L67.7009 47.2636V46.9572L68.3538 43.0981Z" fill="#B3B3B3" />
	<mask id="mask56_265_6564" style="mask-type:luminance" maskUnits="userSpaceOnUse" x="60" y="46" width="1" height="2">
		<path
			d="M60.2838 46.6685V46.9793C60.266 47.1125 60.2527 47.2191 60.2527 47.3079V46.9971C60.2527 46.9083 60.266 46.8017 60.2838 46.6685Z"
			fill="white" />
	</mask>
	<g mask="url(#mask56_265_6564)">
		<path
			d="M60.2838 46.6685V46.9793C60.266 47.1125 60.2527 47.2191 60.2527 47.3079V46.9971C60.2527 46.9083 60.266 46.8017 60.2838 46.6685Z"
			fill="#BABABA" />
	</g>
	<mask id="mask57_265_6564" style="mask-type:luminance" maskUnits="userSpaceOnUse" x="67" y="46" width="1" height="2">
		<path
			d="M67.7008 46.957V47.2679C67.6919 47.3256 67.6564 47.3833 67.5764 47.3967V47.0858C67.6564 47.0725 67.6919 47.0192 67.7008 46.957Z"
			fill="white" />
	</mask>
	<g mask="url(#mask57_265_6564)">
		<path
			d="M67.7008 46.957V47.2679C67.6919 47.3256 67.6564 47.3833 67.5764 47.3967V47.0858C67.6564 47.0725 67.6919 47.0192 67.7008 46.957Z"
			fill="#BABABA" />
	</g>
	<path d="M67.5764 47.0813V47.3922L66.7193 47.5431V47.2323L67.5764 47.0813Z" fill="#B3B3B3" />
	<mask id="mask58_265_6564" style="mask-type:luminance" maskUnits="userSpaceOnUse" x="66" y="47" width="1" height="1">
		<path
			d="M66.6305 47.4766V47.1658C66.6305 47.2057 66.6527 47.2368 66.6971 47.2368C66.7016 47.2368 66.7104 47.2368 66.7149 47.2368V47.5477C66.7149 47.5477 66.7016 47.5477 66.6971 47.5477C66.6527 47.5477 66.6305 47.5166 66.6305 47.4766Z"
			fill="white" />
	</mask>
	<g mask="url(#mask58_265_6564)">
		<path
			d="M66.7193 47.2324V47.5433C66.7193 47.5433 66.706 47.5433 66.7016 47.5433C66.6572 47.5433 66.6349 47.5122 66.6349 47.4722V47.1614C66.6349 47.2013 66.6572 47.2324 66.7016 47.2324C66.706 47.2324 66.7149 47.2324 66.7193 47.2324Z"
			fill="#BABABA" />
	</g>
	<path
		d="M68.2871 43.0137C68.3315 43.0137 68.3626 43.0403 68.3493 43.098L67.6964 46.9527C67.6875 47.0104 67.652 47.0681 67.5721 47.0814L66.7149 47.2324C66.7149 47.2324 66.7016 47.2324 66.6971 47.2324C66.6438 47.2324 66.6216 47.188 66.6305 47.1392L67.2789 43.2846C67.2923 43.2268 67.3411 43.1735 67.4033 43.1647L68.2605 43.0137C68.2605 43.0137 68.2782 43.0137 68.2827 43.0137H68.2871Z"
		fill="white" />
	<path d="M64.9072 45.9712V46.282L64.6452 47.8052V47.4944L64.9072 45.9712Z" fill="#B3B3B3" />
	<mask id="mask59_265_6564" style="mask-type:luminance" maskUnits="userSpaceOnUse" x="64" y="47" width="1" height="1">
		<path
			d="M64.6452 47.4944V47.8052C64.6363 47.863 64.5786 47.9251 64.5208 47.934V47.6232C64.5786 47.6143 64.6363 47.5566 64.6452 47.4944Z"
			fill="white" />
	</mask>
	<g mask="url(#mask59_265_6564)">
		<path
			d="M64.6452 47.4944V47.8052C64.6363 47.863 64.5786 47.9251 64.5208 47.934V47.6232C64.5786 47.6143 64.6363 47.5566 64.6452 47.4944Z"
			fill="#BABABA" />
	</g>
	<path d="M64.5253 47.623V47.9295L63.6682 48.0804V47.774L64.5253 47.623Z" fill="#B3B3B3" />
	<path
		d="M66.6216 43.3201C66.6794 43.3201 66.7105 43.3467 66.7105 43.3911V43.4089L66.595 44.0794C66.5817 44.1372 66.5328 44.1949 66.4751 44.2082L65.418 44.3903C65.2315 44.4258 65.156 44.5013 65.116 44.71L65.0494 45.1053L66.3418 44.8788C66.3418 44.8788 66.3507 44.8788 66.3552 44.8788C66.3996 44.8788 66.4262 44.9099 66.4262 44.9543V44.972L66.3196 45.616C66.3063 45.6737 66.2574 45.7359 66.1953 45.7447L64.9073 45.9712L64.6497 47.4944C64.6408 47.5521 64.5831 47.6143 64.5253 47.6232L63.6681 47.7742C63.6681 47.7742 63.6593 47.7742 63.6548 47.7742C63.6104 47.7742 63.5882 47.7431 63.5882 47.7031V47.6854L64.0545 44.901C64.2366 43.7908 64.9028 43.5554 65.6046 43.4355C66.1109 43.3467 66.4262 43.3334 66.6216 43.3245V43.3201Z"
		fill="white" />
	<mask id="mask60_265_6564" style="mask-type:luminance" maskUnits="userSpaceOnUse" x="63" y="47" width="1" height="2">
		<path
			d="M63.668 47.7742V48.085C63.668 48.085 63.6591 48.085 63.6547 48.085C63.6103 48.085 63.588 48.0539 63.588 48.014V47.7031C63.588 47.7475 63.6147 47.7742 63.6547 47.7742C63.6591 47.7742 63.6635 47.7742 63.668 47.7742Z"
			fill="white" />
	</mask>
	<g mask="url(#mask60_265_6564)">
		<path
			d="M63.668 47.7742V48.085C63.668 48.085 63.6591 48.085 63.6547 48.085C63.6103 48.085 63.588 48.0539 63.588 48.014V47.7031C63.588 47.7475 63.6147 47.7742 63.6547 47.7742C63.6591 47.7742 63.6635 47.7742 63.668 47.7742Z"
			fill="#BABABA" />
	</g>
	<path d="M63.606 43.9375V44.2484L62.9531 48.103V47.7921L63.606 43.9375Z" fill="#B3B3B3" />
	<mask id="mask61_265_6564" style="mask-type:luminance" maskUnits="userSpaceOnUse" x="62" y="47" width="1" height="2">
		<path
			d="M62.953 47.792V48.1028C62.9441 48.1606 62.9041 48.2139 62.8286 48.2316V47.9208C62.9041 47.903 62.9441 47.8542 62.953 47.792Z"
			fill="white" />
	</mask>
	<g mask="url(#mask61_265_6564)">
		<path
			d="M62.953 47.792V48.1028C62.9441 48.1606 62.9041 48.2139 62.8286 48.2316V47.9208C62.9041 47.903 62.9441 47.8542 62.953 47.792Z"
			fill="#BABABA" />
	</g>
	<path d="M61.5185 47.3079V47.6143L61.3986 48.3159V48.0095L61.5185 47.3079Z" fill="#B3B3B3" />
	<path d="M62.8287 47.9207V48.2315L61.9671 48.3825V48.0716L62.8287 47.9207Z" fill="#B3B3B3" />
	<mask id="mask62_265_6564" style="mask-type:luminance" maskUnits="userSpaceOnUse" x="61" y="47" width="1" height="2">
		<path
			d="M61.8783 48.3072V47.9963C61.8783 48.0407 61.9005 48.0718 61.9449 48.0718C61.9494 48.0718 61.9583 48.0718 61.9627 48.0718V48.3827C61.9627 48.3827 61.9494 48.3827 61.9449 48.3827C61.9005 48.3827 61.8783 48.3472 61.8783 48.3072Z"
			fill="white" />
	</mask>
	<g mask="url(#mask62_265_6564)">
		<path
			d="M61.9671 48.0718V48.3827C61.9671 48.3827 61.9538 48.3827 61.9493 48.3827C61.9049 48.3827 61.8827 48.3472 61.8827 48.3072V47.9963C61.8827 48.0407 61.9049 48.0718 61.9493 48.0718C61.9538 48.0718 61.9626 48.0718 61.9671 48.0718Z"
			fill="#BABABA" />
	</g>
	<path
		d="M63.5349 43.8484C63.5793 43.8484 63.6104 43.875 63.6015 43.9372L62.9487 47.7918C62.9398 47.8495 62.8998 47.9028 62.8243 47.9206L61.9627 48.0716C61.9627 48.0716 61.9494 48.0716 61.9449 48.0716C61.8961 48.0716 61.8739 48.0272 61.8783 47.9783L62.5312 44.1237C62.5445 44.066 62.5934 44.0127 62.6511 43.9994L63.5127 43.8484C63.5127 43.8484 63.526 43.8484 63.5305 43.8484H63.5349Z"
		fill="white" />
	<mask id="mask63_265_6564" style="mask-type:luminance" maskUnits="userSpaceOnUse" x="61" y="48" width="1" height="1">
		<path
			d="M61.3986 48.0095V48.3204C61.3897 48.387 61.3586 48.4181 61.2653 48.458V48.1472C61.3586 48.1028 61.3897 48.0761 61.3986 48.0095Z"
			fill="white" />
	</mask>
	<g mask="url(#mask63_265_6564)">
		<path
			d="M61.3986 48.0095V48.3204C61.3897 48.387 61.3586 48.4181 61.2653 48.458V48.1472C61.3586 48.1028 61.3897 48.0761 61.3986 48.0095Z"
			fill="#BABABA" />
	</g>
	<path
		d="M61.6873 44.1593C61.7894 44.1593 61.8738 44.1682 61.9316 44.1771C61.9937 44.1904 62.0337 44.1948 62.0337 44.2481V44.2748L61.9138 44.9764C61.9005 45.0386 61.8649 45.083 61.8028 45.0963H61.785C61.5762 45.1141 61.3586 45.1274 61.0566 45.1807C60.7724 45.234 60.5059 45.3805 60.3815 46.0999L60.2794 46.6639C60.2616 46.7971 60.2483 46.9037 60.2483 46.9925C60.2483 47.3167 60.386 47.4055 60.5592 47.4055C60.5991 47.4055 60.6391 47.4011 60.6835 47.3922C60.9855 47.3389 61.2076 47.2723 61.4252 47.2146H61.443C61.443 47.2146 61.4608 47.2101 61.4652 47.2101C61.5007 47.2101 61.5185 47.2279 61.5185 47.2723V47.299L61.3986 48.0006C61.3897 48.0672 61.3586 48.0983 61.2654 48.1383C61.1232 48.2093 60.8523 48.307 60.5236 48.3647C60.4126 48.3825 60.306 48.3914 60.2039 48.3914C59.591 48.3914 59.1602 48.0361 59.1602 47.2812C59.1602 47.148 59.1779 47.0014 59.2001 46.8416L59.2978 46.2776C59.5421 44.892 60.2172 44.3592 61.2076 44.1904C61.3897 44.1549 61.554 44.146 61.6873 44.146V44.1593Z"
		fill="white" />
	<mask id="mask64_265_6564" style="mask-type:luminance" maskUnits="userSpaceOnUse" x="59" y="47" width="3" height="2">
		<path
			d="M61.2654 48.1471V48.458C61.1232 48.529 60.8523 48.6267 60.5236 48.6844C60.4126 48.7022 60.306 48.7111 60.2039 48.7111C59.591 48.7111 59.1602 48.3558 59.1602 47.6009V47.29C59.1602 48.045 59.591 48.4002 60.2039 48.4002C60.306 48.4002 60.4126 48.3914 60.5236 48.3736C60.8567 48.3159 61.1232 48.2182 61.2654 48.1471Z"
			fill="white" />
	</mask>
	<g mask="url(#mask64_265_6564)">
		<path
			d="M61.2654 48.1471V48.458C61.1232 48.529 60.8523 48.6267 60.5236 48.6844C60.4126 48.7022 60.306 48.7111 60.2039 48.7111C59.591 48.7111 59.1602 48.3558 59.1602 47.6009V47.29C59.1602 48.045 59.591 48.4002 60.2039 48.4002C60.306 48.4002 60.4126 48.3914 60.5236 48.3736C60.8567 48.3159 61.1232 48.2182 61.2654 48.1471Z"
			fill="#BABABA" />
	</g>
	<path d="M71.3427 42.636V42.9468L71.2228 43.6485V43.3376L71.3427 42.636Z" fill="#B3B3B3" />
	<mask id="mask65_265_6564" style="mask-type:luminance" maskUnits="userSpaceOnUse" x="71" y="43" width="1" height="1">
		<path
			d="M71.2228 43.3376V43.6485C71.2139 43.7151 71.174 43.7595 71.1162 43.7684V43.4575C71.174 43.4487 71.2184 43.4043 71.2228 43.3376Z"
			fill="white" />
	</mask>
	<g mask="url(#mask65_265_6564)">
		<path
			d="M71.2228 43.3376V43.6485C71.2139 43.7151 71.174 43.7595 71.1162 43.7684V43.4575C71.174 43.4487 71.2184 43.4043 71.2228 43.3376Z"
			fill="#BABABA" />
	</g>
	<path d="M71.1162 43.4575V43.7684L71.0984 43.7728V43.462L71.1162 43.4575Z" fill="#B3B3B3" />
	<mask id="mask66_265_6564" style="mask-type:luminance" maskUnits="userSpaceOnUse" x="69" y="43" width="3" height="2">
		<path
			d="M71.0985 43.4622V43.773C70.8853 43.7908 70.6677 43.7997 70.3657 43.8529C70.0814 43.9062 69.8149 44.0528 69.6906 44.7722V44.4613C69.8149 43.7419 70.0814 43.5909 70.3657 43.5421C70.6677 43.4888 70.8853 43.4799 71.0985 43.4622Z"
			fill="white" />
	</mask>
	<g mask="url(#mask66_265_6564)">
		<path
			d="M71.0985 43.4622V43.773C70.8853 43.7908 70.6677 43.7997 70.3657 43.8529C70.0814 43.9062 69.8149 44.0528 69.6906 44.7722V44.4613C69.8149 43.7419 70.0814 43.5909 70.3657 43.5421C70.6677 43.4888 70.8853 43.4799 71.0985 43.4622Z"
			fill="#BABABA" />
	</g>
	<path d="M69.6905 44.4612V44.772L69.5928 45.3405V45.0296L69.6905 44.4612Z" fill="#B3B3B3" />
	<mask id="mask67_265_6564" style="mask-type:luminance" maskUnits="userSpaceOnUse" x="69" y="45" width="1" height="1">
		<path
			d="M69.5929 45.0295V45.3404C69.5751 45.4736 69.5618 45.5802 69.5618 45.6735V45.3626C69.5618 45.2693 69.5751 45.1628 69.5929 45.0295Z"
			fill="white" />
	</mask>
	<g mask="url(#mask67_265_6564)">
		<path
			d="M69.5929 45.0295V45.3404C69.5751 45.4736 69.5618 45.5802 69.5618 45.6735V45.3626C69.5618 45.2693 69.5751 45.1628 69.5929 45.0295Z"
			fill="#BABABA" />
	</g>
	<path d="M70.8321 45.6692V45.9756L70.7122 46.6772V46.3708L70.8321 45.6692Z" fill="#B3B3B3" />
	<mask id="mask68_265_6564" style="mask-type:luminance" maskUnits="userSpaceOnUse" x="68" y="45" width="3" height="3">
		<path
			d="M70.7121 46.3707V46.6815C70.6988 46.7526 70.6677 46.7792 70.5788 46.8192C70.4323 46.8903 70.1614 46.988 69.8327 47.0457C69.7217 47.0634 69.6151 47.0768 69.5129 47.0768C68.9 47.0768 68.4692 46.7215 68.4692 45.971V45.6602C68.4692 46.4106 68.9 46.7659 69.5129 46.7659C69.6151 46.7659 69.7217 46.757 69.8327 46.7348C70.1658 46.6771 70.4323 46.5794 70.5788 46.5083C70.6677 46.4639 70.6988 46.4417 70.7121 46.3707Z"
			fill="white" />
	</mask>
	<g mask="url(#mask68_265_6564)">
		<path
			d="M70.7121 46.3707V46.6815C70.6988 46.7526 70.6677 46.7792 70.5788 46.8192C70.4323 46.8903 70.1614 46.988 69.8327 47.0457C69.7217 47.0634 69.6151 47.0768 69.5129 47.0768C68.9 47.0768 68.4692 46.7215 68.4692 45.971V45.6602C68.4692 46.4106 68.9 46.7659 69.5129 46.7659C69.6151 46.7659 69.7217 46.757 69.8327 46.7348C70.1658 46.6771 70.4323 46.5794 70.5788 46.5083C70.6677 46.4639 70.6988 46.4417 70.7121 46.3707Z"
			fill="#BABABA" />
	</g>
	<path
		d="M71.0008 42.5206C71.1029 42.5206 71.1873 42.5294 71.2451 42.5383C71.3072 42.5472 71.3472 42.5561 71.3472 42.6094V42.6316L71.2273 43.3332C71.2184 43.3998 71.1784 43.4442 71.1207 43.4531H71.1029C70.8898 43.4709 70.6721 43.4842 70.3701 43.5375C70.0859 43.5908 69.8194 43.7373 69.695 44.4567L69.5929 45.0207C69.5751 45.1539 69.5618 45.2605 69.5618 45.3538C69.5618 45.6735 69.695 45.7668 69.8682 45.7668C69.9082 45.7668 69.9526 45.7623 69.997 45.7534C70.2991 45.7002 70.5211 45.638 70.7388 45.5758H70.7565C70.7565 45.5758 70.7743 45.5714 70.7787 45.5714C70.8143 45.5714 70.8365 45.5891 70.8365 45.6335V45.6602L70.7165 46.3618C70.7032 46.4329 70.6721 46.4595 70.5833 46.4995C70.4367 46.5706 70.1658 46.6683 69.8372 46.726C69.7261 46.7437 69.6195 46.7571 69.5174 46.7571C68.9045 46.7571 68.4737 46.4018 68.4737 45.6513C68.4737 45.5136 68.4914 45.3715 68.5181 45.2117L68.6158 44.6477C68.8556 43.2666 69.5307 42.7337 70.5211 42.5605C70.7032 42.5294 70.872 42.5161 71.0008 42.5161V42.5206Z"
		fill="white" />
	<path
		d="M69.1177 48.5291C69.0866 48.5247 69.0511 48.5158 69.02 48.5114C68.5492 48.4403 67.9097 48.5203 67.6077 48.578C67.1413 48.6668 66.7372 48.8311 66.3863 49.0531C66.1109 48.9777 65.8223 48.9599 65.5469 49.0087L64.9429 49.1242C64.7297 49.1642 64.5343 49.2441 64.3522 49.3507C64.0635 49.3063 63.7481 49.3152 63.415 49.3773C63.0464 49.4484 62.74 49.5638 62.4824 49.7104C62.2781 49.6793 62.0693 49.6704 61.865 49.7104L61.3099 49.817C61.1322 49.8525 60.9679 49.9102 60.8124 49.9902C60.6348 49.9724 60.4527 49.9813 60.2661 50.0168L59.8176 50.1012C59.7065 50.1234 59.5955 50.1545 59.4933 50.1944C59.3868 50.1944 59.2802 50.2033 59.1691 50.2211L58.5784 50.3321C58.4718 50.3499 58.3652 50.3809 58.2675 50.4209C58.1032 50.4298 57.7834 50.4431 57.3171 50.5319C56.5443 50.6785 56.0025 50.9893 55.6205 51.3801C55.2341 51.1536 54.7678 51.0559 54.3325 51.1403L53.7285 51.2558C53.5153 51.2957 53.3199 51.3757 53.1378 51.4823C52.8491 51.4379 52.5338 51.4467 52.1962 51.5089C51.8276 51.58 51.5256 51.6954 51.2635 51.842C51.0592 51.8109 50.8505 51.802 50.6462 51.842L50.091 51.9485C49.9134 51.9841 49.749 52.0418 49.5936 52.1217C49.4159 52.104 49.2338 52.1129 49.0473 52.1484L48.5987 52.2328C48.3678 52.2772 48.1546 52.366 47.9592 52.4814C47.6438 52.4326 47.3152 52.437 46.9776 52.4992C46.6312 52.5658 46.3159 52.6768 46.0272 52.8278C45.8229 52.7967 45.6097 52.7967 45.401 52.8367L44.7925 52.9522C44.6504 52.9788 44.5216 53.0277 44.3928 53.0854C44.0908 53.0809 43.7754 53.1076 43.4512 53.1698C43.0959 53.2364 42.7717 53.3518 42.4786 53.5028C42.3631 53.4895 42.2476 53.4806 42.1321 53.4851C41.9367 53.4939 41.6258 53.5161 41.1773 53.6005C40.6931 53.6938 40.2979 53.8536 39.9736 54.0535C39.6272 53.9869 39.2231 53.9691 38.739 54.0624C38.3792 54.129 37.9973 54.2311 37.6952 54.3377C36.9047 54.6263 36.4028 55.2392 36.2785 56.0607L35.8565 58.7563C35.8432 58.8495 35.8343 58.9517 35.8343 59.0449C35.8343 59.6 36.0786 60.124 36.505 60.4749C36.7581 60.6836 37.0601 60.8212 37.3799 60.8745C37.411 60.8834 37.4421 60.8923 37.4776 60.9012C37.5487 60.9278 37.6242 60.9456 37.6952 60.9633C37.7663 60.99 37.8374 61.0078 37.9129 61.0211C37.9839 61.0477 38.055 61.0655 38.1261 61.0788C38.1971 61.1054 38.2682 61.1232 38.3437 61.141C38.4147 61.1676 38.4858 61.1854 38.5569 61.1987C38.6279 61.2254 38.699 61.2431 38.77 61.2564C38.8411 61.2831 38.9122 61.3053 38.9877 61.3186C39.1209 61.3675 39.263 61.3941 39.4007 61.3941C39.4673 61.3941 39.534 61.3897 39.5961 61.3763L40.1291 61.2742C40.2623 61.2476 40.3867 61.2031 40.4977 61.1365C40.6265 61.1587 40.7553 61.1543 40.8841 61.1365L41.4571 61.0255C41.6036 60.9989 41.7369 60.9411 41.8612 60.8656C41.95 60.879 42.0389 60.8923 42.1366 60.8923C42.2698 60.8923 42.4119 60.879 42.563 60.8523C42.9271 60.7813 43.1714 60.7102 43.358 60.6481C43.4868 60.6036 43.5978 60.5326 43.6999 60.4527C43.8509 60.4926 44.0019 60.5193 44.1618 60.5193C44.2818 60.5193 44.4061 60.5059 44.526 60.4837C44.8369 60.426 45.1434 60.3328 45.4365 60.2173C45.4898 60.2262 45.5387 60.2306 45.5919 60.2306C45.6586 60.2306 45.7252 60.2262 45.7874 60.2129L46.3203 60.1107C46.5246 60.0707 46.7067 59.9819 46.8577 59.8531C47.0043 59.8931 47.1553 59.9153 47.3152 59.9153C47.444 59.9153 47.5772 59.902 47.7105 59.8798C47.9547 59.8354 48.2701 59.7377 48.5765 59.5467C48.6876 59.5778 48.803 59.6 48.9141 59.6C48.9807 59.6 49.0473 59.5956 49.1095 59.5823L49.5892 59.489C49.7535 59.4579 49.9 59.3958 50.0333 59.3069C50.1887 59.3425 50.3531 59.3425 50.5218 59.3114L50.9304 59.2359C51.0015 59.2226 51.0681 59.2004 51.1347 59.1737C51.1347 59.1737 51.1392 59.1737 51.1436 59.1737C51.2102 59.1737 51.2769 59.1693 51.3435 59.1559L51.912 59.0494C52.0719 59.0183 52.2184 58.9561 52.3517 58.8673C52.5027 58.9028 52.6626 58.9073 52.8091 58.8806L53.3598 58.774C53.5109 58.7474 53.6441 58.6852 53.7685 58.6097C53.8573 58.6231 53.955 58.6364 54.0571 58.6364C54.1904 58.6364 54.3325 58.6231 54.488 58.592C54.6745 58.5564 54.9676 58.4854 55.1675 58.4055C55.3052 58.3566 55.4206 58.2811 55.5272 58.1923C55.656 58.2411 55.7981 58.2678 55.9358 58.2678C56.0024 58.2678 56.0691 58.2633 56.1313 58.25L56.6687 58.1479C56.9218 58.099 57.1439 57.9658 57.3082 57.7837C57.4681 57.8637 57.6502 57.9081 57.8278 57.9081C57.8945 57.9081 57.9566 57.9036 58.0233 57.8903L58.5651 57.7882C58.6584 57.7704 58.7428 57.7393 58.8227 57.7038C58.8449 57.7038 58.8627 57.7082 58.8849 57.7082C58.9515 57.7082 59.0181 57.7038 59.0803 57.6905L59.56 57.5972C59.7199 57.5661 59.8709 57.504 60.0041 57.4152C60.1595 57.4507 60.3239 57.4507 60.4926 57.4196L60.9012 57.3441C60.9723 57.3308 61.0389 57.3086 61.1056 57.2819C61.1056 57.2819 61.11 57.2819 61.1144 57.2819C61.1811 57.2819 61.2477 57.2775 61.3143 57.2642L61.8828 57.1576C62.0427 57.1265 62.1937 57.0643 62.3225 56.9755C62.4735 57.011 62.6334 57.0155 62.7799 56.9888L63.3307 56.8823C63.4817 56.8556 63.6149 56.7934 63.7393 56.718C63.8281 56.7313 63.9258 56.7446 64.028 56.7446C64.1612 56.7446 64.3033 56.7313 64.4632 56.7002C64.6497 56.6647 64.9429 56.5936 65.1383 56.5181C65.1738 56.5048 65.2049 56.4826 65.2404 56.4648C65.2849 56.4648 65.3248 56.4737 65.3692 56.4737C65.5691 56.4737 65.7778 56.4515 65.9955 56.4115C66.3597 56.3405 66.6794 56.2028 66.9548 56.0163C67.0347 55.9763 67.1058 55.9275 67.1769 55.8786C67.2568 55.8387 67.3279 55.7898 67.4034 55.741C67.4833 55.701 67.5544 55.6522 67.6254 55.6033C67.7054 55.5633 67.7764 55.5145 67.8475 55.4657C67.9274 55.4257 67.9985 55.3768 68.074 55.328C68.154 55.288 68.225 55.2392 68.3005 55.1903C68.3805 55.1504 68.4515 55.1015 68.527 55.0527C68.607 55.0127 68.678 54.9638 68.7535 54.915C69.7617 54.3777 70.3924 53.3918 70.3924 52.2283C70.3924 52.0462 70.3746 51.8731 70.3391 51.7043C70.4235 51.5356 70.4812 51.3535 70.5123 51.1625L70.5923 50.6474C70.6056 50.5541 70.6145 50.452 70.6145 50.3587C70.6145 49.4706 70.0016 48.7245 69.1266 48.5469L69.1177 48.5291Z"
		fill="black" />
	<path
		d="M39.4851 57.5571L39.8404 58.5785C39.8404 58.5785 39.8404 58.5963 39.8404 58.6051C39.8404 58.6496 39.8093 58.6851 39.7649 58.694L39.1209 58.8183C39.0809 58.8272 39.072 58.7872 39.0631 58.7517L38.7567 57.8324C38.6767 57.8458 38.5968 57.8635 38.5168 57.868L38.3614 58.8805C38.3525 58.9249 38.3125 58.9693 38.2726 58.9782L37.6819 59.0892C37.6463 59.0981 37.6197 59.0714 37.6197 59.0315V59.0181L38.0416 56.3226C38.0727 56.1227 38.1349 56.0695 38.2948 56.0117C38.4458 55.9584 38.7389 55.8741 39.0631 55.8119C39.6449 55.7009 40.0846 55.8474 40.0846 56.3981C40.0846 56.8599 39.8937 57.2996 39.4851 57.5527V57.5571ZM39.0098 56.5135C38.9121 56.5313 38.7878 56.5579 38.7256 56.5757L38.6234 57.2329C38.6634 57.2329 38.7078 57.2196 38.7522 57.2107C38.7966 57.2019 38.8455 57.193 38.8899 57.1841C39.1786 57.1308 39.3385 56.9798 39.3385 56.6645C39.3385 56.518 39.2452 56.4691 39.0143 56.5135H39.0098Z"
		fill="#FECD19" />
	<path
		d="M42.2697 55.3368L42.1942 55.8386C42.1853 55.883 42.1453 55.9275 42.1053 55.9363L41.3636 56.0784C41.2304 56.1051 41.1815 56.1628 41.1549 56.3182L41.106 56.6202L42.0076 56.4515C42.0432 56.4426 42.0698 56.4692 42.0698 56.5092V56.5225L41.9943 57.0066C41.9854 57.051 41.9499 57.0954 41.9099 57.1043L41.0083 57.273L40.955 57.615C40.955 57.646 40.9461 57.6727 40.9461 57.6949C40.9461 57.7881 40.9906 57.8059 41.0972 57.7881L41.8389 57.646C41.8744 57.6372 41.901 57.6638 41.901 57.7038V57.7171L41.8211 58.2189C41.8122 58.2677 41.7856 58.2988 41.7367 58.3166C41.5946 58.3654 41.3681 58.4321 41.0172 58.5031C40.5908 58.583 40.1956 58.4898 40.1956 57.9658C40.1956 57.9036 40.2044 57.8326 40.2133 57.7571L40.4132 56.4648C40.542 55.6344 40.9817 55.4612 41.4969 55.3635C41.8522 55.2969 42.0742 55.2835 42.2119 55.2747C42.2519 55.2747 42.2697 55.288 42.2697 55.3279V55.3457V55.3368Z"
		fill="#FECD19" />
	<path
		d="M44.6147 54.9504L44.5303 55.4699C44.5214 55.5188 44.5081 55.5365 44.4725 55.5454C44.4725 55.5454 44.4637 55.5454 44.4592 55.5454C44.3215 55.5632 44.0284 55.5898 43.7575 55.6431C43.3933 55.7142 43.2378 55.8607 43.1579 56.3581L43.0868 56.7933C43.0735 56.8954 43.0646 56.9798 43.0646 57.0508C43.0646 57.3573 43.2023 57.3839 43.34 57.3573C43.4111 57.3439 43.4821 57.3262 43.5443 57.304L43.6775 56.4602C43.6864 56.4158 43.7175 56.3714 43.7575 56.367L44.3349 56.2559C44.3704 56.2471 44.397 56.2737 44.397 56.3137V56.327L44.1794 57.7081C44.1661 57.7703 44.1483 57.7925 44.0861 57.8191C43.8641 57.9079 43.5754 58.0101 43.2201 58.0767C42.8115 58.1522 42.3007 57.9923 42.3007 57.2551C42.3007 57.1574 42.3096 57.0508 42.3274 56.9354L42.3984 56.5002C42.5938 55.3012 43.229 55.0258 43.7664 54.9237C44.1483 54.8527 44.4059 54.866 44.548 54.8837C44.5836 54.8882 44.6102 54.8926 44.6102 54.9281C44.6102 54.9281 44.6102 54.9415 44.6102 54.9504H44.6147Z"
		fill="#FECD19" />
	<path
		d="M45.7872 54.6618L45.3342 57.5616C45.3253 57.606 45.3031 57.646 45.2454 57.6593L44.6458 57.7748C44.6014 57.7836 44.5792 57.7481 44.5881 57.7037L45.0411 54.8039C45.05 54.7595 45.0855 54.7195 45.1255 54.7106L45.7251 54.5952C45.765 54.5863 45.7961 54.6085 45.7872 54.6618Z"
		fill="#FECD19" />
	<path
		d="M48.2167 55.4033L48.1457 55.8296C47.9813 56.8332 47.4883 57.2684 46.8088 57.3972C46.2936 57.4949 45.8672 57.2595 45.8672 56.5845C45.8672 56.4824 45.8761 56.3758 45.8983 56.2559L45.9694 55.8296C46.1426 54.786 46.6711 54.3775 47.3062 54.2576C47.817 54.1599 48.2478 54.3686 48.2478 55.0613C48.2478 55.1635 48.2389 55.2789 48.2167 55.4033ZM47.1863 54.9947C46.9287 55.0436 46.7955 55.2434 46.72 55.6875L46.6489 56.1138C46.6356 56.2115 46.6223 56.2959 46.6223 56.3669C46.6223 56.6156 46.7244 56.7 46.9243 56.66C47.1819 56.6112 47.3151 56.4113 47.3906 55.9717L47.4617 55.5454C47.475 55.4477 47.4883 55.3633 47.4883 55.2923C47.4883 55.0436 47.3862 54.9548 47.1863 54.9947Z"
		fill="#FECD19" />
	<path
		d="M51.0325 53.6714L50.5928 56.4957C50.5795 56.5801 50.504 56.66 50.4329 56.6733L49.9799 56.7577C49.9133 56.771 49.8733 56.7444 49.8422 56.6778L49.3004 55.4432C49.287 55.4166 49.2782 55.4166 49.2693 55.4166C49.2604 55.4166 49.2515 55.4299 49.2471 55.4566L49.025 56.8598C49.0161 56.9043 48.9761 56.9487 48.9362 56.9575L48.3855 57.0597C48.3499 57.0686 48.3233 57.0419 48.3233 57.002V56.9886L48.763 54.1643C48.7763 54.0799 48.8518 54 48.9229 53.9867L49.3714 53.9023C49.4425 53.889 49.4691 53.9334 49.5002 53.9955L50.0554 55.27C50.0643 55.2967 50.0687 55.3056 50.082 55.3011C50.0909 55.3011 50.1042 55.2923 50.1087 55.2612L50.3352 53.8046C50.3441 53.7602 50.3841 53.7158 50.424 53.7069L50.9748 53.6047C51.0103 53.5959 51.0325 53.6225 51.0325 53.658V53.6758V53.6714Z"
		fill="#FECD19" />
	<path
		d="M53.1732 56.154L52.5514 56.2739C52.5159 56.2828 52.4892 56.2517 52.4892 56.2117L52.4759 55.6566L51.823 55.781L51.6276 56.3716C51.6143 56.416 51.5788 56.456 51.5432 56.4648L50.8948 56.5892C50.8637 56.5936 50.8415 56.5803 50.8415 56.5448C50.8415 56.5359 50.8415 56.5226 50.8504 56.5092L51.7386 53.8936C51.8808 53.4718 52.1695 53.3341 52.5203 53.2675C52.8667 53.2009 53.1332 53.2319 53.1466 53.6272L53.2398 56.0563C53.2398 56.1051 53.2087 56.1451 53.1688 56.154H53.1732ZM52.4581 54.0046C52.4581 53.9691 52.4581 53.9469 52.4271 53.9558C52.396 53.9602 52.3915 53.9824 52.3782 54.0224L52.0318 55.1015L52.4715 55.0171L52.4581 54.0046Z"
		fill="#FECD19" />
	<path
		d="M55.1895 55.1947L55.1095 55.6965C55.1007 55.7454 55.074 55.7765 55.0251 55.7942C54.8875 55.8475 54.6388 55.9141 54.4478 55.9541C54.0347 56.034 53.6261 55.963 53.6261 55.4212C53.6261 55.359 53.635 55.288 53.6439 55.2081L53.9681 53.1164C53.977 53.072 54.0214 53.0276 54.0614 53.0187L54.6565 52.9077C54.6921 52.8988 54.7143 52.9255 54.7143 52.961V52.9788L54.39 55.0704C54.39 55.1015 54.3812 55.1237 54.3812 55.1459C54.3812 55.2391 54.4256 55.2613 54.5322 55.2436L55.1273 55.1326C55.1628 55.1237 55.1895 55.1503 55.1895 55.1903V55.2036V55.1947Z"
		fill="#FECD19" />
	<path
		d="M58.4184 52.2815L58.3385 52.7833C58.3296 52.8277 58.2941 52.8721 58.2541 52.881L57.5124 53.0231C57.3791 53.0497 57.3303 53.1074 57.3036 53.2629L57.2548 53.5604L58.1564 53.3917C58.1919 53.3828 58.2186 53.4094 58.2186 53.4494V53.4627L58.1431 53.9468C58.1342 53.9912 58.0986 54.0356 58.0587 54.0444L57.1571 54.2132L56.975 55.3589C56.9661 55.4033 56.9261 55.4477 56.8862 55.4566L56.291 55.5676C56.2555 55.5765 56.2333 55.5499 56.2333 55.5143V55.4966L56.5575 53.405C56.6863 52.5701 57.1482 52.3925 57.6412 52.2992C57.9965 52.2326 58.2141 52.2237 58.3518 52.2148C58.3918 52.2148 58.414 52.2326 58.414 52.2681V52.2859L58.4184 52.2815Z"
		fill="#FECD19" />
	<path
		d="M59.5643 52.0506L59.1112 54.9505C59.1024 54.9949 59.0801 55.0349 59.0224 55.0482L58.4228 55.1636C58.3784 55.1725 58.3562 55.137 58.3651 55.097L58.8181 52.1972C58.827 52.1528 58.8625 52.1128 58.9025 52.1039L59.5021 51.9885C59.542 51.9796 59.5731 52.0018 59.5643 52.0551V52.0506Z"
		fill="#FECD19" />
	<path
		d="M62.2557 51.5445L61.8161 54.3688C61.8027 54.4532 61.7272 54.5331 61.6562 54.5464L61.2031 54.6308C61.1365 54.6441 61.0966 54.6175 61.0699 54.5464L60.5281 53.3119C60.5147 53.2852 60.5059 53.2852 60.497 53.2852C60.4881 53.2852 60.4792 53.2986 60.4748 53.3252L60.2527 54.7285C60.2438 54.7729 60.2038 54.8173 60.1639 54.8262L59.6131 54.9283C59.5776 54.9372 59.551 54.9106 59.551 54.8706V54.8573L59.9907 52.0329C60.004 51.9486 60.0795 51.8686 60.1505 51.8553L60.5991 51.7709C60.6702 51.7576 60.6968 51.802 60.7279 51.8642L61.2831 53.1387C61.292 53.1653 61.2964 53.1742 61.3097 53.1698C61.3186 53.1698 61.3319 53.1609 61.3364 53.1298L61.5629 51.6732C61.5718 51.6288 61.6118 51.5844 61.6517 51.5755L62.2024 51.4734C62.238 51.4645 62.2602 51.4912 62.2602 51.5267V51.5445H62.2557Z"
		fill="#FECD19" />
	<path
		d="M64.3964 54.0268L63.7746 54.1467C63.7391 54.1556 63.7124 54.1245 63.7124 54.0845L63.6991 53.5294L63.0462 53.6538L62.8508 54.2444C62.8375 54.2888 62.802 54.3288 62.7664 54.3377L62.118 54.462C62.0869 54.4665 62.0647 54.4531 62.0647 54.422C62.0647 54.4132 62.0647 54.3998 62.0736 54.3865L62.9618 51.7709C63.104 51.349 63.3927 51.2114 63.7435 51.1447C64.0944 51.0781 64.3564 51.1092 64.3697 51.5L64.463 53.9291C64.463 53.978 64.4319 54.0179 64.392 54.0268H64.3964ZM63.6813 51.8775C63.6813 51.8419 63.6813 51.8197 63.6503 51.8286C63.6192 51.8331 63.6147 51.8553 63.6014 51.8952L63.2594 52.9743L63.6991 52.89L63.6858 51.8775H63.6813Z"
		fill="#FECD19" />
	<path
		d="M66.4128 53.0675L66.3329 53.5693C66.324 53.6182 66.2974 53.6493 66.2485 53.667C66.1108 53.7203 65.8621 53.7869 65.6711 53.8269C65.2581 53.9068 64.8495 53.8358 64.8495 53.294C64.8495 53.2318 64.8584 53.1608 64.8673 53.0809L65.1915 50.9892C65.2004 50.9448 65.2448 50.9004 65.2847 50.8915L65.8799 50.7805C65.9154 50.7716 65.9376 50.7983 65.9376 50.8338V50.8516L65.6134 52.9432C65.6134 52.9743 65.6045 52.9965 65.6045 53.0187C65.6045 53.1119 65.6489 53.1342 65.7555 53.1164L66.3507 53.0054C66.3862 52.9965 66.4128 53.0231 66.4128 53.0631V53.0764V53.0675Z"
		fill="#FECD19" />
	<path
		d="M68.8068 50.3586L68.7268 50.8737C68.7179 50.9181 68.6913 50.9581 68.6513 50.9625C68.6513 50.9625 68.6484 50.9625 68.6424 50.9625C68.4959 50.9803 68.0828 51.0158 67.8164 51.0691C67.7142 51.0868 67.6076 51.1446 67.6076 51.2778C67.6076 51.3355 67.6431 51.3622 67.7675 51.4199L68.2161 51.6242C68.4781 51.7396 68.5803 51.9439 68.5803 52.2237C68.5803 52.9697 68.0073 53.3827 67.3811 53.5026C67.0791 53.5604 66.8481 53.5604 66.6616 53.5337C66.6305 53.5293 66.5994 53.516 66.5994 53.4804V53.4671L66.6749 52.9609C66.6838 52.9165 66.7149 52.872 66.7593 52.8632C66.7593 52.8632 66.7593 52.8632 66.7682 52.8632C66.9192 52.8498 67.3056 52.8232 67.501 52.7832C67.6476 52.7566 67.7675 52.6767 67.7675 52.4946C67.7675 52.4368 67.732 52.3969 67.6254 52.3436L67.1546 52.0949C66.9414 51.9839 66.8393 51.7441 66.8393 51.4954C66.8393 50.776 67.3545 50.4607 67.9363 50.3497C68.225 50.2964 68.6069 50.2742 68.749 50.2964C68.7801 50.3008 68.8023 50.3142 68.8023 50.3497V50.363L68.8068 50.3586Z"
		fill="#FECD19" />
	<defs>
		<linearGradient id="paint0_linear_265_6564" x1="53.0889" y1="7.98004" x2="53.0889" y2="81.7282"
			gradientUnits="userSpaceOnUse">
			<stop stop-color="#E94560" />
			<stop offset="1" stop-color="#10101C" />
		</linearGradient>
	</defs>
</svg>