<svg width="63" height="64" viewBox="0 0 63 64" fill="none" xmlns="http://www.w3.org/2000/svg">
<g opacity="0.2">
<path fill-rule="evenodd" clip-rule="evenodd" d="M32.2884 1.33385L46.3706 5.21954C51.3877 6.60391 55.3066 10.6392 56.651 15.8054L63 40.2023L58.7606 44.5676L53.5947 43.1422C50.9667 42.4171 48.1627 43.1907 46.2389 45.1716L36.1108 55.6006L31.2154 50.5597L41.3435 40.1308C44.8649 36.5047 49.9314 34.9976 54.7652 36.1L49.9639 17.6503C49.2597 14.9442 47.2069 12.8305 44.5789 12.1053L30.4967 8.21964L32.2884 1.33385Z" fill="#00A2FE"/>
<path fill-rule="evenodd" clip-rule="evenodd" d="M4.26938 46.6184L0.495792 32.1178C-0.848635 26.9517 0.585632 21.4395 4.25833 17.6577L21.4066 0L27.1979 1.59798L28.5821 6.91731C29.2864 9.62339 31.3391 11.7371 33.9671 12.4623L47.8027 16.2799L46.0111 23.1657L32.1755 19.3481C27.3649 18.0207 23.564 14.2562 22.0741 9.39444L9.15377 22.6986C7.22998 24.6795 6.47869 27.5668 7.18292 30.2729L10.9565 44.7735L4.26938 46.6184Z" fill="#00A2FE"/>
<path fill-rule="evenodd" clip-rule="evenodd" d="M56.1583 49.0125L45.8615 59.6152C42.1805 63.4055 36.8121 64.8799 31.7867 63.4807L8.50729 56.9989L6.93371 51.0682L10.5644 47.2385C12.4421 45.258 13.1666 42.4048 12.4709 39.7313L8.74044 25.3966L15.4276 23.5516L19.158 37.8864C20.4264 42.7605 19.2221 47.9473 15.9894 51.6975L33.5935 56.5991C36.2259 57.332 39.0379 56.5597 40.9661 54.5743L51.2628 43.9716L56.1583 49.0125Z" fill="#00A2FE"/>
</g>
</svg>
