<?xml version="1.0" encoding="UTF-8" standalone="no"?>
<svg
   width="179.00014"
   height="244.83501"
   viewBox="0 0 179.00014 244.83501"
   fill="none"
   version="1.1"
   id="svg35"
   sodipodi:docname="GWC.svg"
   inkscape:version="1.3.2 (091e20e, 2023-11-25, custom)"
   xmlns:inkscape="http://www.inkscape.org/namespaces/inkscape"
   xmlns:sodipodi="http://sodipodi.sourceforge.net/DTD/sodipodi-0.dtd"
   xmlns="http://www.w3.org/2000/svg"
   xmlns:svg="http://www.w3.org/2000/svg">
  <sodipodi:namedview
     id="namedview35"
     pagecolor="#505050"
     bordercolor="#eeeeee"
     borderopacity="1"
     inkscape:showpageshadow="0"
     inkscape:pageopacity="0"
     inkscape:pagecheckerboard="0"
     inkscape:deskcolor="#505050"
     inkscape:zoom="5.0040984"
     inkscape:cx="89.526617"
     inkscape:cy="122.59951"
     inkscape:window-width="2560"
     inkscape:window-height="1417"
     inkscape:window-x="-8"
     inkscape:window-y="-8"
     inkscape:window-maximized="1"
     inkscape:current-layer="svg35" />
  <path
     d="m 89.514593,0.50000183 c -12.5891,0.004747 -23.0964,9.22490817 -24.895,21.39799817 -0.0195,0.0097 -0.0389,0.0194 -0.0584,0.0388 l -49.9553,28.5371 c -4.28858,2.3539 -7.8672402,5.8314 -10.3567402,10.0548 -2.47978,4.2041 -3.77315147,9.0378 -3.74397761,13.978 v 50.5743 c -0.0972462,5.832 1.09887761,18.366 10.02611781,36.984 11.0082,22.958 30.1074,47.63 56.7431,73.358 5.9515,5.744 13.8381,8.912 22.2207,8.912 8.3827,0 16.268897,-3.168 22.210897,-8.912 26.636,-25.709 45.716,-50.352 56.734,-73.251 8.956,-18.638 10.152,-31.221 10.055,-37.081 V 74.4776 c 0,-4.8918 -1.313,-9.6964 -3.783,-13.9004 -2.47,-4.1944 -6.02,-7.6816 -10.279,-10.0646 l -49.975,-28.5565 c 0,0 -0.039,-0.0193 -0.068,-0.0387 -1.798,-12.19248 -12.286,-21.41265083 -24.875397,-21.41739817 z m 0,0 c 0.0032,-1.22e-6 0.0065,-1.83e-6 0.0097,-1.83e-6 h -0.0194 c 0.0032,0 0.0064,6.1e-7 0.0097,1.83e-6 z"
     fill="#10101c"
     id="path1" />
  <path
     d="m 89.514593,0.50000183 c -12.5891,0.004747 -23.0964,9.22490817 -24.895,21.39799817 -0.0195,0.0097 -0.0389,0.0194 -0.0584,0.0388 l -49.9553,28.5371 c -4.28858,2.3539 -7.8672402,5.8314 -10.3567402,10.0548 -2.47978,4.2041 -3.77315147,9.0378 -3.74397761,13.978 v 50.5743 c -0.0972462,5.832 1.09887761,18.366 10.02611781,36.984 11.0082,22.958 30.1074,47.63 56.7431,73.358 5.9515,5.744 13.8381,8.912 22.2207,8.912 8.3827,0 16.268897,-3.168 22.210897,-8.912 26.636,-25.709 45.716,-50.352 56.734,-73.251 8.956,-18.638 10.152,-31.221 10.055,-37.081 V 74.4776 c 0,-4.8918 -1.313,-9.6964 -3.783,-13.9004 -2.47,-4.1944 -6.02,-7.6816 -10.279,-10.0646 l -49.975,-28.5565 c 0,0 -0.039,-0.0193 -0.068,-0.0387 -1.798,-12.19248 -12.286,-21.41265083 -24.875397,-21.41739817 z m 0,0 c 0.0032,-1.22e-6 0.0065,-1.83e-6 0.0097,-1.83e-6 h -0.0194 c 0.0032,0 0.0064,6.1e-7 0.0097,1.83e-6 z"
     stroke="#000000"
     id="path2" />
  <path
     fill-rule="evenodd"
     clip-rule="evenodd"
     d="M 171.49299,125.13 V 74.4585 c 0,-3.6422 -0.973,-7.2263 -2.821,-10.3745 -1.847,-3.1482 -4.502,-5.7442 -7.692,-7.5266 l -50.004,-28.5662 c -0.7,4.4269 -3.656,12.4959 -14.635297,23.4225 -1.8282,1.8212 -4.2594,2.8286 -6.8461,2.8286 -2.5868,0 -5.0179,-0.9978 -6.8462,-2.8286 -10.9596,-10.9169 -13.9256,-18.986 -14.6258,-23.4225 l -49.9942,28.5565 c -3.2091,1.7533 -5.8834,4.3494 -7.73109,7.4976 -1.8574002,3.1481 -2.8104102,6.7516 -2.7812402,10.3938 V 125.12 c -0.15559,9.28 3.5981302,46.322 64.6492302,105.266 4.7845,4.621 11.0666,6.936 17.339,6.936 6.2724,0 12.534697,-2.315 17.329697,-6.936 61.06,-58.944 64.824,-95.986 64.659,-105.266 z"
     fill="url(#paint0_linear_3702_26906)"
     id="path3"
     style="fill:url(#paint0_linear_3702_26906)" />
  <path
     opacity="0.4"
     fill-rule="evenodd"
     clip-rule="evenodd"
     d="m 72.175293,230.396 c 4.7845,4.62 11.0666,6.935 17.339,6.935 V 54.2423 c -2.5868,0 -5.0179,-0.9978 -6.8461,-2.8285 -10.9597,-10.917 -13.9257,-18.9861 -14.6259,-23.4226 l -50.0039,28.5759 c -0.3988,0.2228 -0.7975,0.4456 -1.1767,0.6974 -2.6937,1.7146 -4.9401,4.0491 -6.55442,6.8001 -1.8574002,3.1482 -2.8104102,6.7517 -2.7812402,10.3939 V 125.14 c 0,0.29 0,0.61 0,0.949 0.13615,10.665 5.5041602,47.213 64.6492602,104.316 z"
     fill="#563b9a"
     id="path4" />
  <path
     d="m 89.514593,3.99691 c 10.891597,0 19.955397,8.08839 21.442397,18.55979 0.146,1.0365 0.837,1.8792 1.751,2.4023 0,0 0.01,0 0.019,0.0097 l 49.994,28.5565 c 3.725,2.0827 6.827,5.1243 8.986,8.7956 2.159,3.6712 3.297,7.8656 3.297,12.1375 v 50.6427 c 0.097,5.55 -1.06,17.533 -9.715,35.55 -10.824,22.522 -29.67,46.835 -56.004,72.253 -5.281,5.115 -12.301897,7.924 -19.770397,7.924 -7.4685,0 -14.4897,-2.809 -19.7799,-7.924 C 8.1195428,173.418 3.8504428,135.378 4.0254828,125.101 V 74.4776 c -0.0389,-4.3009 1.08916,-8.5146 3.25775,-12.1859 2.16859,-3.6809 5.2901602,-6.7226 9.0438602,-8.7762 l 49.9748,-28.5565 c 0,0 0.0098,0 0.0195,0 0.9141,-0.5134 1.6045,-1.3658 1.7504,-2.4023 1.4879,-10.4714 10.5609,-18.55979 21.4525,-18.55979 m 0,-3.49691 c -12.5934,0 -23.1057,9.22178 -24.9047,21.398 -0.0195,0.0097 -0.0389,0.0194 -0.0584,0.0388 l -49.9553,28.5371 c -4.28858,2.3539 -7.8672402,5.8314 -10.3567402,10.0548 -2.47978,4.2041 -3.77315147,9.0378 -3.74397761,13.978 v 50.5743 c -0.0972462,5.832 1.09887761,18.366 10.02611781,36.984 11.0082,22.958 30.1074,47.63 56.7431,73.358 5.9515,5.744 13.8381,8.912 22.2207,8.912 8.3827,0 16.268897,-3.168 22.210897,-8.912 26.636,-25.709 45.716,-50.352 56.734,-73.251 8.956,-18.638 10.152,-31.221 10.055,-37.081 V 74.4776 c 0,-4.8918 -1.313,-9.6964 -3.783,-13.9004 -2.47,-4.1944 -6.02,-7.6816 -10.279,-10.0646 l -49.975,-28.5565 c 0,0 -0.039,-0.0193 -0.068,-0.0387 C 112.59099,9.72178 102.09799,0.5 89.504893,0.5 Z"
     fill="url(#paint1_linear_3702_26906)"
     id="path5"
     style="fill:url(#paint1_linear_3702_26906)" />
  <path
     d="m 89.505093,44.5944 c -12.3891,-12.341 -11.9807,-18.9957 -11.9807,-18.9957 0,-6.6064 5.3583,-11.9632 11.9807,-11.9632 6.6225,0 11.990897,5.3568 11.990897,11.9632 0,0 0.398,6.6547 -11.990897,18.9957 z"
     fill="#ffffff"
     id="path6" />
  <path
     d="m 107.67099,25.5405 c -0.039,-9.9482 -8.188397,-18.04636 -18.165897,-18.04636 -9.9775,0 -18.117,8.09816 -18.1656,18.03676 -0.0389,2.2376 0.8461,10.5197 13.7992,23.4225 1.167,1.1624 2.7229,1.8017 4.3664,1.8017 1.6435,0 3.1994,-0.6393 4.3664,-1.8017 C 106.81499,36.0506 107.70999,27.7685 107.67099,25.5502 Z M 89.505093,44.5944 c -12.3891,-12.341 -11.9807,-18.9957 -11.9807,-18.9957 0,-6.6064 5.3583,-11.9632 11.9807,-11.9632 6.6225,0 11.990897,5.3568 11.990897,11.9632 0,0 0.398,6.6547 -11.990897,18.9957 z"
     fill="#e94560"
     id="path7" />
  <path
     d="m 89.514893,19.3216 c -1.7407,0 -3.1411,1.3949 -3.1411,3.1385 0,1.7437 1.4004,3.1385 3.1411,3.1385 1.7407,0 3.141,-1.4045 3.141,-3.1385 0,-1.7339 -1.41,-3.1385 -3.141,-3.1385 z"
     fill="#e94560"
     id="path8" />
  <path
     d="m 163.95699,73.1893 c -1.508,-4.5044 -4.668,-8.4469 -8.753,-10.8976 l -3.763,-2.2086 -29.855,-17.4846 c -2.868,-1.6758 -8.042,-4.7174 -12.904,-7.5653 -0.642,1.3465 -1.449,2.8188 -2.451,4.3978 4.979,2.7801 10.658,5.9573 13.012,7.2553 l 30.253,16.855 3.744,2.0923 c 3.384,1.9374 6.029,5.0759 7.342,8.7471 0.982,2.4798 1.031,5.289 1.021,7.9335 l 0.098,8.6309 0.369,34.5139 v 0.019 c 0.058,4.534 -0.71,9.174 -1.906,13.678 -4.289,15.867 -12.914,30.339 -22.435,43.668 -9.151,12.718 -20.421,25.05 -31.527,36.286 11.368,-10.984 22.931,-23.141 32.364,-35.666 9.909,-13.271 18.953,-27.724 23.64,-43.736 1.342,-4.601 2.247,-9.348 2.295,-14.249 l 0.37,-34.5333 0.097,-8.6309 c 0.107,-3.0126 0.01,-6.2092 -1.031,-9.0958 h 0.01 z"
     fill="#ffffff"
     fill-opacity="0.2"
     id="path9" />
  <path
     d="m 57.359993,42.4187 -29.8546,17.4846 -3.7634,2.2085 c -4.1135,2.412 -7.2935,6.3739 -8.7813,10.8782 -1.0503,2.8867 -1.0892,6.093 -1.0017,9.1056 l 0.0973,8.6309 0.3695,34.5135 v 0.039 c 0.7877,19.199 11.1931,36.732 21.7248,52.221 8.1687,11.537 17.7183,22.386 27.5499,32.528 l 10.1427,9.958 -9.9191,-10.161 c -15.9289,-17.233 -31.0118,-36.044 -40.4641,-57.646 -3.6176,-8.476 -6.5836,-17.678 -6.5544,-26.9 v -0.039 h 0.0097 l 0.3696,-34.5135 0.0972,-8.6309 c -0.0194,-2.6445 0.0195,-5.4536 0.9822,-7.9334 1.2934,-3.6713 3.9482,-6.8098 7.3421,-8.7181 l 3.744,-2.0924 c 9.2092,-5.1339 32.4704,-18.0851 43.2648,-24.1102 -1.0017,-1.579 -1.8088,-3.0514 -2.4506,-4.4075 -4.8721,2.8673 -10.0261,5.9186 -12.9046,7.5653 z"
     fill="#10101c"
     fill-opacity="0.2"
     id="path10" />
  <g
     filter="url(#filter0_d_3702_26906)"
     id="g27"
     transform="translate(0.49999283,0.5)">
    <path
       fill-rule="evenodd"
       clip-rule="evenodd"
       d="m 120.942,82.2382 -2.821,0.5103 c -0.15,0.026 -0.224,-0.0354 -0.209,-0.2012 l 0.974,-8.1917 c 0.177,-1.4767 1.052,-2.4246 2.493,-2.6853 l 1.336,-0.2421 c 3.177,-0.5754 4.336,0.9888 4.101,2.9832 -0.147,1.1583 -0.801,2.3334 -2.062,3.1881 l 1.457,3.432 c 0.06,0.1527 -0.013,0.2551 -0.177,0.2849 l -3.118,0.5643 c -0.117,0.0223 -0.222,-0.0186 -0.267,-0.1304 l -1.116,-2.7188 -0.354,2.9553 c -0.015,0.1509 -0.103,0.2272 -0.237,0.2514 z m 1.36,-8.3221 -0.164,0.0298 -0.325,2.6815 0.165,-0.0298 c 0.979,-0.1769 1.545,-0.8156 1.647,-1.6089 0.088,-0.7914 -0.343,-1.2495 -1.323,-1.0726 z"
       fill="#eeeeee"
       id="path11" />
    <path
       d="m 110.621,83.8508 c 0.579,0.1936 1.693,0.1266 2.406,-0.0038 2.94,-0.5307 4.275,-2.3519 4.467,-3.9813 0.177,-1.5214 -0.359,-2.244 -1.784,-2.7914 l -0.446,-0.1732 c -0.536,-0.216 -0.847,-0.3538 -0.802,-0.7337 0.044,-0.3799 0.416,-0.7151 1.024,-0.8268 0.817,-0.1471 1.455,-0.0689 1.827,0.013 0.147,0.0335 0.252,-0.0465 0.267,-0.1974 l 0.279,-2.2998 c 0.015,-0.121 -0.029,-0.2179 -0.149,-0.2421 -0.476,-0.108 -1.278,-0.1415 -2.183,0.0224 -2.599,0.4692 -4.185,2.3519 -4.392,4.0428 -0.133,1.1713 0.106,2.0372 1.532,2.6294 l 0.563,0.2253 c 0.038,0.0154 0.075,0.0304 0.111,0.0451 l 0.004,0.0013 c 0.543,0.2197 0.892,0.3606 0.852,0.7022 -0.045,0.4097 -0.474,0.7561 -1.217,0.8901 -0.95,0.1714 -1.53,0.0838 -1.974,-0.0149 -0.149,-0.0186 -0.252,0.0615 -0.267,0.2123 l -0.265,2.2384 c -0.015,0.1359 0.03,0.203 0.149,0.2421 z"
       fill="#eeeeee"
       id="path12" />
    <path
       d="m 105.184,80.6628 c -1.425,-0.5922 -1.664,-1.4581 -1.532,-2.6294 h 0.002 c 0.207,-1.6909 1.793,-3.5735 4.393,-4.0428 0.905,-0.1639 1.707,-0.1304 2.183,-0.0224 0.119,0.0242 0.164,0.1211 0.149,0.2421 l -0.28,2.2998 c -0.015,0.1509 -0.117,0.2309 -0.267,0.1974 -0.371,-0.0819 -1.009,-0.1601 -1.826,-0.013 -0.609,0.1117 -0.98,0.4469 -1.025,0.8268 -0.045,0.3799 0.267,0.5177 0.803,0.7337 l 0.445,0.1732 c 1.426,0.5474 1.962,1.27 1.784,2.7914 -0.192,1.6294 -1.526,3.4506 -4.467,3.9813 -0.713,0.1304 -1.826,0.1974 -2.405,0.0038 -0.119,-0.0391 -0.164,-0.1062 -0.149,-0.2421 l 0.265,-2.2384 c 0.015,-0.1508 0.117,-0.2309 0.267,-0.2123 0.444,0.0969 1.024,0.1863 1.974,0.0149 0.742,-0.134 1.172,-0.4804 1.216,-0.8901 0.041,-0.3416 -0.308,-0.4825 -0.852,-0.7022 -0.037,-0.0151 -0.075,-0.0305 -0.114,-0.0464 z"
       fill="#eeeeee"
       id="path13" />
    <path
       d="m 102.686,77.8508 c 0.134,-0.0242 0.222,-0.1006 0.237,-0.2514 l 0.28,-2.3445 c 0.015,-0.1658 -0.06,-0.2272 -0.209,-0.2011 l -4.3517,0.7858 c -1.5879,0.2868 -2.3007,1.0559 -2.4929,2.6853 l -0.737,6.0931 c -0.1922,1.6294 0.3732,2.1675 1.961,1.8808 l 4.3796,-0.7915 c 0.134,-0.0242 0.222,-0.1005 0.237,-0.2514 l 0.28,-2.3444 c 0.015,-0.1658 -0.06,-0.2272 -0.209,-0.2012 l -3.3124,0.5997 0.1325,-1.1565 2.8959,-0.5232 c 0.134,-0.0242 0.222,-0.1006 0.237,-0.2514 l 0.28,-2.3445 c 0.015,-0.1658 -0.06,-0.2272 -0.209,-0.2011 l -2.8662,0.5177 0.1176,-1.095 3.3396,-0.6034 z"
       fill="#eeeeee"
       id="path14" />
    <path
       d="m 89.8088,77.4374 c 0.1493,-0.0261 0.2239,0.0354 0.209,0.2011 l -0.7371,6.1676 c -0.1175,1.0651 0.3713,1.5567 0.8472,1.6201 0.5056,-0.2403 1.1438,-0.9386 1.2613,-2.0019 l 0.737,-6.1974 c 0.015,-0.1508 0.1027,-0.2271 0.237,-0.2513 l 2.8213,-0.5103 c 0.1474,-0.0261 0.222,0.0354 0.2071,0.2011 l -0.737,6.1676 c -0.265,2.2831 -1.9406,4.6871 -4.8365,5.2104 -2.8959,0.5233 -4.0696,-1.365 -3.8046,-3.648 l 0.737,-6.1974 c 0.015,-0.1508 0.1027,-0.2272 0.237,-0.2514 z"
       fill="#eeeeee"
       id="path15" />
    <path
       d="m 82.5655,81.3556 c 0.668,-0.1211 1.3808,-0.0708 1.7819,0.0205 0.1493,0.0186 0.2519,-0.0596 0.2669,-0.2123 l 0.2649,-2.298 c 0.0149,-0.1359 -0.0149,-0.2067 -0.1343,-0.2439 -0.4609,-0.1397 -1.336,-0.1155 -2.3623,0.0689 -3.3698,0.6089 -5.5212,3.769 -5.8608,6.5884 -0.3396,2.8193 0.9404,5 4.0285,4.4413 2.9705,-0.5363 4.4521,-2.9069 4.8215,-5.9683 l 0.1027,-0.8975 c 0.0149,-0.1509 -0.0598,-0.2273 -0.209,-0.2012 l -3.7412,0.676 c -0.1344,0.0242 -0.2221,0.1005 -0.237,0.2514 l -0.25,2.1601 c -0.0149,0.1676 0.0597,0.2272 0.209,0.2011 l 0.9199,-0.1657 c -0.1474,0.7132 -0.5486,1.0968 -1.1718,1.2104 -0.7277,0.1322 -1.4107,-0.5642 -1.1905,-2.4078 0.2071,-1.6908 1.1998,-2.9441 2.7597,-3.2253 z"
       fill="#eeeeee"
       id="path16" />
    <path
       fill-rule="evenodd"
       clip-rule="evenodd"
       d="m 75.9581,85.1731 c -0.3377,2.8174 -2.073,5.7541 -4.9689,6.2774 -2.8959,0.5232 -4.0117,-1.8976 -3.6721,-4.7151 0.3377,-2.8175 2.073,-5.7541 4.9689,-6.2774 2.8959,-0.5233 4.0117,1.8976 3.6721,4.7151 z m -3.98,-2.0987 c -0.5206,0.3333 -1.1867,1.378 -1.3938,3.0688 -0.2071,1.6909 0.2538,2.5326 0.7146,2.6872 0.5206,-0.3334 1.1868,-1.378 1.3939,-3.0689 0.2071,-1.6909 -0.2538,-2.5326 -0.7147,-2.6871 z"
       fill="#eeeeee"
       id="path17" />
    <path
       d="m 61.3519,93.0127 4.3793,-0.7914 c 0.1344,-0.0242 0.2221,-0.1005 0.237,-0.2514 l 0.2799,-2.3445 c 0.0149,-0.1657 -0.0597,-0.2272 -0.209,-0.2011 l -3.312,0.5996 0.1325,-1.1564 2.8959,-0.5233 c 0.1343,-0.0242 0.222,-0.1005 0.237,-0.2513 l 0.2798,-2.3445 c 0.015,-0.1658 -0.0597,-0.2272 -0.2089,-0.2012 l -2.8661,0.5177 0.1176,-1.0949 3.34,-0.6034 c 0.1343,-0.0242 0.222,-0.1005 0.2369,-0.2514 l 0.2799,-2.3445 c 0.0149,-0.1657 -0.0597,-0.2272 -0.209,-0.2011 l -4.3513,0.7858 c -1.5879,0.2868 -2.3007,1.0559 -2.4929,2.6853 l -0.737,6.0931 c -0.1922,1.6294 0.3732,2.1676 1.9611,1.8808 z"
       fill="#eeeeee"
       id="path18" />
    <path
       d="m 58.9709,88.5267 c -0.3695,3.0614 -1.851,5.432 -4.8216,5.9683 v -0.0019 c -3.0881,0.5587 -4.3681,-1.6238 -4.0285,-4.4413 0.3396,-2.8194 2.491,-5.9795 5.8609,-6.5884 1.0244,-0.1844 1.9013,-0.2086 2.3622,-0.0689 0.1194,0.0372 0.1493,0.108 0.1344,0.2439 l -0.265,2.298 c -0.0149,0.1508 -0.1176,0.2309 -0.2668,0.2122 -0.4012,-0.0912 -1.114,-0.1415 -1.782,-0.0204 -1.5599,0.2812 -2.5526,1.5344 -2.7597,3.2253 -0.2202,1.8435 0.4628,2.54 1.1905,2.4078 0.6232,-0.1136 1.0244,-0.4991 1.1718,-1.2105 l -0.9199,0.1658 c -0.1493,0.0261 -0.2239,-0.0335 -0.209,-0.2011 l 0.25,-2.1602 c 0.0149,-0.1508 0.1027,-0.2271 0.237,-0.2514 l 3.7412,-0.6759 c 0.1474,-0.0261 0.222,0.0503 0.2071,0.2011 z"
       fill="#eeeeee"
       id="path19" />
    <path
       fill-rule="evenodd"
       clip-rule="evenodd"
       d="m 139.409,89.752 3.954,-0.7169 v -0.0019 c 9.884,-1.7895 13.222,4.9814 12.21,13.2398 -1.009,8.261 -6.105,16.47 -15.987,18.259 l -9.839,1.784 c -0.438,0.078 -0.66,-0.1 -0.616,-0.59 l 2.9,-24.0504 c 0.528,-4.3519 3.122,-7.147 7.382,-7.918 z m 6.503,14.268 v 0.002 c 0.573,-4.7114 -0.526,-7.8045 -3.426,-7.2812 l -0.922,0.1676 -1.933,16.1506 0.922,-0.167 c 2.898,-0.524 4.788,-4.161 5.359,-8.872 z"
       fill="#eeeeee"
       id="path20" />
    <path
       d="m 127.859,114.577 -9.356,1.694 2.678,-22.4296 c 0.044,-0.4897 -0.178,-0.6685 -0.616,-0.5903 l -8.348,1.5121 c -0.396,0.0726 -0.657,0.2942 -0.702,0.7411 l -2.899,24.0507 0.003,-0.004 c -0.571,4.797 1.099,6.385 5.8,5.532 l 12.52,-2.266 c 0.395,-0.073 0.657,-0.294 0.701,-0.741 l 0.835,-6.909 c 0.044,-0.49 -0.178,-0.668 -0.616,-0.59 z"
       fill="#eeeeee"
       id="path21" />
    <path
       fill-rule="evenodd"
       clip-rule="evenodd"
       d="m 96.4518,97.4411 c 9.3982,-1.7001 12.8262,2.9009 12.1252,8.7779 h -0.002 c -0.439,3.416 -2.372,6.881 -6.106,9.403 l 4.305,10.106 c 0.177,0.45 -0.045,0.754 -0.528,0.841 l -9.2251,1.671 c -0.3508,0.063 -0.6605,-0.058 -0.7893,-0.386 h -0.0037 l -3.2934,-8.007 -1.0542,8.704 c -0.0429,0.447 -0.306,0.668 -0.7035,0.741 l -8.3444,1.512 c -0.4385,0.078 -0.6605,-0.1 -0.6157,-0.59 l 2.8996,-24.138 c 0.5281,-4.352 3.118,-7.147 7.3816,-7.9179 z m -2.1999,15.2329 c 2.8996,-0.523 4.5677,-2.408 4.8775,-4.743 v 0.002 c 0.2612,-2.33 -1.0113,-3.68 -3.911,-3.157 l -0.4833,0.088 -0.9665,7.899 z"
       fill="#eeeeee"
       id="path22" />
    <path
       fill-rule="evenodd"
       clip-rule="evenodd"
       d="m 71.9165,101.663 c -2.4089,0.437 -4.5473,1.435 -6.3983,2.828 -1.0281,0.775 -1.9685,1.673 -2.8175,2.663 -0.3396,0.397 -0.6643,0.809 -0.974,1.233 -2.4817,3.395 -4.0192,7.635 -4.5249,11.788 -0.237,1.946 -0.237,3.828 0.0112,5.547 0.0168,0.116 0.0336,0.229 0.0522,0.343 0.3005,1.812 0.8845,3.432 1.7689,4.745 0.1661,0.246 0.3415,0.482 0.5281,0.705 0.3116,0.373 0.6531,0.714 1.0225,1.019 0.0747,0.062 0.1493,0.121 0.2258,0.179 0.153,0.115 0.3116,0.227 0.4739,0.331 0.2445,0.157 0.5001,0.3 0.7651,0.429 0.1772,0.085 0.3601,0.164 0.5467,0.236 0.6549,0.253 1.3696,0.427 2.1477,0.507 0.222,0.022 0.4496,0.039 0.681,0.046 0.8117,0.028 1.6849,-0.037 2.6235,-0.207 8.5664,-1.553 13.7033,-10.206 14.7147,-18.51 1.0113,-8.303 -2.2839,-15.43 -10.8485,-13.88 z m 1.1867,15.631 c -0.0952,0.778 -0.2239,1.51 -0.3807,2.195 -0.0933,0.412 -0.1959,0.805 -0.3078,1.183 -0.1101,0.376 -0.2296,0.736 -0.3546,1.078 -0.125,0.343 -0.2575,0.667 -0.3937,0.974 -0.3657,0.819 -0.7669,1.516 -1.1755,2.084 -0.1026,0.141 -0.2053,0.275 -0.3079,0.402 l -0.0095,0.012 h -3e-4 l -0.0012,0.001 c -0.0483,0.059 -0.0953,0.116 -0.1439,0.17 -0.3601,0.413 -0.7165,0.728 -1.0542,0.942 -0.2556,-0.086 -0.5113,-0.242 -0.7538,-0.471 -0.2016,-0.192 -0.3956,-0.436 -0.571,-0.732 -0.0709,-0.119 -0.1381,-0.246 -0.2034,-0.382 -0.1941,-0.408 -0.3601,-0.894 -0.4851,-1.462 -0.0411,-0.19 -0.0784,-0.387 -0.1101,-0.594 -0.0802,-0.517 -0.1269,-1.093 -0.1362,-1.728 -0.0112,-0.761 0.0354,-1.607 0.1492,-2.542 0.2296,-1.869 0.6512,-3.469 1.17,-4.791 0.0429,-0.11 0.0877,-0.218 0.1325,-0.324 0.0895,-0.212 0.1809,-0.417 0.2742,-0.615 0.0467,-0.098 0.0933,-0.195 0.1419,-0.29 0.1903,-0.378 0.3881,-0.726 0.5896,-1.043 0.1511,-0.236 0.3041,-0.456 0.459,-0.657 0.1026,-0.134 0.2053,-0.261 0.3079,-0.378 0.3601,-0.414 0.7165,-0.728 1.0542,-0.943 0.3415,0.114 0.683,0.354 0.9927,0.728 0.0784,0.094 0.153,0.196 0.2258,0.306 0.0727,0.11 0.1436,0.229 0.2108,0.356 0.3042,0.573 0.5505,1.32 0.6941,2.253 0.012,0.074 0.0221,0.149 0.0323,0.225 l 2e-4,0.002 c 0.0041,0.03 0.0081,0.061 0.0123,0.091 0.0541,0.432 0.0859,0.903 0.0933,1.41 0.0112,0.762 -0.0354,1.607 -0.1511,2.542 z"
       fill="#eeeeee"
       id="path23" />
    <path
       d="m 60.3537,104.897 c 0.1324,-0.464 -0.0448,-0.739 -0.5281,-0.65 l -8.3892,1.518 c -0.3545,0.065 -0.6605,0.296 -0.7482,0.708 l -3.911,14.227 -1.1438,-10.678 c -0.265,-2.497 -1.4946,-3.242 -3.911,-2.803 -2.4163,0.436 -3.9109,1.673 -4.7879,4.334 l -3.7766,11.61 -0.6158,-13.318 c 0,-0.395 -0.3097,-0.603 -0.7034,-0.531 l -8.699,1.576 c -0.4385,0.078 -0.6605,0.381 -0.6157,0.813 l 2.6776,25.76 0.0093,-0.004 c 0.2631,2.762 1.5823,3.926 4.6555,3.371 3.0731,-0.555 4.5677,-2.231 5.6668,-5.238 l 3.9091,-10.715 1.4946,9.737 c 0.3956,2.736 1.5823,3.925 4.6555,3.371 3.0731,-0.555 4.7002,-2.257 5.6668,-5.241 l 9.0926,-27.849 z"
       fill="#eeeeee"
       id="path24" />
    <path
       d="m 73.6424,139.024 c -1.1438,-0.451 -3.1198,-0.445 -5.7993,0.041 -9.7531,1.767 -15.7259,10.396 -16.7354,18.7 l 0.0037,0.005 c -1.0113,8.3 3.118,15.103 12.8712,13.337 2.8548,-0.517 5.0529,-1.354 6.3702,-2.339 0.1735,-0.119 0.2183,-0.303 0.2631,-0.663 l 0.7893,-6.685 c 0.041,-0.536 -0.2221,-0.663 -0.7053,-0.4 -1.1401,0.646 -2.9407,1.454 -4.1274,1.67 -4.3047,0.78 -6.4151,-1.693 -5.7993,-6.676 0.6157,-4.983 3.3829,-8.339 7.6876,-9.117 1.1867,-0.214 2.9444,-0.05 3.9538,0.249 0.4385,0.097 0.7446,-0.091 0.7893,-0.581 l 0.8341,-6.778 c 0.0448,-0.404 -0.0877,-0.6 -0.3937,-0.763 z"
       fill="#eeeeee"
       id="path25" />
    <path
       d="m 93.0594,134.763 8.3446,-1.512 0.002,0.002 c 0.438,-0.078 0.66,0.1 0.615,0.59 l -2.1939,18.173 c -0.7893,6.726 -5.7526,13.816 -14.3191,15.365 -8.5664,1.549 -12.037,-4.009 -11.244,-10.737 l -0.0038,0.005 2.1944,-18.262 c 0.0429,-0.447 0.306,-0.669 0.7034,-0.741 l 8.3444,-1.512 c 0.4385,-0.079 0.6606,0.1 0.6158,0.59 l -2.1943,18.173 c -0.3508,3.138 1.099,4.587 2.504,4.769 1.4946,-0.711 3.3829,-2.762 3.7337,-5.899 l 2.1944,-18.263 c 0.0429,-0.447 0.306,-0.668 0.7034,-0.741 z"
       fill="#eeeeee"
       id="path26" />
    <path
       fill-rule="evenodd"
       clip-rule="evenodd"
       d="m 114.275,130.746 -3.516,0.637 h 0.004 c -4.26,0.771 -6.853,3.566 -7.381,7.918 l -2.9,24.138 c -0.045,0.49 0.177,0.668 0.616,0.59 l 8.344,-1.512 c 0.398,-0.073 0.661,-0.294 0.705,-0.741 l 0.704,-5.833 0.438,-0.078 c 9.882,-1.789 14.803,-8.516 15.594,-15.111 0.789,-6.596 -2.726,-11.797 -12.608,-10.008 z m 2.941,11.76 c -0.351,2.871 -2.107,5.3 -5.007,5.823 l -0.483,0.088 1.23,-10.056 0.483,-0.09 c 2.9,-0.523 4.127,1.36 3.778,4.233 z"
       fill="#eeeeee"
       id="path27" />
  </g>
  <defs
     id="defs35">
    <filter
       id="filter0_d_3702_26906"
       x="22.518299"
       y="71.307602"
       width="133.228"
       height="102.081"
       filterUnits="userSpaceOnUse"
       color-interpolation-filters="sRGB">
      <feFlood
         flood-opacity="0"
         result="BackgroundImageFix"
         id="feFlood30" />
      <feColorMatrix
         in="SourceAlpha"
         type="matrix"
         values="0 0 0 0 0 0 0 0 0 0 0 0 0 0 0 0 0 0 127 0"
         result="hardAlpha"
         id="feColorMatrix30" />
      <feOffset
         dy="2"
         id="feOffset30" />
      <feComposite
         in2="hardAlpha"
         operator="out"
         id="feComposite30" />
      <feColorMatrix
         type="matrix"
         values="0 0 0 0 0.095138 0 0 0 0 0.0372353 0 0 0 0 0.240967 0 0 0 0.5 0"
         id="feColorMatrix31" />
      <feBlend
         mode="normal"
         in2="BackgroundImageFix"
         result="effect1_dropShadow_3702_26906"
         id="feBlend31" />
      <feBlend
         mode="normal"
         in="SourceGraphic"
         in2="effect1_dropShadow_3702_26906"
         result="shape"
         id="feBlend32" />
    </filter>
    <linearGradient
       id="paint0_linear_3702_26906"
       x1="89.014"
       y1="27.7528"
       x2="89.014"
       y2="236.47301"
       gradientUnits="userSpaceOnUse">
      <stop
         stop-color="#7950E5"
         id="stop32" />
      <stop
         offset="1"
         stop-color="#10101C"
         id="stop33" />
    </linearGradient>
    <linearGradient
       id="paint1_linear_3702_26906"
       x1="89.014603"
       y1="0.290602"
       x2="89.014603"
       y2="243.408"
       gradientUnits="userSpaceOnUse">
      <stop
         stop-color="#AA89FF"
         id="stop34" />
      <stop
         offset="1"
         stop-color="#563B9A"
         id="stop35" />
    </linearGradient>
  </defs>
</svg>
