<?xml version="1.0" encoding="UTF-8" standalone="no"?>
<svg
   width="105.886"
   height="84.592552"
   viewBox="0 0 105.886 84.592552"
   fill="none"
   version="1.1"
   id="svg169"
   sodipodi:docname="NCSA Major 2024.svg"
   inkscape:version="1.3.2 (091e20e, 2023-11-25, custom)"
   xmlns:inkscape="http://www.inkscape.org/namespaces/inkscape"
   xmlns:sodipodi="http://sodipodi.sourceforge.net/DTD/sodipodi-0.dtd"
   xmlns="http://www.w3.org/2000/svg"
   xmlns:svg="http://www.w3.org/2000/svg">
  <sodipodi:namedview
     id="namedview169"
     pagecolor="#505050"
     bordercolor="#eeeeee"
     borderopacity="1"
     inkscape:showpageshadow="0"
     inkscape:pageopacity="0"
     inkscape:pagecheckerboard="0"
     inkscape:deskcolor="#505050"
     inkscape:zoom="13.566667"
     inkscape:cx="52.997543"
     inkscape:cy="42.199017"
     inkscape:window-width="2560"
     inkscape:window-height="1417"
     inkscape:window-x="-8"
     inkscape:window-y="-8"
     inkscape:window-maximized="1"
     inkscape:current-layer="svg169" />
  <path
     d="m 52.6876,83.67335 c -1.55,0 -3.0823,-0.413 -4.4324,-1.199 l -26.697,-15.3118 c -1.3412,-0.755 -2.4649,-1.8607 -3.251,-3.1929 -0.7817,-1.3323 -1.1947,-2.8555 -1.1947,-4.4053 v -47.9561 c 0,-1.2612 0.4885,-2.4513 1.3857,-3.3439 0.9637,-0.9637 2.154,-1.19458 2.9401,-1.34557 L 51.7327,1.04362 C 52.1902,0.9548 52.6565,0.9104 53.1184,0.9104 c 0.4619,0 0.9549,0.04884 1.4212,0.1421 0,0 21.092,4.19655 29.4506,5.86628 2.6204,0.52397 4.317,2.36697 4.317,4.68947 v 47.9694 c 0.0133,1.5498 -0.3909,3.073 -1.1726,4.4053 -0.7861,1.3366 -1.9231,2.4424 -3.291,3.1929 L 57.16,82.47885 c -1.3457,0.7815 -2.8957,1.1945 -4.4813,1.1945 z"
     fill="#ffffff"
     id="path1" />
  <path
     d="m 53.1273,1.82072 c 0.4175,0 0.835,0.03997 1.2436,0.12434 0,0 21.0874,4.19655 29.446,5.86629 2.1763,0.4352 3.5842,1.9273 3.5842,3.7969 v 47.9694 c 0.0133,1.3944 -0.3509,2.7577 -1.0481,3.9434 -0.7018,1.1946 -1.71,2.1804 -2.9447,2.8554 l -26.6969,15.3119 c -1.208,0.7016 -2.6026,1.0746 -4.0283,1.0746 -1.3901,0 -2.7669,-0.373 -3.9705,-1.0746 L 22.0112,66.37205 c -1.208,-0.6795 -2.2162,-1.6698 -2.9179,-2.8643 -0.6973,-1.1902 -1.0659,-2.5579 -1.0659,-3.9434 v -47.9561 c 0,-1.0214 0.3952,-1.9806 1.1192,-2.7 0.7683,-0.7683 1.7499,-0.9592 2.4694,-1.0969 L 51.9104,1.94062 c 0.3997,-0.07549 0.8083,-0.11546 1.2124,-0.11546 m 0,-1.82072 c -0.524,0 -1.0481,0.04884 -1.5589,0.15098 L 21.2695,6.02615 c -0.8438,0.16431 -2.2517,0.43519 -3.4109,1.5987 -1.0659,1.0658 -1.6522,2.4824 -1.6522,3.9922 v 47.9517 c 0,1.7141 0.4575,3.3972 1.3191,4.8671 0.8616,1.4743 2.1052,2.6956 3.5975,3.5304 l 26.688,15.3074 c 1.4745,0.8615 3.1667,1.3189 4.8766,1.3189 1.7454,0 3.4554,-0.4574 4.9432,-1.3189 l 26.6747,-15.2985 c 1.5056,-0.8304 2.7581,-2.0472 3.6197,-3.5215 0.866,-1.4699 1.3146,-3.1574 1.2969,-4.8805 v -47.9649 c 0,-2.7356 -2.0297,-4.97816 -5.0454,-5.5821 C 75.9114,4.37417 54.9393,0.19983 54.7262,0.15986 54.2021,0.05328 53.6602,0 53.1273,0 Z"
     fill="#000000"
     id="path2" />
  <path
     fill-rule="evenodd"
     clip-rule="evenodd"
     d="m 52.6876,80.94665 c -1.0704,0 -2.1274,-0.2886 -3.0645,-0.8348 L 22.9084,64.79105 c -0.9327,-0.524 -1.7055,-1.2833 -2.2429,-2.2026 -0.5329,-0.9148 -0.8172,-1.9584 -0.8172,-3.0242 v -47.956 c 0,-0.5329 0.2088,-1.0348 0.5863,-1.4122 0.3464,-0.3464 0.8305,-0.4619 1.5323,-0.5951 L 52.2612,3.73024 c 0.2843,-0.05329 0.5774,-0.08437 0.8661,-0.08437 0.2887,0 0.5951,0.03108 0.8883,0.08881 0,0 21.0875,4.19657 29.4461,5.86627 0.4974,0.0977 2.1229,0.5374 2.1229,2.0161 v 47.9828 c 0.0089,1.0658 -0.2665,2.1049 -0.7994,3.0108 -0.5374,0.9148 -1.3058,1.6653 -2.2296,2.1716 l -26.7502,15.3429 c -0.9371,0.5418 -2.0119,0.8304 -3.1178,0.8304 z"
     fill="url(#paint0_linear_265_8159)"
     id="path3"
     style="fill:url(#paint0_linear_265_8159)" />
  <path
     d="m 53.1274,4.24541 c 0.2576,0 0.5196,0.02665 0.7728,0.07549 0.2087,0.03997 21.1852,4.21435 29.4461,5.86625 0.3819,0.0755 1.6344,0.4041 1.6344,1.4211 v 47.9916 c 0.0088,0.9548 -0.2399,1.8829 -0.7151,2.6956 -0.4797,0.8171 -1.1725,1.4921 -1.9986,1.945 l -0.0577,0.0311 -26.7058,15.3207 c -0.8394,0.4885 -1.8121,0.7461 -2.8069,0.7461 -0.9638,0 -1.9143,-0.2576 -2.767,-0.755 L 23.2105,64.25825 c -0.8305,-0.4663 -1.5278,-1.1502 -2.0119,-1.9762 -0.4797,-0.8215 -0.7328,-1.7585 -0.7328,-2.7177 v -47.9606 c 0,-0.373 0.1421,-0.7194 0.4086,-0.9858 0.222,-0.2265 0.6262,-0.3153 1.2169,-0.4308 L 52.3857,4.31646 c 0.2487,-0.04884 0.4974,-0.07105 0.7506,-0.07105 m 0,-1.21233 c -0.3287,0 -0.6574,0.03108 -0.9816,0.09325 0,0 -20.9098,4.05444 -30.2944,5.87072 -0.6839,0.1332 -1.3501,0.2709 -1.8431,0.7638 -0.493,0.4929 -0.7639,1.1457 -0.7639,1.8429 v 47.9561 c 0,1.1724 0.3109,2.327 0.9016,3.3306 0.5907,1.0081 1.4434,1.8474 2.4649,2.4203 L 49.33,80.63145 c 1.0349,0.5995 2.194,0.9148 3.371,0.9148 1.2214,0 2.3939,-0.3153 3.4198,-0.9104 l 26.7014,-15.3163 c 0,0 0.0266,-0.0133 0.0399,-0.0222 1.0171,-0.5595 1.8699,-1.3899 2.4606,-2.3936 0.5862,-0.9991 0.8927,-2.1449 0.8838,-3.3172 v -47.9783 c 0,-1.4388 -1.1992,-2.327 -2.6071,-2.6112 C 75.2408,7.32285 54.1533,3.13077 54.1533,3.13077 53.8202,3.06416 53.4827,3.03308 53.1451,3.03308 Z"
     fill="#1f9c7d"
     id="path4" />
  <path
     fill-rule="evenodd"
     clip-rule="evenodd"
     d="m 22.6909,65.31525 26.7102,15.3207 c 1.0348,0.5995 2.194,0.9148 3.3709,0.9148 0.0089,0 0.0178,0 0.0267,0 V 3.0509 c -0.191,0.01332 -0.382,0.03997 -0.5729,0.07549 0,0 -20.9099,4.05444 -30.2944,5.87076 -0.684,0.1332 -1.3502,0.2709 -1.8432,0.7638 -0.493,0.4929 -0.7639,1.1457 -0.7639,1.8429 v 47.9561 c 0,1.1724 0.3109,2.327 0.9016,3.3306 0.5907,1.008 1.4434,1.8474 2.465,2.4202 z"
     fill="#10101c"
     fill-opacity="0.2"
     id="path5" />
  <path
     d="m 102.968,12.85165 c -0.071,-0.0133 -0.142,-0.0266 -0.213,-0.0355 -1.328,-0.1821 -3.8019,0.0089 -5.4275,0.2931 -3.4997,0.6173 -5.6005,2.0294 -6.8529,3.6059 -0.151,-0.1554 -0.2976,-0.2975 -0.4442,-0.4174 -1.9186,-1.5454 -4.4413,-1.1013 -5.3918,-0.9326 -0.9371,0.1643 -3.2821,0.5862 -5.0897,2.5135 -0.4397,-0.3375 -0.9993,-0.6039 -1.71,-0.7372 -1.0392,-0.1954 -2.4693,-0.1643 -3.9217,0.0933 -2.2739,0.3997 -4.1526,1.2212 -5.6627,2.4602 -0.795,-0.6617 -1.8387,-0.937 -2.9046,-0.7461 l -3.2644,0.5773 c -1.1992,0.2132 -2.2029,0.9814 -2.7403,2.0428 -1.6167,-0.8793 -3.7041,-1.1102 -6.2445,-0.6617 -1.9453,0.342 -3.6686,0.7994 -4.6634,1.1235 -0.4397,0.1466 -0.9327,0.3509 -1.4124,0.6573 -0.4441,-0.1555 -0.9238,-0.2221 -1.4212,-0.1954 -0.8572,0.0355 -2.2251,0.1243 -4.277,0.4885 -1.2614,0.222 -3.4865,0.6172 -5.3829,2.1982 -0.8039,-0.5285 -1.7899,-0.7328 -2.767,-0.5596 l -2.3495,0.413 c -0.9504,0.1688 -2.2917,0.6928 -3.2777,2.2293 l -0.7239,1.1057 c -0.0266,-0.0177 -0.0533,-0.0444 -0.08,-0.0621 -0.8749,-1.4122 -2.456,-2.1183 -4.1837,-1.8163 l -2.0741,0.3641 c -1.359,0.2398 -2.536,1.1768 -3.1445,2.4158 -0.0488,-0.0444 -0.1021,-0.0932 -0.151,-0.1332 -1.9186,-1.5454 -4.4413,-1.1013 -5.3918,-0.9326 -1.2791,0.2265 -5.16524,0.9104 -6.74191,5.2491 l -4.818861,13.2291 c -0.017765,0.0488 -0.035528,0.1065 -0.053293,0.1554 C 0.133239,47.01465 0,47.43215 0,47.96495 c 0,1.0392 0.448571,2.0162 1.23025,2.6734 0.62623,0.5285 1.42123,0.8082 2.24732,0.8082 0.20874,0 0.42193,-0.0177 0.63067,-0.0533 l 0.26648,-0.0488 c 0.39528,0.1599 0.82165,0.2487 1.2569,0.2487 0.19986,0 0.40416,-0.0178 0.60402,-0.0533 l 0.31534,-0.0577 c 0.39084,0.1643 0.80832,0.2575 1.23913,0.2575 0.19098,0 0.38196,-0.0177 0.57737,-0.0488 l 0.36419,-0.0666 c 0.38196,0.1643 0.795,0.262 1.22137,0.262 0.18206,0 0.36416,-0.0178 0.54626,-0.0489 l 0.4131,-0.071 c 0.373,0.1687 0.7772,0.2664 1.1991,0.2664 0.1732,0 0.3465,-0.0133 0.5197,-0.0444 l 0.4619,-0.0799 c 0.3642,0.1732 0.7639,0.2753 1.1769,0.2753 0.1644,0 0.3287,-0.0133 0.493,-0.0444 l 0.5108,-0.0888 c 0.3553,0.1776 0.7506,0.2797 1.1592,0.2797 0.1554,0 0.3109,-0.0133 0.4619,-0.0399 l 0.5596,-0.0977 c 0.3464,0.1865 0.7372,0.2886 1.1414,0.2886 0.1421,0 0.2887,-0.0133 0.4352,-0.0355 l 0.6085,-0.1066 c 0.3375,0.191 0.7195,0.2931 1.1192,0.2931 0.1333,0 0.2709,-0.0133 0.4086,-0.0355 l 0.6662,-0.1199 c 0.3242,0.1954 0.6973,0.302 1.0837,0.302 0.1244,0 0.2532,-0.0089 0.3775,-0.0311 l 2.1141,-0.373 c 0.5152,-0.0889 0.9771,-0.3642 1.3235,-0.7727 0.0755,-0.0045 0.1466,-0.0134 0.2221,-0.0267 l 0.2754,-0.0488 c 0.4352,0.262 0.9504,0.3597 1.4567,0.2708 l 2.0342,-0.3597 c 0.2087,-0.0355 0.4041,-0.111 0.5906,-0.2042 0.0844,0.0089 0.1688,0.0177 0.2577,0.0177 0.1288,0 0.2709,-0.0133 0.413,-0.0399 l 1.9719,-0.3464 c 0.7329,-0.1288 1.3413,-0.6484 1.6389,-1.35 0.3153,0.1865 0.6706,0.2886 1.0348,0.302 0.4353,0.293 0.9727,0.4041 1.4968,0.3108 l 1.963,-0.3464 c 0.7551,-0.1332 1.2436,-0.5506 1.5279,-1.0302 0.4841,0.2442 1.1192,0.4263 1.9497,0.4263 0.3509,0 0.7328,-0.0311 1.1548,-0.1066 1.1902,-0.2087 1.9764,-0.4308 2.5893,-0.6173 0.0177,-0.0044 0.031,-0.0088 0.0488,-0.0177 0.1954,-0.0666 0.3775,-0.1555 0.5419,-0.2576 0.1865,0.0533 0.3775,0.0888 0.5773,0.0888 0.1244,0 0.2532,-0.0089 0.382,-0.0355 l 1.9409,-0.3419 c 0.5151,-0.0933 0.9815,-0.3686 1.3235,-0.7594 0.453,0.2753 0.9815,0.3508 1.4478,0.2709 l 2.1008,-0.3686 c 0.2709,-0.0489 0.5241,-0.1421 0.7506,-0.2753 0.1288,0.0222 0.262,0.0399 0.3953,0.0399 0.1243,0 0.2487,-0.0089 0.3775,-0.0311 l 1.9631,-0.3463 c 0.6662,-0.1155 1.2124,-0.5063 1.5544,-1.0525 0.0889,-0.0622 0.1688,-0.1377 0.2487,-0.2087 0.6574,0.373 1.4302,0.5639 2.274,0.5639 0.342,0 0.6973,-0.031 1.0615,-0.0932 0.7328,-0.1288 1.4434,-0.3419 1.9808,-0.5817 0.1111,0.0177 0.2265,0.031 0.342,0.031 0.1244,0 0.2532,-0.0088 0.3775,-0.031 l 2.1097,-0.3731 c 0.5063,-0.0888 0.9682,-0.3597 1.3146,-0.7638 0.151,-0.0311 0.2931,-0.071 0.4352,-0.1288 0.4486,0.2931 0.9949,0.4086 1.5323,0.3109 l 2.0341,-0.3597 c 0.3465,-0.0622 0.6574,-0.2087 0.9283,-0.4086 0.2798,0.0267 0.564,0.0444 0.8572,0.0444 0.5995,0 1.2258,-0.0577 1.8964,-0.1776 1.0882,-0.191 2.0475,-0.564 2.8558,-1.0747 0.7684,-0.2176 1.4701,-0.5195 2.083,-0.9015 0.7595,-0.222 1.4568,-0.524 2.0741,-0.897 0.7506,-0.2265 1.4434,-0.524 2.0608,-0.8926 0.7506,-0.2309 1.439,-0.5284 2.0608,-0.8926 0.7461,-0.2309 1.4345,-0.5329 2.0607,-0.8926 0.7417,-0.2353 1.4302,-0.5373 2.0608,-0.8926 0.7417,-0.2398 1.4257,-0.5418 2.0608,-0.8926 0.7417,-0.2398 1.4257,-0.5462 2.0652,-0.897 4.4276,-1.461 7.1866,-4.8982 7.1866,-9.1747 0,-1.3988 -0.351,-2.6334 -1.018,-3.6503 0.902,-0.564 1.555,-1.5055 1.746,-2.6201 l 0.44,-2.6067 c 0.031,-0.1777 0.044,-0.3597 0.044,-0.5418 v -0.0622 c 0,-1.4299 -0.902,-3.0552 -2.909,-3.4682 z"
     fill="#000000"
     id="path6" />
  <mask
     id="mask0_265_8159"
     maskUnits="userSpaceOnUse"
     x="11"
     y="37"
     width="2"
     height="2">
    <path
       d="m 12.0227,37.5122 v 0.7594 c 0,-0.1599 0,-0.2576 -0.1199,-0.2576 -0.0178,0 -0.0355,0 -0.0577,0.0045 -0.1777,0.031 -0.1999,0.1376 -0.2576,0.3286 v -0.7594 c 0.0577,-0.191 0.0799,-0.2931 0.2576,-0.3286 0.0222,0 0.0399,-0.0045 0.0577,-0.0045 0.1199,0 0.1199,0.0977 0.1199,0.2576 z"
       fill="#ffffff"
       id="path7" />
  </mask>
  <g
     mask="url(#mask0_265_8159)"
     id="g8"
     transform="translate(0,-2.77625)">
    <path
       d="m 12.0227,37.5122 v 0.7594 c 0,-0.1599 0,-0.2576 -0.1199,-0.2576 -0.0178,0 -0.0355,0 -0.0577,0.0045 -0.1777,0.031 -0.1999,0.1376 -0.2576,0.3286 v -0.7594 c 0.0577,-0.191 0.0799,-0.2931 0.2576,-0.3286 0.0222,0 0.0399,-0.0045 0.0577,-0.0045 0.1199,0 0.1199,0.0977 0.1199,0.2576 z"
       fill="#bababa"
       id="path8" />
  </g>
  <path
     d="m 12.1027,39.84285 v 0.7594 l -0.08,-5.1069 v -0.7594 z"
     fill="#b3b3b3"
     id="path9" />
  <path
     d="m 11.583,34.81135 v 0.7594 l -1.86977,5.4533 v -0.7549 z"
     fill="#b3b3b3"
     id="path10" />
  <path
     d="m 12.1204,43.07125 v 0.755 l -3.54417,0.6261 v -0.7549 z"
     fill="#b3b3b3"
     id="path11" />
  <mask
     id="mask1_265_8159"
     maskUnits="userSpaceOnUse"
     x="15"
     y="47"
     width="2"
     height="3">
    <path
       d="m 16.2864,47.8813 v 0.7594 c 0,0.2443 -0.1599,0.4485 -0.382,0.4885 v -0.7594 c 0.2221,-0.0399 0.382,-0.2486 0.382,-0.4885 z"
       fill="#ffffff"
       id="path12" />
  </mask>
  <g
     mask="url(#mask1_265_8159)"
     id="g13"
     transform="translate(0,-2.77625)">
    <path
       d="m 16.2864,47.8813 v 0.7594 c 0,0.2443 -0.1599,0.4485 -0.382,0.4885 v -0.7594 c 0.2221,-0.0399 0.382,-0.2486 0.382,-0.4885 z"
       fill="#bababa"
       id="path13" />
  </g>
  <path
     d="m 12.1826,45.86455 v 0.7594 l -0.0622,-2.7977 v -0.755 z"
     fill="#b3b3b3"
     id="path14" />
  <path
     d="m 15.9089,45.59365 v 0.7593 l -3.3888,0.5951 v -0.7594 z"
     fill="#b3b3b3"
     id="path15" />
  <mask
     id="mask2_265_8159"
     maskUnits="userSpaceOnUse"
     x="12"
     y="48"
     width="1"
     height="2">
    <path
       d="m 12.5201,48.9649 v 0.7594 c 0,0 -0.0399,0.0044 -0.0577,0.0044 -0.1688,0 -0.2842,-0.1465 -0.2842,-0.3286 v -0.7594 c 0,0.1821 0.1154,0.3287 0.2842,0.3287 0.0178,0 0.0355,0 0.0577,-0.0045 z"
       fill="#ffffff"
       id="path16" />
  </mask>
  <g
     mask="url(#mask2_265_8159)"
     id="g17"
     transform="translate(0,-2.77625)">
    <path
       d="m 12.5201,48.9649 v 0.7594 c 0,0 -0.0399,0.0044 -0.0577,0.0044 -0.1688,0 -0.2842,-0.1465 -0.2842,-0.3286 v -0.7594 c 0,0.1821 0.1154,0.3287 0.2842,0.3287 0.0178,0 0.0355,0 0.0577,-0.0045 z"
       fill="#bababa"
       id="path17" />
  </g>
  <path
     d="m 8.57625,43.69735 v 0.755 l -1.0526,2.9931 v -0.7594 z"
     fill="#b3b3b3"
     id="path18" />
  <mask
     id="mask3_265_8159"
     maskUnits="userSpaceOnUse"
     x="7"
     y="49"
     width="1"
     height="2">
    <path
       d="m 7.52365,49.4623 v 0.7594 c -0.07994,0.2131 -0.2576,0.4263 -0.45746,0.4618 v -0.7594 c 0.19986,-0.0355 0.38196,-0.2487 0.45746,-0.4618 z"
       fill="#ffffff"
       id="path19" />
  </mask>
  <g
     mask="url(#mask3_265_8159)"
     id="g20"
     transform="translate(0,-2.77625)">
    <path
       d="m 7.52365,49.4623 v 0.7594 c -0.07994,0.2131 -0.2576,0.4263 -0.45746,0.4618 v -0.7594 c 0.19986,-0.0355 0.38196,-0.2487 0.45746,-0.4618 z"
       fill="#bababa"
       id="path20" />
  </g>
  <path
     d="m 7.06173,47.14795 v 0.7594 l -3.52642,0.6217 v -0.7594 z"
     fill="#b3b3b3"
     id="path21" />
  <mask
     id="mask4_265_8159"
     maskUnits="userSpaceOnUse"
     x="3"
     y="50"
     width="1"
     height="2">
    <path
       d="m 3.53532,50.5459 v 0.7594 c -0.02664,0.0044 -0.04885,0.0089 -0.07106,0.0089 -0.13324,0 -0.20874,-0.08 -0.20874,-0.2221 v -0.7593 c 0,0.1421 0.0755,0.222 0.20874,0.222 0.02221,0 0.04442,0 0.07106,-0.0089 z"
       fill="#ffffff"
       id="path22" />
  </mask>
  <g
     mask="url(#mask4_265_8159)"
     id="g23"
     transform="translate(0,-2.77625)">
    <path
       d="m 3.53532,50.5459 v 0.7594 c -0.02664,0.0044 -0.04885,0.0089 -0.07106,0.0089 -0.13324,0 -0.20874,-0.08 -0.20874,-0.2221 v -0.7593 c 0,0.1421 0.0755,0.222 0.20874,0.222 0.02221,0 0.04442,0 0.07106,-0.0089 z"
       fill="#bababa"
       id="path23" />
  </g>
  <path
     d="m 15.7668,32.84855 0.5196,12.2566 c 0,0.2443 -0.1599,0.4485 -0.3819,0.4885 l -3.3843,0.5951 c 0,0 -0.04,0.0044 -0.0578,0.0044 -0.1688,0 -0.2842,-0.1465 -0.2842,-0.3286 l -0.0578,-2.7933 -3.54415,0.6262 -1.05704,2.9886 c -0.07995,0.2132 -0.2576,0.4263 -0.45746,0.4619 l -3.52643,0.6217 c -0.02664,0.0044 -0.04885,0.0089 -0.07106,0.0089 -0.13324,0 -0.20874,-0.08 -0.20874,-0.2221 0,-0.0399 0.02221,-0.1021 0.03997,-0.1687 l 4.81886,-13.1981 c 0.77723,-2.1315 2.34945,-2.8154 4.24595,-3.144 0.4796,-0.0844 0.9326,-0.1377 1.3413,-0.1377 1.1947,0 2.0074,0.4618 2.0652,1.9406 z m -6.05801,7.4206 2.38941,-0.4219 -0.0799,-5.1069 c 0,-0.1599 0,-0.2576 -0.1199,-0.2576 -0.0178,0 -0.0356,0 -0.0578,0.0045 -0.1776,0.0311 -0.1998,0.1376 -0.2576,0.3286 l -1.86977,5.4533"
     fill="#ffffff"
     id="path24" />
  <mask
     id="mask5_265_8159"
     maskUnits="userSpaceOnUse"
     x="34"
     y="30"
     width="1"
     height="2">
    <path
       d="m 34.3538,30.74 v 0.7594 c 0,0.0577 -0.0177,0.1021 -0.0177,0.1421 v -0.7594 c 0,-0.04 0.0177,-0.0844 0.0177,-0.1421 z"
       fill="#ffffff"
       id="path25" />
  </mask>
  <g
     mask="url(#mask5_265_8159)"
     id="g26"
     transform="translate(0,-2.77625)">
    <path
       d="m 34.3538,30.74 v 0.7594 c 0,0.0577 -0.0177,0.1021 -0.0177,0.1421 v -0.7594 c 0,-0.04 0.0177,-0.0844 0.0177,-0.1421 z"
       fill="#bababa"
       id="path26" />
  </g>
  <path
     d="m 29.2995,35.22885 v 0.755 l -0.0666,0.0533 v -0.7594 z"
     fill="#b3b3b3"
     id="path27" />
  <mask
     id="mask6_265_8159"
     maskUnits="userSpaceOnUse"
     x="29"
     y="38"
     width="1"
     height="1">
    <path
       d="M 29.335,38.0806 V 38.84 c 0,-0.0533 -0.0177,-0.0755 -0.0355,-0.0755 v -0.7594 c 0,0 0.0355,0.0222 0.0355,0.0755 z"
       fill="#ffffff"
       id="path28" />
  </mask>
  <g
     mask="url(#mask6_265_8159)"
     id="g29"
     transform="translate(0,-2.77625)">
    <path
       d="M 29.335,38.0806 V 38.84 c 0,-0.0533 -0.0177,-0.0755 -0.0355,-0.0755 v -0.7594 c 0,0 0.0355,0.0222 0.0355,0.0755 z"
       fill="#bababa"
       id="path29" />
  </g>
  <mask
     id="mask7_265_8159"
     maskUnits="userSpaceOnUse"
     x="28"
     y="38"
     width="2"
     height="2">
    <path
       d="m 29.2329,38.054 v 0.7593 c -0.0578,0.0134 -0.1954,0.2132 -0.2576,0.3064 v -0.7593 c 0.0577,-0.0933 0.1998,-0.2931 0.2576,-0.3064 z"
       fill="#ffffff"
       id="path30" />
  </mask>
  <g
     mask="url(#mask7_265_8159)"
     id="g31"
     transform="translate(0,-2.77625)">
    <path
       d="m 29.2329,38.054 v 0.7593 c -0.0578,0.0134 -0.1954,0.2132 -0.2576,0.3064 v -0.7593 c 0.0577,-0.0933 0.1998,-0.2931 0.2576,-0.3064 z"
       fill="#bababa"
       id="path31" />
  </g>
  <path
     d="m 23.1438,36.35235 v 0.7593 l -0.0844,-0.031 v -0.755 z"
     fill="#b3b3b3"
     id="path32" />
  <mask
     id="mask8_265_8159"
     maskUnits="userSpaceOnUse"
     x="23"
     y="39"
     width="1"
     height="2">
    <path
       d="m 23.2371,39.2929 v 0.7593 c -0.04,-0.071 -0.0578,-0.1643 -0.0933,-0.1643 v -0.7594 c 0.0355,0 0.0577,0.0933 0.0933,0.1644 z"
       fill="#ffffff"
       id="path33" />
  </mask>
  <g
     mask="url(#mask8_265_8159)"
     id="g34"
     transform="translate(0,-2.77625)">
    <path
       d="m 23.2371,39.2929 v 0.7593 c -0.04,-0.071 -0.0578,-0.1643 -0.0933,-0.1643 v -0.7594 c 0.0355,0 0.0577,0.0933 0.0933,0.1644 z"
       fill="#bababa"
       id="path34" />
  </g>
  <mask
     id="mask9_265_8159"
     maskUnits="userSpaceOnUse"
     x="22"
     y="39"
     width="2"
     height="2">
    <path
       d="m 23.0594,39.1019 v 0.7594 c -0.04,0.0089 -0.0977,0.0799 -0.1199,0.222 V 39.324 c 0.0222,-0.1421 0.0799,-0.2132 0.1199,-0.2221 z"
       fill="#ffffff"
       id="path35" />
  </mask>
  <g
     mask="url(#mask9_265_8159)"
     id="g36"
     transform="translate(0,-2.77625)">
    <path
       d="m 23.0594,39.1019 v 0.7594 c -0.04,0.0089 -0.0977,0.0799 -0.1199,0.222 V 39.324 c 0.0222,-0.1421 0.0799,-0.2132 0.1199,-0.2221 z"
       fill="#bababa"
       id="path36" />
  </g>
  <path
     d="m 28.9797,35.58845 v 0.755 l -2.0563,3.0464 v -0.7594 z"
     fill="#b3b3b3"
     id="path37" />
  <path
     d="m 24.3918,39.07445 v 0.7594 l -1.1547,-2.5623 v -0.755 z"
     fill="#b3b3b3"
     id="path38" />
  <mask
     id="mask10_265_8159"
     maskUnits="userSpaceOnUse"
     x="26"
     y="41"
     width="1"
     height="2">
    <path
       d="m 26.9234,41.4067 v 0.7594 c -0.1999,0.2931 -0.3953,0.453 -0.6351,0.4929 v -0.7593 c 0.2398,-0.04 0.4352,-0.1999 0.6351,-0.493 z"
       fill="#ffffff"
       id="path39" />
  </mask>
  <g
     mask="url(#mask10_265_8159)"
     id="g40"
     transform="translate(0,-2.77625)">
    <path
       d="m 26.9234,41.4067 v 0.7594 c -0.1999,0.2931 -0.3953,0.453 -0.6351,0.4929 v -0.7593 c 0.2398,-0.04 0.4352,-0.1999 0.6351,-0.493 z"
       fill="#bababa"
       id="path40" />
  </g>
  <path
     d="m 26.2883,39.12785 v 0.7593 l -1.3769,0.2398 v -0.7549 z"
     fill="#b3b3b3"
     id="path41" />
  <mask
     id="mask11_265_8159"
     maskUnits="userSpaceOnUse"
     x="24"
     y="41"
     width="1"
     height="2">
    <path
       d="m 24.9114,42.1483 v 0.7594 c -0.0355,0.0044 -0.071,0.0089 -0.1021,0.0089 -0.1821,0 -0.3153,-0.0977 -0.4175,-0.302 v -0.7594 c 0.1022,0.2087 0.231,0.302 0.4175,0.302 0.0311,0 0.0666,0 0.1021,-0.0089 z"
       fill="#ffffff"
       id="path42" />
  </mask>
  <g
     mask="url(#mask11_265_8159)"
     id="g43"
     transform="translate(0,-2.77625)">
    <path
       d="m 24.9114,42.1483 v 0.7594 c -0.0355,0.0044 -0.071,0.0089 -0.1021,0.0089 -0.1821,0 -0.3153,-0.0977 -0.4175,-0.302 v -0.7594 c 0.1022,0.2087 0.231,0.302 0.4175,0.302 0.0311,0 0.0666,0 0.1021,-0.0089 z"
       fill="#bababa"
       id="path43" />
  </g>
  <path
     d="m 34.336,28.10585 v 0.7594 l -2.4294,14.4281 v -0.7594 z"
     fill="#b3b3b3"
     id="path44" />
  <mask
     id="mask12_265_8159"
     maskUnits="userSpaceOnUse"
     x="31"
     y="45"
     width="1"
     height="2">
    <path
       d="m 31.9066,45.3102 v 0.7594 c -0.04,0.2309 -0.2177,0.2842 -0.3775,0.3108 V 45.621 c 0.1554,-0.0266 0.3375,-0.0799 0.3775,-0.3108 z"
       fill="#ffffff"
       id="path45" />
  </mask>
  <g
     mask="url(#mask12_265_8159)"
     id="g46"
     transform="translate(0,-2.77625)">
    <path
       d="m 31.9066,45.3102 v 0.7594 c -0.04,0.2309 -0.2177,0.2842 -0.3775,0.3108 V 45.621 c 0.1554,-0.0266 0.3375,-0.0799 0.3775,-0.3108 z"
       fill="#bababa"
       id="path46" />
  </g>
  <path
     d="m 31.5291,42.84475 v 0.7593 l -3.2689,0.5729 v -0.7549 z"
     fill="#b3b3b3"
     id="path47" />
  <mask
     id="mask13_265_8159"
     maskUnits="userSpaceOnUse"
     x="28"
     y="45"
     width="1"
     height="2">
    <path
       d="m 28.2602,46.1983 v 0.7594 c -0.151,0 -0.2221,-0.1155 -0.2221,-0.262 v -0.7594 c 0,0.1465 0.0667,0.2664 0.2221,0.262 z"
       fill="#ffffff"
       id="path48" />
  </mask>
  <g
     mask="url(#mask13_265_8159)"
     id="g49"
     transform="translate(0,-2.77625)">
    <path
       d="m 28.2602,46.1983 v 0.7594 c -0.151,0 -0.2221,-0.1155 -0.2221,-0.262 v -0.7594 c 0,0.1465 0.0667,0.2664 0.2221,0.262 z"
       fill="#bababa"
       id="path49" />
  </g>
  <path
     d="m 22.9395,36.54775 v 0.7593 l -1.2702,7.6293 v -0.7594 z"
     fill="#b3b3b3"
     id="path50" />
  <mask
     id="mask14_265_8159"
     maskUnits="userSpaceOnUse"
     x="21"
     y="46"
     width="1"
     height="3">
    <path
       d="m 21.6693,46.9532 v 0.7594 c -0.04,0.2265 -0.1999,0.4397 -0.3598,0.4663 v -0.7594 c 0.1599,-0.0266 0.3198,-0.2398 0.3598,-0.4663 z"
       fill="#ffffff"
       id="path51" />
  </mask>
  <g
     mask="url(#mask14_265_8159)"
     id="g52"
     transform="translate(0,-2.77625)">
    <path
       d="m 21.6693,46.9532 v 0.7594 c -0.04,0.2265 -0.1999,0.4397 -0.3598,0.4663 v -0.7594 c 0.1599,-0.0266 0.3198,-0.2398 0.3598,-0.4663 z"
       fill="#bababa"
       id="path52" />
  </g>
  <path
     d="m 21.3095,44.64335 v 0.7593 l -3.291,0.5773 v -0.7549 z"
     fill="#b3b3b3"
     id="path53" />
  <mask
     id="mask15_265_8159"
     maskUnits="userSpaceOnUse"
     x="17"
     y="47"
     width="2"
     height="2">
    <path
       d="m 18.0185,48.0013 v 0.7593 c -0.04,0.0089 -0.08,0.0134 -0.1155,0.0134 -0.0888,0 -0.1599,-0.0311 -0.1599,-0.1466 V 47.868 c 0,0.1155 0.0711,0.1466 0.1599,0.1466 0.0355,0 0.0755,-0.0045 0.1155,-0.0133 z"
       fill="#ffffff"
       id="path54" />
  </mask>
  <g
     mask="url(#mask15_265_8159)"
     id="g55"
     transform="translate(0,-2.77625)">
    <path
       d="m 18.0185,48.0013 v 0.7593 c -0.04,0.0089 -0.08,0.0134 -0.1155,0.0134 -0.0888,0 -0.1599,-0.0311 -0.1599,-0.1466 V 47.868 c 0,0.1155 0.0711,0.1466 0.1599,0.1466 0.0355,0 0.0755,-0.0045 0.1155,-0.0133 z"
       fill="#bababa"
       id="path55" />
  </g>
  <path
     d="m 33.8608,27.45295 c 0.2931,0 0.4929,0.2043 0.4929,0.5107 0,0.0578 -0.0177,0.1022 -0.0177,0.1421 l -2.4294,14.4282 c -0.04,0.2309 -0.2177,0.2842 -0.3775,0.3108 l -3.2689,0.5729 c -0.151,0 -0.2221,-0.1155 -0.2221,-0.262 v -0.1022 l 1.2747,-7.6292 c 0,-0.0578 0.0222,-0.1022 0.0222,-0.1244 0,-0.0533 -0.0177,-0.0755 -0.0355,-0.0755 l -0.0666,0.0533 c -0.0578,0.0133 -0.1954,0.2132 -0.2576,0.3064 l -2.0564,3.0464 c -0.1998,0.2931 -0.3952,0.453 -0.6351,0.4929 l -1.3768,0.2443 c -0.0355,0.0044 -0.0711,0.0089 -0.1021,0.0089 -0.1821,0 -0.3154,-0.0977 -0.4175,-0.302 l -1.1548,-2.5579 c -0.04,-0.0711 -0.0577,-0.1643 -0.0932,-0.1643 l -0.0844,-0.0267 c -0.04,0.0089 -0.0977,0.08 -0.1199,0.2221 l -1.2703,7.6293 c -0.04,0.2264 -0.1998,0.4396 -0.3597,0.4662 l -3.2911,0.5773 c -0.0399,0.0089 -0.0799,0.0134 -0.1154,0.0134 -0.0889,0 -0.1599,-0.0311 -0.1599,-0.1466 v -0.0577 l 2.4294,-14.4281 c 0.0799,-0.4175 0.4752,-0.8305 0.8749,-0.9015 l 2.0697,-0.3642 c 0.0844,-0.0133 0.1643,-0.0222 0.2354,-0.0222 0.3509,0 0.5507,0.1688 0.684,0.4663 l 1.9897,4.7517 c 0.0577,0.1199 0.0933,0.2131 0.1643,0.2131 0.0977,-0.0133 0.1777,-0.1288 0.2976,-0.2931 l 3.784,-5.7686 c 0.2754,-0.4307 0.6173,-0.7149 1.1148,-0.7993 l 2.3495,-0.413 c 0.0399,-0.0089 0.0843,-0.0089 0.1199,-0.0089 z"
     fill="#ffffff"
     id="path56" />
  <mask
     id="mask16_265_8159"
     maskUnits="userSpaceOnUse"
     x="51"
     y="29"
     width="5"
     height="3">
    <path
       d="m 55.1348,30.7932 v 0.7594 c 0,-0.5684 -0.2975,-0.8349 -0.9948,-0.8349 -0.2177,0 -0.4753,0.0267 -0.7773,0.08 -0.5418,0.0977 -1.2169,0.2353 -1.5544,0.3153 v -0.7594 c 0.3375,-0.0799 1.017,-0.2176 1.5544,-0.3153 0.302,-0.0533 0.5596,-0.0799 0.7773,-0.0799 0.6973,0 0.9948,0.2709 0.9948,0.8348 z"
       fill="#ffffff"
       id="path57" />
  </mask>
  <g
     mask="url(#mask16_265_8159)"
     id="g58"
     transform="translate(0,-2.77625)">
    <path
       d="m 55.1348,30.7932 v 0.7594 c 0,-0.5684 -0.2975,-0.8349 -0.9948,-0.8349 -0.2177,0 -0.4753,0.0267 -0.7773,0.08 -0.5418,0.0977 -1.2169,0.2353 -1.5544,0.3153 v -0.7594 c 0.3375,-0.0799 1.017,-0.2176 1.5544,-0.3153 0.302,-0.0533 0.5596,-0.0799 0.7773,-0.0799 0.6973,0 0.9948,0.2709 0.9948,0.8348 z"
       fill="#bababa"
       id="path58" />
  </g>
  <path
     d="m 46.0922,25.73885 v 0.7594 l -0.4175,2.5313 v -0.7594 z"
     fill="#b3b3b3"
     id="path59" />
  <mask
     id="mask17_265_8159"
     maskUnits="userSpaceOnUse"
     x="45"
     y="31"
     width="1"
     height="2">
    <path
       d="m 45.6748,31.0464 v 0.7594 c -0.04,0.2309 -0.2576,0.4485 -0.4797,0.4884 v -0.7593 c 0.2176,-0.04 0.4397,-0.2576 0.4797,-0.4885 z"
       fill="#ffffff"
       id="path60" />
  </mask>
  <g
     mask="url(#mask17_265_8159)"
     id="g61"
     transform="translate(0,-2.77625)">
    <path
       d="m 45.6748,31.0464 v 0.7594 c -0.04,0.2309 -0.2576,0.4485 -0.4797,0.4884 v -0.7593 c 0.2176,-0.04 0.4397,-0.2576 0.4797,-0.4885 z"
       fill="#bababa"
       id="path61" />
  </g>
  <path
     d="m 45.1952,28.75865 v 0.7594 l -4.0238,0.7061 v -0.7594 z"
     fill="#b3b3b3"
     id="path62" />
  <mask
     id="mask18_265_8159"
     maskUnits="userSpaceOnUse"
     x="40"
     y="32"
     width="2"
     height="3">
    <path
       d="m 41.1713,32.241 v 0.7593 c -0.7151,0.1288 -0.9949,0.4175 -1.137,1.2079 v -0.7593 c 0.1421,-0.7905 0.4219,-1.0792 1.137,-1.2079 z"
       fill="#ffffff"
       id="path63" />
  </mask>
  <g
     mask="url(#mask18_265_8159)"
     id="g64"
     transform="translate(0,-2.77625)">
    <path
       d="m 41.1713,32.241 v 0.7593 c -0.7151,0.1288 -0.9949,0.4175 -1.137,1.2079 v -0.7593 c 0.1421,-0.7905 0.4219,-1.0792 1.137,-1.2079 z"
       fill="#bababa"
       id="path64" />
  </g>
  <path
     d="m 51.8127,27.57735 v 0.7594 l -0.5596,3.304 v -0.7594 z"
     fill="#b3b3b3"
     id="path65" />
  <path
     d="m 40.0343,30.67265 v 0.7593 l -0.2576,1.5188 v -0.755 z"
     fill="#b3b3b3"
     id="path66" />
  <mask
     id="mask19_265_8159"
     maskUnits="userSpaceOnUse"
     x="55"
     y="29"
     width="5"
     height="8">
    <path
       d="m 59.2209,29.4921 v 0.7593 c 0,2.3226 -1.0349,4.543 -3.2644,5.8219 v -0.7594 c 2.2295,-1.2789 3.2644,-3.4993 3.2644,-5.8218 z"
       fill="#ffffff"
       id="path67" />
  </mask>
  <g
     mask="url(#mask19_265_8159)"
     id="g68"
     transform="translate(0,-2.77625)">
    <path
       d="m 59.2209,29.4921 v 0.7593 c 0,2.3226 -1.0349,4.543 -3.2644,5.8219 v -0.7594 c 2.2295,-1.2789 3.2644,-3.4993 3.2644,-5.8218 z"
       fill="#bababa"
       id="path68" />
  </g>
  <mask
     id="mask20_265_8159"
     maskUnits="userSpaceOnUse"
     x="50"
     y="36"
     width="3"
     height="2">
    <path
       d="m 52.0126,36.6906 v 0.7593 c -0.4397,0.08 -0.8616,0.151 -1.2969,0.1865 v -0.7593 c 0.4353,-0.0356 0.8572,-0.1066 1.2969,-0.1865 z"
       fill="#ffffff"
       id="path69" />
  </mask>
  <g
     mask="url(#mask20_265_8159)"
     id="g70"
     transform="translate(0,-2.77625)">
    <path
       d="m 52.0126,36.6906 v 0.7593 c -0.4397,0.08 -0.8616,0.151 -1.2969,0.1865 v -0.7593 c 0.4353,-0.0356 0.8572,-0.1066 1.2969,-0.1865 z"
       fill="#bababa"
       id="path70" />
  </g>
  <path
     d="m 45.0175,31.67615 v 0.7594 l -0.422,2.4557 v -0.7594 z"
     fill="#b3b3b3"
     id="path71" />
  <mask
     id="mask21_265_8159"
     maskUnits="userSpaceOnUse"
     x="44"
     y="36"
     width="1"
     height="3">
    <path
       d="m 44.5955,36.9082 v 0.7594 c -0.04,0.2265 -0.2354,0.4485 -0.4574,0.4885 v -0.7594 c 0.2176,-0.04 0.4174,-0.2576 0.4574,-0.4885 z"
       fill="#ffffff"
       id="path72" />
  </mask>
  <g
     mask="url(#mask21_265_8159)"
     id="g73"
     transform="translate(0,-2.77625)">
    <path
       d="m 44.5955,36.9082 v 0.7594 c -0.04,0.2265 -0.2354,0.4485 -0.4574,0.4885 v -0.7594 c 0.2176,-0.04 0.4174,-0.2576 0.4574,-0.4885 z"
       fill="#bababa"
       id="path73" />
  </g>
  <path
     d="m 44.1381,34.61595 v 0.7594 l -4.8988,0.8615 v -0.7594 z"
     fill="#b3b3b3"
     id="path74" />
  <path
     d="m 39.2393,35.47755 v 0.7594 l -0.2976,1.7274 v -0.7593 z"
     fill="#b3b3b3"
     id="path75" />
  <mask
     id="mask22_265_8159"
     maskUnits="userSpaceOnUse"
     x="38"
     y="39"
     width="1"
     height="3">
    <path
       d="m 38.9417,39.9812 v 0.7594 c -0.0178,0.1643 -0.04,0.2886 -0.04,0.4085 v -0.7593 c 0,-0.1244 0.0222,-0.2487 0.04,-0.4086 z"
       fill="#ffffff"
       id="path76" />
  </mask>
  <g
     mask="url(#mask22_265_8159)"
     id="g77"
     transform="translate(0,-2.77625)">
    <path
       d="m 38.9417,39.9812 v 0.7594 c -0.0178,0.1643 -0.04,0.2886 -0.04,0.4085 v -0.7593 c 0,-0.1244 0.0222,-0.2487 0.04,-0.4086 z"
       fill="#bababa"
       id="path77" />
  </g>
  <mask
     id="mask23_265_8159"
     maskUnits="userSpaceOnUse"
     x="57"
     y="40"
     width="1"
     height="2">
    <path
       d="m 57.9062,40.5985 v 0.7594 c 0,0.222 -0.1599,0.4085 -0.3997,0.4529 v -0.7593 c 0.2398,-0.0444 0.3997,-0.2309 0.3997,-0.453 z"
       fill="#ffffff"
       id="path78" />
  </mask>
  <g
     mask="url(#mask23_265_8159)"
     id="g79"
     transform="translate(0,-2.77625)">
    <path
       d="m 57.9062,40.5985 v 0.7594 c 0,0.222 -0.1599,0.4085 -0.3997,0.4529 v -0.7593 c 0.2398,-0.0444 0.3997,-0.2309 0.3997,-0.453 z"
       fill="#bababa"
       id="path79" />
  </g>
  <path
     d="m 53.6825,38.54605 v 0.7549 l -1.6699,-4.6273 v -0.7593 z"
     fill="#b3b3b3"
     id="path80" />
  <path
     d="m 57.5065,38.27965 v 0.7549 l -3.5042,0.6173 v -0.7549 z"
     fill="#b3b3b3"
     id="path81" />
  <mask
     id="mask24_265_8159"
     maskUnits="userSpaceOnUse"
     x="53"
     y="41"
     width="2"
     height="2">
    <path
       d="m 54.0023,41.6731 v 0.7594 c 0,0 -0.0356,0 -0.0489,0 -0.1776,0 -0.2132,-0.1776 -0.2709,-0.3553 v -0.7593 c 0.0533,0.1776 0.0933,0.3552 0.2709,0.3552 0.0133,0 0.0311,0 0.0489,0 z"
       fill="#ffffff"
       id="path82" />
  </mask>
  <g
     mask="url(#mask24_265_8159)"
     id="g83"
     transform="translate(0,-2.77625)">
    <path
       d="m 54.0023,41.6731 v 0.7594 c 0,0 -0.0356,0 -0.0489,0 -0.1776,0 -0.2132,-0.1776 -0.2709,-0.3553 v -0.7593 c 0.0533,0.1776 0.0933,0.3552 0.2709,0.3552 0.0133,0 0.0311,0 0.0489,0 z"
       fill="#bababa"
       id="path83" />
  </g>
  <path
     d="m 50.7157,34.10535 v 0.7549 l -0.8616,5.1158 v -0.7594 z"
     fill="#b3b3b3"
     id="path84" />
  <mask
     id="mask25_265_8159"
     maskUnits="userSpaceOnUse"
     x="49"
     y="41"
     width="1"
     height="3">
    <path
       d="m 49.8541,41.9929 v 0.7594 c -0.0356,0.2309 -0.2576,0.4485 -0.4753,0.4885 v -0.7594 c 0.2221,-0.0355 0.4397,-0.2531 0.4753,-0.4885 z"
       fill="#ffffff"
       id="path85" />
  </mask>
  <g
     mask="url(#mask25_265_8159)"
     id="g86"
     transform="translate(0,-2.77625)">
    <path
       d="m 49.8541,41.9929 v 0.7594 c -0.0356,0.2309 -0.2576,0.4485 -0.4753,0.4885 v -0.7594 c 0.2221,-0.0355 0.4397,-0.2531 0.4753,-0.4885 z"
       fill="#bababa"
       id="path86" />
  </g>
  <path
     d="m 44.0803,37.71115 v 0.7594 l -0.4397,2.5401 v -0.7593 z"
     fill="#b3b3b3"
     id="path87" />
  <path
     d="m 49.3788,39.70515 v 0.7594 l -3.2244,0.5684 v -0.7593 z"
     fill="#b3b3b3"
     id="path88" />
  <path
     d="m 55.9565,32.53775 1.9319,5.1468 c 0.0223,0.04 0.0223,0.0977 0.0223,0.1377 0,0.222 -0.1599,0.4086 -0.3998,0.453 l -3.5042,0.6172 c 0,0 -0.0355,0 -0.0488,0 -0.1777,0 -0.2132,-0.1776 -0.271,-0.3552 l -1.6699,-4.6273 c -0.4397,0.0799 -0.8616,0.1509 -1.2969,0.1865 l -0.8571,5.1158 c -0.0356,0.2309 -0.2576,0.4485 -0.4753,0.4885 l -3.2244,0.5684 c -0.0222,0 -0.0488,0.0044 -0.0666,0.0044 -0.1643,0 -0.2709,-0.1154 -0.2709,-0.2886 v -0.0578 l 2.2917,-13.5977 c 0.1599,-0.9947 0.4974,-1.2789 1.3768,-1.5764 0.8172,-0.2621 2.4117,-0.6839 4.1838,-0.9948 0.6484,-0.1154 1.2613,-0.1732 1.8298,-0.1732 2.2118,0 3.7263,0.9148 3.7263,3.1308 0,2.2159 -1.0348,4.5429 -3.2644,5.8219 z m -3.2511,-1.8918 c 1.5767,-0.2753 2.4294,-1.0347 2.4294,-2.629 0,-0.5684 -0.2975,-0.8348 -0.9948,-0.8348 -0.2177,0 -0.4753,0.0266 -0.7773,0.0799 -0.5418,0.0977 -1.2169,0.2354 -1.5544,0.3153 l -0.5597,3.3039 c 0.2177,-0.0177 0.4575,-0.0577 0.6973,-0.1021 0.2399,-0.04 0.4975,-0.0844 0.7551,-0.1332"
     fill="#ffffff"
     id="path89" />
  <mask
     id="mask26_265_8159"
     maskUnits="userSpaceOnUse"
     x="45"
     y="42"
     width="2"
     height="2">
    <path
       d="m 46.1544,43.0498 v 0.7594 c -0.0222,0 -0.0488,0.0045 -0.0666,0.0045 -0.1643,0 -0.2709,-0.1155 -0.2709,-0.2887 v -0.7594 c 0,0.1777 0.1066,0.2887 0.2709,0.2887 0.0222,0 0.0444,0 0.0666,-0.0045 z"
       fill="#ffffff"
       id="path90" />
  </mask>
  <g
     mask="url(#mask26_265_8159)"
     id="g91"
     transform="translate(0,-2.77625)">
    <path
       d="m 46.1544,43.0498 v 0.7594 c -0.0222,0 -0.0488,0.0045 -0.0666,0.0045 -0.1643,0 -0.2709,-0.1155 -0.2709,-0.2887 v -0.7594 c 0,0.1777 0.1066,0.2887 0.2709,0.2887 0.0222,0 0.0444,0 0.0666,-0.0045 z"
       fill="#bababa"
       id="path91" />
  </g>
  <mask
     id="mask27_265_8159"
     maskUnits="userSpaceOnUse"
     x="43"
     y="43"
     width="1"
     height="2">
    <path
       d="m 43.6406,43.0276 v 0.7594 c -0.04,0.2531 -0.1998,0.3996 -0.4574,0.4884 v -0.7593 c 0.2576,-0.0888 0.4174,-0.2354 0.4574,-0.4885 z"
       fill="#ffffff"
       id="path92" />
  </mask>
  <g
     mask="url(#mask27_265_8159)"
     id="g93"
     transform="translate(0,-2.77625)">
    <path
       d="m 43.6406,43.0276 v 0.7594 c -0.04,0.2531 -0.1998,0.3996 -0.4574,0.4884 v -0.7593 c 0.2576,-0.0888 0.4174,-0.2354 0.4574,-0.4885 z"
       fill="#bababa"
       id="path93" />
  </g>
  <mask
     id="mask28_265_8159"
     maskUnits="userSpaceOnUse"
     x="34"
     y="41"
     width="10"
     height="5">
    <path
       d="m 43.1832,43.5161 v 0.7593 c -0.7817,0.2354 -1.9942,0.5907 -3.9262,0.9282 -0.4708,0.0843 -0.9371,0.1287 -1.3768,0.1287 -1.7321,0 -3.0867,-0.7282 -3.0867,-2.8332 v -0.7594 c 0,2.1094 1.3546,2.8333 3.0867,2.8333 0.4397,0 0.906,-0.0489 1.3768,-0.1288 1.932,-0.3375 3.1445,-0.6928 3.9262,-0.9281 z"
       fill="#ffffff"
       id="path94" />
  </mask>
  <g
     mask="url(#mask28_265_8159)"
     id="g95"
     transform="translate(0,-2.77625)">
    <path
       d="m 43.1832,43.5161 v 0.7593 c -0.7817,0.2354 -1.9942,0.5907 -3.9262,0.9282 -0.4708,0.0843 -0.9371,0.1287 -1.3768,0.1287 -1.7321,0 -3.0867,-0.7282 -3.0867,-2.8332 v -0.7594 c 0,2.1094 1.3546,2.8333 3.0867,2.8333 0.4397,0 0.906,-0.0489 1.3768,-0.1288 1.932,-0.3375 3.1445,-0.6928 3.9262,-0.9281 z"
       fill="#bababa"
       id="path95" />
  </g>
  <path
     d="m 45.8258,25.38795 c 0.1821,0 0.2664,0.0844 0.2664,0.2709 v 0.0844 l -0.4174,2.5312 c -0.04,0.231 -0.2576,0.4486 -0.4797,0.4885 l -4.0239,0.7061 c -0.715,0.1288 -0.9948,0.4175 -1.1369,1.2079 l -0.2576,1.5188 4.8988,-0.8616 c 0.0222,0 0.0488,-0.0044 0.0666,-0.0044 0.1643,0 0.2709,0.1155 0.2709,0.2887 v 0.0577 l -0.4219,2.4557 c -0.04,0.2265 -0.2354,0.4486 -0.4575,0.4885 l -4.8988,0.8615 -0.302,1.7275 c -0.0178,0.1643 -0.04,0.2887 -0.04,0.4086 0,0.3552 0.1422,0.4973 0.4708,0.4973 0.0977,0 0.2132,-0.0133 0.342,-0.0355 l 4.0239,-0.7105 c 0.0222,0 0.0488,-0.0045 0.0666,-0.0045 0.1643,0 0.2709,0.1155 0.2709,0.2887 v 0.0577 l -0.4397,2.5401 c -0.04,0.2532 -0.1999,0.3997 -0.4574,0.4885 -0.7817,0.2354 -1.9942,0.5907 -3.9262,0.9282 -0.4708,0.0843 -0.9371,0.1287 -1.3768,0.1287 -1.7321,0 -3.0867,-0.7282 -3.0867,-2.8332 0,-0.3242 0.0399,-0.675 0.0977,-1.048 l 1.097,-6.528 c 0.7017,-4.1965 3.0911,-5.0625 5.8981,-5.5598 1.932,-0.3375 3.1444,-0.4086 3.8861,-0.4441 0.0178,0 0.0356,0 0.0489,0 z"
     fill="#ffffff"
     id="path96" />
  <mask
     id="mask29_265_8159"
     maskUnits="userSpaceOnUse"
     x="66"
     y="24"
     width="1"
     height="2">
    <path
       d="m 66.2648,24.8292 v 0.7594 c 0,0.0222 0,0.0488 -0.0045,0.0799 v -0.7593 c 0,-0.0267 0.0045,-0.0533 0.0045,-0.08 z"
       fill="#ffffff"
       id="path97" />
  </mask>
  <g
     mask="url(#mask29_265_8159)"
     id="g98"
     transform="translate(0,-2.77625)">
    <path
       d="m 66.2648,24.8292 v 0.7594 c 0,0.0222 0,0.0488 -0.0045,0.0799 v -0.7593 c 0,-0.0267 0.0045,-0.0533 0.0045,-0.08 z"
       fill="#bababa"
       id="path98" />
  </g>
  <path
     d="m 66.2559,22.12845 v 0.7593 l -2.4694,14.6413 v -0.7594 z"
     fill="#b3b3b3"
     id="path99" />
  <mask
     id="mask30_265_8159"
     maskUnits="userSpaceOnUse"
     x="63"
     y="39"
     width="1"
     height="2">
    <path
       d="m 63.7865,39.5459 v 0.7594 c -0.04,0.2265 -0.1777,0.4352 -0.4797,0.4885 v -0.7594 c 0.2976,-0.0533 0.4397,-0.2576 0.4797,-0.4885 z"
       fill="#ffffff"
       id="path100" />
  </mask>
  <g
     mask="url(#mask30_265_8159)"
     id="g101"
     transform="translate(0,-2.77625)">
    <path
       d="m 63.7865,39.5459 v 0.7594 c -0.04,0.2265 -0.1777,0.4352 -0.4797,0.4885 v -0.7594 c 0.2976,-0.0533 0.4397,-0.2576 0.4797,-0.4885 z"
       fill="#bababa"
       id="path101" />
  </g>
  <path
     d="m 63.3068,37.25815 v 0.755 l -3.2644,0.5773 v -0.7594 z"
     fill="#b3b3b3"
     id="path102" />
  <mask
     id="mask31_265_8159"
     maskUnits="userSpaceOnUse"
     x="59"
     y="40"
     width="2"
     height="2">
    <path
       d="m 59.7138,41.0958 v -0.7594 c 0,0.151 0.0932,0.2754 0.2576,0.2754 0.0222,0 0.0444,0 0.071,-0.0045 v 0.7594 c -0.0222,0 -0.0488,0.0044 -0.071,0.0044 -0.1644,0 -0.2576,-0.1243 -0.2576,-0.2753 z"
       fill="#ffffff"
       id="path103" />
  </mask>
  <g
     mask="url(#mask31_265_8159)"
     id="g104"
     transform="translate(0,-2.77625)">
    <path
       d="m 60.0424,40.6073 v 0.7594 c -0.0222,0 -0.0488,0.0044 -0.071,0.0044 -0.1644,0 -0.2576,-0.1243 -0.2576,-0.2753 v -0.7594 c 0,0.151 0.0932,0.2754 0.2576,0.2754 0.0222,0 0.0444,0 0.071,-0.0045 z"
       fill="#bababa"
       id="path104" />
  </g>
  <path
     d="m 66.0116,21.79975 c 0.1688,0 0.2798,0.1022 0.2487,0.3331 l -2.4694,14.6413 c -0.04,0.2265 -0.1776,0.4352 -0.4796,0.4885 l -3.2644,0.5728 c -0.0222,0 -0.0489,0.0045 -0.0711,0.0045 -0.1954,0 -0.2887,-0.1688 -0.2487,-0.3553 l 2.4694,-14.6413 c 0.0399,-0.2264 0.2398,-0.4218 0.4574,-0.4618 l 3.2689,-0.5729 c 0.0311,-0.0044 0.0621,-0.0089 0.0932,-0.0089 z"
     fill="#ffffff"
     id="path105" />
  <mask
     id="mask32_265_8159"
     maskUnits="userSpaceOnUse"
     x="84"
     y="24"
     width="1"
     height="2">
    <path
       d="m 84.8651,24.7004 v 0.7594 c 0,-0.1599 0,-0.2576 -0.1243,-0.2576 -0.0178,0 -0.0356,0 -0.0578,0.0045 -0.1776,0.0311 -0.1998,0.1376 -0.2576,0.333 v -0.7593 c 0.0622,-0.1954 0.08,-0.2976 0.2576,-0.3331 0.0222,0 0.04,-0.0044 0.0578,-0.0044 0.1243,0 0.1243,0.0977 0.1243,0.2575 z"
       fill="#ffffff"
       id="path106" />
  </mask>
  <g
     mask="url(#mask32_265_8159)"
     id="g107"
     transform="translate(0,-2.77625)">
    <path
       d="m 84.8651,24.7004 v 0.7594 c 0,-0.1599 0,-0.2576 -0.1243,-0.2576 -0.0178,0 -0.0356,0 -0.0578,0.0045 -0.1776,0.0311 -0.1998,0.1376 -0.2576,0.333 v -0.7593 c 0.0622,-0.1954 0.08,-0.2976 0.2576,-0.3331 0.0222,0 0.04,-0.0044 0.0578,-0.0044 0.1243,0 0.1243,0.0977 0.1243,0.2575 z"
       fill="#bababa"
       id="path107" />
  </g>
  <path
     d="m 77.6124,20.37435 v 0.7594 l -0.4575,2.6645 v -0.7594 z"
     fill="#b3b3b3"
     id="path108" />
  <mask
     id="mask33_265_8159"
     maskUnits="userSpaceOnUse"
     x="76"
     y="25"
     width="2"
     height="3">
    <path
       d="m 77.155,25.8151 v 0.7593 c -0.04,0.2487 -0.1777,0.413 -0.422,0.453 V 26.268 c 0.2399,-0.0399 0.382,-0.2087 0.422,-0.4529 z"
       fill="#ffffff"
       id="path109" />
  </mask>
  <g
     mask="url(#mask33_265_8159)"
     id="g110"
     transform="translate(0,-2.77625)">
    <path
       d="m 77.155,25.8151 v 0.7593 c -0.04,0.2487 -0.1777,0.413 -0.422,0.453 V 26.268 c 0.2399,-0.0399 0.382,-0.2087 0.422,-0.4529 z"
       fill="#bababa"
       id="path110" />
  </g>
  <path
     d="m 76.733,23.49185 v 0.7593 l -0.0577,0.0134 v -0.7594 z"
     fill="#b3b3b3"
     id="path111" />
  <path
     d="m 84.9451,27.03555 v 0.7594 l -0.08,-5.1114 v -0.7594 z"
     fill="#b3b3b3"
     id="path112" />
  <mask
     id="mask34_265_8159"
     maskUnits="userSpaceOnUse"
     x="71"
     y="26"
     width="6"
     height="5">
    <path
       d="m 76.6753,26.2814 v 0.7593 c -0.795,0.0578 -1.63,0.1022 -2.767,0.3065 -1.0748,0.1865 -2.0963,0.7505 -2.5715,3.4949 v -0.7594 c 0.4752,-2.7489 1.4967,-3.3084 2.5715,-3.4949 1.137,-0.2043 1.972,-0.2487 2.767,-0.3064 z"
       fill="#ffffff"
       id="path113" />
  </mask>
  <g
     mask="url(#mask34_265_8159)"
     id="g114"
     transform="translate(0,-2.77625)">
    <path
       d="m 76.6753,26.2814 v 0.7593 c -0.795,0.0578 -1.63,0.1022 -2.767,0.3065 -1.0748,0.1865 -2.0963,0.7505 -2.5715,3.4949 v -0.7594 c 0.4752,-2.7489 1.4967,-3.3084 2.5715,-3.4949 1.137,-0.2043 1.972,-0.2487 2.767,-0.3064 z"
       fill="#bababa"
       id="path114" />
  </g>
  <path
     d="m 84.4254,22.00415 v 0.7549 l -1.8743,5.4578 v -0.7594 z"
     fill="#b3b3b3"
     id="path115" />
  <path
     d="m 71.3368,27.31095 v 0.7549 l -0.3775,2.1449 v -0.7549 z"
     fill="#b3b3b3"
     id="path116" />
  <mask
     id="mask35_265_8159"
     maskUnits="userSpaceOnUse"
     x="70"
     y="32"
     width="1"
     height="3">
    <path
       d="m 70.9593,32.2321 v 0.7593 c -0.08,0.4974 -0.1199,0.9104 -0.1199,1.2523 v -0.7593 c 0,-0.342 0.0399,-0.755 0.1199,-1.2523 z"
       fill="#ffffff"
       id="path117" />
  </mask>
  <g
     mask="url(#mask35_265_8159)"
     id="g118"
     transform="translate(0,-2.77625)">
    <path
       d="m 70.9593,32.2321 v 0.7593 c -0.08,0.4974 -0.1199,0.9104 -0.1199,1.2523 v -0.7593 c 0,-0.342 0.0399,-0.755 0.1199,-1.2523 z"
       fill="#bababa"
       id="path118" />
  </g>
  <path
     d="m 84.9628,30.25955 v 0.7593 l -3.5442,0.6262 v -0.7594 z"
     fill="#b3b3b3"
     id="path119" />
  <mask
     id="mask36_265_8159"
     maskUnits="userSpaceOnUse"
     x="88"
     y="35"
     width="2"
     height="2">
    <path
       d="m 89.1288,35.0697 v 0.7594 c 0,0.2398 -0.1599,0.4485 -0.3775,0.4885 v -0.7594 c 0.2176,-0.04 0.3775,-0.2531 0.3775,-0.4885 z"
       fill="#ffffff"
       id="path120" />
  </mask>
  <g
     mask="url(#mask36_265_8159)"
     id="g121"
     transform="translate(0,-2.77625)">
    <path
       d="m 89.1288,35.0697 v 0.7594 c 0,0.2398 -0.1599,0.4485 -0.3775,0.4885 v -0.7594 c 0.2176,-0.04 0.3775,-0.2531 0.3775,-0.4885 z"
       fill="#bababa"
       id="path121" />
  </g>
  <path
     d="m 85.025,33.05275 v 0.7594 l -0.0622,-2.7933 v -0.7593 z"
     fill="#b3b3b3"
     id="path122" />
  <path
     d="m 88.7468,32.78195 v 0.7594 l -3.3843,0.5951 v -0.7594 z"
     fill="#b3b3b3"
     id="path123" />
  <mask
     id="mask37_265_8159"
     maskUnits="userSpaceOnUse"
     x="85"
     y="35"
     width="1"
     height="2">
    <path
       d="m 85.3625,36.1533 v 0.7594 c 0,0 -0.0355,0.0044 -0.0533,0.0044 -0.1687,0 -0.2842,-0.1466 -0.2842,-0.3286 v -0.7594 c 0,0.1821 0.1155,0.3286 0.2842,0.3286 0.0178,0 0.0356,0 0.0533,-0.0044 z"
       fill="#ffffff"
       id="path124" />
  </mask>
  <g
     mask="url(#mask37_265_8159)"
     id="g125"
     transform="translate(0,-2.77625)">
    <path
       d="m 85.3625,36.1533 v 0.7594 c 0,0 -0.0355,0.0044 -0.0533,0.0044 -0.1687,0 -0.2842,-0.1466 -0.2842,-0.3286 v -0.7594 c 0,0.1821 0.1155,0.3286 0.2842,0.3286 0.0178,0 0.0356,0 0.0533,-0.0044 z"
       fill="#bababa"
       id="path125" />
  </g>
  <path
     d="m 81.4186,30.88575 v 0.7594 l -1.057,2.9886 v -0.7594 z"
     fill="#b3b3b3"
     id="path126" />
  <mask
     id="mask38_265_8159"
     maskUnits="userSpaceOnUse"
     x="79"
     y="36"
     width="2"
     height="2">
    <path
       d="M 80.3616,36.6506 V 37.41 c -0.08,0.2132 -0.2576,0.4263 -0.4619,0.4619 v -0.7594 c 0.1998,-0.0355 0.3819,-0.2487 0.4619,-0.4619 z"
       fill="#ffffff"
       id="path127" />
  </mask>
  <g
     mask="url(#mask38_265_8159)"
     id="g128"
     transform="translate(0,-2.77625)">
    <path
       d="M 80.3616,36.6506 V 37.41 c -0.08,0.2132 -0.2576,0.4263 -0.4619,0.4619 v -0.7594 c 0.1998,-0.0355 0.3819,-0.2487 0.4619,-0.4619 z"
       fill="#bababa"
       id="path128" />
  </g>
  <path
     d="m 75.6582,31.87595 v 0.755 l -0.4575,2.6689 v -0.7594 z"
     fill="#b3b3b3"
     id="path129" />
  <path
     d="m 79.9041,34.34065 v 0.755 l -3.5264,0.6172 v -0.7549 z"
     fill="#b3b3b3"
     id="path130" />
  <path
     d="m 88.6092,20.03245 0.5196,12.261 c 0,0.2398 -0.1599,0.4485 -0.3775,0.4885 l -3.3843,0.595 c 0,0 -0.0355,0.0045 -0.0533,0.0045 -0.1688,0 -0.2842,-0.1466 -0.2842,-0.3286 l -0.0578,-2.7933 -3.5442,0.6262 -1.057,2.9886 c -0.08,0.2132 -0.2576,0.4263 -0.4619,0.4618 l -3.5264,0.6173 c -0.0267,0.0045 -0.0489,0.0089 -0.0755,0.0089 -0.1333,0 -0.2043,-0.0799 -0.2043,-0.2176 0,-0.04 0.0222,-0.1021 0.0399,-0.1688 l 4.8189,-13.198 c 0.7817,-2.1316 2.3495,-2.8154 4.2459,-3.1485 0.4797,-0.0844 0.9282,-0.1377 1.3324,-0.1377 1.1947,0 2.0119,0.4574 2.0697,1.9407 z m -6.058,7.425 2.3894,-0.4219 -0.0799,-5.1114 c 0,-0.1598 0,-0.2575 -0.1244,-0.2575 -0.0177,0 -0.0355,0 -0.0577,0.0044 -0.1777,0.0311 -0.1999,0.1377 -0.2576,0.3331 z"
     fill="#ffffff"
     id="path131" />
  <mask
     id="mask39_265_8159"
     maskUnits="userSpaceOnUse"
     x="76"
     y="37"
     width="1"
     height="2">
    <path
       d="m 76.3777,37.7341 v 0.7594 c -0.0266,0.0044 -0.0488,0.0089 -0.0755,0.0089 -0.1332,0 -0.2043,-0.08 -0.2043,-0.2176 v -0.7594 c 0,0.1377 0.0711,0.2176 0.2043,0.2176 0.0222,0 0.0489,0 0.0755,-0.0089 z"
       fill="#ffffff"
       id="path132" />
  </mask>
  <g
     mask="url(#mask39_265_8159)"
     id="g133"
     transform="translate(0,-2.77625)">
    <path
       d="m 76.3777,37.7341 v 0.7594 c -0.0266,0.0044 -0.0488,0.0089 -0.0755,0.0089 -0.1332,0 -0.2043,-0.08 -0.2043,-0.2176 v -0.7594 c 0,0.1377 0.0711,0.2176 0.2043,0.2176 0.0222,0 0.0489,0 0.0755,-0.0089 z"
       fill="#bababa"
       id="path133" />
  </g>
  <mask
     id="mask40_265_8159"
     maskUnits="userSpaceOnUse"
     x="74"
     y="37"
     width="2"
     height="2">
    <path
       d="m 75.2007,37.3168 v 0.7593 c -0.0399,0.2665 -0.1598,0.3686 -0.4974,0.5285 v -0.7594 c 0.3376,-0.1598 0.4619,-0.262 0.4974,-0.5284 z"
       fill="#ffffff"
       id="path134" />
  </mask>
  <g
     mask="url(#mask40_265_8159)"
     id="g135"
     transform="translate(0,-2.77625)">
    <path
       d="m 75.2007,37.3168 v 0.7593 c -0.0399,0.2665 -0.1598,0.3686 -0.4974,0.5285 v -0.7594 c 0.3376,-0.1598 0.4619,-0.262 0.4974,-0.5284 z"
       fill="#bababa"
       id="path135" />
  </g>
  <mask
     id="mask41_265_8159"
     maskUnits="userSpaceOnUse"
     x="66"
     y="34"
     width="9"
     height="6">
    <path
       d="m 74.7033,37.8496 v 0.7594 c -0.5596,0.2797 -1.5766,0.6394 -2.8291,0.8615 -0.4219,0.0755 -0.8305,0.111 -1.2214,0.111 -2.3317,0 -3.9528,-1.3544 -3.9528,-4.2054 v -0.7594 c 0,2.8554 1.6256,4.2054 3.9528,4.2054 0.3909,0 0.7995,-0.0355 1.2214,-0.111 1.2569,-0.222 2.2695,-0.5817 2.8291,-0.8615 z"
       fill="#ffffff"
       id="path136" />
  </mask>
  <g
     mask="url(#mask41_265_8159)"
     id="g137"
     transform="translate(0,-2.77625)">
    <path
       d="m 74.7033,37.8496 v 0.7594 c -0.5596,0.2797 -1.5766,0.6394 -2.8291,0.8615 -0.4219,0.0755 -0.8305,0.111 -1.2214,0.111 -2.3317,0 -3.9528,-1.3544 -3.9528,-4.2054 v -0.7594 c 0,2.8554 1.6256,4.2054 3.9528,4.2054 0.3909,0 0.7995,-0.0355 1.2214,-0.111 1.2569,-0.222 2.2695,-0.5817 2.8291,-0.8615 z"
       fill="#bababa"
       id="path137" />
  </g>
  <path
     d="m 76.3111,19.93025 c 0.3908,0 0.7062,0.0267 0.9238,0.0666 0.2176,0.0444 0.3819,0.0755 0.3819,0.2798 v 0.0977 l -0.4619,2.6645 c -0.0399,0.2487 -0.1776,0.413 -0.4219,0.4529 l -0.0577,0.0133 c -0.795,0.0578 -1.63,0.1022 -2.767,0.3065 -1.0748,0.1865 -2.0963,0.7505 -2.5715,3.4949 l -0.382,2.1449 c -0.0799,0.4973 -0.1199,0.9103 -0.1199,1.2523 0,1.2345 0.5196,1.572 1.1859,1.572 0.151,0 0.3108,-0.0178 0.4707,-0.0444 1.137,-0.1998 1.9898,-0.453 2.8114,-0.6794 l 0.0577,-0.0089 c 0.0356,-0.0045 0.0667,-0.0089 0.0933,-0.0089 0.1333,0 0.1999,0.071 0.1999,0.2354 v 0.0977 l -0.4575,2.6689 c -0.04,0.2664 -0.1599,0.3686 -0.4974,0.5284 -0.5596,0.2798 -1.5767,0.6395 -2.8292,0.8615 -0.4219,0.0755 -0.8305,0.1111 -1.2213,0.1111 -2.3317,0 -3.9528,-1.3545 -3.9528,-4.2055 0,-0.5018 0.0577,-1.0613 0.1554,-1.6608 l 0.3775,-2.1449 c 0.915,-5.249 3.4865,-7.274 7.2528,-7.9357 0.6972,-0.1199 1.3235,-0.1688 1.8253,-0.1688 z"
     fill="#ffffff"
     id="path138" />
  <path
     d="m 102.617,16.04005 v 0.7549 l -0.44,2.6023 v -0.7594 z"
     fill="#b3b3b3"
     id="path139" />
  <mask
     id="mask42_265_8159"
     maskUnits="userSpaceOnUse"
     x="101"
     y="21"
     width="2"
     height="2">
    <path
       d="m 102.177,21.4142 v 0.7594 c -0.04,0.2264 -0.195,0.4174 -0.417,0.4529 v -0.7594 c 0.218,-0.0355 0.377,-0.2264 0.417,-0.4529 z"
       fill="#ffffff"
       id="path140" />
  </mask>
  <g
     mask="url(#mask42_265_8159)"
     id="g141"
     transform="translate(0,-2.77625)">
    <path
       d="m 102.177,21.4142 v 0.7594 c -0.04,0.2264 -0.195,0.4174 -0.417,0.4529 v -0.7594 c 0.218,-0.0355 0.377,-0.2264 0.417,-0.4529 z"
       fill="#bababa"
       id="path141" />
  </g>
  <mask
     id="mask43_265_8159"
     maskUnits="userSpaceOnUse"
     x="96"
     y="21"
     width="6"
     height="4">
    <path
       d="m 101.76,21.8672 v 0.7594 c -0.839,0.0888 -3.0912,0.2842 -4.5257,0.5329 -0.5552,0.0977 -1.137,0.3819 -1.137,1.048 v -0.7594 c 0,-0.6661 0.5773,-0.9503 1.137,-1.048 1.4345,-0.2531 3.6867,-0.4485 4.5257,-0.5329 z"
       fill="#ffffff"
       id="path142" />
  </mask>
  <g
     mask="url(#mask43_265_8159)"
     id="g143"
     transform="translate(0,-2.77625)">
    <path
       d="m 101.76,21.8672 v 0.7594 c -0.839,0.0888 -3.0912,0.2842 -4.5257,0.5329 -0.5552,0.0977 -1.137,0.3819 -1.137,1.048 v -0.7594 c 0,-0.6661 0.5773,-0.9503 1.137,-1.048 1.4345,-0.2531 3.6867,-0.4485 4.5257,-0.5329 z"
       fill="#bababa"
       id="path143" />
  </g>
  <mask
     id="mask44_265_8159"
     maskUnits="userSpaceOnUse"
     x="91"
     y="24"
     width="3"
     height="5">
    <path
       d="m 93.6279,27.5558 v 0.7594 C 92.4731,27.7512 91.918,26.5389 91.918,25.2866 v -0.7594 c 0,1.2523 0.5551,2.4691 1.7099,3.0286 z"
       fill="#ffffff"
       id="path144" />
  </mask>
  <g
     mask="url(#mask44_265_8159)"
     id="g145"
     transform="translate(0,-2.77625)">
    <path
       d="m 93.6279,27.5558 v 0.7594 C 92.4731,27.7512 91.918,26.5389 91.918,25.2866 v -0.7594 c 0,1.2523 0.5551,2.4691 1.7099,3.0286 z"
       fill="#bababa"
       id="path145" />
  </g>
  <path
     d="m 96.1994,26.04515 v 0.7594 l -2.5715,-1.2656 v -0.7594 z"
     fill="#b3b3b3"
     id="path146" />
  <mask
     id="mask45_265_8159"
     maskUnits="userSpaceOnUse"
     x="96"
     y="28"
     width="1"
     height="3">
    <path
       d="m 96.9811,29.5897 v 0.7593 c 0,-0.3019 -0.1999,-0.4884 -0.7772,-0.7682 v -0.7594 c 0.5773,0.2798 0.7772,0.4663 0.7772,0.7683 z"
       fill="#ffffff"
       id="path147" />
  </mask>
  <g
     mask="url(#mask45_265_8159)"
     id="g148"
     transform="translate(0,-2.77625)">
    <path
       d="m 96.9811,29.5897 v 0.7593 c 0,-0.3019 -0.1999,-0.4884 -0.7772,-0.7682 v -0.7594 c 0.5773,0.2798 0.7772,0.4663 0.7772,0.7683 z"
       fill="#bababa"
       id="path148" />
  </g>
  <mask
     id="mask46_265_8159"
     maskUnits="userSpaceOnUse"
     x="90"
     y="34"
     width="1"
     height="2">
    <path
       d="m 90.9586,34.8253 v 0.7594 C 90.781,35.5581 90.6211,35.487 90.6211,35.3005 v -0.7594 c 0,0.1821 0.1599,0.2532 0.3375,0.2842 z"
       fill="#ffffff"
       id="path149" />
  </mask>
  <g
     mask="url(#mask46_265_8159)"
     id="g150"
     transform="translate(0,-2.77625)">
    <path
       d="m 90.9586,34.8253 v 0.7594 C 90.781,35.5581 90.6211,35.487 90.6211,35.3005 v -0.7594 c 0,0.1821 0.1599,0.2532 0.3375,0.2842 z"
       fill="#bababa"
       id="path150" />
  </g>
  <mask
     id="mask47_265_8159"
     maskUnits="userSpaceOnUse"
     x="90"
     y="28"
     width="12"
     height="8">
    <path
       d="m 101.4,28.2086 v 0.7594 c 0,3.7747 -3.1265,5.8574 -6.5152,6.4569 -0.986,0.1732 -1.8387,0.2398 -2.5849,0.2398 -0.4885,0 -0.9327,-0.0311 -1.3368,-0.0799 v -0.7594 c 0.4041,0.0488 0.8483,0.0799 1.3368,0.0799 0.7462,0 1.6034,-0.0666 2.5849,-0.2398 3.3887,-0.5995 6.5152,-2.6778 6.5152,-6.4569 z"
       fill="#ffffff"
       id="path151" />
  </mask>
  <g
     mask="url(#mask47_265_8159)"
     id="g152"
     transform="translate(0,-2.77625)">
    <path
       d="m 101.4,28.2086 v 0.7594 c 0,3.7747 -3.1265,5.8574 -6.5152,6.4569 -0.986,0.1732 -1.8387,0.2398 -2.5849,0.2398 -0.4885,0 -0.9327,-0.0311 -1.3368,-0.0799 v -0.7594 c 0.4041,0.0488 0.8483,0.0799 1.3368,0.0799 0.7462,0 1.6034,-0.0666 2.5849,-0.2398 3.3887,-0.5995 6.5152,-2.6778 6.5152,-6.4569 z"
       fill="#bababa"
       id="path152" />
  </g>
  <path
     d="m 101.485,15.66705 c 0.342,0 0.63,0.0133 0.83,0.0399 0.16,0.0311 0.298,0.0889 0.298,0.2709 v 0.0578 l -0.44,2.5978 c -0.04,0.2265 -0.195,0.4175 -0.417,0.453 -0.84,0.0888 -3.0916,0.2842 -4.5262,0.5329 -0.5552,0.0977 -1.137,0.3819 -1.137,1.048 0,0.2842 0.1999,0.4263 0.8794,0.715 l 2.4294,1.0258 c 1.4344,0.5951 1.9894,1.6076 1.9894,3.0197 0,3.7747 -3.1264,5.8574 -6.5151,6.4569 -0.986,0.1732 -1.8387,0.2398 -2.5849,0.2398 -0.4885,0 -0.9327,-0.031 -1.3368,-0.0799 -0.1777,-0.0266 -0.3376,-0.0977 -0.3376,-0.2842 v -0.0577 l 0.4175,-2.5535 c 0.04,-0.2309 0.2177,-0.4441 0.4619,-0.484 0.8572,-0.0711 2.9713,-0.2221 4.0239,-0.4086 0.795,-0.1376 1.4567,-0.5373 1.4567,-1.4477 0,-0.3019 -0.1998,-0.4885 -0.7772,-0.7682 l -2.5715,-1.2657 c -1.1548,-0.5639 -1.7099,-1.7763 -1.7099,-3.0286 0,-3.6325 2.8069,-5.2135 5.978,-5.7686 1.1681,-0.2087 2.607,-0.3153 3.589,-0.3153 z"
     fill="#ffffff"
     id="path153" />
  <path
     d="m 77.5502,39.44755 c -0.0399,-0.0089 -0.0799,-0.0178 -0.1199,-0.0222 -0.5019,-0.0711 -1.3191,-0.0045 -1.8654,0.0977 -0.7816,0.1465 -1.4389,0.4529 -1.9541,0.8837 -0.382,-0.2132 -0.8261,-0.2931 -1.2614,-0.2087 l -0.9238,0.1776 c -0.3464,0.0622 -0.6573,0.222 -0.9105,0.4396 -0.6439,-0.1998 -1.248,-0.0888 -1.4922,-0.0444 -0.5685,0.1066 -1.0482,0.3109 -1.4479,0.5951 -0.3065,-0.1066 -0.6396,-0.1465 -0.9682,-0.0799 l -0.8528,0.1598 c -0.2887,0.0533 -0.5551,0.1732 -0.7861,0.3375 -0.302,-0.0755 -0.5996,-0.0755 -0.8572,-0.0266 l -0.6973,0.1332 c -0.1732,0.0311 -0.3375,0.0933 -0.4929,0.1688 -0.1733,-0.0134 -0.3465,-0.0089 -0.5197,0.0222 l -0.9327,0.1776 c -0.1687,0.0311 -0.3242,0.0888 -0.4752,0.1599 -0.0488,0 -0.0977,-0.0089 -0.1466,-0.0089 -0.2398,0.0089 -0.675,0.0311 -1.3501,0.1599 -1.288,0.2442 -2.1852,0.8703 -2.6959,1.8562 -0.111,-0.191 -0.2443,-0.373 -0.4219,-0.5151 -0.4309,-0.3553 -0.9949,-0.5018 -1.5456,-0.3953 l -0.9416,0.1777 c -0.3375,0.0666 -0.644,0.222 -0.8971,0.4396 -0.644,-0.1998 -1.2525,-0.0888 -1.4968,-0.04 -0.5685,0.1066 -1.0481,0.3109 -1.4523,0.5951 -0.3064,-0.1066 -0.6396,-0.1421 -0.9682,-0.0799 l -0.8616,0.1643 c -0.2843,0.0533 -0.5463,0.1732 -0.7773,0.3375 -0.2975,-0.0755 -0.5995,-0.0755 -0.8571,-0.0267 l -0.6973,0.1333 c -0.3598,0.0666 -0.6884,0.2398 -0.9594,0.4796 -0.4796,-0.1421 -1.0126,-0.1688 -1.5722,-0.0622 -0.4264,0.0799 -0.9771,0.2487 -1.5189,0.5906 -0.3021,-0.0977 -0.6263,-0.1243 -0.946,-0.0622 l -0.9416,0.1777 c -0.2176,0.0444 -0.4219,0.1243 -0.6085,0.2353 -0.4663,-0.031 -0.9682,0 -1.4923,0.1022 -0.6173,0.1154 -1.1281,0.3197 -1.5589,0.5862 -0.2087,-0.0622 -0.4219,-0.0933 -0.6484,-0.0755 -0.2754,0.0133 -0.7106,0.0444 -1.3502,0.1643 -0.373,0.071 -1.1725,0.222 -1.8787,0.8082 -0.4841,-0.1643 -1.1103,-0.2398 -1.9231,-0.0844 -0.604,0.1155 -1.1503,0.2709 -1.4789,0.3864 -0.8927,0.3242 -1.4168,0.9681 -1.5545,1.8962 l -0.6573,4.2054 c -0.0133,0.0933 -0.0222,0.2043 -0.0222,0.2976 0,0.5684 0.2487,1.1013 0.6795,1.4565 0.3375,0.2798 0.7595,0.4308 1.1947,0.4308 0.1199,0 0.2354,-0.0133 0.3553,-0.0355 l 0.0666,-0.0134 c 0.1511,0.04 0.3065,0.0667 0.462,0.0667 0.111,0 0.2265,-0.0089 0.3419,-0.0311 l 0.08,-0.0134 c 0.151,0.0445 0.3064,0.0711 0.4619,0.0711 0.1066,0 0.2176,-0.0089 0.3242,-0.0311 l 0.1021,-0.0178 c 0.151,0.0445 0.3021,0.0711 0.4619,0.0711 0.1022,0 0.2043,-0.0089 0.3065,-0.0266 l 0.1199,-0.0222 c 0.1466,0.0444 0.302,0.071 0.4575,0.071 0.0977,0 0.1954,-0.0089 0.2931,-0.0266 l 0.1332,-0.0267 c 0.1466,0.0489 0.3021,0.0755 0.4531,0.0755 0.0932,0 0.1865,-0.0089 0.2798,-0.0266 l 0.1554,-0.0311 c 0.1466,0.0488 0.2976,0.0755 0.453,0.0755 0.0889,0 0.1732,-0.0089 0.2621,-0.0267 l 0.1776,-0.0355 c 0.1421,0.0533 0.2931,0.0799 0.4486,0.0799 0.0799,0 0.1643,-0.0088 0.2443,-0.0222 l 0.1998,-0.0399 c 0.1377,0.0533 0.2843,0.0843 0.4353,0.0843 0.0755,0 0.1554,-0.0088 0.2309,-0.0222 l 0.2265,-0.0444 c 0.1333,0.0533 0.2798,0.0888 0.4264,0.0888 0.0711,0 0.1421,-0.0044 0.2132,-0.0222 l 0.6218,-0.1154 c 0.1554,-0.0311 0.2975,-0.0888 0.4219,-0.1732 0.151,0.0355 0.3109,0.0355 0.453,0.0044 l 0.6707,-0.1288 c 0.1687,-0.031 0.3242,-0.1021 0.4574,-0.1998 0.1155,0.0222 0.2399,0.0355 0.3731,0.0355 0.1332,0 0.2976,-0.0133 0.4663,-0.0444 0.4131,-0.0799 0.6929,-0.1643 0.915,-0.2353 0.1554,-0.0533 0.2842,-0.1421 0.3952,-0.2443 0.0089,0 0.0178,0 0.0267,0 0.0089,0 0.0177,0 0.0266,0 0.1732,0.0533 0.3553,0.0844 0.5463,0.0844 0.1288,0 0.262,-0.0133 0.3908,-0.0355 0.3598,-0.0666 0.7151,-0.1732 1.066,-0.3153 0.0666,0.0133 0.1332,0.0177 0.1998,0.0177 0.0711,0 0.1422,-0.0044 0.2132,-0.0177 l 0.6218,-0.1199 c 0.2398,-0.0444 0.4486,-0.1599 0.6129,-0.3242 0.1865,0.0577 0.382,0.0933 0.5907,0.0933 0.1377,0 0.2798,-0.0134 0.4264,-0.04 0.3286,-0.0622 0.6884,-0.1821 1.0259,-0.4041 0.1288,0.0488 0.2621,0.0755 0.4042,0.0755 0.071,0 0.1421,-0.0045 0.2132,-0.0178 l 0.5685,-0.1066 c 0.1909,-0.0355 0.3642,-0.1154 0.5107,-0.2309 0.1777,0.0533 0.3731,0.0622 0.573,0.0267 l 0.4707,-0.0889 c 0.0844,-0.0177 0.1688,-0.0444 0.2487,-0.0799 0.0134,0 0.0311,0 0.0445,0 0.0666,0 0.1332,-0.0044 0.1954,-0.0178 l 0.6662,-0.1287 c 0.1865,-0.0356 0.3642,-0.1155 0.5107,-0.231 0.1777,0.0533 0.3642,0.0666 0.5374,0.0356 l 0.6485,-0.1244 c 0,0 0.0044,0 0.0089,0 0.1687,-0.0355 0.3242,-0.1066 0.4574,-0.2043 0.1199,0.0222 0.2443,0.04 0.3864,0.04 0.1421,0 0.302,-0.0133 0.4708,-0.0488 0.2265,-0.0444 0.5596,-0.1288 0.7595,-0.2043 0.1821,-0.0622 0.3331,-0.1688 0.4574,-0.2975 0.1599,0.0754 0.3376,0.1199 0.5108,0.1199 0.0666,0 0.1332,-0.0045 0.1954,-0.0178 l 0.6173,-0.1155 c 0.2798,-0.0533 0.5241,-0.2087 0.7018,-0.4218 0.0222,-0.0134 0.0444,-0.0267 0.0666,-0.0445 0.1821,0.1199 0.3953,0.1821 0.6173,0.1821 0.0711,0 0.1422,-0.0044 0.2132,-0.0177 l 0.6263,-0.1199 c 0.1065,-0.0223 0.2087,-0.0578 0.3064,-0.1066 0.0311,0 0.0622,0.0089 0.0933,0.0089 0.071,0 0.1421,-0.0045 0.2132,-0.0178 l 0.5685,-0.1066 c 0.1909,-0.0355 0.3641,-0.1154 0.5107,-0.2309 0.1777,0.0533 0.3731,0.0666 0.5729,0.0266 l 0.4708,-0.0888 c 0.0844,-0.0177 0.1688,-0.0444 0.2443,-0.0799 0.0133,0 0.0311,0 0.0444,0 0.0666,0 0.1333,-0.0045 0.1999,-0.0178 l 0.6662,-0.1288 c 0.1865,-0.0355 0.3597,-0.1154 0.5107,-0.2353 0.1777,0.0533 0.3642,0.0666 0.5419,0.0355 l 0.6484,-0.1243 c 0.1732,-0.0311 0.3287,-0.1066 0.4663,-0.2043 0.1155,0.0222 0.2443,0.04 0.3864,0.04 0.1422,0 0.3021,-0.0134 0.4708,-0.0445 0.2265,-0.0444 0.5596,-0.1287 0.7595,-0.2042 0.0533,-0.0178 0.0977,-0.0489 0.151,-0.0755 0.0622,0 0.1244,0.0133 0.1865,0.0133 0.2221,0 0.453,-0.0222 0.6973,-0.0711 0.3775,-0.071 0.7062,-0.2087 0.9993,-0.3863 0.3287,-0.0799 0.6307,-0.1998 0.8927,-0.3597 0.3287,-0.0799 0.6263,-0.1998 0.8927,-0.3597 0.3243,-0.0844 0.6263,-0.2043 0.8927,-0.3597 0.3109,-0.0844 0.6041,-0.191 0.8617,-0.3375 0.3242,-0.0844 0.6262,-0.2087 0.8927,-0.3597 0.3242,-0.0888 0.6218,-0.2087 0.8971,-0.3597 0.3065,-0.0888 0.5952,-0.2043 0.8617,-0.3508 0.3153,-0.0889 0.6129,-0.2088 0.8838,-0.3553 1.7499,-0.5018 2.9002,-1.9229 2.9002,-3.6592 0,-0.3464 -0.0533,-0.6706 -0.151,-0.9681 0.1776,-0.2487 0.302,-0.5373 0.3508,-0.8571 l 0.1244,-0.8038 c 0.0133,-0.0932 0.0222,-0.2042 0.0222,-0.2975 0,-0.8926 -0.6173,-1.6475 -1.5012,-1.8385 z"
     fill="#000000"
     id="path154" />
  <path
     d="m 31.4802,52.54775 0.5552,1.5943 c 0,0 0.0045,0.031 0.0045,0.0444 0,0.0666 -0.0445,0.1287 -0.1155,0.1421 l -1.0038,0.1909 c -0.0622,0.0133 -0.0755,-0.0488 -0.0932,-0.1066 l -0.4797,-1.4299 c -0.1244,0.0222 -0.2443,0.0444 -0.3731,0.0577 l -0.2443,1.581 c -0.0088,0.071 -0.0755,0.1376 -0.1376,0.1509 l -0.9238,0.1777 c -0.0578,0.0089 -0.0977,-0.0267 -0.0977,-0.0888 v -0.0178 l 0.6573,-4.2054 c 0.0444,-0.3064 0.1421,-0.3953 0.3953,-0.4885 0.2354,-0.0799 0.6928,-0.2132 1.1991,-0.3109 0.9105,-0.1732 1.5945,0.0533 1.5945,0.9148 0,0.7194 -0.2976,1.4033 -0.9372,1.7985 z m -0.7417,-1.6298 c -0.1554,0.0311 -0.3464,0.0711 -0.4441,0.0977 l -0.1599,1.0214 c 0.0622,-0.0044 0.1333,-0.0177 0.1999,-0.0311 0.0666,-0.0133 0.1421,-0.0266 0.2176,-0.0399 0.453,-0.0844 0.6973,-0.3198 0.6973,-0.8127 0,-0.2309 -0.1466,-0.302 -0.5063,-0.2354 z"
     fill="#fecd19"
     id="path155" />
  <path
     d="m 35.8284,49.08405 -0.1199,0.786 c -0.0134,0.0711 -0.0755,0.1377 -0.1377,0.151 l -1.1548,0.2176 c -0.2043,0.04 -0.2842,0.1288 -0.3242,0.373 l -0.0755,0.4708 1.4035,-0.2665 c 0.0577,-0.0089 0.0977,0.0266 0.0977,0.0888 v 0.0178 l -0.1199,0.7594 c -0.0134,0.071 -0.0666,0.1376 -0.1333,0.1509 l -1.4034,0.2665 -0.0844,0.5329 c -0.0045,0.0488 -0.0133,0.0888 -0.0133,0.1288 0,0.1421 0.0666,0.1732 0.2353,0.1421 l 1.1548,-0.2176 c 0.0577,-0.0089 0.0977,0.0266 0.0977,0.0888 v 0.0178 l -0.1244,0.786 c -0.0133,0.0755 -0.0577,0.1243 -0.1332,0.151 -0.2221,0.0755 -0.5729,0.182 -1.1237,0.2886 -0.6662,0.1288 -1.2791,-0.0177 -1.2791,-0.8393 0,-0.0977 0.0134,-0.2087 0.0267,-0.3242 l 0.3153,-2.0205 c 0.1999,-1.2967 0.8839,-1.5676 1.6922,-1.7186 0.5551,-0.1066 0.9016,-0.1288 1.1147,-0.1377 0.0622,-0.0044 0.0933,0.0178 0.0933,0.0844 v 0.0266 z"
     fill="#fecd19"
     id="path156" />
  <path
     d="m 39.4925,48.47555 -0.1333,0.8127 c -0.0133,0.0755 -0.0355,0.1065 -0.0932,0.1154 -0.0045,0 -0.0134,0 -0.0178,0 -0.2176,0.0311 -0.6751,0.0711 -1.097,0.151 -0.5729,0.1066 -0.8128,0.3419 -0.9371,1.1146 l -0.1066,0.6839 c -0.0222,0.1599 -0.0356,0.2887 -0.0356,0.3997 0,0.4796 0.2177,0.5196 0.4308,0.4796 0.1066,-0.0222 0.2221,-0.0488 0.3198,-0.0799 l 0.2043,-1.3189 c 0.0133,-0.0711 0.0622,-0.1377 0.1244,-0.1466 l 0.9016,-0.1687 c 0.0577,-0.0089 0.0977,0.0266 0.0977,0.0888 v 0.0177 l -0.3376,2.1538 c -0.0177,0.0977 -0.0444,0.1332 -0.1421,0.1688 -0.342,0.1421 -0.795,0.3019 -1.3501,0.4041 -0.6396,0.1199 -1.4346,-0.1332 -1.4346,-1.2834 0,-0.151 0.0133,-0.3197 0.04,-0.5018 l 0.1066,-0.675 c 0.302,-1.874 1.2968,-2.3003 2.1362,-2.4602 0.5952,-0.111 0.9994,-0.0888 1.2214,-0.0622 0.0578,0.0089 0.0977,0.0133 0.0977,0.0711 0,0.0044 -0.0044,0.0177 -0.0044,0.0311 z"
     fill="#fecd19"
     id="path157" />
  <path
     d="m 41.3222,48.02265 -0.7062,4.5296 c -0.0133,0.0711 -0.0533,0.1333 -0.1377,0.151 l -0.9371,0.1776 c -0.0666,0.0134 -0.1021,-0.0444 -0.0933,-0.1065 l 0.7062,-4.5296 c 0.0133,-0.0711 0.0666,-0.1333 0.1333,-0.1421 l 0.9371,-0.1777 c 0.0622,-0.0133 0.1066,0.0178 0.0977,0.0977 z"
     fill="#fecd19"
     id="path158" />
  <path
     d="m 45.1107,49.18615 -0.1065,0.6617 c -0.2576,1.5631 -1.0216,2.247 -2.083,2.4469 -0.8039,0.1509 -1.4701,-0.2132 -1.4701,-1.2701 0,-0.1554 0.0177,-0.3286 0.0444,-0.5151 l 0.1066,-0.6617 c 0.2665,-1.6298 1.097,-2.2693 2.083,-2.4558 0.795,-0.151 1.4701,0.1777 1.4701,1.2568 0,0.1643 -0.0134,0.3375 -0.0445,0.5329 z m -1.6033,-0.6395 c -0.3997,0.0755 -0.6129,0.3908 -0.7239,1.0791 l -0.1066,0.6617 c -0.0222,0.1554 -0.04,0.2798 -0.04,0.3952 0,0.3864 0.1599,0.5196 0.4664,0.4619 0.3997,-0.0755 0.6129,-0.3864 0.7239,-1.0747 l 0.1066,-0.6617 c 0.0222,-0.1554 0.04,-0.2842 0.04,-0.3952 0,-0.3863 -0.1599,-0.524 -0.4664,-0.4663 z"
     fill="#fecd19"
     id="path159" />
  <path
     d="m 49.5076,46.48175 -0.6839,4.4097 c -0.0223,0.1288 -0.1377,0.2576 -0.2488,0.2798 l -0.7106,0.1332 c -0.1021,0.0178 -0.1643,-0.0178 -0.2132,-0.1288 l -0.8438,-1.9317 c -0.0178,-0.04 -0.0355,-0.0444 -0.0533,-0.04 -0.0178,0 -0.0267,0.0178 -0.0356,0.0622 l -0.3419,2.1937 c -0.0134,0.0711 -0.0755,0.1377 -0.1377,0.151 l -0.8572,0.1643 c -0.0577,0.0089 -0.0977,-0.0266 -0.0977,-0.0888 v -0.0178 l 0.684,-4.4097 c 0.0222,-0.1287 0.1376,-0.2575 0.2531,-0.2797 l 0.6973,-0.1333 c 0.1066,-0.0222 0.1555,0.0445 0.1999,0.1422 l 0.8705,1.9894 c 0.0177,0.04 0.0222,0.0533 0.0399,0.0489 0.0178,0 0.0356,-0.0133 0.04,-0.0622 l 0.3553,-2.2781 c 0.0133,-0.0711 0.0755,-0.1377 0.1377,-0.151 l 0.8572,-0.1643 c 0.0577,-0.0089 0.0933,0.0266 0.0933,0.0844 v 0.0266 z"
     fill="#fecd19"
     id="path160" />
  <path
     d="m 52.8519,50.35845 -0.9726,0.1865 c -0.0577,0.0089 -0.0977,-0.0399 -0.0977,-0.1021 l -0.0178,-0.866 -1.017,0.191 -0.3021,0.9237 c -0.0222,0.0666 -0.0755,0.1332 -0.1332,0.1421 l -1.0126,0.1909 c -0.0533,0.0089 -0.08,-0.0177 -0.08,-0.0666 0,-0.0133 0.0045,-0.0311 0.0134,-0.0533 l 1.3812,-4.081 c 0.2221,-0.6617 0.6751,-0.8704 1.2169,-0.9726 0.5419,-0.1021 0.9549,-0.0577 0.9771,0.5596 l 0.1466,3.7924 c 0,0.0755 -0.0444,0.1377 -0.1066,0.151 z m -1.1147,-3.3572 c 0,-0.0577 0,-0.0888 -0.0533,-0.0755 -0.0533,0.0089 -0.0578,0.04 -0.0755,0.1021 l -0.5374,1.6875 0.6839,-0.1288 -0.0222,-1.5809 z"
     fill="#fecd19"
     id="path161" />
  <path
     d="m 55.9965,48.85755 -0.1244,0.786 c -0.0088,0.0755 -0.0577,0.1244 -0.1332,0.151 -0.2176,0.0844 -0.5996,0.191 -0.9016,0.2443 -0.644,0.1243 -1.2791,0.0133 -1.2791,-0.8305 0,-0.0977 0.0133,-0.2087 0.0267,-0.3286 l 0.5063,-3.2684 c 0.0133,-0.0711 0.0799,-0.1421 0.1421,-0.151 l 0.9327,-0.1776 c 0.0577,-0.0089 0.0932,0.0266 0.0932,0.0843 v 0.0267 l -0.5063,3.2684 c -0.0044,0.0444 -0.0133,0.0844 -0.0133,0.1199 0,0.1421 0.0666,0.1821 0.2354,0.151 l 0.9238,-0.1732 c 0.0577,-0.0089 0.0977,0.0267 0.0977,0.0888 v 0.0178 z"
     fill="#fecd19"
     id="path162" />
  <path
     d="m 61.033,44.31465 -0.1244,0.786 c -0.0133,0.0711 -0.0666,0.1377 -0.1288,0.151 l -1.1548,0.2176 c -0.2043,0.04 -0.2842,0.1288 -0.3242,0.373 l -0.0755,0.4619 1.4079,-0.2665 c 0.0578,-0.0133 0.0977,0.0267 0.0977,0.0888 v 0.0178 l -0.1199,0.7594 c -0.0133,0.071 -0.071,0.1376 -0.1332,0.151 l -1.4035,0.2664 -0.2798,1.7896 c -0.0133,0.0711 -0.0755,0.1377 -0.1377,0.151 l -0.9326,0.1777 c -0.0578,0.0088 -0.0933,-0.0267 -0.0933,-0.0844 v -0.0267 l 0.5063,-3.2684 c 0.1999,-1.3056 0.9238,-1.5809 1.6922,-1.723 0.5551,-0.1066 0.8971,-0.1199 1.1103,-0.1288 0.0622,-0.0044 0.0977,0.0267 0.0977,0.0799 v 0.0267 z"
     fill="#fecd19"
     id="path163" />
  <path
     d="m 62.8272,43.95055 -0.7062,4.5296 c -0.0133,0.071 -0.0533,0.1332 -0.1376,0.151 l -0.9372,0.1776 c -0.0666,0.0133 -0.1021,-0.0444 -0.0932,-0.1066 l 0.7061,-4.5296 c 0.0134,-0.071 0.0711,-0.1332 0.1333,-0.1421 l 0.9371,-0.1776 c 0.0622,-0.0134 0.1066,0.0177 0.0977,0.1021 z"
     fill="#fecd19"
     id="path164" />
  <path
     d="m 67.0243,43.15995 -0.684,4.4097 c -0.0222,0.1288 -0.1376,0.2576 -0.2487,0.2798 l -0.7106,0.1332 c -0.1021,0.0178 -0.1643,-0.0177 -0.2132,-0.1288 l -0.8438,-1.9317 c -0.0178,-0.04 -0.0356,-0.0444 -0.0533,-0.04 -0.0178,0 -0.0267,0.0178 -0.0356,0.0622 l -0.3419,2.1938 c -0.0134,0.071 -0.0755,0.1376 -0.1377,0.1509 l -0.8572,0.1643 c -0.0577,0.0089 -0.0977,-0.0266 -0.0977,-0.0888 v -0.0177 l 0.684,-4.4097 c 0.0222,-0.1288 0.1376,-0.2576 0.2531,-0.2798 l 0.6973,-0.1332 c 0.111,-0.0222 0.1554,0.0444 0.1999,0.1421 l 0.8705,1.9894 c 0.0177,0.04 0.0222,0.0533 0.0399,0.0489 0.0178,0 0.0356,-0.0133 0.04,-0.0622 l 0.3553,-2.2781 c 0.0133,-0.071 0.0755,-0.1377 0.1377,-0.151 l 0.8572,-0.1643 c 0.0577,-0.0089 0.0933,0.0267 0.0933,0.0844 v 0.0266 z"
     fill="#fecd19"
     id="path165" />
  <path
     d="m 70.3686,47.03685 -0.9726,0.182 c -0.0578,0.0089 -0.0977,-0.0355 -0.0977,-0.0977 l -0.0178,-0.8659 -1.0171,0.1909 -0.302,0.9237 c -0.0222,0.0666 -0.0755,0.1332 -0.1332,0.1421 l -1.0126,0.191 c -0.0533,0.0089 -0.08,-0.0178 -0.08,-0.0666 0,-0.0134 0.0045,-0.0311 0.0133,-0.0533 l 1.3813,-4.0811 c 0.2221,-0.6617 0.6751,-0.8704 1.2169,-0.9725 0.5419,-0.1022 0.9549,-0.0578 0.9771,0.5595 l 0.1466,3.7924 c 0,0.0755 -0.0444,0.1377 -0.1066,0.151 z m -1.1147,-3.3573 c 0,-0.0577 0,-0.0888 -0.0533,-0.0799 -0.0533,0.0089 -0.0578,0.04 -0.0755,0.1021 l -0.5374,1.6875 0.6839,-0.1288 -0.0222,-1.5809 z"
     fill="#fecd19"
     id="path166" />
  <path
     d="m 73.5131,45.53595 -0.1244,0.786 c -0.0133,0.0755 -0.0577,0.1243 -0.1332,0.151 -0.2177,0.0843 -0.5996,0.1865 -0.9016,0.2442 -0.644,0.1243 -1.2791,0.0133 -1.2791,-0.8304 0,-0.0977 0.0133,-0.2087 0.0266,-0.3286 l 0.5063,-3.2685 c 0.0134,-0.071 0.08,-0.1421 0.1422,-0.151 l 0.9326,-0.1776 c 0.0578,-0.0089 0.0933,0.0267 0.0933,0.0844 v 0.0266 l -0.5063,3.2685 c -0.0044,0.0444 -0.0133,0.0843 -0.0133,0.1199 0,0.1421 0.0666,0.182 0.2354,0.1509 l 0.9238,-0.1776 c 0.0577,-0.0089 0.0977,0.0267 0.0977,0.0888 v 0.0178 z"
     fill="#fecd19"
     id="path167" />
  <path
     d="m 77.2571,41.30815 -0.1243,0.8038 c -0.0133,0.0711 -0.0578,0.1288 -0.1199,0.1421 0,0 -0.0045,0 -0.0134,0 -0.2265,0.0267 -0.8749,0.0844 -1.2835,0.1643 -0.1599,0.0311 -0.3242,0.1199 -0.3242,0.3242 0,0.0888 0.0577,0.1332 0.2531,0.2221 l 0.6973,0.3197 c 0.4131,0.1821 0.573,0.4974 0.573,0.9326 0,1.1679 -0.8972,1.8118 -1.8699,1.9939 -0.4663,0.0888 -0.8349,0.0888 -1.1236,0.0488 -0.0533,-0.0089 -0.0977,-0.0311 -0.0977,-0.0888 v -0.0178 l 0.1199,-0.7904 c 0.0133,-0.0711 0.0622,-0.1377 0.1332,-0.151 0,0 0.0045,0 0.0134,0 0.2353,-0.0178 0.8394,-0.0666 1.1414,-0.1243 0.2265,-0.0445 0.4175,-0.1688 0.4175,-0.4486 0,-0.0932 -0.0578,-0.1509 -0.2221,-0.2398 L 74.69,44.00815 c -0.3331,-0.1731 -0.493,-0.5506 -0.493,-0.937 0,-1.1235 0.8039,-1.612 1.7144,-1.7852 0.453,-0.0843 1.0437,-0.1154 1.2702,-0.0843 0.0444,0.0088 0.0844,0.0266 0.0844,0.0843 v 0.0178 z"
     fill="#fecd19"
     id="path168" />
  <defs
     id="defs169">
    <linearGradient
       id="paint0_linear_265_8159"
       x1="52.7187"
       y1="8.0918598"
       x2="52.7187"
       y2="81.839996"
       gradientUnits="userSpaceOnUse">
      <stop
         stop-color="#1F9C7D"
         id="stop168" />
      <stop
         offset="1"
         stop-color="#10101C"
         id="stop169" />
    </linearGradient>
  </defs>
</svg>
