<svg width="178" height="244" viewBox="0 0 178 244" fill="none" xmlns="http://www.w3.org/2000/svg">
<path d="M89.0146 1.83409e-06C76.4255 0.00474917 65.9182 9.22491 64.1196 21.398C64.1001 21.4077 64.0807 21.4174 64.0612 21.4368L14.1059 49.9739C9.81732 52.3278 6.23866 55.8053 3.74916 60.0287C1.26938 64.2328 -0.0239915 69.0665 0.00518236 74.0067V124.581C-0.0920638 130.413 1.10406 142.947 10.0313 161.565C21.0395 184.523 40.1387 209.195 66.7744 234.923C72.7259 240.667 80.6125 243.835 88.9951 243.835C97.3778 243.835 105.264 240.667 111.206 234.923C137.842 209.214 156.922 184.571 167.94 161.672C176.896 143.034 178.092 130.451 177.995 124.591V73.9776C177.995 69.0858 176.682 64.2812 174.212 60.0772C171.742 55.8828 168.192 52.3956 163.933 50.0126L113.958 21.4561C113.958 21.4561 113.919 21.4368 113.89 21.4174C112.092 9.22492 101.604 0.00474917 89.0146 1.83409e-06ZM89.0146 1.83409e-06C89.0178 6.114e-07 89.0211 0 89.0243 0H89.0049C89.0081 0 89.0113 6.114e-07 89.0146 1.83409e-06Z" fill="#10101C"/>
<path d="M89.0146 1.83409e-06C76.4255 0.00474917 65.9182 9.22491 64.1196 21.398C64.1001 21.4077 64.0807 21.4174 64.0612 21.4368L14.1059 49.9739C9.81732 52.3278 6.23866 55.8053 3.74916 60.0287C1.26938 64.2328 -0.0239915 69.0665 0.00518236 74.0067V124.581C-0.0920638 130.413 1.10406 142.947 10.0313 161.565C21.0395 184.523 40.1387 209.195 66.7744 234.923C72.7259 240.667 80.6125 243.835 88.9951 243.835C97.3778 243.835 105.264 240.667 111.206 234.923C137.842 209.214 156.922 184.571 167.94 161.672C176.896 143.034 178.092 130.451 177.995 124.591V73.9776C177.995 69.0858 176.682 64.2812 174.212 60.0772C171.742 55.8828 168.192 52.3956 163.933 50.0126L113.958 21.4561C113.958 21.4561 113.919 21.4368 113.89 21.4174C112.092 9.22492 101.604 0.00474917 89.0146 1.83409e-06ZM89.0146 1.83409e-06C89.0178 6.114e-07 89.0211 0 89.0243 0H89.0049C89.0081 0 89.0113 6.114e-07 89.0146 1.83409e-06Z" stroke="black"/>
<path fill-rule="evenodd" clip-rule="evenodd" d="M170.993 124.63V73.9585C170.993 70.3163 170.02 66.7322 168.172 63.584C166.325 60.4358 163.67 57.8398 160.48 56.0574L110.476 27.4912C109.776 31.9181 106.82 39.9871 95.8407 50.9137C94.0125 52.7349 91.5813 53.7423 88.9946 53.7423C86.4078 53.7423 83.9767 52.7445 82.1484 50.9137C71.1888 39.9968 68.2228 31.9277 67.5226 27.4912L17.5284 56.0477C14.3193 57.801 11.645 60.3971 9.79731 63.5453C7.93991 66.6934 6.9869 70.2969 7.01607 73.9391V124.62C6.86048 133.9 10.6142 170.942 71.6653 229.886C76.4498 234.507 82.7319 236.822 89.0043 236.822C95.2767 236.822 101.539 234.507 106.334 229.886C167.394 170.942 171.158 133.9 170.993 124.62V124.63Z" fill="url(#paint0_linear_3702_26906)"/>
<path opacity="0.4" fill-rule="evenodd" clip-rule="evenodd" d="M71.6753 229.896C76.4598 234.516 82.7419 236.831 89.0143 236.831V53.7423C86.4275 53.7423 83.9964 52.7445 82.1682 50.9138C71.2085 39.9968 68.2425 31.9277 67.5423 27.4912L17.5384 56.0671C17.1396 56.2899 16.7409 56.5127 16.3617 56.7645C13.668 58.4791 11.4216 60.8136 9.80728 63.5646C7.94988 66.7128 6.99687 70.3163 7.02604 73.9585V124.64C7.02604 124.93 7.02604 125.25 7.02604 125.589C7.16219 136.254 12.5302 172.802 71.6753 229.905V229.896Z" fill="#563B9A"/>
<path d="M89.0146 3.49691C99.9062 3.49691 108.97 11.5853 110.457 22.0567C110.603 23.0932 111.294 23.9359 112.208 24.459C112.208 24.459 112.218 24.459 112.227 24.4687L162.221 53.0252C165.946 55.1079 169.048 58.1495 171.207 61.8208C173.366 65.492 174.504 69.6864 174.504 73.9583V124.601C174.601 130.151 173.444 142.134 164.789 160.151C153.965 182.673 135.119 206.986 108.785 232.404C103.504 237.519 96.4831 240.328 89.0146 240.328C81.5461 240.328 74.5249 237.519 69.2347 232.404C7.61955 172.918 3.35045 134.878 3.52549 124.601V73.9776C3.48659 69.6767 4.61465 65.463 6.78324 61.7917C8.95183 58.1108 12.0734 55.0691 15.8271 53.0155L65.8019 24.459C65.8019 24.459 65.8117 24.459 65.8214 24.459C66.7355 23.9456 67.4259 23.0932 67.5718 22.0567C69.0597 11.5853 78.1327 3.49691 89.0243 3.49691M89.0243 0C76.4309 0 65.9186 9.22178 64.1196 21.398C64.1001 21.4077 64.0807 21.4174 64.0612 21.4368L14.1059 49.9739C9.81732 52.3278 6.23866 55.8053 3.74916 60.0287C1.26938 64.2328 -0.0239915 69.0665 0.00518236 74.0067V124.581C-0.0920638 130.413 1.10406 142.947 10.0313 161.565C21.0395 184.523 40.1387 209.195 66.7744 234.923C72.7259 240.667 80.6125 243.835 88.9951 243.835C97.3778 243.835 105.264 240.667 111.206 234.923C137.842 209.214 156.922 184.571 167.94 161.672C176.896 143.034 178.092 130.451 177.995 124.591V73.9776C177.995 69.0858 176.682 64.2812 174.212 60.0772C171.742 55.8828 168.192 52.3956 163.933 50.0126L113.958 21.4561C113.958 21.4561 113.919 21.4368 113.89 21.4174C112.091 9.22178 101.598 0 89.0049 0L89.0243 0Z" fill="url(#paint1_linear_3702_26906)"/>
<path d="M89.0051 44.0944C76.616 31.7534 77.0244 25.0987 77.0244 25.0987C77.0244 18.4923 82.3827 13.1355 89.0051 13.1355C95.6276 13.1355 100.996 18.4923 100.996 25.0987C100.996 25.0987 101.394 31.7534 89.0051 44.0944Z" fill="white"/>
<path d="M107.171 25.0405C107.132 15.0923 98.9826 6.99414 89.0051 6.99414C79.0276 6.99414 70.8881 15.0923 70.8395 25.0309C70.8006 27.2685 71.6856 35.5506 84.6387 48.4534C85.8057 49.6158 87.3616 50.2551 89.0051 50.2551C90.6486 50.2551 92.2045 49.6158 93.3715 48.4534C106.315 35.5506 107.21 27.2685 107.171 25.0502V25.0405ZM89.0051 44.0944C76.616 31.7534 77.0244 25.0987 77.0244 25.0987C77.0244 18.4923 82.3827 13.1355 89.0051 13.1355C95.6276 13.1355 100.996 18.4923 100.996 25.0987C100.996 25.0987 101.394 31.7534 89.0051 44.0944Z" fill="#E94560"/>
<path d="M89.0149 18.8216C87.2742 18.8216 85.8738 20.2165 85.8738 21.9601C85.8738 23.7038 87.2742 25.0986 89.0149 25.0986C90.7556 25.0986 92.1559 23.6941 92.1559 21.9601C92.1559 20.2262 90.7459 18.8216 89.0149 18.8216Z" fill="#E94560"/>
<path d="M163.457 72.6893C161.949 68.1849 158.789 64.2424 154.704 61.7917L150.941 59.5831L121.086 42.0985C118.218 40.4227 113.044 37.3811 108.182 34.5332C107.54 35.8797 106.733 37.352 105.731 38.931C110.71 41.7111 116.389 44.8883 118.743 46.1863L148.996 63.0413L152.74 65.1336C156.124 67.071 158.769 70.2095 160.082 73.8807C161.064 76.3605 161.113 79.1697 161.103 81.8142L161.201 90.4451L161.57 124.959V124.978C161.628 129.512 160.86 134.152 159.664 138.656C155.375 154.523 146.75 168.995 137.229 182.324C128.078 195.042 116.808 207.374 105.702 218.61C117.07 207.626 128.633 195.469 138.066 182.944C147.975 169.673 157.019 155.22 161.706 139.208C163.048 134.607 163.953 129.86 164.001 124.959L164.371 90.4257L164.468 81.7948C164.575 78.7822 164.478 75.5856 163.437 72.699H163.447L163.457 72.6893Z" fill="white" fill-opacity="0.2"/>
<path d="M56.86 41.9187L27.0054 59.4033L23.242 61.6118C19.1285 64.0238 15.9485 67.9857 14.4607 72.49C13.4104 75.3767 13.3715 78.583 13.459 81.5956L13.5563 90.2265L13.9258 124.74V124.779C14.7135 143.978 25.1189 161.511 35.6506 177C43.8193 188.537 53.3689 199.386 63.2005 209.528L73.3432 219.486L63.4241 209.325C47.4952 192.092 32.4123 173.281 22.96 151.679C19.3424 143.203 16.3764 134.001 16.4056 124.779V124.74H16.4153L16.7849 90.2265L16.8821 81.5956C16.8627 78.9511 16.9016 76.142 17.8643 73.6622C19.1577 69.9909 21.8125 66.8524 25.2064 64.9441L28.9504 62.8517C38.1596 57.7178 61.4208 44.7666 72.2152 38.7415C71.2135 37.1625 70.4064 35.6901 69.7646 34.334C64.8925 37.2013 59.7385 40.2526 56.86 41.8993V41.9187Z" fill="#10101C" fill-opacity="0.2"/>
<g filter="url(#filter0_d_3702_26906)">
<path fill-rule="evenodd" clip-rule="evenodd" d="M120.942 82.2382L118.121 82.7485C117.971 82.7745 117.897 82.7131 117.912 82.5473L118.886 74.3556C119.063 72.8789 119.938 71.931 121.379 71.6703L122.715 71.4282C125.892 70.8528 127.051 72.417 126.816 74.4114C126.669 75.5697 126.015 76.7448 124.754 77.5995L126.211 81.0315C126.271 81.1842 126.198 81.2866 126.034 81.3164L122.916 81.8807C122.799 81.903 122.694 81.8621 122.649 81.7503L121.533 79.0315L121.179 81.9868C121.164 82.1377 121.076 82.214 120.942 82.2382ZM122.302 73.9161L122.138 73.9459L121.813 76.6274L121.978 76.5976C122.957 76.4207 123.523 75.782 123.625 74.9887C123.713 74.1973 123.282 73.7392 122.302 73.9161Z" fill="#EEEEEE"/>
<path d="M110.621 83.8508C111.2 84.0444 112.314 83.9774 113.027 83.847C115.967 83.3163 117.302 81.4951 117.494 79.8657C117.671 78.3443 117.135 77.6217 115.71 77.0743L115.264 76.9011C114.728 76.6851 114.417 76.5473 114.462 76.1674C114.506 75.7875 114.878 75.4523 115.486 75.3406C116.303 75.1935 116.941 75.2717 117.313 75.3536C117.46 75.3871 117.565 75.3071 117.58 75.1562L117.859 72.8564C117.874 72.7354 117.83 72.6385 117.71 72.6143C117.234 72.5063 116.432 72.4728 115.527 72.6367C112.928 73.1059 111.342 74.9886 111.135 76.6795C111.002 77.8508 111.241 78.7167 112.667 79.3089L113.23 79.5342C113.268 79.5496 113.305 79.5646 113.341 79.5793L113.345 79.5806C113.888 79.8003 114.237 79.9412 114.197 80.2828C114.152 80.6925 113.723 81.0389 112.98 81.1729C112.03 81.3443 111.45 81.2567 111.006 81.158C110.857 81.1394 110.754 81.2195 110.739 81.3703L110.474 83.6087C110.459 83.7446 110.504 83.8117 110.623 83.8508H110.621Z" fill="#EEEEEE"/>
<path d="M105.184 80.6628C103.759 80.0706 103.52 79.2047 103.652 78.0334H103.654C103.861 76.3425 105.447 74.4599 108.047 73.9906C108.952 73.8267 109.754 73.8602 110.23 73.9682C110.349 73.9924 110.394 74.0893 110.379 74.2103L110.099 76.5101C110.084 76.661 109.982 76.741 109.832 76.7075C109.461 76.6256 108.823 76.5474 108.006 76.6945C107.397 76.8062 107.026 77.1414 106.981 77.5213C106.936 77.9012 107.248 78.039 107.784 78.255L108.229 78.4282C109.655 78.9756 110.191 79.6982 110.013 81.2196C109.821 82.849 108.487 84.6702 105.546 85.2009C104.833 85.3313 103.72 85.3983 103.141 85.2047C103.022 85.1656 102.977 85.0985 102.992 84.9626L103.257 82.7242C103.272 82.5734 103.374 82.4933 103.524 82.5119C103.968 82.6088 104.548 82.6982 105.498 82.5268C106.24 82.3928 106.67 82.0464 106.714 81.6367C106.755 81.2951 106.406 81.1542 105.862 80.9345C105.825 80.9194 105.787 80.904 105.748 80.8881L105.184 80.6628Z" fill="#EEEEEE"/>
<path d="M102.686 77.8508C102.82 77.8266 102.908 77.7502 102.923 77.5994L103.203 75.2549C103.218 75.0891 103.143 75.0277 102.994 75.0538L98.6423 75.8396C97.0544 76.1264 96.3416 76.8955 96.1494 78.5249L95.4124 84.618C95.2202 86.2474 95.7856 86.7855 97.3734 86.4988L101.753 85.7073C101.887 85.6831 101.975 85.6068 101.99 85.4559L102.27 83.1115C102.285 82.9457 102.21 82.8843 102.061 82.9103L98.7486 83.51L98.8811 82.3535L101.777 81.8303C101.911 81.8061 101.999 81.7297 102.014 81.5789L102.294 79.2344C102.309 79.0686 102.234 79.0072 102.085 79.0333L99.2188 79.551L99.3364 78.456L102.676 77.8526L102.686 77.8508Z" fill="#EEEEEE"/>
<path d="M89.8088 77.4374C89.9581 77.4113 90.0327 77.4728 90.0178 77.6385L89.2807 83.8061C89.1632 84.8712 89.652 85.3628 90.1279 85.4262C90.6335 85.1859 91.2717 84.4876 91.3892 83.4243L92.1262 77.2269C92.1412 77.0761 92.2289 76.9998 92.3632 76.9756L95.1845 76.4653C95.3319 76.4392 95.4065 76.5007 95.3916 76.6664L94.6546 82.834C94.3896 85.1171 92.714 87.5211 89.8181 88.0444C86.9222 88.5677 85.7485 86.6794 86.0135 84.3964L86.7505 78.199C86.7655 78.0482 86.8532 77.9718 86.9875 77.9476L89.8088 77.4374Z" fill="#EEEEEE"/>
<path d="M82.5655 81.3556C83.2335 81.2345 83.9463 81.2848 84.3474 81.3761C84.4967 81.3947 84.5993 81.3165 84.6143 81.1638L84.8792 78.8658C84.8941 78.7299 84.8643 78.6591 84.7449 78.6219C84.284 78.4822 83.4089 78.5064 82.3826 78.6908C79.0128 79.2997 76.8614 82.4598 76.5218 85.2792C76.1822 88.0985 77.4622 90.2792 80.5503 89.7205C83.5208 89.1842 85.0024 86.8136 85.3718 83.7522L85.4745 82.8547C85.4894 82.7038 85.4147 82.6274 85.2655 82.6535L81.5243 83.3295C81.3899 83.3537 81.3022 83.43 81.2873 83.5809L81.0373 85.741C81.0224 85.9086 81.097 85.9682 81.2463 85.9421L82.1662 85.7764C82.0188 86.4896 81.6176 86.8732 80.9944 86.9868C80.2667 87.119 79.5837 86.4226 79.8039 84.579C80.011 82.8882 81.0037 81.6349 82.5636 81.3537L82.5655 81.3556Z" fill="#EEEEEE"/>
<path fill-rule="evenodd" clip-rule="evenodd" d="M75.9581 85.1731C75.6204 87.9905 73.8851 90.9272 70.9892 91.4505C68.0933 91.9737 66.9775 89.5529 67.3171 86.7354C67.6548 83.9179 69.3901 80.9813 72.286 80.458C75.1819 79.9347 76.2977 82.3556 75.9581 85.1731ZM71.9781 83.0744C71.4575 83.4077 70.7914 84.4524 70.5843 86.1432C70.3772 87.8341 70.8381 88.6758 71.2989 88.8304C71.8195 88.497 72.4857 87.4524 72.6928 85.7615C72.8999 84.0706 72.439 83.2289 71.9781 83.0744Z" fill="#EEEEEE"/>
<path d="M61.3519 93.0127L65.7312 92.2213C65.8656 92.1971 65.9533 92.1208 65.9682 91.9699L66.2481 89.6254C66.263 89.4597 66.1884 89.3982 66.0391 89.4243L62.7271 90.0239L62.8596 88.8675L65.7555 88.3442C65.8898 88.32 65.9775 88.2437 65.9925 88.0929L66.2723 85.7484C66.2873 85.5826 66.2126 85.5212 66.0634 85.5472L63.1973 86.0649L63.3149 84.97L66.6549 84.3666C66.7892 84.3424 66.8769 84.2661 66.8918 84.1152L67.1717 81.7707C67.1866 81.605 67.112 81.5435 66.9627 81.5696L62.6114 82.3554C61.0235 82.6422 60.3107 83.4113 60.1185 85.0407L59.3815 91.1338C59.1893 92.7632 59.7547 93.3014 61.3426 93.0146L61.3519 93.0127Z" fill="#EEEEEE"/>
<path d="M58.9709 88.5267C58.6014 91.5881 57.1199 93.9587 54.1493 94.495V94.4931C51.0612 95.0518 49.7812 92.8693 50.1208 90.0518C50.4604 87.2324 52.6118 84.0723 55.9817 83.4634C57.0061 83.279 57.883 83.2548 58.3439 83.3945C58.4633 83.4317 58.4932 83.5025 58.4783 83.6384L58.2133 85.9364C58.1984 86.0872 58.0957 86.1673 57.9465 86.1486C57.5453 86.0574 56.8325 86.0071 56.1645 86.1282C54.6046 86.4094 53.6119 87.6626 53.4048 89.3535C53.1846 91.197 53.8676 91.8935 54.5953 91.7613C55.2185 91.6477 55.6197 91.2622 55.7671 90.5508L54.8472 90.7166C54.6979 90.7427 54.6233 90.6831 54.6382 90.5155L54.8882 88.3553C54.9031 88.2045 54.9909 88.1282 55.1252 88.1039L58.8664 87.428C59.0138 87.4019 59.0884 87.4783 59.0735 87.6291L58.9709 88.5267Z" fill="#EEEEEE"/>
<path fill-rule="evenodd" clip-rule="evenodd" d="M139.409 89.752L143.363 89.0351V89.0332C153.247 87.2437 156.585 94.0146 155.573 102.273C154.564 110.534 149.468 118.743 139.586 120.532L129.747 122.316C129.309 122.394 129.087 122.216 129.131 121.726L132.031 97.6756C132.559 93.3237 135.153 90.5286 139.413 89.7576L139.409 89.752ZM145.912 104.02V104.022C146.485 99.3106 145.386 96.2175 142.486 96.7408L141.564 96.9084L139.631 113.059L140.553 112.892C143.451 112.368 145.341 108.731 145.912 104.02Z" fill="#EEEEEE"/>
<path d="M127.859 114.577L118.503 116.271L121.181 93.8414C121.225 93.3517 121.003 93.1729 120.565 93.2511L112.217 94.7632C111.821 94.8358 111.56 95.0574 111.515 95.5043L108.616 119.555L108.619 119.551C108.048 124.348 109.718 125.936 114.419 125.083L126.939 122.817C127.334 122.744 127.596 122.523 127.64 122.076L128.475 115.167C128.519 114.677 128.297 114.499 127.859 114.577Z" fill="#EEEEEE"/>
<path fill-rule="evenodd" clip-rule="evenodd" d="M96.4518 97.4411C105.85 95.741 109.278 100.342 108.577 106.219H108.575C108.136 109.635 106.203 113.1 102.469 115.622L106.774 125.728C106.951 126.178 106.729 126.482 106.246 126.569L97.0209 128.24C96.6701 128.303 96.3604 128.182 96.2316 127.854H96.2279L92.9345 119.847L91.8803 128.551C91.8374 128.998 91.5743 129.219 91.1768 129.292L82.8324 130.804C82.3939 130.882 82.1719 130.704 82.2167 130.214L85.1163 106.076C85.6444 101.724 88.2343 98.929 92.4979 98.1581L96.4518 97.4411ZM94.2519 112.674C97.1515 112.151 98.8196 110.266 99.1294 107.931V107.933C99.3906 105.603 98.1181 104.253 95.2184 104.776L94.7351 104.864L93.7686 112.763L94.2519 112.674Z" fill="#EEEEEE"/>
<path fill-rule="evenodd" clip-rule="evenodd" d="M71.9165 101.663C69.5076 102.1 67.3692 103.098 65.5182 104.491C64.4901 105.266 63.5497 106.164 62.7007 107.154C62.3611 107.551 62.0364 107.963 61.7267 108.387C59.245 111.782 57.7075 116.022 57.2018 120.175C56.9648 122.121 56.9648 124.003 57.213 125.722C57.2298 125.838 57.2466 125.951 57.2652 126.065C57.5657 127.877 58.1497 129.497 59.0341 130.81C59.2002 131.056 59.3756 131.292 59.5622 131.515C59.8738 131.888 60.2153 132.229 60.5847 132.534C60.6594 132.596 60.734 132.655 60.8105 132.713C60.9635 132.828 61.1221 132.94 61.2844 133.044C61.5289 133.201 61.7845 133.344 62.0495 133.473C62.2267 133.558 62.4096 133.637 62.5962 133.709C63.2511 133.962 63.9658 134.136 64.7439 134.216C64.9659 134.238 65.1935 134.255 65.4249 134.262C66.2366 134.29 67.1098 134.225 68.0484 134.055C76.6148 132.502 81.7517 123.849 82.7631 115.545C83.7744 107.242 80.4792 100.115 71.9146 101.665L71.9165 101.663ZM73.1032 117.294C73.008 118.072 72.8793 118.804 72.7225 119.489C72.6292 119.901 72.5266 120.294 72.4147 120.672C72.3046 121.048 72.1851 121.408 72.0601 121.75C71.9351 122.093 71.8026 122.417 71.6664 122.724C71.3007 123.543 70.8995 124.24 70.4909 124.808C70.3883 124.949 70.2856 125.083 70.183 125.21L70.1735 125.222L70.1732 125.222L70.172 125.223C70.1237 125.282 70.0767 125.339 70.0281 125.393C69.668 125.806 69.3116 126.121 68.9739 126.335C68.7183 126.249 68.4626 126.093 68.2201 125.864C68.0185 125.672 67.8245 125.428 67.6491 125.132C67.5782 125.013 67.511 124.886 67.4457 124.75C67.2516 124.342 67.0856 123.856 66.9606 123.288C66.9195 123.098 66.8822 122.901 66.8505 122.694C66.7703 122.177 66.7236 121.601 66.7143 120.966C66.7031 120.205 66.7497 119.359 66.8635 118.424C67.0931 116.555 67.5147 114.955 68.0335 113.633C68.0764 113.523 68.1212 113.415 68.166 113.309C68.2555 113.097 68.3469 112.892 68.4402 112.694C68.4869 112.596 68.5335 112.499 68.5821 112.404C68.7724 112.026 68.9702 111.678 69.1717 111.361C69.3228 111.125 69.4758 110.905 69.6307 110.704C69.7333 110.57 69.836 110.443 69.9386 110.326C70.2987 109.912 70.6551 109.598 70.9928 109.383C71.3343 109.497 71.6758 109.737 71.9855 110.111C72.0639 110.205 72.1385 110.307 72.2113 110.417C72.284 110.527 72.3549 110.646 72.4221 110.773C72.7263 111.346 72.9726 112.093 73.1162 113.026C73.1282 113.1 73.1383 113.175 73.1485 113.251L73.1487 113.253C73.1528 113.283 73.1568 113.314 73.161 113.344C73.2151 113.776 73.2469 114.247 73.2543 114.754C73.2655 115.516 73.2189 116.361 73.1032 117.296V117.294Z" fill="#EEEEEE"/>
<path d="M60.3537 104.897C60.4861 104.433 60.3089 104.158 59.8256 104.247L51.4364 105.765C51.0819 105.83 50.7759 106.061 50.6882 106.473L46.7772 120.7L45.6334 110.022C45.3684 107.525 44.1388 106.78 41.7224 107.219C39.3061 107.655 37.8115 108.892 36.9345 111.553L33.1579 123.163L32.5421 109.845C32.5421 109.45 32.2324 109.242 31.8387 109.314L23.1397 110.89C22.7012 110.968 22.4792 111.271 22.524 111.703L25.2016 137.463L25.2109 137.459C25.474 140.221 26.7932 141.385 29.8664 140.83C32.9395 140.275 34.4341 138.599 35.5332 135.592L39.4423 124.877L40.9369 134.614C41.3325 137.35 42.5192 138.539 45.5924 137.985C48.6655 137.43 50.2926 135.728 51.2592 132.744L60.3518 104.895L60.3537 104.897Z" fill="#EEEEEE"/>
<path d="M73.6424 139.024C72.4986 138.573 70.5226 138.579 67.8431 139.065C58.09 140.832 52.1172 149.461 51.1077 157.765L51.1114 157.77C50.1001 166.07 54.2294 172.873 63.9826 171.107C66.8374 170.59 69.0355 169.753 70.3528 168.768C70.5263 168.649 70.5711 168.465 70.6159 168.105L71.4052 161.42C71.4462 160.884 71.1831 160.757 70.6999 161.02C69.5598 161.666 67.7592 162.474 66.5725 162.69C62.2678 163.47 60.1574 160.997 60.7732 156.014C61.3889 151.031 64.1561 147.675 68.4608 146.897C69.6475 146.683 71.4052 146.847 72.4146 147.146C72.8531 147.243 73.1592 147.055 73.2039 146.565L74.038 139.787C74.0828 139.383 73.9503 139.187 73.6443 139.024H73.6424Z" fill="#EEEEEE"/>
<path d="M93.0594 134.763L101.404 133.251L101.406 133.253C101.844 133.175 102.066 133.353 102.021 133.843L99.8271 152.016C99.0378 158.742 94.0745 165.832 85.508 167.381C76.9416 168.93 73.471 163.372 74.264 156.644L74.2602 156.649L76.4546 138.387C76.4975 137.94 76.7606 137.718 77.158 137.646L85.5024 136.134C85.9409 136.055 86.163 136.234 86.1182 136.724L83.9239 154.897C83.5731 158.035 85.0229 159.484 86.4279 159.666C87.9225 158.955 89.8108 156.904 90.1616 153.767L92.356 135.504C92.3989 135.057 92.662 134.836 93.0594 134.763Z" fill="#EEEEEE"/>
<path fill-rule="evenodd" clip-rule="evenodd" d="M114.275 130.746L110.759 131.383H110.763C106.503 132.154 103.91 134.949 103.382 139.301L100.482 163.439C100.437 163.929 100.659 164.107 101.098 164.029L109.442 162.517C109.84 162.444 110.103 162.223 110.147 161.776L110.851 155.943L111.289 155.865C121.171 154.076 126.092 147.349 126.883 140.754C127.672 134.158 124.157 128.957 114.275 130.746ZM117.216 142.506C116.865 145.377 115.109 147.806 112.209 148.329L111.726 148.417L112.956 138.361L113.439 138.271C116.339 137.748 117.566 139.631 117.217 142.504L117.216 142.506Z" fill="#EEEEEE"/>
</g>
<path d="M89.3048 221.782C87.8502 221.782 87.1858 220.885 87.3295 219.827C87.4552 218.769 88.2094 217.836 88.8917 216.796L92.0881 211.918C92.16 211.792 92.2677 211.738 92.4114 211.738H95.9849C96.2003 211.738 96.2901 211.864 96.1644 212.061L91.7649 218.482H92.9142L93.0219 217.531C93.0399 217.352 93.1476 217.28 93.3092 217.28H96.5415C96.7211 217.28 96.8109 217.388 96.7929 217.567L96.6852 218.482H97.3317C97.5112 218.482 97.601 218.571 97.5831 218.769L97.2419 221.531C97.2239 221.71 97.1162 221.782 96.9546 221.782H96.2722L96.0028 224.042C95.9849 224.221 95.8771 224.293 95.7155 224.293H92.4832C92.3036 224.293 92.2138 224.203 92.2318 224.006L92.5012 221.782H89.3048Z" fill="white" fill-opacity="0.8"/>
<path d="M80.8286 224.29C79.3561 224.29 78.6738 223.376 78.7995 222.335C78.9431 221.17 79.4459 220.56 80.254 219.699L82.3011 217.583C82.7321 217.134 83.4145 216.363 83.4863 215.753C83.5581 215.197 83.2169 214.803 82.337 214.803C81.529 214.803 80.8645 215.018 80.4156 215.197C80.2181 215.287 80.1103 215.179 80.1283 214.982L80.4695 212.31C80.4874 212.148 80.5413 212.059 80.685 212.023C81.2776 211.79 82.3011 211.557 83.4145 211.557C86.557 211.557 87.6344 213.422 87.401 215.359C87.2214 216.776 86.5749 217.798 85.3898 219.035L83.5043 220.99H86.539C86.7186 220.99 86.8084 221.08 86.7904 221.277L86.4492 224.039C86.4313 224.219 86.3235 224.29 86.1619 224.29H80.8286Z" fill="white" fill-opacity="0.8"/>
<path d="M75.8988 217.261C74.3545 215.377 74.3186 214.337 74.3725 213.961C74.5341 212.598 75.7731 211.521 77.1199 211.521C78.4847 211.521 79.4544 212.598 79.2928 213.961C79.2389 214.337 78.9516 215.377 76.9404 217.261C76.6171 217.566 76.1502 217.566 75.8988 217.261Z" fill="white" fill-opacity="0.8"/>
<defs>
<filter id="filter0_d_3702_26906" x="22.5183" y="71.3076" width="133.228" height="102.081" filterUnits="userSpaceOnUse" color-interpolation-filters="sRGB">
<feFlood flood-opacity="0" result="BackgroundImageFix"/>
<feColorMatrix in="SourceAlpha" type="matrix" values="0 0 0 0 0 0 0 0 0 0 0 0 0 0 0 0 0 0 127 0" result="hardAlpha"/>
<feOffset dy="2"/>
<feComposite in2="hardAlpha" operator="out"/>
<feColorMatrix type="matrix" values="0 0 0 0 0.095138 0 0 0 0 0.0372353 0 0 0 0 0.240967 0 0 0 0.5 0"/>
<feBlend mode="normal" in2="BackgroundImageFix" result="effect1_dropShadow_3702_26906"/>
<feBlend mode="normal" in="SourceGraphic" in2="effect1_dropShadow_3702_26906" result="shape"/>
</filter>
<linearGradient id="paint0_linear_3702_26906" x1="89.014" y1="27.7528" x2="89.014" y2="236.473" gradientUnits="userSpaceOnUse">
<stop stop-color="#7950E5"/>
<stop offset="1" stop-color="#10101C"/>
</linearGradient>
<linearGradient id="paint1_linear_3702_26906" x1="89.0146" y1="0.290602" x2="89.0146" y2="243.408" gradientUnits="userSpaceOnUse">
<stop stop-color="#AA89FF"/>
<stop offset="1" stop-color="#563B9A"/>
</linearGradient>
</defs>
</svg>
