<svg width="61" height="62" viewBox="0 0 61 62" fill="none" xmlns="http://www.w3.org/2000/svg">
<path fill-rule="evenodd" clip-rule="evenodd" d="M30.5 38.5292C17.8194 38.5292 7.53984 48.7961 7.53984 61.461H0C0 44.6371 13.6553 30.9987 30.5 30.9987V38.5292Z" fill="#FFC628"/>
<path fill-rule="evenodd" clip-rule="evenodd" d="M30.5 53.9695C43.1805 53.9695 53.4602 43.7025 53.4602 31.0377H61C61 47.8615 47.3447 61.5 30.5 61.5V53.9695Z" fill="#FFC628"/>
<path fill-rule="evenodd" clip-rule="evenodd" d="M30.5 8.03054C17.8194 8.03054 7.53984 18.2975 7.53984 30.9623H0C0 14.1385 13.6553 0.5 30.5 0.5V8.03054Z" fill="#FFC628"/>
<path fill-rule="evenodd" clip-rule="evenodd" d="M30.5 23.4708C43.1805 23.4708 53.4602 13.2039 53.4602 0.539001L61 0.539002C61 17.3629 47.3447 31.0013 30.5 31.0013V23.4708Z" fill="#FFC628"/>
</svg>
